<?xml version="1.0" encoding="utf-8" standalone="no"?>
<!DOCTYPE svg PUBLIC "-//W3C//DTD SVG 1.1//EN"
  "http://www.w3.org/Graphics/SVG/1.1/DTD/svg11.dtd">
<svg xmlns:xlink="http://www.w3.org/1999/xlink" width="406.761106pt" height="306.830981pt" viewBox="0 0 406.761106 306.830981" xmlns="http://www.w3.org/2000/svg" version="1.1">
 <metadata>
  <rdf:RDF xmlns:dc="http://purl.org/dc/elements/1.1/" xmlns:cc="http://creativecommons.org/ns#" xmlns:rdf="http://www.w3.org/1999/02/22-rdf-syntax-ns#">
   <cc:Work>
    <dc:type rdf:resource="http://purl.org/dc/dcmitype/StillImage"/>
    <dc:date>2026-07-13T20:01:22.838427</dc:date>
    <dc:format>image/svg+xml</dc:format>
    <dc:creator>
     <cc:Agent>
      <dc:title>Matplotlib v3.11.0, https://matplotlib.org/</dc:title>
     </cc:Agent>
    </dc:creator>
   </cc:Work>
  </rdf:RDF>
 </metadata>
 <defs>
  <style type="text/css">*{stroke-linejoin: round; stroke-linecap: butt}</style>
 </defs>
 <g id="figure_1">
  <g id="patch_1">
   <path d="M 0 306.830981 
L 406.761106 306.830981 
L 406.761106 0 
L 0 0 
L 0 306.830981 
z
" style="fill: none"/>
  </g>
  <g id="axes_1">
   <g id="patch_2">
    <path d="M 0 250.189875 
L 357.12 250.189875 
L 357.12 15.181875 
L 0 15.181875 
L 0 250.189875 
z
" style="fill: none"/>
   </g>
   <g id="FillBetweenPolyCollection_1">
    <defs>
     <path id="m5c9abf5ab5" d="M 0 -56.641106 
L 0 -56.92188 
L 0.588336 -57.764203 
L 2.353344 -61.414267 
L 2.94168 -61.695041 
L 7.060033 -61.695041 
L 7.648369 -61.414267 
L 16.47341 -65.345106 
L 17.650082 -65.906654 
L 18.826755 -66.187428 
L 28.240132 -66.468203 
L 37.065173 -72.083686 
L 38.830181 -72.364461 
L 39.418517 -77.418396 
L 42.360198 -77.69917 
L 44.125206 -79.383815 
L 47.655222 -82.191557 
L 51.185239 -82.753106 
L 53.538583 -86.40317 
L 54.126919 -91.176332 
L 54.715255 -93.141751 
L 55.303591 -96.511041 
L 56.480264 -100.161106 
L 57.0686 -102.407299 
L 58.245272 -106.618912 
L 60.01028 -108.303557 
L 60.598616 -110.268977 
L 62.363624 -115.322912 
L 62.95196 -118.130654 
L 63.540297 -118.411428 
L 64.716969 -118.972977 
L 65.305305 -119.534525 
L 66.481977 -120.657622 
L 67.658649 -120.938396 
L 68.246985 -122.342267 
L 68.835321 -128.238525 
L 72.953674 -132.169364 
L 74.718682 -132.450138 
L 75.307018 -134.415557 
L 77.072026 -136.661751 
L 78.248699 -142.277235 
L 78.837035 -142.558009 
L 79.425371 -144.804203 
L 80.602043 -148.735041 
L 81.190379 -149.858138 
L 82.955387 -150.419686 
L 83.543723 -151.542783 
L 85.308731 -155.754396 
L 87.07374 -161.36988 
L 88.838748 -161.650654 
L 90.01542 -162.492977 
L 90.603756 -163.054525 
L 91.192092 -168.389235 
L 91.780428 -168.670009 
L 92.9571 -168.950783 
L 93.545437 -169.512332 
L 94.722109 -170.635428 
L 95.310445 -175.970138 
L 99.428797 -176.531686 
L 100.017133 -177.093235 
L 100.60547 -183.831815 
L 101.193806 -185.516461 
L 101.782142 -185.797235 
L 104.135486 -186.639557 
L 104.723822 -187.201106 
L 105.312158 -191.974267 
L 105.900494 -193.378138 
L 106.48883 -193.658912 
L 107.077166 -195.905106 
L 107.665502 -198.151299 
L 109.430511 -199.274396 
L 110.607183 -199.55517 
L 111.783855 -200.959041 
L 112.372191 -202.924461 
L 112.960527 -204.88988 
L 114.725535 -208.539944 
L 115.313871 -216.96317 
L 116.490544 -217.524719 
L 117.07888 -219.209364 
L 118.255552 -219.209364 
L 121.785568 -223.701751 
L 122.962241 -224.263299 
L 123.550577 -225.386396 
L 126.492257 -230.721106 
L 127.080593 -231.282654 
L 127.668929 -231.844203 
L 128.845601 -232.686525 
L 130.022273 -232.967299 
L 134.140626 -233.528848 
L 138.258979 -236.617364 
L 140.612323 -237.740461 
L 141.200659 -238.863557 
L 141.788995 -243.917493 
L 142.377331 -243.917493 
L 145.907348 -244.479041 
L 150.0257 -244.479041 
L 150.614036 -245.602138 
L 151.790708 -246.444461 
L 152.379044 -247.286783 
L 160.027414 -247.848332 
L 160.61575 -252.902267 
L 167.087446 -253.463815 
L 168.264119 -255.990783 
L 173.559143 -259.079299 
L 174.147479 -259.079299 
L 176.500824 -259.360073 
L 177.08916 -260.202396 
L 178.854168 -262.167815 
L 180.03084 -262.167815 
L 183.560857 -263.852461 
L 184.149193 -266.940977 
L 184.737529 -267.783299 
L 185.914201 -268.064073 
L 191.797562 -270.310267 
L 194.150906 -270.310267 
L 194.739242 -270.591041 
L 195.327578 -270.871815 
L 196.50425 -271.433364 
L 197.092586 -271.994912 
L 199.445931 -271.994912 
L 200.622603 -272.275686 
L 202.387611 -272.556461 
L 202.975947 -273.118009 
L 203.564283 -273.398783 
L 205.917628 -273.679557 
L 208.859308 -273.960332 
L 219.449357 -274.241106 
L 226.50939 -275.083428 
L 230.039407 -275.644977 
L 234.746096 -276.768073 
L 239.452784 -277.048848 
L 242.982801 -277.329622 
L 248.277825 -277.610396 
L 258.867875 -278.452719 
L 271.222932 -279.014267 
L 280.047974 -279.295041 
L 284.754662 -279.295041 
L 288.873015 -279.85659 
L 312.406458 -280.137364 
L 313.58313 -280.418138 
L 318.289819 -280.418138 
L 322.996507 -280.698912 
L 324.761516 -280.979686 
L 328.291532 -283.506654 
L 328.879868 -283.787428 
L 344.764942 -287.999041 
L 345.941614 -287.999041 
L 352.413311 -288.279815 
L 354.17832 -288.56059 
L 357.12 -291.368332 
L 357.12 -56.641106 
L 357.12 -56.641106 
L 354.17832 -56.641106 
L 352.413311 -56.641106 
L 345.941614 -56.641106 
L 344.764942 -56.641106 
L 328.879868 -56.641106 
L 328.291532 -56.641106 
L 324.761516 -56.641106 
L 322.996507 -56.641106 
L 318.289819 -56.641106 
L 313.58313 -56.641106 
L 312.406458 -56.641106 
L 288.873015 -56.641106 
L 284.754662 -56.641106 
L 280.047974 -56.641106 
L 271.222932 -56.641106 
L 258.867875 -56.641106 
L 248.277825 -56.641106 
L 242.982801 -56.641106 
L 239.452784 -56.641106 
L 234.746096 -56.641106 
L 230.039407 -56.641106 
L 226.50939 -56.641106 
L 219.449357 -56.641106 
L 208.859308 -56.641106 
L 205.917628 -56.641106 
L 203.564283 -56.641106 
L 202.975947 -56.641106 
L 202.387611 -56.641106 
L 200.622603 -56.641106 
L 199.445931 -56.641106 
L 197.092586 -56.641106 
L 196.50425 -56.641106 
L 195.327578 -56.641106 
L 194.739242 -56.641106 
L 194.150906 -56.641106 
L 191.797562 -56.641106 
L 185.914201 -56.641106 
L 184.737529 -56.641106 
L 184.149193 -56.641106 
L 183.560857 -56.641106 
L 180.03084 -56.641106 
L 178.854168 -56.641106 
L 177.08916 -56.641106 
L 176.500824 -56.641106 
L 174.147479 -56.641106 
L 173.559143 -56.641106 
L 168.264119 -56.641106 
L 167.087446 -56.641106 
L 160.61575 -56.641106 
L 160.027414 -56.641106 
L 152.379044 -56.641106 
L 151.790708 -56.641106 
L 150.614036 -56.641106 
L 150.0257 -56.641106 
L 145.907348 -56.641106 
L 142.377331 -56.641106 
L 141.788995 -56.641106 
L 141.200659 -56.641106 
L 140.612323 -56.641106 
L 138.258979 -56.641106 
L 134.140626 -56.641106 
L 130.022273 -56.641106 
L 128.845601 -56.641106 
L 127.668929 -56.641106 
L 127.080593 -56.641106 
L 126.492257 -56.641106 
L 123.550577 -56.641106 
L 122.962241 -56.641106 
L 121.785568 -56.641106 
L 118.255552 -56.641106 
L 117.07888 -56.641106 
L 116.490544 -56.641106 
L 115.313871 -56.641106 
L 114.725535 -56.641106 
L 112.960527 -56.641106 
L 112.372191 -56.641106 
L 111.783855 -56.641106 
L 110.607183 -56.641106 
L 109.430511 -56.641106 
L 107.665502 -56.641106 
L 107.077166 -56.641106 
L 106.48883 -56.641106 
L 105.900494 -56.641106 
L 105.312158 -56.641106 
L 104.723822 -56.641106 
L 104.135486 -56.641106 
L 101.782142 -56.641106 
L 101.193806 -56.641106 
L 100.60547 -56.641106 
L 100.017133 -56.641106 
L 99.428797 -56.641106 
L 95.310445 -56.641106 
L 94.722109 -56.641106 
L 93.545437 -56.641106 
L 92.9571 -56.641106 
L 91.780428 -56.641106 
L 91.192092 -56.641106 
L 90.603756 -56.641106 
L 90.01542 -56.641106 
L 88.838748 -56.641106 
L 87.07374 -56.641106 
L 85.308731 -56.641106 
L 83.543723 -56.641106 
L 82.955387 -56.641106 
L 81.190379 -56.641106 
L 80.602043 -56.641106 
L 79.425371 -56.641106 
L 78.837035 -56.641106 
L 78.248699 -56.641106 
L 77.072026 -56.641106 
L 75.307018 -56.641106 
L 74.718682 -56.641106 
L 72.953674 -56.641106 
L 68.835321 -56.641106 
L 68.246985 -56.641106 
L 67.658649 -56.641106 
L 66.481977 -56.641106 
L 65.305305 -56.641106 
L 64.716969 -56.641106 
L 63.540297 -56.641106 
L 62.95196 -56.641106 
L 62.363624 -56.641106 
L 60.598616 -56.641106 
L 60.01028 -56.641106 
L 58.245272 -56.641106 
L 57.0686 -56.641106 
L 56.480264 -56.641106 
L 55.303591 -56.641106 
L 54.715255 -56.641106 
L 54.126919 -56.641106 
L 53.538583 -56.641106 
L 51.185239 -56.641106 
L 47.655222 -56.641106 
L 44.125206 -56.641106 
L 42.360198 -56.641106 
L 39.418517 -56.641106 
L 38.830181 -56.641106 
L 37.065173 -56.641106 
L 28.240132 -56.641106 
L 18.826755 -56.641106 
L 17.650082 -56.641106 
L 16.47341 -56.641106 
L 7.648369 -56.641106 
L 7.060033 -56.641106 
L 2.94168 -56.641106 
L 2.353344 -56.641106 
L 0.588336 -56.641106 
L 0 -56.641106 
z
" style="stroke: #d5397b; stroke-opacity: 0.4"/>
    </defs>
    <g clip-path="url(#p97d58711f3)">
     <use xlink:href="#m5c9abf5ab5" x="0" y="306.830981" style="fill: #d5397b; fill-opacity: 0.4; stroke: #d5397b; stroke-opacity: 0.4"/>
    </g>
   </g>
   <g id="matplotlib.axis_1">
    <g id="xtick_1">
     <g id="line2d_1">
      <defs>
       <path id="me39ada7e73" d="M 0 0 
L 0 3.5 
" style="stroke: #cccccc; stroke-width: 0.8"/>
      </defs>
      <g>
       <use xlink:href="#me39ada7e73" x="0" y="250.189875" style="fill: #cccccc; stroke: #cccccc; stroke-width: 0.8"/>
      </g>
     </g>
     <g id="text_1">
      <!-- 2024-11-10 -->
      <g style="fill: #cccccc" transform="translate(1.698714 262.562229) rotate(-315) scale(0.1 -0.1)">
       <defs>
        <path id="DejaVuSansMono-15" d="M 1166 531 
L 3309 531 
L 3309 0 
L 475 0 
L 475 531 
Q 1059 1147 1496 1619 
Q 1934 2091 2100 2284 
Q 2413 2666 2522 2902 
Q 2631 3138 2631 3384 
Q 2631 3775 2401 3997 
Q 2172 4219 1772 4219 
Q 1488 4219 1175 4116 
Q 863 4013 513 3803 
L 513 4441 
Q 834 4594 1145 4672 
Q 1456 4750 1759 4750 
Q 2444 4750 2861 4386 
Q 3278 4022 3278 3431 
Q 3278 3131 3139 2831 
Q 3000 2531 2688 2169 
Q 2513 1966 2180 1606 
Q 1847 1247 1166 531 
z
" transform="scale(0.015625)"/>
        <path id="DejaVuSansMono-13" d="M 1509 2344 
Q 1509 2516 1629 2641 
Q 1750 2766 1919 2766 
Q 2094 2766 2219 2641 
Q 2344 2516 2344 2344 
Q 2344 2169 2220 2047 
Q 2097 1925 1919 1925 
Q 1744 1925 1626 2044 
Q 1509 2163 1509 2344 
z
M 1925 4250 
Q 1484 4250 1267 3775 
Q 1050 3300 1050 2328 
Q 1050 1359 1267 884 
Q 1484 409 1925 409 
Q 2369 409 2586 884 
Q 2803 1359 2803 2328 
Q 2803 3300 2586 3775 
Q 2369 4250 1925 4250 
z
M 1925 4750 
Q 2672 4750 3055 4137 
Q 3438 3525 3438 2328 
Q 3438 1134 3055 521 
Q 2672 -91 1925 -91 
Q 1178 -91 797 521 
Q 416 1134 416 2328 
Q 416 3525 797 4137 
Q 1178 4750 1925 4750 
z
" transform="scale(0.015625)"/>
        <path id="DejaVuSansMono-17" d="M 2297 4091 
L 825 1625 
L 2297 1625 
L 2297 4091 
z
M 2194 4666 
L 2925 4666 
L 2925 1625 
L 3547 1625 
L 3547 1113 
L 2925 1113 
L 2925 0 
L 2297 0 
L 2297 1113 
L 319 1113 
L 319 1709 
L 2194 4666 
z
" transform="scale(0.015625)"/>
        <path id="DejaVuSansMono-10" d="M 1113 2009 
L 2741 2009 
L 2741 1497 
L 1113 1497 
L 1113 2009 
z
" transform="scale(0.015625)"/>
        <path id="DejaVuSansMono-14" d="M 844 531 
L 1825 531 
L 1825 4097 
L 769 3859 
L 769 4434 
L 1819 4666 
L 2450 4666 
L 2450 531 
L 3419 531 
L 3419 0 
L 844 0 
L 844 531 
z
" transform="scale(0.015625)"/>
       </defs>
       <use xlink:href="#DejaVuSansMono-15"/>
       <use xlink:href="#DejaVuSansMono-13" transform="translate(60.203125 0)"/>
       <use xlink:href="#DejaVuSansMono-15" transform="translate(120.40625 0)"/>
       <use xlink:href="#DejaVuSansMono-17" transform="translate(180.609375 0)"/>
       <use xlink:href="#DejaVuSansMono-10" transform="translate(240.8125 0)"/>
       <use xlink:href="#DejaVuSansMono-14" transform="translate(301.015625 0)"/>
       <use xlink:href="#DejaVuSansMono-14" transform="translate(361.21875 0)"/>
       <use xlink:href="#DejaVuSansMono-10" transform="translate(421.421875 0)"/>
       <use xlink:href="#DejaVuSansMono-14" transform="translate(481.625 0)"/>
       <use xlink:href="#DejaVuSansMono-13" transform="translate(541.828125 0)"/>
      </g>
     </g>
    </g>
    <g id="xtick_2">
     <g id="line2d_2">
      <g>
       <use xlink:href="#me39ada7e73" x="30.593476" y="250.189875" style="fill: #cccccc; stroke: #cccccc; stroke-width: 0.8"/>
      </g>
     </g>
     <g id="text_2">
      <!-- 2025-01-01 -->
      <g style="fill: #cccccc" transform="translate(32.29219 262.562229) rotate(-315) scale(0.1 -0.1)">
       <defs>
        <path id="DejaVuSansMono-18" d="M 647 4666 
L 3009 4666 
L 3009 4134 
L 1222 4134 
L 1222 2988 
Q 1356 3038 1492 3061 
Q 1628 3084 1766 3084 
Q 2491 3084 2916 2656 
Q 3341 2228 3341 1497 
Q 3341 759 2895 334 
Q 2450 -91 1678 -91 
Q 1306 -91 998 -41 
Q 691 9 447 109 
L 447 750 
Q 734 594 1025 517 
Q 1316 441 1619 441 
Q 2141 441 2423 716 
Q 2706 991 2706 1497 
Q 2706 1997 2414 2275 
Q 2122 2553 1600 2553 
Q 1347 2553 1106 2495 
Q 866 2438 647 2322 
L 647 4666 
z
" transform="scale(0.015625)"/>
       </defs>
       <use xlink:href="#DejaVuSansMono-15"/>
       <use xlink:href="#DejaVuSansMono-13" transform="translate(60.203125 0)"/>
       <use xlink:href="#DejaVuSansMono-15" transform="translate(120.40625 0)"/>
       <use xlink:href="#DejaVuSansMono-18" transform="translate(180.609375 0)"/>
       <use xlink:href="#DejaVuSansMono-10" transform="translate(240.8125 0)"/>
       <use xlink:href="#DejaVuSansMono-13" transform="translate(301.015625 0)"/>
       <use xlink:href="#DejaVuSansMono-14" transform="translate(361.21875 0)"/>
       <use xlink:href="#DejaVuSansMono-10" transform="translate(421.421875 0)"/>
       <use xlink:href="#DejaVuSansMono-13" transform="translate(481.625 0)"/>
       <use xlink:href="#DejaVuSansMono-14" transform="translate(541.828125 0)"/>
      </g>
     </g>
    </g>
    <g id="xtick_3">
     <g id="line2d_3">
      <g>
       <use xlink:href="#me39ada7e73" x="65.305305" y="250.189875" style="fill: #cccccc; stroke: #cccccc; stroke-width: 0.8"/>
      </g>
     </g>
     <g id="text_3">
      <!-- 2025-03-01 -->
      <g style="fill: #cccccc" transform="translate(67.004018 262.562229) rotate(-315) scale(0.1 -0.1)">
       <defs>
        <path id="DejaVuSansMono-16" d="M 2425 2497 
Q 2884 2375 3128 2064 
Q 3372 1753 3372 1288 
Q 3372 644 2939 276 
Q 2506 -91 1741 -91 
Q 1419 -91 1084 -31 
Q 750 28 428 141 
L 428 769 
Q 747 603 1056 522 
Q 1366 441 1672 441 
Q 2191 441 2469 675 
Q 2747 909 2747 1350 
Q 2747 1756 2469 1995 
Q 2191 2234 1716 2234 
L 1234 2234 
L 1234 2753 
L 1716 2753 
Q 2150 2753 2394 2943 
Q 2638 3134 2638 3475 
Q 2638 3834 2411 4026 
Q 2184 4219 1766 4219 
Q 1488 4219 1191 4156 
Q 894 4094 569 3969 
L 569 4550 
Q 947 4650 1242 4700 
Q 1538 4750 1766 4750 
Q 2447 4750 2855 4408 
Q 3263 4066 3263 3500 
Q 3263 3116 3048 2859 
Q 2834 2603 2425 2497 
z
" transform="scale(0.015625)"/>
       </defs>
       <use xlink:href="#DejaVuSansMono-15"/>
       <use xlink:href="#DejaVuSansMono-13" transform="translate(60.203125 0)"/>
       <use xlink:href="#DejaVuSansMono-15" transform="translate(120.40625 0)"/>
       <use xlink:href="#DejaVuSansMono-18" transform="translate(180.609375 0)"/>
       <use xlink:href="#DejaVuSansMono-10" transform="translate(240.8125 0)"/>
       <use xlink:href="#DejaVuSansMono-13" transform="translate(301.015625 0)"/>
       <use xlink:href="#DejaVuSansMono-16" transform="translate(361.21875 0)"/>
       <use xlink:href="#DejaVuSansMono-10" transform="translate(421.421875 0)"/>
       <use xlink:href="#DejaVuSansMono-13" transform="translate(481.625 0)"/>
       <use xlink:href="#DejaVuSansMono-14" transform="translate(541.828125 0)"/>
      </g>
     </g>
    </g>
    <g id="xtick_4">
     <g id="line2d_4">
      <g>
       <use xlink:href="#me39ada7e73" x="101.193806" y="250.189875" style="fill: #cccccc; stroke: #cccccc; stroke-width: 0.8"/>
      </g>
     </g>
     <g id="text_4">
      <!-- 2025-05-01 -->
      <g style="fill: #cccccc" transform="translate(102.892519 262.562229) rotate(-315) scale(0.1 -0.1)">
       <use xlink:href="#DejaVuSansMono-15"/>
       <use xlink:href="#DejaVuSansMono-13" transform="translate(60.203125 0)"/>
       <use xlink:href="#DejaVuSansMono-15" transform="translate(120.40625 0)"/>
       <use xlink:href="#DejaVuSansMono-18" transform="translate(180.609375 0)"/>
       <use xlink:href="#DejaVuSansMono-10" transform="translate(240.8125 0)"/>
       <use xlink:href="#DejaVuSansMono-13" transform="translate(301.015625 0)"/>
       <use xlink:href="#DejaVuSansMono-18" transform="translate(361.21875 0)"/>
       <use xlink:href="#DejaVuSansMono-10" transform="translate(421.421875 0)"/>
       <use xlink:href="#DejaVuSansMono-13" transform="translate(481.625 0)"/>
       <use xlink:href="#DejaVuSansMono-14" transform="translate(541.828125 0)"/>
      </g>
     </g>
    </g>
    <g id="xtick_5">
     <g id="line2d_5">
      <g>
       <use xlink:href="#me39ada7e73" x="137.082306" y="250.189875" style="fill: #cccccc; stroke: #cccccc; stroke-width: 0.8"/>
      </g>
     </g>
     <g id="text_5">
      <!-- 2025-07-01 -->
      <g style="fill: #cccccc" transform="translate(138.78102 262.562229) rotate(-315) scale(0.1 -0.1)">
       <defs>
        <path id="DejaVuSansMono-1a" d="M 434 4666 
L 3372 4666 
L 3372 4397 
L 1703 0 
L 1044 0 
L 2669 4134 
L 434 4134 
L 434 4666 
z
" transform="scale(0.015625)"/>
       </defs>
       <use xlink:href="#DejaVuSansMono-15"/>
       <use xlink:href="#DejaVuSansMono-13" transform="translate(60.203125 0)"/>
       <use xlink:href="#DejaVuSansMono-15" transform="translate(120.40625 0)"/>
       <use xlink:href="#DejaVuSansMono-18" transform="translate(180.609375 0)"/>
       <use xlink:href="#DejaVuSansMono-10" transform="translate(240.8125 0)"/>
       <use xlink:href="#DejaVuSansMono-13" transform="translate(301.015625 0)"/>
       <use xlink:href="#DejaVuSansMono-1a" transform="translate(361.21875 0)"/>
       <use xlink:href="#DejaVuSansMono-10" transform="translate(421.421875 0)"/>
       <use xlink:href="#DejaVuSansMono-13" transform="translate(481.625 0)"/>
       <use xlink:href="#DejaVuSansMono-14" transform="translate(541.828125 0)"/>
      </g>
     </g>
    </g>
    <g id="xtick_6">
     <g id="line2d_6">
      <g>
       <use xlink:href="#me39ada7e73" x="173.559143" y="250.189875" style="fill: #cccccc; stroke: #cccccc; stroke-width: 0.8"/>
      </g>
     </g>
     <g id="text_6">
      <!-- 2025-09-01 -->
      <g style="fill: #cccccc" transform="translate(175.257857 262.562229) rotate(-315) scale(0.1 -0.1)">
       <defs>
        <path id="DejaVuSansMono-1c" d="M 1863 2069 
Q 2266 2069 2495 2359 
Q 2725 2650 2725 3163 
Q 2725 3675 2495 3965 
Q 2266 4256 1863 4256 
Q 1444 4256 1231 3979 
Q 1019 3703 1019 3163 
Q 1019 2619 1230 2344 
Q 1441 2069 1863 2069 
z
M 738 97 
L 738 678 
Q 934 563 1156 502 
Q 1378 441 1619 441 
Q 2219 441 2526 892 
Q 2834 1344 2834 2222 
Q 2688 1909 2422 1742 
Q 2156 1575 1813 1575 
Q 1138 1575 767 1990 
Q 397 2406 397 3169 
Q 397 3922 776 4336 
Q 1156 4750 1850 4750 
Q 2663 4750 3041 4165 
Q 3419 3581 3419 2328 
Q 3419 1150 2964 529 
Q 2509 -91 1644 -91 
Q 1416 -91 1184 -42 
Q 953 6 738 97 
z
" transform="scale(0.015625)"/>
       </defs>
       <use xlink:href="#DejaVuSansMono-15"/>
       <use xlink:href="#DejaVuSansMono-13" transform="translate(60.203125 0)"/>
       <use xlink:href="#DejaVuSansMono-15" transform="translate(120.40625 0)"/>
       <use xlink:href="#DejaVuSansMono-18" transform="translate(180.609375 0)"/>
       <use xlink:href="#DejaVuSansMono-10" transform="translate(240.8125 0)"/>
       <use xlink:href="#DejaVuSansMono-13" transform="translate(301.015625 0)"/>
       <use xlink:href="#DejaVuSansMono-1c" transform="translate(361.21875 0)"/>
       <use xlink:href="#DejaVuSansMono-10" transform="translate(421.421875 0)"/>
       <use xlink:href="#DejaVuSansMono-13" transform="translate(481.625 0)"/>
       <use xlink:href="#DejaVuSansMono-14" transform="translate(541.828125 0)"/>
      </g>
     </g>
    </g>
    <g id="xtick_7">
     <g id="line2d_7">
      <g>
       <use xlink:href="#me39ada7e73" x="209.447644" y="250.189875" style="fill: #cccccc; stroke: #cccccc; stroke-width: 0.8"/>
      </g>
     </g>
     <g id="text_7">
      <!-- 2025-11-01 -->
      <g style="fill: #cccccc" transform="translate(211.146358 262.562229) rotate(-315) scale(0.1 -0.1)">
       <use xlink:href="#DejaVuSansMono-15"/>
       <use xlink:href="#DejaVuSansMono-13" transform="translate(60.203125 0)"/>
       <use xlink:href="#DejaVuSansMono-15" transform="translate(120.40625 0)"/>
       <use xlink:href="#DejaVuSansMono-18" transform="translate(180.609375 0)"/>
       <use xlink:href="#DejaVuSansMono-10" transform="translate(240.8125 0)"/>
       <use xlink:href="#DejaVuSansMono-14" transform="translate(301.015625 0)"/>
       <use xlink:href="#DejaVuSansMono-14" transform="translate(361.21875 0)"/>
       <use xlink:href="#DejaVuSansMono-10" transform="translate(421.421875 0)"/>
       <use xlink:href="#DejaVuSansMono-13" transform="translate(481.625 0)"/>
       <use xlink:href="#DejaVuSansMono-14" transform="translate(541.828125 0)"/>
      </g>
     </g>
    </g>
    <g id="xtick_8">
     <g id="line2d_8">
      <g>
       <use xlink:href="#me39ada7e73" x="245.336145" y="250.189875" style="fill: #cccccc; stroke: #cccccc; stroke-width: 0.8"/>
      </g>
     </g>
     <g id="text_8">
      <!-- 2026-01-01 -->
      <g style="fill: #cccccc" transform="translate(247.034859 262.562229) rotate(-315) scale(0.1 -0.1)">
       <defs>
        <path id="DejaVuSansMono-19" d="M 3097 4563 
L 3097 3981 
Q 2900 4097 2678 4158 
Q 2456 4219 2216 4219 
Q 1616 4219 1306 3767 
Q 997 3316 997 2438 
Q 1147 2750 1412 2917 
Q 1678 3084 2022 3084 
Q 2697 3084 3067 2670 
Q 3438 2256 3438 1497 
Q 3438 741 3056 325 
Q 2675 -91 1984 -91 
Q 1172 -91 794 492 
Q 416 1075 416 2328 
Q 416 3509 870 4129 
Q 1325 4750 2188 4750 
Q 2419 4750 2650 4701 
Q 2881 4653 3097 4563 
z
M 1972 2591 
Q 1569 2591 1337 2300 
Q 1106 2009 1106 1497 
Q 1106 984 1337 693 
Q 1569 403 1972 403 
Q 2391 403 2603 679 
Q 2816 956 2816 1497 
Q 2816 2041 2603 2316 
Q 2391 2591 1972 2591 
z
" transform="scale(0.015625)"/>
       </defs>
       <use xlink:href="#DejaVuSansMono-15"/>
       <use xlink:href="#DejaVuSansMono-13" transform="translate(60.203125 0)"/>
       <use xlink:href="#DejaVuSansMono-15" transform="translate(120.40625 0)"/>
       <use xlink:href="#DejaVuSansMono-19" transform="translate(180.609375 0)"/>
       <use xlink:href="#DejaVuSansMono-10" transform="translate(240.8125 0)"/>
       <use xlink:href="#DejaVuSansMono-13" transform="translate(301.015625 0)"/>
       <use xlink:href="#DejaVuSansMono-14" transform="translate(361.21875 0)"/>
       <use xlink:href="#DejaVuSansMono-10" transform="translate(421.421875 0)"/>
       <use xlink:href="#DejaVuSansMono-13" transform="translate(481.625 0)"/>
       <use xlink:href="#DejaVuSansMono-14" transform="translate(541.828125 0)"/>
      </g>
     </g>
    </g>
    <g id="xtick_9">
     <g id="line2d_9">
      <g>
       <use xlink:href="#me39ada7e73" x="280.047974" y="250.189875" style="fill: #cccccc; stroke: #cccccc; stroke-width: 0.8"/>
      </g>
     </g>
     <g id="text_9">
      <!-- 2026-03-01 -->
      <g style="fill: #cccccc" transform="translate(281.746687 262.562229) rotate(-315) scale(0.1 -0.1)">
       <use xlink:href="#DejaVuSansMono-15"/>
       <use xlink:href="#DejaVuSansMono-13" transform="translate(60.203125 0)"/>
       <use xlink:href="#DejaVuSansMono-15" transform="translate(120.40625 0)"/>
       <use xlink:href="#DejaVuSansMono-19" transform="translate(180.609375 0)"/>
       <use xlink:href="#DejaVuSansMono-10" transform="translate(240.8125 0)"/>
       <use xlink:href="#DejaVuSansMono-13" transform="translate(301.015625 0)"/>
       <use xlink:href="#DejaVuSansMono-16" transform="translate(361.21875 0)"/>
       <use xlink:href="#DejaVuSansMono-10" transform="translate(421.421875 0)"/>
       <use xlink:href="#DejaVuSansMono-13" transform="translate(481.625 0)"/>
       <use xlink:href="#DejaVuSansMono-14" transform="translate(541.828125 0)"/>
      </g>
     </g>
    </g>
    <g id="xtick_10">
     <g id="line2d_10">
      <g>
       <use xlink:href="#me39ada7e73" x="315.936474" y="250.189875" style="fill: #cccccc; stroke: #cccccc; stroke-width: 0.8"/>
      </g>
     </g>
     <g id="text_10">
      <!-- 2026-05-01 -->
      <g style="fill: #cccccc" transform="translate(317.635188 262.562229) rotate(-315) scale(0.1 -0.1)">
       <use xlink:href="#DejaVuSansMono-15"/>
       <use xlink:href="#DejaVuSansMono-13" transform="translate(60.203125 0)"/>
       <use xlink:href="#DejaVuSansMono-15" transform="translate(120.40625 0)"/>
       <use xlink:href="#DejaVuSansMono-19" transform="translate(180.609375 0)"/>
       <use xlink:href="#DejaVuSansMono-10" transform="translate(240.8125 0)"/>
       <use xlink:href="#DejaVuSansMono-13" transform="translate(301.015625 0)"/>
       <use xlink:href="#DejaVuSansMono-18" transform="translate(361.21875 0)"/>
       <use xlink:href="#DejaVuSansMono-10" transform="translate(421.421875 0)"/>
       <use xlink:href="#DejaVuSansMono-13" transform="translate(481.625 0)"/>
       <use xlink:href="#DejaVuSansMono-14" transform="translate(541.828125 0)"/>
      </g>
     </g>
    </g>
    <g id="xtick_11">
     <g id="line2d_11">
      <g>
       <use xlink:href="#me39ada7e73" x="357.12" y="250.189875" style="fill: #cccccc; stroke: #cccccc; stroke-width: 0.8"/>
      </g>
     </g>
     <g id="text_11">
      <!-- 2026-07-10 -->
      <g style="fill: #cccccc" transform="translate(358.818714 262.562229) rotate(-315) scale(0.1 -0.1)">
       <use xlink:href="#DejaVuSansMono-15"/>
       <use xlink:href="#DejaVuSansMono-13" transform="translate(60.203125 0)"/>
       <use xlink:href="#DejaVuSansMono-15" transform="translate(120.40625 0)"/>
       <use xlink:href="#DejaVuSansMono-19" transform="translate(180.609375 0)"/>
       <use xlink:href="#DejaVuSansMono-10" transform="translate(240.8125 0)"/>
       <use xlink:href="#DejaVuSansMono-13" transform="translate(301.015625 0)"/>
       <use xlink:href="#DejaVuSansMono-1a" transform="translate(361.21875 0)"/>
       <use xlink:href="#DejaVuSansMono-10" transform="translate(421.421875 0)"/>
       <use xlink:href="#DejaVuSansMono-14" transform="translate(481.625 0)"/>
       <use xlink:href="#DejaVuSansMono-13" transform="translate(541.828125 0)"/>
      </g>
     </g>
    </g>
   </g>
   <g id="matplotlib.axis_2">
    <g id="ytick_1">
     <g id="line2d_12">
      <defs>
       <path id="m48d2443ae0" d="M 0 0 
L 3.5 0 
" style="stroke: #cccccc; stroke-width: 0.8"/>
      </defs>
      <g>
       <use xlink:href="#m48d2443ae0" x="357.12" y="250.189875" style="fill: #cccccc; stroke: #cccccc; stroke-width: 0.8"/>
      </g>
     </g>
     <g id="text_12">
      <!-- 0 -->
      <g style="fill: #cccccc" transform="translate(364.12 253.988703) scale(0.1 -0.1)">
       <use xlink:href="#DejaVuSansMono-13"/>
      </g>
     </g>
    </g>
    <g id="ytick_2">
     <g id="line2d_13">
      <g>
       <use xlink:href="#m48d2443ae0" x="357.12" y="222.112456" style="fill: #cccccc; stroke: #cccccc; stroke-width: 0.8"/>
      </g>
     </g>
     <g id="text_13">
      <!-- 100 -->
      <g style="fill: #cccccc" transform="translate(364.12 225.911284) scale(0.1 -0.1)">
       <use xlink:href="#DejaVuSansMono-14"/>
       <use xlink:href="#DejaVuSansMono-13" transform="translate(60.203125 0)"/>
       <use xlink:href="#DejaVuSansMono-13" transform="translate(120.40625 0)"/>
      </g>
     </g>
    </g>
    <g id="ytick_3">
     <g id="line2d_14">
      <g>
       <use xlink:href="#m48d2443ae0" x="357.12" y="194.035036" style="fill: #cccccc; stroke: #cccccc; stroke-width: 0.8"/>
      </g>
     </g>
     <g id="text_14">
      <!-- 200 -->
      <g style="fill: #cccccc" transform="translate(364.12 197.833864) scale(0.1 -0.1)">
       <use xlink:href="#DejaVuSansMono-15"/>
       <use xlink:href="#DejaVuSansMono-13" transform="translate(60.203125 0)"/>
       <use xlink:href="#DejaVuSansMono-13" transform="translate(120.40625 0)"/>
      </g>
     </g>
    </g>
    <g id="ytick_4">
     <g id="line2d_15">
      <g>
       <use xlink:href="#m48d2443ae0" x="357.12" y="165.957617" style="fill: #cccccc; stroke: #cccccc; stroke-width: 0.8"/>
      </g>
     </g>
     <g id="text_15">
      <!-- 300 -->
      <g style="fill: #cccccc" transform="translate(364.12 169.756445) scale(0.1 -0.1)">
       <use xlink:href="#DejaVuSansMono-16"/>
       <use xlink:href="#DejaVuSansMono-13" transform="translate(60.203125 0)"/>
       <use xlink:href="#DejaVuSansMono-13" transform="translate(120.40625 0)"/>
      </g>
     </g>
    </g>
    <g id="ytick_5">
     <g id="line2d_16">
      <g>
       <use xlink:href="#m48d2443ae0" x="357.12" y="137.880198" style="fill: #cccccc; stroke: #cccccc; stroke-width: 0.8"/>
      </g>
     </g>
     <g id="text_16">
      <!-- 400 -->
      <g style="fill: #cccccc" transform="translate(364.12 141.679026) scale(0.1 -0.1)">
       <use xlink:href="#DejaVuSansMono-17"/>
       <use xlink:href="#DejaVuSansMono-13" transform="translate(60.203125 0)"/>
       <use xlink:href="#DejaVuSansMono-13" transform="translate(120.40625 0)"/>
      </g>
     </g>
    </g>
    <g id="ytick_6">
     <g id="line2d_17">
      <g>
       <use xlink:href="#m48d2443ae0" x="357.12" y="109.802778" style="fill: #cccccc; stroke: #cccccc; stroke-width: 0.8"/>
      </g>
     </g>
     <g id="text_17">
      <!-- 500 -->
      <g style="fill: #cccccc" transform="translate(364.12 113.601606) scale(0.1 -0.1)">
       <use xlink:href="#DejaVuSansMono-18"/>
       <use xlink:href="#DejaVuSansMono-13" transform="translate(60.203125 0)"/>
       <use xlink:href="#DejaVuSansMono-13" transform="translate(120.40625 0)"/>
      </g>
     </g>
    </g>
    <g id="ytick_7">
     <g id="line2d_18">
      <g>
       <use xlink:href="#m48d2443ae0" x="357.12" y="81.725359" style="fill: #cccccc; stroke: #cccccc; stroke-width: 0.8"/>
      </g>
     </g>
     <g id="text_18">
      <!-- 600 -->
      <g style="fill: #cccccc" transform="translate(364.12 85.524187) scale(0.1 -0.1)">
       <use xlink:href="#DejaVuSansMono-19"/>
       <use xlink:href="#DejaVuSansMono-13" transform="translate(60.203125 0)"/>
       <use xlink:href="#DejaVuSansMono-13" transform="translate(120.40625 0)"/>
      </g>
     </g>
    </g>
    <g id="ytick_8">
     <g id="line2d_19">
      <g>
       <use xlink:href="#m48d2443ae0" x="357.12" y="53.64794" style="fill: #cccccc; stroke: #cccccc; stroke-width: 0.8"/>
      </g>
     </g>
     <g id="text_19">
      <!-- 700 -->
      <g style="fill: #cccccc" transform="translate(364.12 57.446768) scale(0.1 -0.1)">
       <use xlink:href="#DejaVuSansMono-1a"/>
       <use xlink:href="#DejaVuSansMono-13" transform="translate(60.203125 0)"/>
       <use xlink:href="#DejaVuSansMono-13" transform="translate(120.40625 0)"/>
      </g>
     </g>
    </g>
    <g id="ytick_9">
     <g id="line2d_20">
      <g>
       <use xlink:href="#m48d2443ae0" x="357.12" y="25.57052" style="fill: #cccccc; stroke: #cccccc; stroke-width: 0.8"/>
      </g>
     </g>
     <g id="text_20">
      <!-- 800 -->
      <g style="fill: #cccccc" transform="translate(364.12 29.369348) scale(0.1 -0.1)">
       <defs>
        <path id="DejaVuSansMono-1b" d="M 1925 2216 
Q 1503 2216 1273 1980 
Q 1044 1744 1044 1313 
Q 1044 881 1276 642 
Q 1509 403 1925 403 
Q 2350 403 2579 639 
Q 2809 875 2809 1313 
Q 2809 1741 2576 1978 
Q 2344 2216 1925 2216 
z
M 1375 2478 
Q 972 2581 745 2862 
Q 519 3144 519 3541 
Q 519 4097 897 4423 
Q 1275 4750 1925 4750 
Q 2578 4750 2956 4423 
Q 3334 4097 3334 3541 
Q 3334 3144 3107 2862 
Q 2881 2581 2478 2478 
Q 2947 2375 3195 2062 
Q 3444 1750 3444 1253 
Q 3444 622 3041 265 
Q 2638 -91 1925 -91 
Q 1213 -91 811 264 
Q 409 619 409 1247 
Q 409 1747 657 2061 
Q 906 2375 1375 2478 
z
M 1147 3481 
Q 1147 3106 1347 2909 
Q 1547 2713 1925 2713 
Q 2306 2713 2506 2909 
Q 2706 3106 2706 3481 
Q 2706 3863 2507 4063 
Q 2309 4263 1925 4263 
Q 1547 4263 1347 4061 
Q 1147 3859 1147 3481 
z
" transform="scale(0.015625)"/>
       </defs>
       <use xlink:href="#DejaVuSansMono-1b"/>
       <use xlink:href="#DejaVuSansMono-13" transform="translate(60.203125 0)"/>
       <use xlink:href="#DejaVuSansMono-13" transform="translate(120.40625 0)"/>
      </g>
     </g>
    </g>
    <g id="ytick_10">
     <g id="line2d_21">
      <g>
       <use xlink:href="#m48d2443ae0" x="357.12" y="15.462649" style="fill: #cccccc; stroke: #cccccc; stroke-width: 0.8"/>
      </g>
     </g>
     <g id="text_21">
      <!-- 836 -->
      <g style="fill: #cccccc" transform="translate(364.12 19.261477) scale(0.1 -0.1)">
       <use xlink:href="#DejaVuSansMono-1b"/>
       <use xlink:href="#DejaVuSansMono-16" transform="translate(60.203125 0)"/>
       <use xlink:href="#DejaVuSansMono-19" transform="translate(120.40625 0)"/>
      </g>
     </g>
    </g>
    <g id="text_22">
     <!-- recording -->
     <g style="fill: #cccccc" transform="translate(393.779375 159.777281) rotate(-90) scale(0.1 -0.1)">
      <defs>
       <path id="DejaVuSansMono-55" d="M 3609 2778 
Q 3425 2922 3234 2987 
Q 3044 3053 2816 3053 
Q 2278 3053 1993 2715 
Q 1709 2378 1709 1741 
L 1709 0 
L 1131 0 
L 1131 3500 
L 1709 3500 
L 1709 2816 
Q 1853 3188 2151 3386 
Q 2450 3584 2859 3584 
Q 3072 3584 3256 3531 
Q 3441 3478 3609 3366 
L 3609 2778 
z
" transform="scale(0.015625)"/>
       <path id="DejaVuSansMono-48" d="M 3475 1894 
L 3475 1613 
L 984 1613 
L 984 1594 
Q 984 1022 1282 709 
Q 1581 397 2125 397 
Q 2400 397 2700 484 
Q 3000 572 3341 750 
L 3341 178 
Q 3013 44 2708 -23 
Q 2403 -91 2119 -91 
Q 1303 -91 843 398 
Q 384 888 384 1747 
Q 384 2584 834 3084 
Q 1284 3584 2034 3584 
Q 2703 3584 3089 3131 
Q 3475 2678 3475 1894 
z
M 2900 2063 
Q 2888 2569 2661 2833 
Q 2434 3097 2009 3097 
Q 1594 3097 1325 2822 
Q 1056 2547 1006 2059 
L 2900 2063 
z
" transform="scale(0.015625)"/>
       <path id="DejaVuSansMono-46" d="M 3316 178 
Q 3084 44 2839 -23 
Q 2594 -91 2338 -91 
Q 1525 -91 1067 396 
Q 609 884 609 1747 
Q 609 2609 1067 3096 
Q 1525 3584 2338 3584 
Q 2591 3584 2831 3518 
Q 3072 3453 3316 3316 
L 3316 2713 
Q 3088 2916 2858 3006 
Q 2628 3097 2338 3097 
Q 1797 3097 1506 2747 
Q 1216 2397 1216 1747 
Q 1216 1100 1508 748 
Q 1800 397 2338 397 
Q 2638 397 2875 489 
Q 3113 581 3316 775 
L 3316 178 
z
" transform="scale(0.015625)"/>
       <path id="DejaVuSansMono-52" d="M 1925 3097 
Q 1488 3097 1263 2756 
Q 1038 2416 1038 1747 
Q 1038 1081 1263 739 
Q 1488 397 1925 397 
Q 2366 397 2591 739 
Q 2816 1081 2816 1747 
Q 2816 2416 2591 2756 
Q 2366 3097 1925 3097 
z
M 1925 3584 
Q 2653 3584 3039 3112 
Q 3425 2641 3425 1747 
Q 3425 850 3040 379 
Q 2656 -91 1925 -91 
Q 1197 -91 812 379 
Q 428 850 428 1747 
Q 428 2641 812 3112 
Q 1197 3584 1925 3584 
z
" transform="scale(0.015625)"/>
       <path id="DejaVuSansMono-47" d="M 2681 3053 
L 2681 4863 
L 3256 4863 
L 3256 0 
L 2681 0 
L 2681 441 
Q 2538 181 2298 45 
Q 2059 -91 1747 -91 
Q 1113 -91 748 401 
Q 384 894 384 1759 
Q 384 2613 750 3098 
Q 1116 3584 1747 3584 
Q 2063 3584 2303 3448 
Q 2544 3313 2681 3053 
z
M 991 1747 
Q 991 1078 1203 737 
Q 1416 397 1831 397 
Q 2247 397 2464 740 
Q 2681 1084 2681 1747 
Q 2681 2413 2464 2755 
Q 2247 3097 1831 3097 
Q 1416 3097 1203 2756 
Q 991 2416 991 1747 
z
" transform="scale(0.015625)"/>
       <path id="DejaVuSansMono-4c" d="M 800 3500 
L 2272 3500 
L 2272 447 
L 3413 447 
L 3413 0 
L 556 0 
L 556 447 
L 1697 447 
L 1697 3053 
L 800 3053 
L 800 3500 
z
M 1697 4863 
L 2272 4863 
L 2272 4134 
L 1697 4134 
L 1697 4863 
z
" transform="scale(0.015625)"/>
       <path id="DejaVuSansMono-51" d="M 3284 2169 
L 3284 0 
L 2706 0 
L 2706 2169 
Q 2706 2641 2540 2862 
Q 2375 3084 2022 3084 
Q 1619 3084 1401 2798 
Q 1184 2513 1184 1978 
L 1184 0 
L 609 0 
L 609 3500 
L 1184 3500 
L 1184 2975 
Q 1338 3275 1600 3429 
Q 1863 3584 2222 3584 
Q 2756 3584 3020 3232 
Q 3284 2881 3284 2169 
z
" transform="scale(0.015625)"/>
       <path id="DejaVuSansMono-4a" d="M 2681 1778 
Q 2681 2425 2470 2761 
Q 2259 3097 1856 3097 
Q 1434 3097 1212 2761 
Q 991 2425 991 1778 
Q 991 1131 1214 792 
Q 1438 453 1863 453 
Q 2259 453 2470 793 
Q 2681 1134 2681 1778 
z
M 3256 225 
Q 3256 -563 2884 -969 
Q 2513 -1375 1791 -1375 
Q 1553 -1375 1293 -1331 
Q 1034 -1288 775 -1203 
L 775 -634 
Q 1081 -778 1331 -847 
Q 1581 -916 1791 -916 
Q 2256 -916 2468 -662 
Q 2681 -409 2681 141 
L 2681 166 
L 2681 556 
Q 2544 263 2306 119 
Q 2069 -25 1728 -25 
Q 1116 -25 750 465 
Q 384 956 384 1778 
Q 384 2603 750 3093 
Q 1116 3584 1728 3584 
Q 2066 3584 2300 3450 
Q 2534 3316 2681 3034 
L 2681 3488 
L 3256 3488 
L 3256 225 
z
" transform="scale(0.015625)"/>
      </defs>
      <use xlink:href="#DejaVuSansMono-55"/>
      <use xlink:href="#DejaVuSansMono-48" transform="translate(60.203125 0)"/>
      <use xlink:href="#DejaVuSansMono-46" transform="translate(120.40625 0)"/>
      <use xlink:href="#DejaVuSansMono-52" transform="translate(180.609375 0)"/>
      <use xlink:href="#DejaVuSansMono-55" transform="translate(240.8125 0)"/>
      <use xlink:href="#DejaVuSansMono-47" transform="translate(301.015625 0)"/>
      <use xlink:href="#DejaVuSansMono-4c" transform="translate(361.21875 0)"/>
      <use xlink:href="#DejaVuSansMono-51" transform="translate(421.421875 0)"/>
      <use xlink:href="#DejaVuSansMono-4a" transform="translate(481.625 0)"/>
     </g>
    </g>
   </g>
   <g id="line2d_22">
    <path d="M 0 249.909101 
L 0.588336 249.066778 
L 2.353344 245.416714 
L 2.94168 245.13594 
L 7.060033 245.13594 
L 7.648369 245.416714 
L 17.650082 240.924327 
L 18.826755 240.643552 
L 28.240132 240.362778 
L 37.065173 234.747294 
L 38.830181 234.46652 
L 39.418517 229.412585 
L 42.360198 229.13181 
L 44.125206 227.447165 
L 47.655222 224.639423 
L 51.185239 224.077875 
L 53.538583 220.42781 
L 54.126919 215.654649 
L 54.715255 213.68923 
L 55.303591 210.31994 
L 56.480264 206.669875 
L 58.245272 200.212069 
L 60.01028 198.527423 
L 60.598616 196.562004 
L 62.363624 191.508069 
L 62.95196 188.700327 
L 64.716969 187.858004 
L 66.481977 186.173359 
L 67.658649 185.892585 
L 68.246985 184.488714 
L 68.835321 178.592456 
L 72.953674 174.661617 
L 74.718682 174.380843 
L 75.307018 172.415423 
L 77.072026 170.16923 
L 78.248699 164.553746 
L 78.837035 164.272972 
L 79.425371 162.026778 
L 80.602043 158.09594 
L 81.190379 156.972843 
L 82.955387 156.411294 
L 83.543723 155.288198 
L 85.308731 151.076585 
L 87.07374 145.461101 
L 88.838748 145.180327 
L 90.01542 144.338004 
L 90.603756 143.776456 
L 91.192092 138.441746 
L 91.780428 138.160972 
L 92.9571 137.880198 
L 94.722109 136.195552 
L 95.310445 130.860843 
L 99.428797 130.299294 
L 100.017133 129.737746 
L 100.60547 122.999165 
L 101.193806 121.31452 
L 101.782142 121.033746 
L 104.135486 120.191423 
L 104.723822 119.629875 
L 105.312158 114.856714 
L 105.900494 113.452843 
L 106.48883 113.172069 
L 107.665502 108.679681 
L 109.430511 107.556585 
L 110.607183 107.27581 
L 111.783855 105.87194 
L 112.960527 101.941101 
L 114.725535 98.291036 
L 115.313871 89.86781 
L 116.490544 89.306262 
L 117.07888 87.621617 
L 118.255552 87.621617 
L 121.785568 83.12923 
L 122.962241 82.567681 
L 123.550577 81.444585 
L 126.492257 76.109875 
L 127.668929 74.986778 
L 128.845601 74.144456 
L 130.022273 73.863681 
L 134.140626 73.302133 
L 138.258979 70.213617 
L 140.612323 69.09052 
L 141.200659 67.967423 
L 141.788995 62.913488 
L 142.377331 62.913488 
L 145.907348 62.35194 
L 150.0257 62.35194 
L 150.614036 61.228843 
L 151.790708 60.38652 
L 152.379044 59.544198 
L 160.027414 58.982649 
L 160.61575 53.928714 
L 167.087446 53.367165 
L 168.264119 50.840198 
L 173.559143 47.751681 
L 174.147479 47.751681 
L 176.500824 47.470907 
L 177.08916 46.628585 
L 178.854168 44.663165 
L 180.03084 44.663165 
L 183.560857 42.97852 
L 184.149193 39.890004 
L 184.737529 39.047681 
L 185.914201 38.766907 
L 191.797562 36.520714 
L 194.150906 36.520714 
L 196.50425 35.397617 
L 197.092586 34.836069 
L 199.445931 34.836069 
L 200.622603 34.555294 
L 202.387611 34.27452 
L 202.975947 33.712972 
L 203.564283 33.432198 
L 208.859308 32.870649 
L 219.449357 32.589875 
L 226.50939 31.747552 
L 230.039407 31.186004 
L 234.746096 30.062907 
L 248.277825 29.220585 
L 258.867875 28.378262 
L 271.222932 27.816714 
L 280.047974 27.53594 
L 284.754662 27.53594 
L 288.873015 26.974391 
L 312.406458 26.693617 
L 313.58313 26.412843 
L 318.289819 26.412843 
L 322.996507 26.132069 
L 324.761516 25.851294 
L 328.291532 23.324327 
L 328.879868 23.043552 
L 344.764942 18.83194 
L 345.941614 18.83194 
L 352.413311 18.551165 
L 354.17832 18.270391 
L 357.12 15.462649 
L 357.12 15.462649 
" clip-path="url(#p97d58711f3)" style="fill: none; stroke: #d5397b; stroke-opacity: 0.5; stroke-width: 1.5; stroke-linecap: square"/>
   </g>
   <g id="text_23">
    <!-- days: 610 -->
    <g style="fill: #cccccc" transform="translate(35.712 48.94205) scale(0.1 -0.1)">
     <defs>
      <path id="DejaVuSansMono-44" d="M 2194 1759 
L 2003 1759 
Q 1500 1759 1245 1582 
Q 991 1406 991 1056 
Q 991 741 1181 566 
Q 1372 391 1709 391 
Q 2184 391 2456 720 
Q 2728 1050 2731 1631 
L 2731 1759 
L 2194 1759 
z
M 3309 1997 
L 3309 0 
L 2731 0 
L 2731 519 
Q 2547 206 2267 57 
Q 1988 -91 1588 -91 
Q 1053 -91 734 211 
Q 416 513 416 1019 
Q 416 1603 808 1906 
Q 1200 2209 1959 2209 
L 2731 2209 
L 2731 2300 
Q 2728 2719 2518 2908 
Q 2309 3097 1850 3097 
Q 1556 3097 1256 3012 
Q 956 2928 672 2766 
L 672 3341 
Q 991 3463 1283 3523 
Q 1575 3584 1850 3584 
Q 2284 3584 2592 3456 
Q 2900 3328 3091 3072 
Q 3209 2916 3259 2686 
Q 3309 2456 3309 1997 
z
" transform="scale(0.015625)"/>
      <path id="DejaVuSansMono-5c" d="M 2681 1125 
Q 2538 759 2316 163 
Q 2006 -663 1900 -844 
Q 1756 -1088 1540 -1209 
Q 1325 -1331 1038 -1331 
L 575 -1331 
L 575 -850 
L 916 -850 
Q 1169 -850 1312 -703 
Q 1456 -556 1678 56 
L 325 3500 
L 934 3500 
L 1972 763 
L 2994 3500 
L 3603 3500 
L 2681 1125 
z
" transform="scale(0.015625)"/>
      <path id="DejaVuSansMono-56" d="M 3041 3378 
L 3041 2816 
Q 2794 2959 2544 3031 
Q 2294 3103 2034 3103 
Q 1644 3103 1451 2976 
Q 1259 2850 1259 2591 
Q 1259 2356 1403 2240 
Q 1547 2125 2119 2016 
L 2350 1972 
Q 2778 1891 2998 1647 
Q 3219 1403 3219 1013 
Q 3219 494 2850 201 
Q 2481 -91 1825 -91 
Q 1566 -91 1281 -36 
Q 997 19 666 128 
L 666 722 
Q 988 556 1281 473 
Q 1575 391 1838 391 
Q 2219 391 2428 545 
Q 2638 700 2638 978 
Q 2638 1378 1872 1531 
L 1847 1538 
L 1631 1581 
Q 1134 1678 906 1908 
Q 678 2138 678 2534 
Q 678 3038 1018 3311 
Q 1359 3584 1991 3584 
Q 2272 3584 2531 3532 
Q 2791 3481 3041 3378 
z
" transform="scale(0.015625)"/>
      <path id="DejaVuSansMono-1d" d="M 1528 3322 
L 2316 3322 
L 2316 2375 
L 1528 2375 
L 1528 3322 
z
M 1528 953 
L 2316 953 
L 2316 0 
L 1528 0 
L 1528 953 
z
" transform="scale(0.015625)"/>
      <path id="DejaVuSansMono-3" transform="scale(0.015625)"/>
     </defs>
     <use xlink:href="#DejaVuSansMono-47"/>
     <use xlink:href="#DejaVuSansMono-44" transform="translate(60.203125 0)"/>
     <use xlink:href="#DejaVuSansMono-5c" transform="translate(120.40625 0)"/>
     <use xlink:href="#DejaVuSansMono-56" transform="translate(180.609375 0)"/>
     <use xlink:href="#DejaVuSansMono-1d" transform="translate(240.8125 0)"/>
     <use xlink:href="#DejaVuSansMono-3" transform="translate(301.015625 0)"/>
     <use xlink:href="#DejaVuSansMono-19" transform="translate(361.21875 0)"/>
     <use xlink:href="#DejaVuSansMono-14" transform="translate(421.421875 0)"/>
     <use xlink:href="#DejaVuSansMono-13" transform="translate(481.625 0)"/>
    </g>
    <!--  avg: 1.37 -->
    <g style="fill: #cccccc" transform="translate(35.712 63.819394) scale(0.1 -0.1)">
     <defs>
      <path id="DejaVuSansMono-59" d="M 313 3500 
L 909 3500 
L 1925 563 
L 2944 3500 
L 3541 3500 
L 2297 0 
L 1556 0 
L 313 3500 
z
" transform="scale(0.015625)"/>
      <path id="DejaVuSansMono-11" d="M 1528 953 
L 2316 953 
L 2316 0 
L 1528 0 
L 1528 953 
z
" transform="scale(0.015625)"/>
     </defs>
     <use xlink:href="#DejaVuSansMono-3"/>
     <use xlink:href="#DejaVuSansMono-44" transform="translate(60.203125 0)"/>
     <use xlink:href="#DejaVuSansMono-59" transform="translate(120.40625 0)"/>
     <use xlink:href="#DejaVuSansMono-4a" transform="translate(180.609375 0)"/>
     <use xlink:href="#DejaVuSansMono-1d" transform="translate(240.8125 0)"/>
     <use xlink:href="#DejaVuSansMono-3" transform="translate(301.015625 0)"/>
     <use xlink:href="#DejaVuSansMono-14" transform="translate(361.21875 0)"/>
     <use xlink:href="#DejaVuSansMono-11" transform="translate(421.421875 0)"/>
     <use xlink:href="#DejaVuSansMono-16" transform="translate(481.625 0)"/>
     <use xlink:href="#DejaVuSansMono-1a" transform="translate(541.828125 0)"/>
    </g>
   </g>
   <g id="text_24">
    <!-- recording count in listen.ron over time -->
    <g style="fill: #cccccc" transform="translate(37.684688 9.181875) scale(0.12 -0.12)">
     <defs>
      <path id="DejaVuSansMono-58" d="M 609 1325 
L 609 3494 
L 1184 3494 
L 1184 1325 
Q 1184 853 1351 631 
Q 1519 409 1869 409 
Q 2275 409 2490 695 
Q 2706 981 2706 1516 
L 2706 3494 
L 3284 3494 
L 3284 0 
L 2706 0 
L 2706 525 
Q 2553 222 2289 65 
Q 2025 -91 1672 -91 
Q 1134 -91 871 261 
Q 609 613 609 1325 
z
" transform="scale(0.015625)"/>
      <path id="DejaVuSansMono-57" d="M 1919 4494 
L 1919 3500 
L 3225 3500 
L 3225 3053 
L 1919 3053 
L 1919 1153 
Q 1919 766 2066 612 
Q 2213 459 2578 459 
L 3225 459 
L 3225 0 
L 2522 0 
Q 1875 0 1609 259 
Q 1344 519 1344 1153 
L 1344 3053 
L 409 3053 
L 409 3500 
L 1344 3500 
L 1344 4494 
L 1919 4494 
z
" transform="scale(0.015625)"/>
      <path id="DejaVuSansMono-4f" d="M 1997 1269 
Q 1997 881 2139 684 
Q 2281 488 2559 488 
L 3231 488 
L 3231 0 
L 2503 0 
Q 1988 0 1705 331 
Q 1422 663 1422 1269 
L 1422 4447 
L 500 4447 
L 500 4897 
L 1997 4897 
L 1997 1269 
z
" transform="scale(0.015625)"/>
      <path id="DejaVuSansMono-50" d="M 2113 3144 
Q 2219 3369 2383 3476 
Q 2547 3584 2778 3584 
Q 3200 3584 3373 3257 
Q 3547 2931 3547 2028 
L 3547 0 
L 3022 0 
L 3022 2003 
Q 3022 2744 2939 2923 
Q 2856 3103 2638 3103 
Q 2388 3103 2295 2911 
Q 2203 2719 2203 2003 
L 2203 0 
L 1678 0 
L 1678 2003 
Q 1678 2753 1589 2928 
Q 1500 3103 1269 3103 
Q 1041 3103 952 2911 
Q 863 2719 863 2003 
L 863 0 
L 341 0 
L 341 3500 
L 863 3500 
L 863 3200 
Q 966 3388 1120 3486 
Q 1275 3584 1472 3584 
Q 1709 3584 1867 3475 
Q 2025 3366 2113 3144 
z
" transform="scale(0.015625)"/>
     </defs>
     <use xlink:href="#DejaVuSansMono-55"/>
     <use xlink:href="#DejaVuSansMono-48" transform="translate(60.203125 0)"/>
     <use xlink:href="#DejaVuSansMono-46" transform="translate(120.40625 0)"/>
     <use xlink:href="#DejaVuSansMono-52" transform="translate(180.609375 0)"/>
     <use xlink:href="#DejaVuSansMono-55" transform="translate(240.8125 0)"/>
     <use xlink:href="#DejaVuSansMono-47" transform="translate(301.015625 0)"/>
     <use xlink:href="#DejaVuSansMono-4c" transform="translate(361.21875 0)"/>
     <use xlink:href="#DejaVuSansMono-51" transform="translate(421.421875 0)"/>
     <use xlink:href="#DejaVuSansMono-4a" transform="translate(481.625 0)"/>
     <use xlink:href="#DejaVuSansMono-3" transform="translate(541.828125 0)"/>
     <use xlink:href="#DejaVuSansMono-46" transform="translate(602.03125 0)"/>
     <use xlink:href="#DejaVuSansMono-52" transform="translate(662.234375 0)"/>
     <use xlink:href="#DejaVuSansMono-58" transform="translate(722.4375 0)"/>
     <use xlink:href="#DejaVuSansMono-51" transform="translate(782.640625 0)"/>
     <use xlink:href="#DejaVuSansMono-57" transform="translate(842.84375 0)"/>
     <use xlink:href="#DejaVuSansMono-3" transform="translate(903.046875 0)"/>
     <use xlink:href="#DejaVuSansMono-4c" transform="translate(963.25 0)"/>
     <use xlink:href="#DejaVuSansMono-51" transform="translate(1023.453125 0)"/>
     <use xlink:href="#DejaVuSansMono-3" transform="translate(1083.65625 0)"/>
     <use xlink:href="#DejaVuSansMono-4f" transform="translate(1143.859375 0)"/>
     <use xlink:href="#DejaVuSansMono-4c" transform="translate(1204.0625 0)"/>
     <use xlink:href="#DejaVuSansMono-56" transform="translate(1264.265625 0)"/>
     <use xlink:href="#DejaVuSansMono-57" transform="translate(1324.46875 0)"/>
     <use xlink:href="#DejaVuSansMono-48" transform="translate(1384.671875 0)"/>
     <use xlink:href="#DejaVuSansMono-51" transform="translate(1444.875 0)"/>
     <use xlink:href="#DejaVuSansMono-11" transform="translate(1505.078125 0)"/>
     <use xlink:href="#DejaVuSansMono-55" transform="translate(1565.28125 0)"/>
     <use xlink:href="#DejaVuSansMono-52" transform="translate(1625.484375 0)"/>
     <use xlink:href="#DejaVuSansMono-51" transform="translate(1685.6875 0)"/>
     <use xlink:href="#DejaVuSansMono-3" transform="translate(1745.890625 0)"/>
     <use xlink:href="#DejaVuSansMono-52" transform="translate(1806.09375 0)"/>
     <use xlink:href="#DejaVuSansMono-59" transform="translate(1866.296875 0)"/>
     <use xlink:href="#DejaVuSansMono-48" transform="translate(1926.5 0)"/>
     <use xlink:href="#DejaVuSansMono-55" transform="translate(1986.703125 0)"/>
     <use xlink:href="#DejaVuSansMono-3" transform="translate(2046.90625 0)"/>
     <use xlink:href="#DejaVuSansMono-57" transform="translate(2107.109375 0)"/>
     <use xlink:href="#DejaVuSansMono-4c" transform="translate(2167.3125 0)"/>
     <use xlink:href="#DejaVuSansMono-50" transform="translate(2227.515625 0)"/>
     <use xlink:href="#DejaVuSansMono-48" transform="translate(2287.71875 0)"/>
    </g>
   </g>
  </g>
 </g>
 <defs>
  <clipPath id="p97d58711f3">
   <rect x="0" y="15.181875" width="357.12" height="235.008"/>
  </clipPath>
 </defs>
</svg>
