<?xml version="1.0" encoding="utf-8" standalone="no"?>
<!DOCTYPE svg PUBLIC "-//W3C//DTD SVG 1.1//EN"
  "http://www.w3.org/Graphics/SVG/1.1/DTD/svg11.dtd">
<svg xmlns:xlink="http://www.w3.org/1999/xlink" width="406.571071pt" height="306.640946pt" viewBox="0 0 406.571071 306.640946" xmlns="http://www.w3.org/2000/svg" version="1.1">
 <metadata>
  <rdf:RDF xmlns:dc="http://purl.org/dc/elements/1.1/" xmlns:cc="http://creativecommons.org/ns#" xmlns:rdf="http://www.w3.org/1999/02/22-rdf-syntax-ns#">
   <cc:Work>
    <dc:type rdf:resource="http://purl.org/dc/dcmitype/StillImage"/>
    <dc:date>2025-05-07T18:51:19.214670</dc:date>
    <dc:format>image/svg+xml</dc:format>
    <dc:creator>
     <cc:Agent>
      <dc:title>Matplotlib v3.10.1, https://matplotlib.org/</dc:title>
     </cc:Agent>
    </dc:creator>
   </cc:Work>
  </rdf:RDF>
 </metadata>
 <defs>
  <style type="text/css">*{stroke-linejoin: round; stroke-linecap: butt}</style>
 </defs>
 <g id="figure_1">
  <g id="patch_1">
   <path d="M 0 306.640946 
L 406.571071 306.640946 
L 406.571071 0 
L 0 0 
L 0 306.640946 
z
" style="fill: none"/>
  </g>
  <g id="axes_1">
   <g id="patch_2">
    <path d="M 0 250.189875 
L 357.12 250.189875 
L 357.12 15.181875 
L 0 15.181875 
L 0 250.189875 
z
" style="fill: none"/>
   </g>
   <g id="FillBetweenPolyCollection_1">
    <defs>
     <path id="m25228acfaa" d="M 0 -56.451071 
L 0 -56.956464 
L 2.006292 -58.472645 
L 8.025169 -65.042761 
L 10.031461 -65.548155 
L 24.075506 -65.548155 
L 26.081798 -65.042761 
L 56.17618 -72.118271 
L 60.188764 -73.129058 
L 64.201348 -73.634451 
L 96.302022 -74.139845 
L 126.396404 -84.247716 
L 132.415281 -84.75311 
L 134.421573 -93.850193 
L 144.453034 -94.355587 
L 150.47191 -97.387948 
L 162.509663 -102.441884 
L 174.547416 -103.452671 
L 182.572584 -110.022787 
L 184.578876 -118.614477 
L 186.585169 -122.152232 
L 188.591461 -128.216955 
L 192.604045 -134.787071 
L 194.610337 -138.830219 
L 198.622921 -146.411122 
L 204.641798 -149.443484 
L 206.64809 -152.981239 
L 212.666966 -162.078322 
L 214.673258 -167.132258 
L 216.679551 -167.637651 
L 220.692135 -168.648439 
L 222.698427 -169.659226 
L 226.711011 -171.6808 
L 230.723596 -172.186193 
L 232.729888 -174.713161 
L 234.73618 -185.326426 
L 248.780225 -192.401935 
L 254.799101 -192.907329 
L 256.805393 -196.445084 
L 262.82427 -200.488232 
L 266.836854 -210.596103 
L 268.843146 -211.101497 
L 270.849438 -215.144645 
L 274.862022 -222.220155 
L 276.868315 -224.241729 
L 282.887191 -225.252516 
L 284.893483 -227.27409 
L 290.91236 -234.854993 
L 296.931236 -244.962864 
L 302.950112 -245.468258 
L 306.962697 -246.984439 
L 308.968989 -247.995226 
L 310.975281 -257.597703 
L 312.981573 -258.103097 
L 316.994157 -258.60849 
L 319.000449 -259.619277 
L 323.013034 -261.640851 
L 325.019326 -271.243329 
L 339.063371 -272.254116 
L 341.069663 -273.264903 
L 343.075955 -285.394348 
L 345.082247 -288.42671 
L 347.088539 -288.932103 
L 355.113708 -290.448284 
L 357.12 -290.953677 
L 357.12 -56.451071 
L 357.12 -56.451071 
L 355.113708 -56.451071 
L 347.088539 -56.451071 
L 345.082247 -56.451071 
L 343.075955 -56.451071 
L 341.069663 -56.451071 
L 339.063371 -56.451071 
L 325.019326 -56.451071 
L 323.013034 -56.451071 
L 319.000449 -56.451071 
L 316.994157 -56.451071 
L 312.981573 -56.451071 
L 310.975281 -56.451071 
L 308.968989 -56.451071 
L 306.962697 -56.451071 
L 302.950112 -56.451071 
L 296.931236 -56.451071 
L 290.91236 -56.451071 
L 284.893483 -56.451071 
L 282.887191 -56.451071 
L 276.868315 -56.451071 
L 274.862022 -56.451071 
L 270.849438 -56.451071 
L 268.843146 -56.451071 
L 266.836854 -56.451071 
L 262.82427 -56.451071 
L 256.805393 -56.451071 
L 254.799101 -56.451071 
L 248.780225 -56.451071 
L 234.73618 -56.451071 
L 232.729888 -56.451071 
L 230.723596 -56.451071 
L 226.711011 -56.451071 
L 222.698427 -56.451071 
L 220.692135 -56.451071 
L 216.679551 -56.451071 
L 214.673258 -56.451071 
L 212.666966 -56.451071 
L 206.64809 -56.451071 
L 204.641798 -56.451071 
L 198.622921 -56.451071 
L 194.610337 -56.451071 
L 192.604045 -56.451071 
L 188.591461 -56.451071 
L 186.585169 -56.451071 
L 184.578876 -56.451071 
L 182.572584 -56.451071 
L 174.547416 -56.451071 
L 162.509663 -56.451071 
L 150.47191 -56.451071 
L 144.453034 -56.451071 
L 134.421573 -56.451071 
L 132.415281 -56.451071 
L 126.396404 -56.451071 
L 96.302022 -56.451071 
L 64.201348 -56.451071 
L 60.188764 -56.451071 
L 56.17618 -56.451071 
L 26.081798 -56.451071 
L 24.075506 -56.451071 
L 10.031461 -56.451071 
L 8.025169 -56.451071 
L 2.006292 -56.451071 
L 0 -56.451071 
z
" style="stroke: #d5397b; stroke-opacity: 0.4"/>
    </defs>
    <g clip-path="url(#pe069a8c8a2)">
     <use xlink:href="#m25228acfaa" x="0" y="306.640946" style="fill: #d5397b; fill-opacity: 0.4; stroke: #d5397b; stroke-opacity: 0.4"/>
    </g>
   </g>
   <g id="matplotlib.axis_1">
    <g id="xtick_1">
     <g id="line2d_1">
      <defs>
       <path id="m5e3979b7f7" d="M 0 0 
L 0 3.5 
" style="stroke: #cccccc; stroke-width: 0.8"/>
      </defs>
      <g>
       <use xlink:href="#m5e3979b7f7" x="0" y="250.189875" style="fill: #cccccc; stroke: #cccccc; stroke-width: 0.8"/>
      </g>
     </g>
     <g id="text_1">
      <!-- 2024-11-10 -->
      <g style="fill: #cccccc" transform="translate(1.470561 262.600347) rotate(-315) scale(0.1 -0.1)">
       <defs>
        <path id="DejaVuSansMono-32" d="M 1166 531 
L 3309 531 
L 3309 0 
L 475 0 
L 475 531 
Q 1059 1147 1496 1619 
Q 1934 2091 2100 2284 
Q 2413 2666 2522 2902 
Q 2631 3138 2631 3384 
Q 2631 3775 2401 3997 
Q 2172 4219 1772 4219 
Q 1488 4219 1175 4116 
Q 863 4013 513 3803 
L 513 4441 
Q 834 4594 1145 4672 
Q 1456 4750 1759 4750 
Q 2444 4750 2861 4386 
Q 3278 4022 3278 3431 
Q 3278 3131 3139 2831 
Q 3000 2531 2688 2169 
Q 2513 1966 2180 1606 
Q 1847 1247 1166 531 
z
" transform="scale(0.015625)"/>
        <path id="DejaVuSansMono-30" d="M 1509 2344 
Q 1509 2516 1629 2641 
Q 1750 2766 1919 2766 
Q 2094 2766 2219 2641 
Q 2344 2516 2344 2344 
Q 2344 2169 2220 2047 
Q 2097 1925 1919 1925 
Q 1744 1925 1626 2044 
Q 1509 2163 1509 2344 
z
M 1925 4250 
Q 1484 4250 1267 3775 
Q 1050 3300 1050 2328 
Q 1050 1359 1267 884 
Q 1484 409 1925 409 
Q 2369 409 2586 884 
Q 2803 1359 2803 2328 
Q 2803 3300 2586 3775 
Q 2369 4250 1925 4250 
z
M 1925 4750 
Q 2672 4750 3055 4137 
Q 3438 3525 3438 2328 
Q 3438 1134 3055 521 
Q 2672 -91 1925 -91 
Q 1178 -91 797 521 
Q 416 1134 416 2328 
Q 416 3525 797 4137 
Q 1178 4750 1925 4750 
z
" transform="scale(0.015625)"/>
        <path id="DejaVuSansMono-34" d="M 2297 4091 
L 825 1625 
L 2297 1625 
L 2297 4091 
z
M 2194 4666 
L 2925 4666 
L 2925 1625 
L 3547 1625 
L 3547 1113 
L 2925 1113 
L 2925 0 
L 2297 0 
L 2297 1113 
L 319 1113 
L 319 1709 
L 2194 4666 
z
" transform="scale(0.015625)"/>
        <path id="DejaVuSansMono-2d" d="M 1113 2009 
L 2741 2009 
L 2741 1497 
L 1113 1497 
L 1113 2009 
z
" transform="scale(0.015625)"/>
        <path id="DejaVuSansMono-31" d="M 844 531 
L 1825 531 
L 1825 4097 
L 769 3859 
L 769 4434 
L 1819 4666 
L 2450 4666 
L 2450 531 
L 3419 531 
L 3419 0 
L 844 0 
L 844 531 
z
" transform="scale(0.015625)"/>
       </defs>
       <use xlink:href="#DejaVuSansMono-32"/>
       <use xlink:href="#DejaVuSansMono-30" transform="translate(60.205078 0)"/>
       <use xlink:href="#DejaVuSansMono-32" transform="translate(120.410156 0)"/>
       <use xlink:href="#DejaVuSansMono-34" transform="translate(180.615234 0)"/>
       <use xlink:href="#DejaVuSansMono-2d" transform="translate(240.820312 0)"/>
       <use xlink:href="#DejaVuSansMono-31" transform="translate(301.025391 0)"/>
       <use xlink:href="#DejaVuSansMono-31" transform="translate(361.230469 0)"/>
       <use xlink:href="#DejaVuSansMono-2d" transform="translate(421.435547 0)"/>
       <use xlink:href="#DejaVuSansMono-31" transform="translate(481.640625 0)"/>
       <use xlink:href="#DejaVuSansMono-30" transform="translate(541.845703 0)"/>
      </g>
     </g>
    </g>
    <g id="xtick_2">
     <g id="line2d_2">
      <g>
       <use xlink:href="#m5e3979b7f7" x="42.132135" y="250.189875" style="fill: #cccccc; stroke: #cccccc; stroke-width: 0.8"/>
      </g>
     </g>
     <g id="text_2">
      <!-- 2024-12-01 -->
      <g style="fill: #cccccc" transform="translate(43.602696 262.600347) rotate(-315) scale(0.1 -0.1)">
       <use xlink:href="#DejaVuSansMono-32"/>
       <use xlink:href="#DejaVuSansMono-30" transform="translate(60.205078 0)"/>
       <use xlink:href="#DejaVuSansMono-32" transform="translate(120.410156 0)"/>
       <use xlink:href="#DejaVuSansMono-34" transform="translate(180.615234 0)"/>
       <use xlink:href="#DejaVuSansMono-2d" transform="translate(240.820312 0)"/>
       <use xlink:href="#DejaVuSansMono-31" transform="translate(301.025391 0)"/>
       <use xlink:href="#DejaVuSansMono-32" transform="translate(361.230469 0)"/>
       <use xlink:href="#DejaVuSansMono-2d" transform="translate(421.435547 0)"/>
       <use xlink:href="#DejaVuSansMono-30" transform="translate(481.640625 0)"/>
       <use xlink:href="#DejaVuSansMono-31" transform="translate(541.845703 0)"/>
      </g>
     </g>
    </g>
    <g id="xtick_3">
     <g id="line2d_3">
      <g>
       <use xlink:href="#m5e3979b7f7" x="104.327191" y="250.189875" style="fill: #cccccc; stroke: #cccccc; stroke-width: 0.8"/>
      </g>
     </g>
     <g id="text_3">
      <!-- 2025-01-01 -->
      <g style="fill: #cccccc" transform="translate(105.797752 262.600347) rotate(-315) scale(0.1 -0.1)">
       <defs>
        <path id="DejaVuSansMono-35" d="M 647 4666 
L 3009 4666 
L 3009 4134 
L 1222 4134 
L 1222 2988 
Q 1356 3038 1492 3061 
Q 1628 3084 1766 3084 
Q 2491 3084 2916 2656 
Q 3341 2228 3341 1497 
Q 3341 759 2895 334 
Q 2450 -91 1678 -91 
Q 1306 -91 998 -41 
Q 691 9 447 109 
L 447 750 
Q 734 594 1025 517 
Q 1316 441 1619 441 
Q 2141 441 2423 716 
Q 2706 991 2706 1497 
Q 2706 1997 2414 2275 
Q 2122 2553 1600 2553 
Q 1347 2553 1106 2495 
Q 866 2438 647 2322 
L 647 4666 
z
" transform="scale(0.015625)"/>
       </defs>
       <use xlink:href="#DejaVuSansMono-32"/>
       <use xlink:href="#DejaVuSansMono-30" transform="translate(60.205078 0)"/>
       <use xlink:href="#DejaVuSansMono-32" transform="translate(120.410156 0)"/>
       <use xlink:href="#DejaVuSansMono-35" transform="translate(180.615234 0)"/>
       <use xlink:href="#DejaVuSansMono-2d" transform="translate(240.820312 0)"/>
       <use xlink:href="#DejaVuSansMono-30" transform="translate(301.025391 0)"/>
       <use xlink:href="#DejaVuSansMono-31" transform="translate(361.230469 0)"/>
       <use xlink:href="#DejaVuSansMono-2d" transform="translate(421.435547 0)"/>
       <use xlink:href="#DejaVuSansMono-30" transform="translate(481.640625 0)"/>
       <use xlink:href="#DejaVuSansMono-31" transform="translate(541.845703 0)"/>
      </g>
     </g>
    </g>
    <g id="xtick_4">
     <g id="line2d_4">
      <g>
       <use xlink:href="#m5e3979b7f7" x="166.522247" y="250.189875" style="fill: #cccccc; stroke: #cccccc; stroke-width: 0.8"/>
      </g>
     </g>
     <g id="text_4">
      <!-- 2025-02-01 -->
      <g style="fill: #cccccc" transform="translate(167.992808 262.600347) rotate(-315) scale(0.1 -0.1)">
       <use xlink:href="#DejaVuSansMono-32"/>
       <use xlink:href="#DejaVuSansMono-30" transform="translate(60.205078 0)"/>
       <use xlink:href="#DejaVuSansMono-32" transform="translate(120.410156 0)"/>
       <use xlink:href="#DejaVuSansMono-35" transform="translate(180.615234 0)"/>
       <use xlink:href="#DejaVuSansMono-2d" transform="translate(240.820312 0)"/>
       <use xlink:href="#DejaVuSansMono-30" transform="translate(301.025391 0)"/>
       <use xlink:href="#DejaVuSansMono-32" transform="translate(361.230469 0)"/>
       <use xlink:href="#DejaVuSansMono-2d" transform="translate(421.435547 0)"/>
       <use xlink:href="#DejaVuSansMono-30" transform="translate(481.640625 0)"/>
       <use xlink:href="#DejaVuSansMono-31" transform="translate(541.845703 0)"/>
      </g>
     </g>
    </g>
    <g id="xtick_5">
     <g id="line2d_5">
      <g>
       <use xlink:href="#m5e3979b7f7" x="222.698427" y="250.189875" style="fill: #cccccc; stroke: #cccccc; stroke-width: 0.8"/>
      </g>
     </g>
     <g id="text_5">
      <!-- 2025-03-01 -->
      <g style="fill: #cccccc" transform="translate(224.168988 262.600347) rotate(-315) scale(0.1 -0.1)">
       <defs>
        <path id="DejaVuSansMono-33" d="M 2425 2497 
Q 2884 2375 3128 2064 
Q 3372 1753 3372 1288 
Q 3372 644 2939 276 
Q 2506 -91 1741 -91 
Q 1419 -91 1084 -31 
Q 750 28 428 141 
L 428 769 
Q 747 603 1056 522 
Q 1366 441 1672 441 
Q 2191 441 2469 675 
Q 2747 909 2747 1350 
Q 2747 1756 2469 1995 
Q 2191 2234 1716 2234 
L 1234 2234 
L 1234 2753 
L 1716 2753 
Q 2150 2753 2394 2943 
Q 2638 3134 2638 3475 
Q 2638 3834 2411 4026 
Q 2184 4219 1766 4219 
Q 1488 4219 1191 4156 
Q 894 4094 569 3969 
L 569 4550 
Q 947 4650 1242 4700 
Q 1538 4750 1766 4750 
Q 2447 4750 2855 4408 
Q 3263 4066 3263 3500 
Q 3263 3116 3048 2859 
Q 2834 2603 2425 2497 
z
" transform="scale(0.015625)"/>
       </defs>
       <use xlink:href="#DejaVuSansMono-32"/>
       <use xlink:href="#DejaVuSansMono-30" transform="translate(60.205078 0)"/>
       <use xlink:href="#DejaVuSansMono-32" transform="translate(120.410156 0)"/>
       <use xlink:href="#DejaVuSansMono-35" transform="translate(180.615234 0)"/>
       <use xlink:href="#DejaVuSansMono-2d" transform="translate(240.820312 0)"/>
       <use xlink:href="#DejaVuSansMono-30" transform="translate(301.025391 0)"/>
       <use xlink:href="#DejaVuSansMono-33" transform="translate(361.230469 0)"/>
       <use xlink:href="#DejaVuSansMono-2d" transform="translate(421.435547 0)"/>
       <use xlink:href="#DejaVuSansMono-30" transform="translate(481.640625 0)"/>
       <use xlink:href="#DejaVuSansMono-31" transform="translate(541.845703 0)"/>
      </g>
     </g>
    </g>
    <g id="xtick_6">
     <g id="line2d_6">
      <g>
       <use xlink:href="#m5e3979b7f7" x="284.893483" y="250.189875" style="fill: #cccccc; stroke: #cccccc; stroke-width: 0.8"/>
      </g>
     </g>
     <g id="text_6">
      <!-- 2025-04-01 -->
      <g style="fill: #cccccc" transform="translate(286.364044 262.600347) rotate(-315) scale(0.1 -0.1)">
       <use xlink:href="#DejaVuSansMono-32"/>
       <use xlink:href="#DejaVuSansMono-30" transform="translate(60.205078 0)"/>
       <use xlink:href="#DejaVuSansMono-32" transform="translate(120.410156 0)"/>
       <use xlink:href="#DejaVuSansMono-35" transform="translate(180.615234 0)"/>
       <use xlink:href="#DejaVuSansMono-2d" transform="translate(240.820312 0)"/>
       <use xlink:href="#DejaVuSansMono-30" transform="translate(301.025391 0)"/>
       <use xlink:href="#DejaVuSansMono-34" transform="translate(361.230469 0)"/>
       <use xlink:href="#DejaVuSansMono-2d" transform="translate(421.435547 0)"/>
       <use xlink:href="#DejaVuSansMono-30" transform="translate(481.640625 0)"/>
       <use xlink:href="#DejaVuSansMono-31" transform="translate(541.845703 0)"/>
      </g>
     </g>
    </g>
    <g id="xtick_7">
     <g id="line2d_7">
      <g>
       <use xlink:href="#m5e3979b7f7" x="345.082247" y="250.189875" style="fill: #cccccc; stroke: #cccccc; stroke-width: 0.8"/>
      </g>
     </g>
     <g id="text_7">
      <!-- 2025-05-01 -->
      <g style="fill: #cccccc" transform="translate(346.552808 262.600347) rotate(-315) scale(0.1 -0.1)">
       <use xlink:href="#DejaVuSansMono-32"/>
       <use xlink:href="#DejaVuSansMono-30" transform="translate(60.205078 0)"/>
       <use xlink:href="#DejaVuSansMono-32" transform="translate(120.410156 0)"/>
       <use xlink:href="#DejaVuSansMono-35" transform="translate(180.615234 0)"/>
       <use xlink:href="#DejaVuSansMono-2d" transform="translate(240.820312 0)"/>
       <use xlink:href="#DejaVuSansMono-30" transform="translate(301.025391 0)"/>
       <use xlink:href="#DejaVuSansMono-35" transform="translate(361.230469 0)"/>
       <use xlink:href="#DejaVuSansMono-2d" transform="translate(421.435547 0)"/>
       <use xlink:href="#DejaVuSansMono-30" transform="translate(481.640625 0)"/>
       <use xlink:href="#DejaVuSansMono-31" transform="translate(541.845703 0)"/>
      </g>
     </g>
    </g>
    <g id="xtick_8">
     <g id="line2d_8">
      <g>
       <use xlink:href="#m5e3979b7f7" x="357.12" y="250.189875" style="fill: #cccccc; stroke: #cccccc; stroke-width: 0.8"/>
      </g>
     </g>
     <g id="text_8">
      <!-- 2025-05-07 -->
      <g style="fill: #cccccc" transform="translate(358.590561 262.600347) rotate(-315) scale(0.1 -0.1)">
       <defs>
        <path id="DejaVuSansMono-37" d="M 434 4666 
L 3372 4666 
L 3372 4397 
L 1703 0 
L 1044 0 
L 2669 4134 
L 434 4134 
L 434 4666 
z
" transform="scale(0.015625)"/>
       </defs>
       <use xlink:href="#DejaVuSansMono-32"/>
       <use xlink:href="#DejaVuSansMono-30" transform="translate(60.205078 0)"/>
       <use xlink:href="#DejaVuSansMono-32" transform="translate(120.410156 0)"/>
       <use xlink:href="#DejaVuSansMono-35" transform="translate(180.615234 0)"/>
       <use xlink:href="#DejaVuSansMono-2d" transform="translate(240.820312 0)"/>
       <use xlink:href="#DejaVuSansMono-30" transform="translate(301.025391 0)"/>
       <use xlink:href="#DejaVuSansMono-35" transform="translate(361.230469 0)"/>
       <use xlink:href="#DejaVuSansMono-2d" transform="translate(421.435547 0)"/>
       <use xlink:href="#DejaVuSansMono-30" transform="translate(481.640625 0)"/>
       <use xlink:href="#DejaVuSansMono-37" transform="translate(541.845703 0)"/>
      </g>
     </g>
    </g>
   </g>
   <g id="matplotlib.axis_2">
    <g id="ytick_1">
     <g id="line2d_9">
      <defs>
       <path id="m170ec987b4" d="M 0 0 
L 3.5 0 
" style="stroke: #cccccc; stroke-width: 0.8"/>
      </defs>
      <g>
       <use xlink:href="#m170ec987b4" x="357.12" y="250.189875" style="fill: #cccccc; stroke: #cccccc; stroke-width: 0.8"/>
      </g>
     </g>
     <g id="text_9">
      <!-- 0 -->
      <g style="fill: #cccccc" transform="translate(364.12 254.015656) scale(0.1 -0.1)">
       <use xlink:href="#DejaVuSansMono-30"/>
      </g>
     </g>
    </g>
    <g id="ytick_2">
     <g id="line2d_10">
      <g>
       <use xlink:href="#m170ec987b4" x="357.12" y="199.65052" style="fill: #cccccc; stroke: #cccccc; stroke-width: 0.8"/>
      </g>
     </g>
     <g id="text_10">
      <!-- 100 -->
      <g style="fill: #cccccc" transform="translate(364.12 203.476301) scale(0.1 -0.1)">
       <use xlink:href="#DejaVuSansMono-31"/>
       <use xlink:href="#DejaVuSansMono-30" transform="translate(60.205078 0)"/>
       <use xlink:href="#DejaVuSansMono-30" transform="translate(120.410156 0)"/>
      </g>
     </g>
    </g>
    <g id="ytick_3">
     <g id="line2d_11">
      <g>
       <use xlink:href="#m170ec987b4" x="357.12" y="149.111165" style="fill: #cccccc; stroke: #cccccc; stroke-width: 0.8"/>
      </g>
     </g>
     <g id="text_11">
      <!-- 200 -->
      <g style="fill: #cccccc" transform="translate(364.12 152.936947) scale(0.1 -0.1)">
       <use xlink:href="#DejaVuSansMono-32"/>
       <use xlink:href="#DejaVuSansMono-30" transform="translate(60.205078 0)"/>
       <use xlink:href="#DejaVuSansMono-30" transform="translate(120.410156 0)"/>
      </g>
     </g>
    </g>
    <g id="ytick_4">
     <g id="line2d_12">
      <g>
       <use xlink:href="#m170ec987b4" x="357.12" y="98.57181" style="fill: #cccccc; stroke: #cccccc; stroke-width: 0.8"/>
      </g>
     </g>
     <g id="text_12">
      <!-- 300 -->
      <g style="fill: #cccccc" transform="translate(364.12 102.397592) scale(0.1 -0.1)">
       <use xlink:href="#DejaVuSansMono-33"/>
       <use xlink:href="#DejaVuSansMono-30" transform="translate(60.205078 0)"/>
       <use xlink:href="#DejaVuSansMono-30" transform="translate(120.410156 0)"/>
      </g>
     </g>
    </g>
    <g id="ytick_5">
     <g id="line2d_13">
      <g>
       <use xlink:href="#m170ec987b4" x="357.12" y="48.032456" style="fill: #cccccc; stroke: #cccccc; stroke-width: 0.8"/>
      </g>
     </g>
     <g id="text_13">
      <!-- 400 -->
      <g style="fill: #cccccc" transform="translate(364.12 51.858237) scale(0.1 -0.1)">
       <use xlink:href="#DejaVuSansMono-34"/>
       <use xlink:href="#DejaVuSansMono-30" transform="translate(60.205078 0)"/>
       <use xlink:href="#DejaVuSansMono-30" transform="translate(120.410156 0)"/>
      </g>
     </g>
    </g>
    <g id="ytick_6">
     <g id="line2d_14">
      <g>
       <use xlink:href="#m170ec987b4" x="357.12" y="15.687269" style="fill: #cccccc; stroke: #cccccc; stroke-width: 0.8"/>
      </g>
     </g>
     <g id="text_14">
      <!-- 464 -->
      <g style="fill: #cccccc" transform="translate(364.12 19.51305) scale(0.1 -0.1)">
       <defs>
        <path id="DejaVuSansMono-36" d="M 3097 4563 
L 3097 3981 
Q 2900 4097 2678 4158 
Q 2456 4219 2216 4219 
Q 1616 4219 1306 3767 
Q 997 3316 997 2438 
Q 1147 2750 1412 2917 
Q 1678 3084 2022 3084 
Q 2697 3084 3067 2670 
Q 3438 2256 3438 1497 
Q 3438 741 3056 325 
Q 2675 -91 1984 -91 
Q 1172 -91 794 492 
Q 416 1075 416 2328 
Q 416 3509 870 4129 
Q 1325 4750 2188 4750 
Q 2419 4750 2650 4701 
Q 2881 4653 3097 4563 
z
M 1972 2591 
Q 1569 2591 1337 2300 
Q 1106 2009 1106 1497 
Q 1106 984 1337 693 
Q 1569 403 1972 403 
Q 2391 403 2603 679 
Q 2816 956 2816 1497 
Q 2816 2041 2603 2316 
Q 2391 2591 1972 2591 
z
" transform="scale(0.015625)"/>
       </defs>
       <use xlink:href="#DejaVuSansMono-34"/>
       <use xlink:href="#DejaVuSansMono-36" transform="translate(60.205078 0)"/>
       <use xlink:href="#DejaVuSansMono-34" transform="translate(120.410156 0)"/>
      </g>
     </g>
    </g>
    <g id="text_15">
     <!-- recording -->
     <g style="fill: #cccccc" transform="translate(393.779375 159.777281) rotate(-90) scale(0.1 -0.1)">
      <defs>
       <path id="DejaVuSansMono-72" d="M 3609 2778 
Q 3425 2922 3234 2987 
Q 3044 3053 2816 3053 
Q 2278 3053 1993 2715 
Q 1709 2378 1709 1741 
L 1709 0 
L 1131 0 
L 1131 3500 
L 1709 3500 
L 1709 2816 
Q 1853 3188 2151 3386 
Q 2450 3584 2859 3584 
Q 3072 3584 3256 3531 
Q 3441 3478 3609 3366 
L 3609 2778 
z
" transform="scale(0.015625)"/>
       <path id="DejaVuSansMono-65" d="M 3475 1894 
L 3475 1613 
L 984 1613 
L 984 1594 
Q 984 1022 1282 709 
Q 1581 397 2125 397 
Q 2400 397 2700 484 
Q 3000 572 3341 750 
L 3341 178 
Q 3013 44 2708 -23 
Q 2403 -91 2119 -91 
Q 1303 -91 843 398 
Q 384 888 384 1747 
Q 384 2584 834 3084 
Q 1284 3584 2034 3584 
Q 2703 3584 3089 3131 
Q 3475 2678 3475 1894 
z
M 2900 2063 
Q 2888 2569 2661 2833 
Q 2434 3097 2009 3097 
Q 1594 3097 1325 2822 
Q 1056 2547 1006 2059 
L 2900 2063 
z
" transform="scale(0.015625)"/>
       <path id="DejaVuSansMono-63" d="M 3316 178 
Q 3084 44 2839 -23 
Q 2594 -91 2338 -91 
Q 1525 -91 1067 396 
Q 609 884 609 1747 
Q 609 2609 1067 3096 
Q 1525 3584 2338 3584 
Q 2591 3584 2831 3518 
Q 3072 3453 3316 3316 
L 3316 2713 
Q 3088 2916 2858 3006 
Q 2628 3097 2338 3097 
Q 1797 3097 1506 2747 
Q 1216 2397 1216 1747 
Q 1216 1100 1508 748 
Q 1800 397 2338 397 
Q 2638 397 2875 489 
Q 3113 581 3316 775 
L 3316 178 
z
" transform="scale(0.015625)"/>
       <path id="DejaVuSansMono-6f" d="M 1925 3097 
Q 1488 3097 1263 2756 
Q 1038 2416 1038 1747 
Q 1038 1081 1263 739 
Q 1488 397 1925 397 
Q 2366 397 2591 739 
Q 2816 1081 2816 1747 
Q 2816 2416 2591 2756 
Q 2366 3097 1925 3097 
z
M 1925 3584 
Q 2653 3584 3039 3112 
Q 3425 2641 3425 1747 
Q 3425 850 3040 379 
Q 2656 -91 1925 -91 
Q 1197 -91 812 379 
Q 428 850 428 1747 
Q 428 2641 812 3112 
Q 1197 3584 1925 3584 
z
" transform="scale(0.015625)"/>
       <path id="DejaVuSansMono-64" d="M 2681 3053 
L 2681 4863 
L 3256 4863 
L 3256 0 
L 2681 0 
L 2681 441 
Q 2538 181 2298 45 
Q 2059 -91 1747 -91 
Q 1113 -91 748 401 
Q 384 894 384 1759 
Q 384 2613 750 3098 
Q 1116 3584 1747 3584 
Q 2063 3584 2303 3448 
Q 2544 3313 2681 3053 
z
M 991 1747 
Q 991 1078 1203 737 
Q 1416 397 1831 397 
Q 2247 397 2464 740 
Q 2681 1084 2681 1747 
Q 2681 2413 2464 2755 
Q 2247 3097 1831 3097 
Q 1416 3097 1203 2756 
Q 991 2416 991 1747 
z
" transform="scale(0.015625)"/>
       <path id="DejaVuSansMono-69" d="M 800 3500 
L 2272 3500 
L 2272 447 
L 3413 447 
L 3413 0 
L 556 0 
L 556 447 
L 1697 447 
L 1697 3053 
L 800 3053 
L 800 3500 
z
M 1697 4863 
L 2272 4863 
L 2272 4134 
L 1697 4134 
L 1697 4863 
z
" transform="scale(0.015625)"/>
       <path id="DejaVuSansMono-6e" d="M 3284 2169 
L 3284 0 
L 2706 0 
L 2706 2169 
Q 2706 2641 2540 2862 
Q 2375 3084 2022 3084 
Q 1619 3084 1401 2798 
Q 1184 2513 1184 1978 
L 1184 0 
L 609 0 
L 609 3500 
L 1184 3500 
L 1184 2975 
Q 1338 3275 1600 3429 
Q 1863 3584 2222 3584 
Q 2756 3584 3020 3232 
Q 3284 2881 3284 2169 
z
" transform="scale(0.015625)"/>
       <path id="DejaVuSansMono-67" d="M 2681 1778 
Q 2681 2425 2470 2761 
Q 2259 3097 1856 3097 
Q 1434 3097 1212 2761 
Q 991 2425 991 1778 
Q 991 1131 1214 792 
Q 1438 453 1863 453 
Q 2259 453 2470 793 
Q 2681 1134 2681 1778 
z
M 3256 225 
Q 3256 -563 2884 -969 
Q 2513 -1375 1791 -1375 
Q 1553 -1375 1293 -1331 
Q 1034 -1288 775 -1203 
L 775 -634 
Q 1081 -778 1331 -847 
Q 1581 -916 1791 -916 
Q 2256 -916 2468 -662 
Q 2681 -409 2681 141 
L 2681 166 
L 2681 556 
Q 2544 263 2306 119 
Q 2069 -25 1728 -25 
Q 1116 -25 750 465 
Q 384 956 384 1778 
Q 384 2603 750 3093 
Q 1116 3584 1728 3584 
Q 2066 3584 2300 3450 
Q 2534 3316 2681 3034 
L 2681 3488 
L 3256 3488 
L 3256 225 
z
" transform="scale(0.015625)"/>
      </defs>
      <use xlink:href="#DejaVuSansMono-72"/>
      <use xlink:href="#DejaVuSansMono-65" transform="translate(60.205078 0)"/>
      <use xlink:href="#DejaVuSansMono-63" transform="translate(120.410156 0)"/>
      <use xlink:href="#DejaVuSansMono-6f" transform="translate(180.615234 0)"/>
      <use xlink:href="#DejaVuSansMono-72" transform="translate(240.820312 0)"/>
      <use xlink:href="#DejaVuSansMono-64" transform="translate(301.025391 0)"/>
      <use xlink:href="#DejaVuSansMono-69" transform="translate(361.230469 0)"/>
      <use xlink:href="#DejaVuSansMono-6e" transform="translate(421.435547 0)"/>
      <use xlink:href="#DejaVuSansMono-67" transform="translate(481.640625 0)"/>
     </g>
    </g>
   </g>
   <g id="line2d_15">
    <path d="M 0 249.684481 
L 2.006292 248.168301 
L 8.025169 241.598185 
L 10.031461 241.092791 
L 24.075506 241.092791 
L 26.081798 241.598185 
L 56.17618 234.522675 
L 60.188764 233.511888 
L 64.201348 233.006494 
L 96.302022 232.501101 
L 126.396404 222.39323 
L 132.415281 221.887836 
L 134.421573 212.790752 
L 144.453034 212.285359 
L 150.47191 209.252998 
L 162.509663 204.199062 
L 174.547416 203.188275 
L 182.572584 196.618159 
L 184.578876 188.026469 
L 186.585169 184.488714 
L 188.591461 178.423991 
L 192.604045 171.853875 
L 194.610337 167.810727 
L 198.622921 160.229823 
L 204.641798 157.197462 
L 206.64809 153.659707 
L 212.666966 144.562623 
L 214.673258 139.508688 
L 216.679551 139.003294 
L 220.692135 137.992507 
L 222.698427 136.98172 
L 226.711011 134.960146 
L 230.723596 134.454752 
L 232.729888 131.927785 
L 234.73618 121.31452 
L 248.780225 114.23901 
L 254.799101 113.733617 
L 256.805393 110.195862 
L 262.82427 106.152714 
L 266.836854 96.044843 
L 268.843146 95.539449 
L 270.849438 91.496301 
L 274.862022 84.420791 
L 276.868315 82.399217 
L 282.887191 81.38843 
L 284.893483 79.366856 
L 290.91236 71.785952 
L 296.931236 61.678081 
L 302.950112 61.172688 
L 306.962697 59.656507 
L 308.968989 58.64572 
L 310.975281 49.043243 
L 312.981573 48.537849 
L 316.994157 48.032456 
L 319.000449 47.021669 
L 323.013034 45.000094 
L 325.019326 35.397617 
L 339.063371 34.38683 
L 341.069663 33.376043 
L 343.075955 21.246598 
L 345.082247 18.214236 
L 347.088539 17.708843 
L 355.113708 16.192662 
L 357.12 15.687269 
" clip-path="url(#pe069a8c8a2)" style="fill: none; stroke: #d5397b; stroke-opacity: 0.5; stroke-width: 1.5; stroke-linecap: square"/>
   </g>
   <g id="text_16">
    <!-- days: 178 -->
    <g style="fill: #cccccc" transform="translate(35.712 46.334237) scale(0.1 -0.1)">
     <defs>
      <path id="DejaVuSansMono-61" d="M 2194 1759 
L 2003 1759 
Q 1500 1759 1245 1582 
Q 991 1406 991 1056 
Q 991 741 1181 566 
Q 1372 391 1709 391 
Q 2184 391 2456 720 
Q 2728 1050 2731 1631 
L 2731 1759 
L 2194 1759 
z
M 3309 1997 
L 3309 0 
L 2731 0 
L 2731 519 
Q 2547 206 2267 57 
Q 1988 -91 1588 -91 
Q 1053 -91 734 211 
Q 416 513 416 1019 
Q 416 1603 808 1906 
Q 1200 2209 1959 2209 
L 2731 2209 
L 2731 2300 
Q 2728 2719 2518 2908 
Q 2309 3097 1850 3097 
Q 1556 3097 1256 3012 
Q 956 2928 672 2766 
L 672 3341 
Q 991 3463 1283 3523 
Q 1575 3584 1850 3584 
Q 2284 3584 2592 3456 
Q 2900 3328 3091 3072 
Q 3209 2916 3259 2686 
Q 3309 2456 3309 1997 
z
" transform="scale(0.015625)"/>
      <path id="DejaVuSansMono-79" d="M 2681 1125 
Q 2538 759 2316 163 
Q 2006 -663 1900 -844 
Q 1756 -1088 1540 -1209 
Q 1325 -1331 1038 -1331 
L 575 -1331 
L 575 -850 
L 916 -850 
Q 1169 -850 1312 -703 
Q 1456 -556 1678 56 
L 325 3500 
L 934 3500 
L 1972 763 
L 2994 3500 
L 3603 3500 
L 2681 1125 
z
" transform="scale(0.015625)"/>
      <path id="DejaVuSansMono-73" d="M 3041 3378 
L 3041 2816 
Q 2794 2959 2544 3031 
Q 2294 3103 2034 3103 
Q 1644 3103 1451 2976 
Q 1259 2850 1259 2591 
Q 1259 2356 1403 2240 
Q 1547 2125 2119 2016 
L 2350 1972 
Q 2778 1891 2998 1647 
Q 3219 1403 3219 1013 
Q 3219 494 2850 201 
Q 2481 -91 1825 -91 
Q 1566 -91 1281 -36 
Q 997 19 666 128 
L 666 722 
Q 988 556 1281 473 
Q 1575 391 1838 391 
Q 2219 391 2428 545 
Q 2638 700 2638 978 
Q 2638 1378 1872 1531 
L 1847 1538 
L 1631 1581 
Q 1134 1678 906 1908 
Q 678 2138 678 2534 
Q 678 3038 1018 3311 
Q 1359 3584 1991 3584 
Q 2272 3584 2531 3532 
Q 2791 3481 3041 3378 
z
" transform="scale(0.015625)"/>
      <path id="DejaVuSansMono-3a" d="M 1528 3322 
L 2316 3322 
L 2316 2375 
L 1528 2375 
L 1528 3322 
z
M 1528 953 
L 2316 953 
L 2316 0 
L 1528 0 
L 1528 953 
z
" transform="scale(0.015625)"/>
      <path id="DejaVuSansMono-20" transform="scale(0.015625)"/>
      <path id="DejaVuSansMono-38" d="M 1925 2216 
Q 1503 2216 1273 1980 
Q 1044 1744 1044 1313 
Q 1044 881 1276 642 
Q 1509 403 1925 403 
Q 2350 403 2579 639 
Q 2809 875 2809 1313 
Q 2809 1741 2576 1978 
Q 2344 2216 1925 2216 
z
M 1375 2478 
Q 972 2581 745 2862 
Q 519 3144 519 3541 
Q 519 4097 897 4423 
Q 1275 4750 1925 4750 
Q 2578 4750 2956 4423 
Q 3334 4097 3334 3541 
Q 3334 3144 3107 2862 
Q 2881 2581 2478 2478 
Q 2947 2375 3195 2062 
Q 3444 1750 3444 1253 
Q 3444 622 3041 265 
Q 2638 -91 1925 -91 
Q 1213 -91 811 264 
Q 409 619 409 1247 
Q 409 1747 657 2061 
Q 906 2375 1375 2478 
z
M 1147 3481 
Q 1147 3106 1347 2909 
Q 1547 2713 1925 2713 
Q 2306 2713 2506 2909 
Q 2706 3106 2706 3481 
Q 2706 3863 2507 4063 
Q 2309 4263 1925 4263 
Q 1547 4263 1347 4061 
Q 1147 3859 1147 3481 
z
" transform="scale(0.015625)"/>
     </defs>
     <use xlink:href="#DejaVuSansMono-64"/>
     <use xlink:href="#DejaVuSansMono-61" transform="translate(60.205078 0)"/>
     <use xlink:href="#DejaVuSansMono-79" transform="translate(120.410156 0)"/>
     <use xlink:href="#DejaVuSansMono-73" transform="translate(180.615234 0)"/>
     <use xlink:href="#DejaVuSansMono-3a" transform="translate(240.820312 0)"/>
     <use xlink:href="#DejaVuSansMono-20" transform="translate(301.025391 0)"/>
     <use xlink:href="#DejaVuSansMono-31" transform="translate(361.230469 0)"/>
     <use xlink:href="#DejaVuSansMono-37" transform="translate(421.435547 0)"/>
     <use xlink:href="#DejaVuSansMono-38" transform="translate(481.640625 0)"/>
    </g>
    <!--  avg: 2.61 -->
    <g style="fill: #cccccc" transform="translate(35.712 59.891269) scale(0.1 -0.1)">
     <defs>
      <path id="DejaVuSansMono-76" d="M 313 3500 
L 909 3500 
L 1925 563 
L 2944 3500 
L 3541 3500 
L 2297 0 
L 1556 0 
L 313 3500 
z
" transform="scale(0.015625)"/>
      <path id="DejaVuSansMono-2e" d="M 1528 953 
L 2316 953 
L 2316 0 
L 1528 0 
L 1528 953 
z
" transform="scale(0.015625)"/>
     </defs>
     <use xlink:href="#DejaVuSansMono-20"/>
     <use xlink:href="#DejaVuSansMono-61" transform="translate(60.205078 0)"/>
     <use xlink:href="#DejaVuSansMono-76" transform="translate(120.410156 0)"/>
     <use xlink:href="#DejaVuSansMono-67" transform="translate(180.615234 0)"/>
     <use xlink:href="#DejaVuSansMono-3a" transform="translate(240.820312 0)"/>
     <use xlink:href="#DejaVuSansMono-20" transform="translate(301.025391 0)"/>
     <use xlink:href="#DejaVuSansMono-32" transform="translate(361.230469 0)"/>
     <use xlink:href="#DejaVuSansMono-2e" transform="translate(421.435547 0)"/>
     <use xlink:href="#DejaVuSansMono-36" transform="translate(481.640625 0)"/>
     <use xlink:href="#DejaVuSansMono-31" transform="translate(541.845703 0)"/>
    </g>
   </g>
   <g id="text_17">
    <!-- recording count in listen.ron over time -->
    <g style="fill: #cccccc" transform="translate(37.684688 9.181875) scale(0.12 -0.12)">
     <defs>
      <path id="DejaVuSansMono-75" d="M 609 1325 
L 609 3494 
L 1184 3494 
L 1184 1325 
Q 1184 853 1351 631 
Q 1519 409 1869 409 
Q 2275 409 2490 695 
Q 2706 981 2706 1516 
L 2706 3494 
L 3284 3494 
L 3284 0 
L 2706 0 
L 2706 525 
Q 2553 222 2289 65 
Q 2025 -91 1672 -91 
Q 1134 -91 871 261 
Q 609 613 609 1325 
z
" transform="scale(0.015625)"/>
      <path id="DejaVuSansMono-74" d="M 1919 4494 
L 1919 3500 
L 3225 3500 
L 3225 3053 
L 1919 3053 
L 1919 1153 
Q 1919 766 2066 612 
Q 2213 459 2578 459 
L 3225 459 
L 3225 0 
L 2522 0 
Q 1875 0 1609 259 
Q 1344 519 1344 1153 
L 1344 3053 
L 409 3053 
L 409 3500 
L 1344 3500 
L 1344 4494 
L 1919 4494 
z
" transform="scale(0.015625)"/>
      <path id="DejaVuSansMono-6c" d="M 1997 1269 
Q 1997 881 2139 684 
Q 2281 488 2559 488 
L 3231 488 
L 3231 0 
L 2503 0 
Q 1988 0 1705 331 
Q 1422 663 1422 1269 
L 1422 4447 
L 500 4447 
L 500 4897 
L 1997 4897 
L 1997 1269 
z
" transform="scale(0.015625)"/>
      <path id="DejaVuSansMono-6d" d="M 2113 3144 
Q 2219 3369 2383 3476 
Q 2547 3584 2778 3584 
Q 3200 3584 3373 3257 
Q 3547 2931 3547 2028 
L 3547 0 
L 3022 0 
L 3022 2003 
Q 3022 2744 2939 2923 
Q 2856 3103 2638 3103 
Q 2388 3103 2295 2911 
Q 2203 2719 2203 2003 
L 2203 0 
L 1678 0 
L 1678 2003 
Q 1678 2753 1589 2928 
Q 1500 3103 1269 3103 
Q 1041 3103 952 2911 
Q 863 2719 863 2003 
L 863 0 
L 341 0 
L 341 3500 
L 863 3500 
L 863 3200 
Q 966 3388 1120 3486 
Q 1275 3584 1472 3584 
Q 1709 3584 1867 3475 
Q 2025 3366 2113 3144 
z
" transform="scale(0.015625)"/>
     </defs>
     <use xlink:href="#DejaVuSansMono-72"/>
     <use xlink:href="#DejaVuSansMono-65" transform="translate(60.205078 0)"/>
     <use xlink:href="#DejaVuSansMono-63" transform="translate(120.410156 0)"/>
     <use xlink:href="#DejaVuSansMono-6f" transform="translate(180.615234 0)"/>
     <use xlink:href="#DejaVuSansMono-72" transform="translate(240.820312 0)"/>
     <use xlink:href="#DejaVuSansMono-64" transform="translate(301.025391 0)"/>
     <use xlink:href="#DejaVuSansMono-69" transform="translate(361.230469 0)"/>
     <use xlink:href="#DejaVuSansMono-6e" transform="translate(421.435547 0)"/>
     <use xlink:href="#DejaVuSansMono-67" transform="translate(481.640625 0)"/>
     <use xlink:href="#DejaVuSansMono-20" transform="translate(541.845703 0)"/>
     <use xlink:href="#DejaVuSansMono-63" transform="translate(602.050781 0)"/>
     <use xlink:href="#DejaVuSansMono-6f" transform="translate(662.255859 0)"/>
     <use xlink:href="#DejaVuSansMono-75" transform="translate(722.460938 0)"/>
     <use xlink:href="#DejaVuSansMono-6e" transform="translate(782.666016 0)"/>
     <use xlink:href="#DejaVuSansMono-74" transform="translate(842.871094 0)"/>
     <use xlink:href="#DejaVuSansMono-20" transform="translate(903.076172 0)"/>
     <use xlink:href="#DejaVuSansMono-69" transform="translate(963.28125 0)"/>
     <use xlink:href="#DejaVuSansMono-6e" transform="translate(1023.486328 0)"/>
     <use xlink:href="#DejaVuSansMono-20" transform="translate(1083.691406 0)"/>
     <use xlink:href="#DejaVuSansMono-6c" transform="translate(1143.896484 0)"/>
     <use xlink:href="#DejaVuSansMono-69" transform="translate(1204.101562 0)"/>
     <use xlink:href="#DejaVuSansMono-73" transform="translate(1264.306641 0)"/>
     <use xlink:href="#DejaVuSansMono-74" transform="translate(1324.511719 0)"/>
     <use xlink:href="#DejaVuSansMono-65" transform="translate(1384.716797 0)"/>
     <use xlink:href="#DejaVuSansMono-6e" transform="translate(1444.921875 0)"/>
     <use xlink:href="#DejaVuSansMono-2e" transform="translate(1505.126953 0)"/>
     <use xlink:href="#DejaVuSansMono-72" transform="translate(1565.332031 0)"/>
     <use xlink:href="#DejaVuSansMono-6f" transform="translate(1625.537109 0)"/>
     <use xlink:href="#DejaVuSansMono-6e" transform="translate(1685.742188 0)"/>
     <use xlink:href="#DejaVuSansMono-20" transform="translate(1745.947266 0)"/>
     <use xlink:href="#DejaVuSansMono-6f" transform="translate(1806.152344 0)"/>
     <use xlink:href="#DejaVuSansMono-76" transform="translate(1866.357422 0)"/>
     <use xlink:href="#DejaVuSansMono-65" transform="translate(1926.5625 0)"/>
     <use xlink:href="#DejaVuSansMono-72" transform="translate(1986.767578 0)"/>
     <use xlink:href="#DejaVuSansMono-20" transform="translate(2046.972656 0)"/>
     <use xlink:href="#DejaVuSansMono-74" transform="translate(2107.177734 0)"/>
     <use xlink:href="#DejaVuSansMono-69" transform="translate(2167.382812 0)"/>
     <use xlink:href="#DejaVuSansMono-6d" transform="translate(2227.587891 0)"/>
     <use xlink:href="#DejaVuSansMono-65" transform="translate(2287.792969 0)"/>
    </g>
   </g>
  </g>
 </g>
 <defs>
  <clipPath id="pe069a8c8a2">
   <rect x="0" y="15.181875" width="357.12" height="235.008"/>
  </clipPath>
 </defs>
</svg>
