<?xml version="1.0" encoding="utf-8" standalone="no"?>
<!DOCTYPE svg PUBLIC "-//W3C//DTD SVG 1.1//EN"
  "http://www.w3.org/Graphics/SVG/1.1/DTD/svg11.dtd">
<svg xmlns:xlink="http://www.w3.org/1999/xlink" width="406.571071pt" height="306.640946pt" viewBox="0 0 406.571071 306.640946" xmlns="http://www.w3.org/2000/svg" version="1.1">
 <metadata>
  <rdf:RDF xmlns:dc="http://purl.org/dc/elements/1.1/" xmlns:cc="http://creativecommons.org/ns#" xmlns:rdf="http://www.w3.org/1999/02/22-rdf-syntax-ns#">
   <cc:Work>
    <dc:type rdf:resource="http://purl.org/dc/dcmitype/StillImage"/>
    <dc:date>2025-10-07T18:51:56.669555</dc:date>
    <dc:format>image/svg+xml</dc:format>
    <dc:creator>
     <cc:Agent>
      <dc:title>Matplotlib v3.10.6, https://matplotlib.org/</dc:title>
     </cc:Agent>
    </dc:creator>
   </cc:Work>
  </rdf:RDF>
 </metadata>
 <defs>
  <style type="text/css">*{stroke-linejoin: round; stroke-linecap: butt}</style>
 </defs>
 <g id="figure_1">
  <g id="patch_1">
   <path d="M 0 306.640946 
L 406.571071 306.640946 
L 406.571071 0 
L 0 0 
L 0 306.640946 
z
" style="fill: none"/>
  </g>
  <g id="axes_1">
   <g id="patch_2">
    <path d="M 0 250.189875 
L 357.12 250.189875 
L 357.12 15.181875 
L 0 15.181875 
L 0 250.189875 
z
" style="fill: none"/>
   </g>
   <g id="FillBetweenPolyCollection_1">
    <defs>
     <path id="m98d41d90b0" d="M 0 -56.451071 
L 0 -56.759076 
L 1.078912 -57.683092 
L 4.31565 -61.68716 
L 5.394562 -61.995165 
L 12.946949 -61.995165 
L 14.025861 -61.68716 
L 30.209547 -65.999233 
L 32.367372 -66.615244 
L 34.525196 -66.923249 
L 51.787795 -67.231254 
L 67.97148 -73.391359 
L 71.208218 -73.699364 
L 72.28713 -79.243459 
L 77.681692 -79.551464 
L 80.918429 -81.399495 
L 87.391903 -84.479548 
L 93.865378 -85.095558 
L 98.181027 -89.099627 
L 99.25994 -94.335716 
L 100.338852 -96.491752 
L 101.417764 -100.187815 
L 103.575589 -104.191883 
L 104.654502 -106.655925 
L 106.812326 -111.276004 
L 110.049063 -113.124035 
L 111.127976 -115.280072 
L 114.364713 -120.824166 
L 115.443625 -123.904219 
L 116.522538 -124.212224 
L 118.680363 -124.828235 
L 119.759275 -125.444245 
L 121.9171 -126.676266 
L 124.074924 -126.984271 
L 125.153837 -128.524298 
L 126.232749 -134.992408 
L 133.785136 -139.304481 
L 137.021873 -139.612486 
L 138.100785 -141.768523 
L 141.337523 -144.232565 
L 143.495347 -150.39267 
L 144.57426 -150.700675 
L 145.653172 -153.164717 
L 147.810997 -157.47679 
L 148.889909 -158.708811 
L 152.126647 -159.324822 
L 153.205559 -160.556843 
L 156.442296 -165.176921 
L 159.679033 -171.337026 
L 162.91577 -171.645031 
L 165.073595 -172.569047 
L 166.152508 -173.185058 
L 167.23142 -179.037157 
L 168.310332 -179.345163 
L 170.468157 -179.653168 
L 171.547069 -180.269178 
L 173.704894 -181.501199 
L 174.783807 -187.353299 
L 182.336193 -187.969309 
L 183.415106 -188.58532 
L 184.494018 -195.977446 
L 185.572931 -197.825477 
L 186.651843 -198.133482 
L 190.967492 -199.057498 
L 192.046405 -199.673509 
L 193.125317 -204.909598 
L 194.20423 -206.449624 
L 195.283142 -206.757629 
L 196.362054 -209.221671 
L 197.440967 -211.685713 
L 200.677704 -212.917734 
L 202.835529 -213.225739 
L 204.993353 -214.765765 
L 206.072266 -216.921802 
L 207.151178 -219.077839 
L 210.387915 -223.081907 
L 211.466828 -232.322064 
L 213.624653 -232.938075 
L 214.703565 -234.786106 
L 216.86139 -234.786106 
L 223.334864 -239.71419 
L 225.492689 -240.330201 
L 226.571601 -241.562222 
L 231.966163 -247.414321 
L 233.045076 -248.030332 
L 234.123988 -248.646342 
L 236.281813 -249.570358 
L 238.439637 -249.878363 
L 245.992024 -250.494374 
L 253.544411 -253.882431 
L 257.86006 -255.114452 
L 258.938973 -256.346473 
L 260.017885 -261.890568 
L 261.096798 -261.890568 
L 267.570272 -262.506578 
L 275.122659 -262.506578 
L 276.201571 -263.738599 
L 278.359396 -264.662615 
L 279.438308 -265.58663 
L 293.464169 -266.202641 
L 294.543082 -271.746735 
L 306.411118 -272.362746 
L 308.568943 -275.134793 
L 318.279154 -278.522851 
L 319.358066 -278.522851 
L 323.673716 -278.830856 
L 324.752628 -279.754872 
L 327.989366 -281.910908 
L 330.14719 -281.910908 
L 336.620665 -283.75894 
L 337.699577 -287.146997 
L 338.778489 -288.071013 
L 340.936314 -288.379018 
L 351.725438 -290.84306 
L 356.041088 -290.84306 
L 357.12 -291.151066 
L 357.12 -56.451071 
L 357.12 -56.451071 
L 356.041088 -56.451071 
L 351.725438 -56.451071 
L 340.936314 -56.451071 
L 338.778489 -56.451071 
L 337.699577 -56.451071 
L 336.620665 -56.451071 
L 330.14719 -56.451071 
L 327.989366 -56.451071 
L 324.752628 -56.451071 
L 323.673716 -56.451071 
L 319.358066 -56.451071 
L 318.279154 -56.451071 
L 308.568943 -56.451071 
L 306.411118 -56.451071 
L 294.543082 -56.451071 
L 293.464169 -56.451071 
L 279.438308 -56.451071 
L 278.359396 -56.451071 
L 276.201571 -56.451071 
L 275.122659 -56.451071 
L 267.570272 -56.451071 
L 261.096798 -56.451071 
L 260.017885 -56.451071 
L 258.938973 -56.451071 
L 257.86006 -56.451071 
L 253.544411 -56.451071 
L 245.992024 -56.451071 
L 238.439637 -56.451071 
L 236.281813 -56.451071 
L 234.123988 -56.451071 
L 233.045076 -56.451071 
L 231.966163 -56.451071 
L 226.571601 -56.451071 
L 225.492689 -56.451071 
L 223.334864 -56.451071 
L 216.86139 -56.451071 
L 214.703565 -56.451071 
L 213.624653 -56.451071 
L 211.466828 -56.451071 
L 210.387915 -56.451071 
L 207.151178 -56.451071 
L 206.072266 -56.451071 
L 204.993353 -56.451071 
L 202.835529 -56.451071 
L 200.677704 -56.451071 
L 197.440967 -56.451071 
L 196.362054 -56.451071 
L 195.283142 -56.451071 
L 194.20423 -56.451071 
L 193.125317 -56.451071 
L 192.046405 -56.451071 
L 190.967492 -56.451071 
L 186.651843 -56.451071 
L 185.572931 -56.451071 
L 184.494018 -56.451071 
L 183.415106 -56.451071 
L 182.336193 -56.451071 
L 174.783807 -56.451071 
L 173.704894 -56.451071 
L 171.547069 -56.451071 
L 170.468157 -56.451071 
L 168.310332 -56.451071 
L 167.23142 -56.451071 
L 166.152508 -56.451071 
L 165.073595 -56.451071 
L 162.91577 -56.451071 
L 159.679033 -56.451071 
L 156.442296 -56.451071 
L 153.205559 -56.451071 
L 152.126647 -56.451071 
L 148.889909 -56.451071 
L 147.810997 -56.451071 
L 145.653172 -56.451071 
L 144.57426 -56.451071 
L 143.495347 -56.451071 
L 141.337523 -56.451071 
L 138.100785 -56.451071 
L 137.021873 -56.451071 
L 133.785136 -56.451071 
L 126.232749 -56.451071 
L 125.153837 -56.451071 
L 124.074924 -56.451071 
L 121.9171 -56.451071 
L 119.759275 -56.451071 
L 118.680363 -56.451071 
L 116.522538 -56.451071 
L 115.443625 -56.451071 
L 114.364713 -56.451071 
L 111.127976 -56.451071 
L 110.049063 -56.451071 
L 106.812326 -56.451071 
L 104.654502 -56.451071 
L 103.575589 -56.451071 
L 101.417764 -56.451071 
L 100.338852 -56.451071 
L 99.25994 -56.451071 
L 98.181027 -56.451071 
L 93.865378 -56.451071 
L 87.391903 -56.451071 
L 80.918429 -56.451071 
L 77.681692 -56.451071 
L 72.28713 -56.451071 
L 71.208218 -56.451071 
L 67.97148 -56.451071 
L 51.787795 -56.451071 
L 34.525196 -56.451071 
L 32.367372 -56.451071 
L 30.209547 -56.451071 
L 14.025861 -56.451071 
L 12.946949 -56.451071 
L 5.394562 -56.451071 
L 4.31565 -56.451071 
L 1.078912 -56.451071 
L 0 -56.451071 
z
" style="stroke: #d5397b; stroke-opacity: 0.4"/>
    </defs>
    <g clip-path="url(#p42f0a04149)">
     <use xlink:href="#m98d41d90b0" x="0" y="306.640946" style="fill: #d5397b; fill-opacity: 0.4; stroke: #d5397b; stroke-opacity: 0.4"/>
    </g>
   </g>
   <g id="matplotlib.axis_1">
    <g id="xtick_1">
     <g id="line2d_1">
      <defs>
       <path id="medf9808a12" d="M 0 0 
L 0 3.5 
" style="stroke: #cccccc; stroke-width: 0.8"/>
      </defs>
      <g>
       <use xlink:href="#medf9808a12" x="0" y="250.189875" style="fill: #cccccc; stroke: #cccccc; stroke-width: 0.8"/>
      </g>
     </g>
     <g id="text_1">
      <!-- 2024-11-10 -->
      <g style="fill: #cccccc" transform="translate(1.470561 262.600347) rotate(-315) scale(0.1 -0.1)">
       <defs>
        <path id="DejaVuSansMono-32" d="M 1166 531 
L 3309 531 
L 3309 0 
L 475 0 
L 475 531 
Q 1059 1147 1496 1619 
Q 1934 2091 2100 2284 
Q 2413 2666 2522 2902 
Q 2631 3138 2631 3384 
Q 2631 3775 2401 3997 
Q 2172 4219 1772 4219 
Q 1488 4219 1175 4116 
Q 863 4013 513 3803 
L 513 4441 
Q 834 4594 1145 4672 
Q 1456 4750 1759 4750 
Q 2444 4750 2861 4386 
Q 3278 4022 3278 3431 
Q 3278 3131 3139 2831 
Q 3000 2531 2688 2169 
Q 2513 1966 2180 1606 
Q 1847 1247 1166 531 
z
" transform="scale(0.015625)"/>
        <path id="DejaVuSansMono-30" d="M 1509 2344 
Q 1509 2516 1629 2641 
Q 1750 2766 1919 2766 
Q 2094 2766 2219 2641 
Q 2344 2516 2344 2344 
Q 2344 2169 2220 2047 
Q 2097 1925 1919 1925 
Q 1744 1925 1626 2044 
Q 1509 2163 1509 2344 
z
M 1925 4250 
Q 1484 4250 1267 3775 
Q 1050 3300 1050 2328 
Q 1050 1359 1267 884 
Q 1484 409 1925 409 
Q 2369 409 2586 884 
Q 2803 1359 2803 2328 
Q 2803 3300 2586 3775 
Q 2369 4250 1925 4250 
z
M 1925 4750 
Q 2672 4750 3055 4137 
Q 3438 3525 3438 2328 
Q 3438 1134 3055 521 
Q 2672 -91 1925 -91 
Q 1178 -91 797 521 
Q 416 1134 416 2328 
Q 416 3525 797 4137 
Q 1178 4750 1925 4750 
z
" transform="scale(0.015625)"/>
        <path id="DejaVuSansMono-34" d="M 2297 4091 
L 825 1625 
L 2297 1625 
L 2297 4091 
z
M 2194 4666 
L 2925 4666 
L 2925 1625 
L 3547 1625 
L 3547 1113 
L 2925 1113 
L 2925 0 
L 2297 0 
L 2297 1113 
L 319 1113 
L 319 1709 
L 2194 4666 
z
" transform="scale(0.015625)"/>
        <path id="DejaVuSansMono-2d" d="M 1113 2009 
L 2741 2009 
L 2741 1497 
L 1113 1497 
L 1113 2009 
z
" transform="scale(0.015625)"/>
        <path id="DejaVuSansMono-31" d="M 844 531 
L 1825 531 
L 1825 4097 
L 769 3859 
L 769 4434 
L 1819 4666 
L 2450 4666 
L 2450 531 
L 3419 531 
L 3419 0 
L 844 0 
L 844 531 
z
" transform="scale(0.015625)"/>
       </defs>
       <use xlink:href="#DejaVuSansMono-32"/>
       <use xlink:href="#DejaVuSansMono-30" transform="translate(60.205078 0)"/>
       <use xlink:href="#DejaVuSansMono-32" transform="translate(120.410156 0)"/>
       <use xlink:href="#DejaVuSansMono-34" transform="translate(180.615234 0)"/>
       <use xlink:href="#DejaVuSansMono-2d" transform="translate(240.820312 0)"/>
       <use xlink:href="#DejaVuSansMono-31" transform="translate(301.025391 0)"/>
       <use xlink:href="#DejaVuSansMono-31" transform="translate(361.230469 0)"/>
       <use xlink:href="#DejaVuSansMono-2d" transform="translate(421.435547 0)"/>
       <use xlink:href="#DejaVuSansMono-31" transform="translate(481.640625 0)"/>
       <use xlink:href="#DejaVuSansMono-30" transform="translate(541.845703 0)"/>
      </g>
     </g>
    </g>
    <g id="xtick_2">
     <g id="line2d_2">
      <g>
       <use xlink:href="#medf9808a12" x="22.65716" y="250.189875" style="fill: #cccccc; stroke: #cccccc; stroke-width: 0.8"/>
      </g>
     </g>
     <g id="text_2">
      <!-- 2024-12-01 -->
      <g style="fill: #cccccc" transform="translate(24.127721 262.600347) rotate(-315) scale(0.1 -0.1)">
       <use xlink:href="#DejaVuSansMono-32"/>
       <use xlink:href="#DejaVuSansMono-30" transform="translate(60.205078 0)"/>
       <use xlink:href="#DejaVuSansMono-32" transform="translate(120.410156 0)"/>
       <use xlink:href="#DejaVuSansMono-34" transform="translate(180.615234 0)"/>
       <use xlink:href="#DejaVuSansMono-2d" transform="translate(240.820312 0)"/>
       <use xlink:href="#DejaVuSansMono-31" transform="translate(301.025391 0)"/>
       <use xlink:href="#DejaVuSansMono-32" transform="translate(361.230469 0)"/>
       <use xlink:href="#DejaVuSansMono-2d" transform="translate(421.435547 0)"/>
       <use xlink:href="#DejaVuSansMono-30" transform="translate(481.640625 0)"/>
       <use xlink:href="#DejaVuSansMono-31" transform="translate(541.845703 0)"/>
      </g>
     </g>
    </g>
    <g id="xtick_3">
     <g id="line2d_3">
      <g>
       <use xlink:href="#medf9808a12" x="56.103444" y="250.189875" style="fill: #cccccc; stroke: #cccccc; stroke-width: 0.8"/>
      </g>
     </g>
     <g id="text_3">
      <!-- 2025-01-01 -->
      <g style="fill: #cccccc" transform="translate(57.574005 262.600347) rotate(-315) scale(0.1 -0.1)">
       <defs>
        <path id="DejaVuSansMono-35" d="M 647 4666 
L 3009 4666 
L 3009 4134 
L 1222 4134 
L 1222 2988 
Q 1356 3038 1492 3061 
Q 1628 3084 1766 3084 
Q 2491 3084 2916 2656 
Q 3341 2228 3341 1497 
Q 3341 759 2895 334 
Q 2450 -91 1678 -91 
Q 1306 -91 998 -41 
Q 691 9 447 109 
L 447 750 
Q 734 594 1025 517 
Q 1316 441 1619 441 
Q 2141 441 2423 716 
Q 2706 991 2706 1497 
Q 2706 1997 2414 2275 
Q 2122 2553 1600 2553 
Q 1347 2553 1106 2495 
Q 866 2438 647 2322 
L 647 4666 
z
" transform="scale(0.015625)"/>
       </defs>
       <use xlink:href="#DejaVuSansMono-32"/>
       <use xlink:href="#DejaVuSansMono-30" transform="translate(60.205078 0)"/>
       <use xlink:href="#DejaVuSansMono-32" transform="translate(120.410156 0)"/>
       <use xlink:href="#DejaVuSansMono-35" transform="translate(180.615234 0)"/>
       <use xlink:href="#DejaVuSansMono-2d" transform="translate(240.820312 0)"/>
       <use xlink:href="#DejaVuSansMono-30" transform="translate(301.025391 0)"/>
       <use xlink:href="#DejaVuSansMono-31" transform="translate(361.230469 0)"/>
       <use xlink:href="#DejaVuSansMono-2d" transform="translate(421.435547 0)"/>
       <use xlink:href="#DejaVuSansMono-30" transform="translate(481.640625 0)"/>
       <use xlink:href="#DejaVuSansMono-31" transform="translate(541.845703 0)"/>
      </g>
     </g>
    </g>
    <g id="xtick_4">
     <g id="line2d_4">
      <g>
       <use xlink:href="#medf9808a12" x="89.549728" y="250.189875" style="fill: #cccccc; stroke: #cccccc; stroke-width: 0.8"/>
      </g>
     </g>
     <g id="text_4">
      <!-- 2025-02-01 -->
      <g style="fill: #cccccc" transform="translate(91.020289 262.600347) rotate(-315) scale(0.1 -0.1)">
       <use xlink:href="#DejaVuSansMono-32"/>
       <use xlink:href="#DejaVuSansMono-30" transform="translate(60.205078 0)"/>
       <use xlink:href="#DejaVuSansMono-32" transform="translate(120.410156 0)"/>
       <use xlink:href="#DejaVuSansMono-35" transform="translate(180.615234 0)"/>
       <use xlink:href="#DejaVuSansMono-2d" transform="translate(240.820312 0)"/>
       <use xlink:href="#DejaVuSansMono-30" transform="translate(301.025391 0)"/>
       <use xlink:href="#DejaVuSansMono-32" transform="translate(361.230469 0)"/>
       <use xlink:href="#DejaVuSansMono-2d" transform="translate(421.435547 0)"/>
       <use xlink:href="#DejaVuSansMono-30" transform="translate(481.640625 0)"/>
       <use xlink:href="#DejaVuSansMono-31" transform="translate(541.845703 0)"/>
      </g>
     </g>
    </g>
    <g id="xtick_5">
     <g id="line2d_5">
      <g>
       <use xlink:href="#medf9808a12" x="119.759275" y="250.189875" style="fill: #cccccc; stroke: #cccccc; stroke-width: 0.8"/>
      </g>
     </g>
     <g id="text_5">
      <!-- 2025-03-01 -->
      <g style="fill: #cccccc" transform="translate(121.229836 262.600347) rotate(-315) scale(0.1 -0.1)">
       <defs>
        <path id="DejaVuSansMono-33" d="M 2425 2497 
Q 2884 2375 3128 2064 
Q 3372 1753 3372 1288 
Q 3372 644 2939 276 
Q 2506 -91 1741 -91 
Q 1419 -91 1084 -31 
Q 750 28 428 141 
L 428 769 
Q 747 603 1056 522 
Q 1366 441 1672 441 
Q 2191 441 2469 675 
Q 2747 909 2747 1350 
Q 2747 1756 2469 1995 
Q 2191 2234 1716 2234 
L 1234 2234 
L 1234 2753 
L 1716 2753 
Q 2150 2753 2394 2943 
Q 2638 3134 2638 3475 
Q 2638 3834 2411 4026 
Q 2184 4219 1766 4219 
Q 1488 4219 1191 4156 
Q 894 4094 569 3969 
L 569 4550 
Q 947 4650 1242 4700 
Q 1538 4750 1766 4750 
Q 2447 4750 2855 4408 
Q 3263 4066 3263 3500 
Q 3263 3116 3048 2859 
Q 2834 2603 2425 2497 
z
" transform="scale(0.015625)"/>
       </defs>
       <use xlink:href="#DejaVuSansMono-32"/>
       <use xlink:href="#DejaVuSansMono-30" transform="translate(60.205078 0)"/>
       <use xlink:href="#DejaVuSansMono-32" transform="translate(120.410156 0)"/>
       <use xlink:href="#DejaVuSansMono-35" transform="translate(180.615234 0)"/>
       <use xlink:href="#DejaVuSansMono-2d" transform="translate(240.820312 0)"/>
       <use xlink:href="#DejaVuSansMono-30" transform="translate(301.025391 0)"/>
       <use xlink:href="#DejaVuSansMono-33" transform="translate(361.230469 0)"/>
       <use xlink:href="#DejaVuSansMono-2d" transform="translate(421.435547 0)"/>
       <use xlink:href="#DejaVuSansMono-30" transform="translate(481.640625 0)"/>
       <use xlink:href="#DejaVuSansMono-31" transform="translate(541.845703 0)"/>
      </g>
     </g>
    </g>
    <g id="xtick_6">
     <g id="line2d_6">
      <g>
       <use xlink:href="#medf9808a12" x="153.205559" y="250.189875" style="fill: #cccccc; stroke: #cccccc; stroke-width: 0.8"/>
      </g>
     </g>
     <g id="text_6">
      <!-- 2025-04-01 -->
      <g style="fill: #cccccc" transform="translate(154.67612 262.600347) rotate(-315) scale(0.1 -0.1)">
       <use xlink:href="#DejaVuSansMono-32"/>
       <use xlink:href="#DejaVuSansMono-30" transform="translate(60.205078 0)"/>
       <use xlink:href="#DejaVuSansMono-32" transform="translate(120.410156 0)"/>
       <use xlink:href="#DejaVuSansMono-35" transform="translate(180.615234 0)"/>
       <use xlink:href="#DejaVuSansMono-2d" transform="translate(240.820312 0)"/>
       <use xlink:href="#DejaVuSansMono-30" transform="translate(301.025391 0)"/>
       <use xlink:href="#DejaVuSansMono-34" transform="translate(361.230469 0)"/>
       <use xlink:href="#DejaVuSansMono-2d" transform="translate(421.435547 0)"/>
       <use xlink:href="#DejaVuSansMono-30" transform="translate(481.640625 0)"/>
       <use xlink:href="#DejaVuSansMono-31" transform="translate(541.845703 0)"/>
      </g>
     </g>
    </g>
    <g id="xtick_7">
     <g id="line2d_7">
      <g>
       <use xlink:href="#medf9808a12" x="185.572931" y="250.189875" style="fill: #cccccc; stroke: #cccccc; stroke-width: 0.8"/>
      </g>
     </g>
     <g id="text_7">
      <!-- 2025-05-01 -->
      <g style="fill: #cccccc" transform="translate(187.043492 262.600347) rotate(-315) scale(0.1 -0.1)">
       <use xlink:href="#DejaVuSansMono-32"/>
       <use xlink:href="#DejaVuSansMono-30" transform="translate(60.205078 0)"/>
       <use xlink:href="#DejaVuSansMono-32" transform="translate(120.410156 0)"/>
       <use xlink:href="#DejaVuSansMono-35" transform="translate(180.615234 0)"/>
       <use xlink:href="#DejaVuSansMono-2d" transform="translate(240.820312 0)"/>
       <use xlink:href="#DejaVuSansMono-30" transform="translate(301.025391 0)"/>
       <use xlink:href="#DejaVuSansMono-35" transform="translate(361.230469 0)"/>
       <use xlink:href="#DejaVuSansMono-2d" transform="translate(421.435547 0)"/>
       <use xlink:href="#DejaVuSansMono-30" transform="translate(481.640625 0)"/>
       <use xlink:href="#DejaVuSansMono-31" transform="translate(541.845703 0)"/>
      </g>
     </g>
    </g>
    <g id="xtick_8">
     <g id="line2d_8">
      <g>
       <use xlink:href="#medf9808a12" x="219.019215" y="250.189875" style="fill: #cccccc; stroke: #cccccc; stroke-width: 0.8"/>
      </g>
     </g>
     <g id="text_8">
      <!-- 2025-06-01 -->
      <g style="fill: #cccccc" transform="translate(220.489776 262.600347) rotate(-315) scale(0.1 -0.1)">
       <defs>
        <path id="DejaVuSansMono-36" d="M 3097 4563 
L 3097 3981 
Q 2900 4097 2678 4158 
Q 2456 4219 2216 4219 
Q 1616 4219 1306 3767 
Q 997 3316 997 2438 
Q 1147 2750 1412 2917 
Q 1678 3084 2022 3084 
Q 2697 3084 3067 2670 
Q 3438 2256 3438 1497 
Q 3438 741 3056 325 
Q 2675 -91 1984 -91 
Q 1172 -91 794 492 
Q 416 1075 416 2328 
Q 416 3509 870 4129 
Q 1325 4750 2188 4750 
Q 2419 4750 2650 4701 
Q 2881 4653 3097 4563 
z
M 1972 2591 
Q 1569 2591 1337 2300 
Q 1106 2009 1106 1497 
Q 1106 984 1337 693 
Q 1569 403 1972 403 
Q 2391 403 2603 679 
Q 2816 956 2816 1497 
Q 2816 2041 2603 2316 
Q 2391 2591 1972 2591 
z
" transform="scale(0.015625)"/>
       </defs>
       <use xlink:href="#DejaVuSansMono-32"/>
       <use xlink:href="#DejaVuSansMono-30" transform="translate(60.205078 0)"/>
       <use xlink:href="#DejaVuSansMono-32" transform="translate(120.410156 0)"/>
       <use xlink:href="#DejaVuSansMono-35" transform="translate(180.615234 0)"/>
       <use xlink:href="#DejaVuSansMono-2d" transform="translate(240.820312 0)"/>
       <use xlink:href="#DejaVuSansMono-30" transform="translate(301.025391 0)"/>
       <use xlink:href="#DejaVuSansMono-36" transform="translate(361.230469 0)"/>
       <use xlink:href="#DejaVuSansMono-2d" transform="translate(421.435547 0)"/>
       <use xlink:href="#DejaVuSansMono-30" transform="translate(481.640625 0)"/>
       <use xlink:href="#DejaVuSansMono-31" transform="translate(541.845703 0)"/>
      </g>
     </g>
    </g>
    <g id="xtick_9">
     <g id="line2d_9">
      <g>
       <use xlink:href="#medf9808a12" x="251.386586" y="250.189875" style="fill: #cccccc; stroke: #cccccc; stroke-width: 0.8"/>
      </g>
     </g>
     <g id="text_9">
      <!-- 2025-07-01 -->
      <g style="fill: #cccccc" transform="translate(252.857147 262.600347) rotate(-315) scale(0.1 -0.1)">
       <defs>
        <path id="DejaVuSansMono-37" d="M 434 4666 
L 3372 4666 
L 3372 4397 
L 1703 0 
L 1044 0 
L 2669 4134 
L 434 4134 
L 434 4666 
z
" transform="scale(0.015625)"/>
       </defs>
       <use xlink:href="#DejaVuSansMono-32"/>
       <use xlink:href="#DejaVuSansMono-30" transform="translate(60.205078 0)"/>
       <use xlink:href="#DejaVuSansMono-32" transform="translate(120.410156 0)"/>
       <use xlink:href="#DejaVuSansMono-35" transform="translate(180.615234 0)"/>
       <use xlink:href="#DejaVuSansMono-2d" transform="translate(240.820312 0)"/>
       <use xlink:href="#DejaVuSansMono-30" transform="translate(301.025391 0)"/>
       <use xlink:href="#DejaVuSansMono-37" transform="translate(361.230469 0)"/>
       <use xlink:href="#DejaVuSansMono-2d" transform="translate(421.435547 0)"/>
       <use xlink:href="#DejaVuSansMono-30" transform="translate(481.640625 0)"/>
       <use xlink:href="#DejaVuSansMono-31" transform="translate(541.845703 0)"/>
      </g>
     </g>
    </g>
    <g id="xtick_10">
     <g id="line2d_10">
      <g>
       <use xlink:href="#medf9808a12" x="284.83287" y="250.189875" style="fill: #cccccc; stroke: #cccccc; stroke-width: 0.8"/>
      </g>
     </g>
     <g id="text_10">
      <!-- 2025-08-01 -->
      <g style="fill: #cccccc" transform="translate(286.303431 262.600347) rotate(-315) scale(0.1 -0.1)">
       <defs>
        <path id="DejaVuSansMono-38" d="M 1925 2216 
Q 1503 2216 1273 1980 
Q 1044 1744 1044 1313 
Q 1044 881 1276 642 
Q 1509 403 1925 403 
Q 2350 403 2579 639 
Q 2809 875 2809 1313 
Q 2809 1741 2576 1978 
Q 2344 2216 1925 2216 
z
M 1375 2478 
Q 972 2581 745 2862 
Q 519 3144 519 3541 
Q 519 4097 897 4423 
Q 1275 4750 1925 4750 
Q 2578 4750 2956 4423 
Q 3334 4097 3334 3541 
Q 3334 3144 3107 2862 
Q 2881 2581 2478 2478 
Q 2947 2375 3195 2062 
Q 3444 1750 3444 1253 
Q 3444 622 3041 265 
Q 2638 -91 1925 -91 
Q 1213 -91 811 264 
Q 409 619 409 1247 
Q 409 1747 657 2061 
Q 906 2375 1375 2478 
z
M 1147 3481 
Q 1147 3106 1347 2909 
Q 1547 2713 1925 2713 
Q 2306 2713 2506 2909 
Q 2706 3106 2706 3481 
Q 2706 3863 2507 4063 
Q 2309 4263 1925 4263 
Q 1547 4263 1347 4061 
Q 1147 3859 1147 3481 
z
" transform="scale(0.015625)"/>
       </defs>
       <use xlink:href="#DejaVuSansMono-32"/>
       <use xlink:href="#DejaVuSansMono-30" transform="translate(60.205078 0)"/>
       <use xlink:href="#DejaVuSansMono-32" transform="translate(120.410156 0)"/>
       <use xlink:href="#DejaVuSansMono-35" transform="translate(180.615234 0)"/>
       <use xlink:href="#DejaVuSansMono-2d" transform="translate(240.820312 0)"/>
       <use xlink:href="#DejaVuSansMono-30" transform="translate(301.025391 0)"/>
       <use xlink:href="#DejaVuSansMono-38" transform="translate(361.230469 0)"/>
       <use xlink:href="#DejaVuSansMono-2d" transform="translate(421.435547 0)"/>
       <use xlink:href="#DejaVuSansMono-30" transform="translate(481.640625 0)"/>
       <use xlink:href="#DejaVuSansMono-31" transform="translate(541.845703 0)"/>
      </g>
     </g>
    </g>
    <g id="xtick_11">
     <g id="line2d_11">
      <g>
       <use xlink:href="#medf9808a12" x="318.279154" y="250.189875" style="fill: #cccccc; stroke: #cccccc; stroke-width: 0.8"/>
      </g>
     </g>
     <g id="text_11">
      <!-- 2025-09-01 -->
      <g style="fill: #cccccc" transform="translate(319.749715 262.600347) rotate(-315) scale(0.1 -0.1)">
       <defs>
        <path id="DejaVuSansMono-39" d="M 1863 2069 
Q 2266 2069 2495 2359 
Q 2725 2650 2725 3163 
Q 2725 3675 2495 3965 
Q 2266 4256 1863 4256 
Q 1444 4256 1231 3979 
Q 1019 3703 1019 3163 
Q 1019 2619 1230 2344 
Q 1441 2069 1863 2069 
z
M 738 97 
L 738 678 
Q 934 563 1156 502 
Q 1378 441 1619 441 
Q 2219 441 2526 892 
Q 2834 1344 2834 2222 
Q 2688 1909 2422 1742 
Q 2156 1575 1813 1575 
Q 1138 1575 767 1990 
Q 397 2406 397 3169 
Q 397 3922 776 4336 
Q 1156 4750 1850 4750 
Q 2663 4750 3041 4165 
Q 3419 3581 3419 2328 
Q 3419 1150 2964 529 
Q 2509 -91 1644 -91 
Q 1416 -91 1184 -42 
Q 953 6 738 97 
z
" transform="scale(0.015625)"/>
       </defs>
       <use xlink:href="#DejaVuSansMono-32"/>
       <use xlink:href="#DejaVuSansMono-30" transform="translate(60.205078 0)"/>
       <use xlink:href="#DejaVuSansMono-32" transform="translate(120.410156 0)"/>
       <use xlink:href="#DejaVuSansMono-35" transform="translate(180.615234 0)"/>
       <use xlink:href="#DejaVuSansMono-2d" transform="translate(240.820312 0)"/>
       <use xlink:href="#DejaVuSansMono-30" transform="translate(301.025391 0)"/>
       <use xlink:href="#DejaVuSansMono-39" transform="translate(361.230469 0)"/>
       <use xlink:href="#DejaVuSansMono-2d" transform="translate(421.435547 0)"/>
       <use xlink:href="#DejaVuSansMono-30" transform="translate(481.640625 0)"/>
       <use xlink:href="#DejaVuSansMono-31" transform="translate(541.845703 0)"/>
      </g>
     </g>
    </g>
    <g id="xtick_12">
     <g id="line2d_12">
      <g>
       <use xlink:href="#medf9808a12" x="357.12" y="250.189875" style="fill: #cccccc; stroke: #cccccc; stroke-width: 0.8"/>
      </g>
     </g>
     <g id="text_12">
      <!-- 2025-10-07 -->
      <g style="fill: #cccccc" transform="translate(358.590561 262.600347) rotate(-315) scale(0.1 -0.1)">
       <use xlink:href="#DejaVuSansMono-32"/>
       <use xlink:href="#DejaVuSansMono-30" transform="translate(60.205078 0)"/>
       <use xlink:href="#DejaVuSansMono-32" transform="translate(120.410156 0)"/>
       <use xlink:href="#DejaVuSansMono-35" transform="translate(180.615234 0)"/>
       <use xlink:href="#DejaVuSansMono-2d" transform="translate(240.820312 0)"/>
       <use xlink:href="#DejaVuSansMono-31" transform="translate(301.025391 0)"/>
       <use xlink:href="#DejaVuSansMono-30" transform="translate(361.230469 0)"/>
       <use xlink:href="#DejaVuSansMono-2d" transform="translate(421.435547 0)"/>
       <use xlink:href="#DejaVuSansMono-30" transform="translate(481.640625 0)"/>
       <use xlink:href="#DejaVuSansMono-37" transform="translate(541.845703 0)"/>
      </g>
     </g>
    </g>
   </g>
   <g id="matplotlib.axis_2">
    <g id="ytick_1">
     <g id="line2d_13">
      <defs>
       <path id="m4d6e6a2590" d="M 0 0 
L 3.5 0 
" style="stroke: #cccccc; stroke-width: 0.8"/>
      </defs>
      <g>
       <use xlink:href="#m4d6e6a2590" x="357.12" y="250.189875" style="fill: #cccccc; stroke: #cccccc; stroke-width: 0.8"/>
      </g>
     </g>
     <g id="text_13">
      <!-- 0 -->
      <g style="fill: #cccccc" transform="translate(364.12 254.015656) scale(0.1 -0.1)">
       <use xlink:href="#DejaVuSansMono-30"/>
      </g>
     </g>
    </g>
    <g id="ytick_2">
     <g id="line2d_14">
      <g>
       <use xlink:href="#m4d6e6a2590" x="357.12" y="219.389351" style="fill: #cccccc; stroke: #cccccc; stroke-width: 0.8"/>
      </g>
     </g>
     <g id="text_14">
      <!-- 100 -->
      <g style="fill: #cccccc" transform="translate(364.12 223.215132) scale(0.1 -0.1)">
       <use xlink:href="#DejaVuSansMono-31"/>
       <use xlink:href="#DejaVuSansMono-30" transform="translate(60.205078 0)"/>
       <use xlink:href="#DejaVuSansMono-30" transform="translate(120.410156 0)"/>
      </g>
     </g>
    </g>
    <g id="ytick_3">
     <g id="line2d_15">
      <g>
       <use xlink:href="#m4d6e6a2590" x="357.12" y="188.588827" style="fill: #cccccc; stroke: #cccccc; stroke-width: 0.8"/>
      </g>
     </g>
     <g id="text_15">
      <!-- 200 -->
      <g style="fill: #cccccc" transform="translate(364.12 192.414608) scale(0.1 -0.1)">
       <use xlink:href="#DejaVuSansMono-32"/>
       <use xlink:href="#DejaVuSansMono-30" transform="translate(60.205078 0)"/>
       <use xlink:href="#DejaVuSansMono-30" transform="translate(120.410156 0)"/>
      </g>
     </g>
    </g>
    <g id="ytick_4">
     <g id="line2d_16">
      <g>
       <use xlink:href="#m4d6e6a2590" x="357.12" y="157.788302" style="fill: #cccccc; stroke: #cccccc; stroke-width: 0.8"/>
      </g>
     </g>
     <g id="text_16">
      <!-- 300 -->
      <g style="fill: #cccccc" transform="translate(364.12 161.614084) scale(0.1 -0.1)">
       <use xlink:href="#DejaVuSansMono-33"/>
       <use xlink:href="#DejaVuSansMono-30" transform="translate(60.205078 0)"/>
       <use xlink:href="#DejaVuSansMono-30" transform="translate(120.410156 0)"/>
      </g>
     </g>
    </g>
    <g id="ytick_5">
     <g id="line2d_17">
      <g>
       <use xlink:href="#m4d6e6a2590" x="357.12" y="126.987778" style="fill: #cccccc; stroke: #cccccc; stroke-width: 0.8"/>
      </g>
     </g>
     <g id="text_17">
      <!-- 400 -->
      <g style="fill: #cccccc" transform="translate(364.12 130.813559) scale(0.1 -0.1)">
       <use xlink:href="#DejaVuSansMono-34"/>
       <use xlink:href="#DejaVuSansMono-30" transform="translate(60.205078 0)"/>
       <use xlink:href="#DejaVuSansMono-30" transform="translate(120.410156 0)"/>
      </g>
     </g>
    </g>
    <g id="ytick_6">
     <g id="line2d_18">
      <g>
       <use xlink:href="#m4d6e6a2590" x="357.12" y="96.187254" style="fill: #cccccc; stroke: #cccccc; stroke-width: 0.8"/>
      </g>
     </g>
     <g id="text_18">
      <!-- 500 -->
      <g style="fill: #cccccc" transform="translate(364.12 100.013035) scale(0.1 -0.1)">
       <use xlink:href="#DejaVuSansMono-35"/>
       <use xlink:href="#DejaVuSansMono-30" transform="translate(60.205078 0)"/>
       <use xlink:href="#DejaVuSansMono-30" transform="translate(120.410156 0)"/>
      </g>
     </g>
    </g>
    <g id="ytick_7">
     <g id="line2d_19">
      <g>
       <use xlink:href="#m4d6e6a2590" x="357.12" y="65.38673" style="fill: #cccccc; stroke: #cccccc; stroke-width: 0.8"/>
      </g>
     </g>
     <g id="text_19">
      <!-- 600 -->
      <g style="fill: #cccccc" transform="translate(364.12 69.212511) scale(0.1 -0.1)">
       <use xlink:href="#DejaVuSansMono-36"/>
       <use xlink:href="#DejaVuSansMono-30" transform="translate(60.205078 0)"/>
       <use xlink:href="#DejaVuSansMono-30" transform="translate(120.410156 0)"/>
      </g>
     </g>
    </g>
    <g id="ytick_8">
     <g id="line2d_20">
      <g>
       <use xlink:href="#m4d6e6a2590" x="357.12" y="34.586205" style="fill: #cccccc; stroke: #cccccc; stroke-width: 0.8"/>
      </g>
     </g>
     <g id="text_20">
      <!-- 700 -->
      <g style="fill: #cccccc" transform="translate(364.12 38.411987) scale(0.1 -0.1)">
       <use xlink:href="#DejaVuSansMono-37"/>
       <use xlink:href="#DejaVuSansMono-30" transform="translate(60.205078 0)"/>
       <use xlink:href="#DejaVuSansMono-30" transform="translate(120.410156 0)"/>
      </g>
     </g>
    </g>
    <g id="ytick_9">
     <g id="line2d_21">
      <g>
       <use xlink:href="#m4d6e6a2590" x="357.12" y="15.48988" style="fill: #cccccc; stroke: #cccccc; stroke-width: 0.8"/>
      </g>
     </g>
     <g id="text_21">
      <!-- 762 -->
      <g style="fill: #cccccc" transform="translate(364.12 19.315661) scale(0.1 -0.1)">
       <use xlink:href="#DejaVuSansMono-37"/>
       <use xlink:href="#DejaVuSansMono-36" transform="translate(60.205078 0)"/>
       <use xlink:href="#DejaVuSansMono-32" transform="translate(120.410156 0)"/>
      </g>
     </g>
    </g>
    <g id="text_22">
     <!-- recording -->
     <g style="fill: #cccccc" transform="translate(393.779375 159.777281) rotate(-90) scale(0.1 -0.1)">
      <defs>
       <path id="DejaVuSansMono-72" d="M 3609 2778 
Q 3425 2922 3234 2987 
Q 3044 3053 2816 3053 
Q 2278 3053 1993 2715 
Q 1709 2378 1709 1741 
L 1709 0 
L 1131 0 
L 1131 3500 
L 1709 3500 
L 1709 2816 
Q 1853 3188 2151 3386 
Q 2450 3584 2859 3584 
Q 3072 3584 3256 3531 
Q 3441 3478 3609 3366 
L 3609 2778 
z
" transform="scale(0.015625)"/>
       <path id="DejaVuSansMono-65" d="M 3475 1894 
L 3475 1613 
L 984 1613 
L 984 1594 
Q 984 1022 1282 709 
Q 1581 397 2125 397 
Q 2400 397 2700 484 
Q 3000 572 3341 750 
L 3341 178 
Q 3013 44 2708 -23 
Q 2403 -91 2119 -91 
Q 1303 -91 843 398 
Q 384 888 384 1747 
Q 384 2584 834 3084 
Q 1284 3584 2034 3584 
Q 2703 3584 3089 3131 
Q 3475 2678 3475 1894 
z
M 2900 2063 
Q 2888 2569 2661 2833 
Q 2434 3097 2009 3097 
Q 1594 3097 1325 2822 
Q 1056 2547 1006 2059 
L 2900 2063 
z
" transform="scale(0.015625)"/>
       <path id="DejaVuSansMono-63" d="M 3316 178 
Q 3084 44 2839 -23 
Q 2594 -91 2338 -91 
Q 1525 -91 1067 396 
Q 609 884 609 1747 
Q 609 2609 1067 3096 
Q 1525 3584 2338 3584 
Q 2591 3584 2831 3518 
Q 3072 3453 3316 3316 
L 3316 2713 
Q 3088 2916 2858 3006 
Q 2628 3097 2338 3097 
Q 1797 3097 1506 2747 
Q 1216 2397 1216 1747 
Q 1216 1100 1508 748 
Q 1800 397 2338 397 
Q 2638 397 2875 489 
Q 3113 581 3316 775 
L 3316 178 
z
" transform="scale(0.015625)"/>
       <path id="DejaVuSansMono-6f" d="M 1925 3097 
Q 1488 3097 1263 2756 
Q 1038 2416 1038 1747 
Q 1038 1081 1263 739 
Q 1488 397 1925 397 
Q 2366 397 2591 739 
Q 2816 1081 2816 1747 
Q 2816 2416 2591 2756 
Q 2366 3097 1925 3097 
z
M 1925 3584 
Q 2653 3584 3039 3112 
Q 3425 2641 3425 1747 
Q 3425 850 3040 379 
Q 2656 -91 1925 -91 
Q 1197 -91 812 379 
Q 428 850 428 1747 
Q 428 2641 812 3112 
Q 1197 3584 1925 3584 
z
" transform="scale(0.015625)"/>
       <path id="DejaVuSansMono-64" d="M 2681 3053 
L 2681 4863 
L 3256 4863 
L 3256 0 
L 2681 0 
L 2681 441 
Q 2538 181 2298 45 
Q 2059 -91 1747 -91 
Q 1113 -91 748 401 
Q 384 894 384 1759 
Q 384 2613 750 3098 
Q 1116 3584 1747 3584 
Q 2063 3584 2303 3448 
Q 2544 3313 2681 3053 
z
M 991 1747 
Q 991 1078 1203 737 
Q 1416 397 1831 397 
Q 2247 397 2464 740 
Q 2681 1084 2681 1747 
Q 2681 2413 2464 2755 
Q 2247 3097 1831 3097 
Q 1416 3097 1203 2756 
Q 991 2416 991 1747 
z
" transform="scale(0.015625)"/>
       <path id="DejaVuSansMono-69" d="M 800 3500 
L 2272 3500 
L 2272 447 
L 3413 447 
L 3413 0 
L 556 0 
L 556 447 
L 1697 447 
L 1697 3053 
L 800 3053 
L 800 3500 
z
M 1697 4863 
L 2272 4863 
L 2272 4134 
L 1697 4134 
L 1697 4863 
z
" transform="scale(0.015625)"/>
       <path id="DejaVuSansMono-6e" d="M 3284 2169 
L 3284 0 
L 2706 0 
L 2706 2169 
Q 2706 2641 2540 2862 
Q 2375 3084 2022 3084 
Q 1619 3084 1401 2798 
Q 1184 2513 1184 1978 
L 1184 0 
L 609 0 
L 609 3500 
L 1184 3500 
L 1184 2975 
Q 1338 3275 1600 3429 
Q 1863 3584 2222 3584 
Q 2756 3584 3020 3232 
Q 3284 2881 3284 2169 
z
" transform="scale(0.015625)"/>
       <path id="DejaVuSansMono-67" d="M 2681 1778 
Q 2681 2425 2470 2761 
Q 2259 3097 1856 3097 
Q 1434 3097 1212 2761 
Q 991 2425 991 1778 
Q 991 1131 1214 792 
Q 1438 453 1863 453 
Q 2259 453 2470 793 
Q 2681 1134 2681 1778 
z
M 3256 225 
Q 3256 -563 2884 -969 
Q 2513 -1375 1791 -1375 
Q 1553 -1375 1293 -1331 
Q 1034 -1288 775 -1203 
L 775 -634 
Q 1081 -778 1331 -847 
Q 1581 -916 1791 -916 
Q 2256 -916 2468 -662 
Q 2681 -409 2681 141 
L 2681 166 
L 2681 556 
Q 2544 263 2306 119 
Q 2069 -25 1728 -25 
Q 1116 -25 750 465 
Q 384 956 384 1778 
Q 384 2603 750 3093 
Q 1116 3584 1728 3584 
Q 2066 3584 2300 3450 
Q 2534 3316 2681 3034 
L 2681 3488 
L 3256 3488 
L 3256 225 
z
" transform="scale(0.015625)"/>
      </defs>
      <use xlink:href="#DejaVuSansMono-72"/>
      <use xlink:href="#DejaVuSansMono-65" transform="translate(60.205078 0)"/>
      <use xlink:href="#DejaVuSansMono-63" transform="translate(120.410156 0)"/>
      <use xlink:href="#DejaVuSansMono-6f" transform="translate(180.615234 0)"/>
      <use xlink:href="#DejaVuSansMono-72" transform="translate(240.820312 0)"/>
      <use xlink:href="#DejaVuSansMono-64" transform="translate(301.025391 0)"/>
      <use xlink:href="#DejaVuSansMono-69" transform="translate(361.230469 0)"/>
      <use xlink:href="#DejaVuSansMono-6e" transform="translate(421.435547 0)"/>
      <use xlink:href="#DejaVuSansMono-67" transform="translate(481.640625 0)"/>
     </g>
    </g>
   </g>
   <g id="line2d_22">
    <path d="M 0 249.88187 
L 1.078912 248.957854 
L 4.31565 244.953786 
L 5.394562 244.645781 
L 12.946949 244.645781 
L 14.025861 244.953786 
L 30.209547 240.641712 
L 32.367372 240.025702 
L 34.525196 239.717697 
L 51.787795 239.409692 
L 67.97148 233.249587 
L 71.208218 232.941581 
L 72.28713 227.397487 
L 77.681692 227.089482 
L 80.918429 225.24145 
L 87.391903 222.161398 
L 93.865378 221.545387 
L 98.181027 217.541319 
L 99.25994 212.30523 
L 100.338852 210.149193 
L 101.417764 206.453131 
L 103.575589 202.449062 
L 104.654502 199.98502 
L 106.812326 195.364942 
L 110.049063 193.51691 
L 111.127976 191.360874 
L 114.364713 185.816779 
L 115.443625 182.736727 
L 116.522538 182.428722 
L 118.680363 181.812711 
L 119.759275 181.196701 
L 121.9171 179.96468 
L 124.074924 179.656674 
L 125.153837 178.116648 
L 126.232749 171.648538 
L 133.785136 167.336465 
L 137.021873 167.02846 
L 138.100785 164.872423 
L 141.337523 162.408381 
L 143.495347 156.248276 
L 144.57426 155.940271 
L 145.653172 153.476229 
L 147.810997 149.164155 
L 148.889909 147.932135 
L 152.126647 147.316124 
L 153.205559 146.084103 
L 156.442296 141.464024 
L 159.679033 135.30392 
L 162.91577 134.995914 
L 165.073595 134.071899 
L 166.152508 133.455888 
L 167.23142 127.603788 
L 168.310332 127.295783 
L 170.468157 126.987778 
L 171.547069 126.371768 
L 173.704894 125.139747 
L 174.783807 119.287647 
L 182.336193 118.671636 
L 183.415106 118.055626 
L 184.494018 110.6635 
L 185.572931 108.815469 
L 186.651843 108.507463 
L 190.967492 107.583448 
L 192.046405 106.967437 
L 193.125317 101.731348 
L 194.20423 100.191322 
L 195.283142 99.883317 
L 196.362054 97.419275 
L 197.440967 94.955233 
L 200.677704 93.723212 
L 202.835529 93.415207 
L 204.993353 91.87518 
L 206.072266 89.719144 
L 207.151178 87.563107 
L 210.387915 83.559039 
L 211.466828 74.318882 
L 213.624653 73.702871 
L 214.703565 71.85484 
L 216.86139 71.85484 
L 223.334864 66.926756 
L 225.492689 66.310745 
L 226.571601 65.078724 
L 231.966163 59.226625 
L 233.045076 58.610614 
L 234.123988 57.994604 
L 236.281813 57.070588 
L 238.439637 56.762583 
L 245.992024 56.146572 
L 253.544411 52.758515 
L 257.86006 51.526494 
L 258.938973 50.294473 
L 260.017885 44.750378 
L 261.096798 44.750378 
L 267.570272 44.134368 
L 275.122659 44.134368 
L 276.201571 42.902347 
L 278.359396 41.978331 
L 279.438308 41.054315 
L 293.464169 40.438305 
L 294.543082 34.894211 
L 306.411118 34.2782 
L 308.568943 31.506153 
L 318.279154 28.118095 
L 319.358066 28.118095 
L 323.673716 27.81009 
L 324.752628 26.886074 
L 327.989366 24.730038 
L 330.14719 24.730038 
L 336.620665 22.882006 
L 337.699577 19.493948 
L 338.778489 18.569933 
L 340.936314 18.261927 
L 351.725438 15.797885 
L 356.041088 15.797885 
L 357.12 15.48988 
" clip-path="url(#p42f0a04149)" style="fill: none; stroke: #d5397b; stroke-opacity: 0.5; stroke-width: 1.5; stroke-linecap: square"/>
   </g>
   <g id="text_23">
    <!-- days: 331 -->
    <g style="fill: #cccccc" transform="translate(35.712 46.334237) scale(0.1 -0.1)">
     <defs>
      <path id="DejaVuSansMono-61" d="M 2194 1759 
L 2003 1759 
Q 1500 1759 1245 1582 
Q 991 1406 991 1056 
Q 991 741 1181 566 
Q 1372 391 1709 391 
Q 2184 391 2456 720 
Q 2728 1050 2731 1631 
L 2731 1759 
L 2194 1759 
z
M 3309 1997 
L 3309 0 
L 2731 0 
L 2731 519 
Q 2547 206 2267 57 
Q 1988 -91 1588 -91 
Q 1053 -91 734 211 
Q 416 513 416 1019 
Q 416 1603 808 1906 
Q 1200 2209 1959 2209 
L 2731 2209 
L 2731 2300 
Q 2728 2719 2518 2908 
Q 2309 3097 1850 3097 
Q 1556 3097 1256 3012 
Q 956 2928 672 2766 
L 672 3341 
Q 991 3463 1283 3523 
Q 1575 3584 1850 3584 
Q 2284 3584 2592 3456 
Q 2900 3328 3091 3072 
Q 3209 2916 3259 2686 
Q 3309 2456 3309 1997 
z
" transform="scale(0.015625)"/>
      <path id="DejaVuSansMono-79" d="M 2681 1125 
Q 2538 759 2316 163 
Q 2006 -663 1900 -844 
Q 1756 -1088 1540 -1209 
Q 1325 -1331 1038 -1331 
L 575 -1331 
L 575 -850 
L 916 -850 
Q 1169 -850 1312 -703 
Q 1456 -556 1678 56 
L 325 3500 
L 934 3500 
L 1972 763 
L 2994 3500 
L 3603 3500 
L 2681 1125 
z
" transform="scale(0.015625)"/>
      <path id="DejaVuSansMono-73" d="M 3041 3378 
L 3041 2816 
Q 2794 2959 2544 3031 
Q 2294 3103 2034 3103 
Q 1644 3103 1451 2976 
Q 1259 2850 1259 2591 
Q 1259 2356 1403 2240 
Q 1547 2125 2119 2016 
L 2350 1972 
Q 2778 1891 2998 1647 
Q 3219 1403 3219 1013 
Q 3219 494 2850 201 
Q 2481 -91 1825 -91 
Q 1566 -91 1281 -36 
Q 997 19 666 128 
L 666 722 
Q 988 556 1281 473 
Q 1575 391 1838 391 
Q 2219 391 2428 545 
Q 2638 700 2638 978 
Q 2638 1378 1872 1531 
L 1847 1538 
L 1631 1581 
Q 1134 1678 906 1908 
Q 678 2138 678 2534 
Q 678 3038 1018 3311 
Q 1359 3584 1991 3584 
Q 2272 3584 2531 3532 
Q 2791 3481 3041 3378 
z
" transform="scale(0.015625)"/>
      <path id="DejaVuSansMono-3a" d="M 1528 3322 
L 2316 3322 
L 2316 2375 
L 1528 2375 
L 1528 3322 
z
M 1528 953 
L 2316 953 
L 2316 0 
L 1528 0 
L 1528 953 
z
" transform="scale(0.015625)"/>
      <path id="DejaVuSansMono-20" transform="scale(0.015625)"/>
     </defs>
     <use xlink:href="#DejaVuSansMono-64"/>
     <use xlink:href="#DejaVuSansMono-61" transform="translate(60.205078 0)"/>
     <use xlink:href="#DejaVuSansMono-79" transform="translate(120.410156 0)"/>
     <use xlink:href="#DejaVuSansMono-73" transform="translate(180.615234 0)"/>
     <use xlink:href="#DejaVuSansMono-3a" transform="translate(240.820312 0)"/>
     <use xlink:href="#DejaVuSansMono-20" transform="translate(301.025391 0)"/>
     <use xlink:href="#DejaVuSansMono-33" transform="translate(361.230469 0)"/>
     <use xlink:href="#DejaVuSansMono-33" transform="translate(421.435547 0)"/>
     <use xlink:href="#DejaVuSansMono-31" transform="translate(481.640625 0)"/>
    </g>
    <!--  avg: 2.30 -->
    <g style="fill: #cccccc" transform="translate(35.712 59.891269) scale(0.1 -0.1)">
     <defs>
      <path id="DejaVuSansMono-76" d="M 313 3500 
L 909 3500 
L 1925 563 
L 2944 3500 
L 3541 3500 
L 2297 0 
L 1556 0 
L 313 3500 
z
" transform="scale(0.015625)"/>
      <path id="DejaVuSansMono-2e" d="M 1528 953 
L 2316 953 
L 2316 0 
L 1528 0 
L 1528 953 
z
" transform="scale(0.015625)"/>
     </defs>
     <use xlink:href="#DejaVuSansMono-20"/>
     <use xlink:href="#DejaVuSansMono-61" transform="translate(60.205078 0)"/>
     <use xlink:href="#DejaVuSansMono-76" transform="translate(120.410156 0)"/>
     <use xlink:href="#DejaVuSansMono-67" transform="translate(180.615234 0)"/>
     <use xlink:href="#DejaVuSansMono-3a" transform="translate(240.820312 0)"/>
     <use xlink:href="#DejaVuSansMono-20" transform="translate(301.025391 0)"/>
     <use xlink:href="#DejaVuSansMono-32" transform="translate(361.230469 0)"/>
     <use xlink:href="#DejaVuSansMono-2e" transform="translate(421.435547 0)"/>
     <use xlink:href="#DejaVuSansMono-33" transform="translate(481.640625 0)"/>
     <use xlink:href="#DejaVuSansMono-30" transform="translate(541.845703 0)"/>
    </g>
   </g>
   <g id="text_24">
    <!-- recording count in listen.ron over time -->
    <g style="fill: #cccccc" transform="translate(37.684688 9.181875) scale(0.12 -0.12)">
     <defs>
      <path id="DejaVuSansMono-75" d="M 609 1325 
L 609 3494 
L 1184 3494 
L 1184 1325 
Q 1184 853 1351 631 
Q 1519 409 1869 409 
Q 2275 409 2490 695 
Q 2706 981 2706 1516 
L 2706 3494 
L 3284 3494 
L 3284 0 
L 2706 0 
L 2706 525 
Q 2553 222 2289 65 
Q 2025 -91 1672 -91 
Q 1134 -91 871 261 
Q 609 613 609 1325 
z
" transform="scale(0.015625)"/>
      <path id="DejaVuSansMono-74" d="M 1919 4494 
L 1919 3500 
L 3225 3500 
L 3225 3053 
L 1919 3053 
L 1919 1153 
Q 1919 766 2066 612 
Q 2213 459 2578 459 
L 3225 459 
L 3225 0 
L 2522 0 
Q 1875 0 1609 259 
Q 1344 519 1344 1153 
L 1344 3053 
L 409 3053 
L 409 3500 
L 1344 3500 
L 1344 4494 
L 1919 4494 
z
" transform="scale(0.015625)"/>
      <path id="DejaVuSansMono-6c" d="M 1997 1269 
Q 1997 881 2139 684 
Q 2281 488 2559 488 
L 3231 488 
L 3231 0 
L 2503 0 
Q 1988 0 1705 331 
Q 1422 663 1422 1269 
L 1422 4447 
L 500 4447 
L 500 4897 
L 1997 4897 
L 1997 1269 
z
" transform="scale(0.015625)"/>
      <path id="DejaVuSansMono-6d" d="M 2113 3144 
Q 2219 3369 2383 3476 
Q 2547 3584 2778 3584 
Q 3200 3584 3373 3257 
Q 3547 2931 3547 2028 
L 3547 0 
L 3022 0 
L 3022 2003 
Q 3022 2744 2939 2923 
Q 2856 3103 2638 3103 
Q 2388 3103 2295 2911 
Q 2203 2719 2203 2003 
L 2203 0 
L 1678 0 
L 1678 2003 
Q 1678 2753 1589 2928 
Q 1500 3103 1269 3103 
Q 1041 3103 952 2911 
Q 863 2719 863 2003 
L 863 0 
L 341 0 
L 341 3500 
L 863 3500 
L 863 3200 
Q 966 3388 1120 3486 
Q 1275 3584 1472 3584 
Q 1709 3584 1867 3475 
Q 2025 3366 2113 3144 
z
" transform="scale(0.015625)"/>
     </defs>
     <use xlink:href="#DejaVuSansMono-72"/>
     <use xlink:href="#DejaVuSansMono-65" transform="translate(60.205078 0)"/>
     <use xlink:href="#DejaVuSansMono-63" transform="translate(120.410156 0)"/>
     <use xlink:href="#DejaVuSansMono-6f" transform="translate(180.615234 0)"/>
     <use xlink:href="#DejaVuSansMono-72" transform="translate(240.820312 0)"/>
     <use xlink:href="#DejaVuSansMono-64" transform="translate(301.025391 0)"/>
     <use xlink:href="#DejaVuSansMono-69" transform="translate(361.230469 0)"/>
     <use xlink:href="#DejaVuSansMono-6e" transform="translate(421.435547 0)"/>
     <use xlink:href="#DejaVuSansMono-67" transform="translate(481.640625 0)"/>
     <use xlink:href="#DejaVuSansMono-20" transform="translate(541.845703 0)"/>
     <use xlink:href="#DejaVuSansMono-63" transform="translate(602.050781 0)"/>
     <use xlink:href="#DejaVuSansMono-6f" transform="translate(662.255859 0)"/>
     <use xlink:href="#DejaVuSansMono-75" transform="translate(722.460938 0)"/>
     <use xlink:href="#DejaVuSansMono-6e" transform="translate(782.666016 0)"/>
     <use xlink:href="#DejaVuSansMono-74" transform="translate(842.871094 0)"/>
     <use xlink:href="#DejaVuSansMono-20" transform="translate(903.076172 0)"/>
     <use xlink:href="#DejaVuSansMono-69" transform="translate(963.28125 0)"/>
     <use xlink:href="#DejaVuSansMono-6e" transform="translate(1023.486328 0)"/>
     <use xlink:href="#DejaVuSansMono-20" transform="translate(1083.691406 0)"/>
     <use xlink:href="#DejaVuSansMono-6c" transform="translate(1143.896484 0)"/>
     <use xlink:href="#DejaVuSansMono-69" transform="translate(1204.101562 0)"/>
     <use xlink:href="#DejaVuSansMono-73" transform="translate(1264.306641 0)"/>
     <use xlink:href="#DejaVuSansMono-74" transform="translate(1324.511719 0)"/>
     <use xlink:href="#DejaVuSansMono-65" transform="translate(1384.716797 0)"/>
     <use xlink:href="#DejaVuSansMono-6e" transform="translate(1444.921875 0)"/>
     <use xlink:href="#DejaVuSansMono-2e" transform="translate(1505.126953 0)"/>
     <use xlink:href="#DejaVuSansMono-72" transform="translate(1565.332031 0)"/>
     <use xlink:href="#DejaVuSansMono-6f" transform="translate(1625.537109 0)"/>
     <use xlink:href="#DejaVuSansMono-6e" transform="translate(1685.742188 0)"/>
     <use xlink:href="#DejaVuSansMono-20" transform="translate(1745.947266 0)"/>
     <use xlink:href="#DejaVuSansMono-6f" transform="translate(1806.152344 0)"/>
     <use xlink:href="#DejaVuSansMono-76" transform="translate(1866.357422 0)"/>
     <use xlink:href="#DejaVuSansMono-65" transform="translate(1926.5625 0)"/>
     <use xlink:href="#DejaVuSansMono-72" transform="translate(1986.767578 0)"/>
     <use xlink:href="#DejaVuSansMono-20" transform="translate(2046.972656 0)"/>
     <use xlink:href="#DejaVuSansMono-74" transform="translate(2107.177734 0)"/>
     <use xlink:href="#DejaVuSansMono-69" transform="translate(2167.382812 0)"/>
     <use xlink:href="#DejaVuSansMono-6d" transform="translate(2227.587891 0)"/>
     <use xlink:href="#DejaVuSansMono-65" transform="translate(2287.792969 0)"/>
    </g>
   </g>
  </g>
 </g>
 <defs>
  <clipPath id="p42f0a04149">
   <rect x="0" y="15.181875" width="357.12" height="235.008"/>
  </clipPath>
 </defs>
</svg>
