<?xml version="1.0" encoding="utf-8" standalone="no"?>
<!DOCTYPE svg PUBLIC "-//W3C//DTD SVG 1.1//EN"
  "http://www.w3.org/Graphics/SVG/1.1/DTD/svg11.dtd">
<svg xmlns:xlink="http://www.w3.org/1999/xlink" width="406.761106pt" height="306.830981pt" viewBox="0 0 406.761106 306.830981" xmlns="http://www.w3.org/2000/svg" version="1.1">
 <metadata>
  <rdf:RDF xmlns:dc="http://purl.org/dc/elements/1.1/" xmlns:cc="http://creativecommons.org/ns#" xmlns:rdf="http://www.w3.org/1999/02/22-rdf-syntax-ns#">
   <cc:Work>
    <dc:type rdf:resource="http://purl.org/dc/dcmitype/StillImage"/>
    <dc:date>2026-07-31T20:05:51.329559</dc:date>
    <dc:format>image/svg+xml</dc:format>
    <dc:creator>
     <cc:Agent>
      <dc:title>Matplotlib v3.11.1, https://matplotlib.org/</dc:title>
     </cc:Agent>
    </dc:creator>
   </cc:Work>
  </rdf:RDF>
 </metadata>
 <defs>
  <style type="text/css">*{stroke-linejoin: round; stroke-linecap: butt}</style>
 </defs>
 <g id="figure_1">
  <g id="patch_1">
   <path d="M 0 306.830981 
L 406.761106 306.830981 
L 406.761106 0 
L 0 0 
L 0 306.830981 
z
" style="fill: none"/>
  </g>
  <g id="axes_1">
   <g id="patch_2">
    <path d="M 0 250.189875 
L 357.12 250.189875 
L 357.12 15.181875 
L 0 15.181875 
L 0 250.189875 
z
" style="fill: none"/>
   </g>
   <g id="FillBetweenPolyCollection_1">
    <defs>
     <path id="m38af4f4db2" d="M 0 -56.641106 
L 0 -56.898226 
L 0.568662 -57.669587 
L 2.27465 -61.012152 
L 2.843312 -61.269272 
L 6.823949 -61.269272 
L 7.392611 -61.012152 
L 15.922548 -64.611837 
L 17.059873 -65.126077 
L 18.197197 -65.383198 
L 27.295796 -65.640318 
L 35.825732 -70.782725 
L 37.53172 -71.039845 
L 38.100382 -75.668012 
L 40.943694 -75.925132 
L 42.649682 -77.467854 
L 46.061656 -80.039058 
L 49.473631 -80.553298 
L 51.74828 -83.895863 
L 52.316943 -88.266909 
L 52.885605 -90.066751 
L 53.454268 -93.152195 
L 54.591592 -96.49476 
L 55.160255 -98.551723 
L 56.29758 -102.408528 
L 58.003567 -103.95125 
L 58.572229 -105.751093 
L 60.278217 -110.379259 
L 60.846879 -112.950462 
L 61.415541 -113.207583 
L 62.552866 -113.721823 
L 63.121529 -114.236064 
L 64.258854 -115.264546 
L 65.396178 -115.521666 
L 65.964841 -116.807268 
L 66.533503 -122.206795 
L 70.51414 -125.80648 
L 72.220127 -126.0636 
L 72.78879 -127.863443 
L 74.494777 -129.920406 
L 75.632102 -135.062813 
L 76.200764 -135.319933 
L 76.769427 -137.376896 
L 77.906752 -140.976581 
L 78.475414 -142.005062 
L 80.181401 -142.519303 
L 80.750064 -143.547784 
L 82.456051 -147.404589 
L 84.162038 -152.546996 
L 85.868025 -152.804117 
L 87.00535 -153.575478 
L 87.574013 -154.089718 
L 88.142675 -158.975005 
L 88.711338 -159.232125 
L 89.848662 -159.489246 
L 90.417325 -160.003486 
L 91.55465 -161.031968 
L 92.123312 -165.917255 
L 96.103949 -166.431495 
L 96.672611 -166.945736 
L 97.241274 -173.116624 
L 97.809936 -174.659346 
L 98.378599 -174.916467 
L 100.653248 -175.687828 
L 101.221911 -176.202069 
L 101.790573 -180.573115 
L 102.359236 -181.858716 
L 102.927898 -182.115837 
L 103.496561 -184.172799 
L 104.065223 -186.229762 
L 105.77121 -187.258244 
L 106.908535 -187.515364 
L 108.04586 -188.800966 
L 108.614522 -190.600808 
L 109.183185 -192.400651 
L 110.889172 -195.743215 
L 111.457834 -203.456826 
L 112.595159 -203.971066 
L 113.163822 -205.513788 
L 114.301146 -205.513788 
L 117.713121 -209.627714 
L 118.850446 -210.141955 
L 119.419108 -211.170436 
L 122.26242 -216.055723 
L 122.831083 -216.569964 
L 123.399745 -217.084204 
L 124.53707 -217.855565 
L 125.674395 -218.112686 
L 129.655032 -218.626926 
L 133.635669 -221.45525 
L 135.910318 -222.483732 
L 136.478981 -223.512213 
L 137.047643 -228.140379 
L 137.616306 -228.140379 
L 141.02828 -228.65462 
L 145.008917 -228.65462 
L 145.57758 -229.683101 
L 146.714904 -230.454462 
L 147.283567 -231.225823 
L 154.676178 -231.740064 
L 155.244841 -236.36823 
L 161.500127 -236.882471 
L 162.637452 -239.196554 
L 167.755414 -242.024878 
L 168.324076 -242.024878 
L 170.598726 -242.281999 
L 171.167389 -243.05336 
L 172.873376 -244.853202 
L 174.010701 -244.853202 
L 177.422675 -246.395924 
L 177.991338 -249.224248 
L 178.56 -249.995609 
L 179.697325 -250.252729 
L 185.383949 -252.309692 
L 187.658599 -252.309692 
L 188.227261 -252.566813 
L 188.795924 -252.823933 
L 189.933248 -253.338174 
L 190.501911 -253.852414 
L 192.776561 -253.852414 
L 193.913885 -254.109535 
L 195.619873 -254.366655 
L 196.188535 -254.880896 
L 196.757197 -255.138016 
L 199.031847 -255.395136 
L 201.875159 -255.652257 
L 212.111083 -255.909377 
L 218.935032 -256.680738 
L 222.347006 -257.194979 
L 226.896306 -258.22346 
L 231.445605 -258.480581 
L 234.85758 -258.737701 
L 239.975541 -258.994821 
L 250.211465 -259.766182 
L 262.153376 -260.280423 
L 270.683312 -260.537543 
L 275.232611 -260.537543 
L 279.213248 -261.051784 
L 301.959745 -261.308904 
L 303.09707 -261.566025 
L 307.646369 -261.566025 
L 312.195669 -261.823145 
L 313.901656 -262.080265 
L 317.313631 -264.394349 
L 317.882293 -264.651469 
L 333.236178 -268.508274 
L 334.373503 -268.508274 
L 340.62879 -268.765395 
L 342.334777 -269.022515 
L 345.178089 -271.593718 
L 346.884076 -271.593718 
L 347.452739 -273.907802 
L 348.021401 -274.164922 
L 348.590064 -273.907802 
L 349.727389 -280.592931 
L 350.296051 -285.735338 
L 350.864713 -285.735338 
L 351.433376 -287.53518 
L 352.002038 -287.7923 
L 357.12 -291.391985 
L 357.12 -56.641106 
L 357.12 -56.641106 
L 352.002038 -56.641106 
L 351.433376 -56.641106 
L 350.864713 -56.641106 
L 350.296051 -56.641106 
L 349.727389 -56.641106 
L 348.590064 -56.641106 
L 348.021401 -56.641106 
L 347.452739 -56.641106 
L 346.884076 -56.641106 
L 345.178089 -56.641106 
L 342.334777 -56.641106 
L 340.62879 -56.641106 
L 334.373503 -56.641106 
L 333.236178 -56.641106 
L 317.882293 -56.641106 
L 317.313631 -56.641106 
L 313.901656 -56.641106 
L 312.195669 -56.641106 
L 307.646369 -56.641106 
L 303.09707 -56.641106 
L 301.959745 -56.641106 
L 279.213248 -56.641106 
L 275.232611 -56.641106 
L 270.683312 -56.641106 
L 262.153376 -56.641106 
L 250.211465 -56.641106 
L 239.975541 -56.641106 
L 234.85758 -56.641106 
L 231.445605 -56.641106 
L 226.896306 -56.641106 
L 222.347006 -56.641106 
L 218.935032 -56.641106 
L 212.111083 -56.641106 
L 201.875159 -56.641106 
L 199.031847 -56.641106 
L 196.757197 -56.641106 
L 196.188535 -56.641106 
L 195.619873 -56.641106 
L 193.913885 -56.641106 
L 192.776561 -56.641106 
L 190.501911 -56.641106 
L 189.933248 -56.641106 
L 188.795924 -56.641106 
L 188.227261 -56.641106 
L 187.658599 -56.641106 
L 185.383949 -56.641106 
L 179.697325 -56.641106 
L 178.56 -56.641106 
L 177.991338 -56.641106 
L 177.422675 -56.641106 
L 174.010701 -56.641106 
L 172.873376 -56.641106 
L 171.167389 -56.641106 
L 170.598726 -56.641106 
L 168.324076 -56.641106 
L 167.755414 -56.641106 
L 162.637452 -56.641106 
L 161.500127 -56.641106 
L 155.244841 -56.641106 
L 154.676178 -56.641106 
L 147.283567 -56.641106 
L 146.714904 -56.641106 
L 145.57758 -56.641106 
L 145.008917 -56.641106 
L 141.02828 -56.641106 
L 137.616306 -56.641106 
L 137.047643 -56.641106 
L 136.478981 -56.641106 
L 135.910318 -56.641106 
L 133.635669 -56.641106 
L 129.655032 -56.641106 
L 125.674395 -56.641106 
L 124.53707 -56.641106 
L 123.399745 -56.641106 
L 122.831083 -56.641106 
L 122.26242 -56.641106 
L 119.419108 -56.641106 
L 118.850446 -56.641106 
L 117.713121 -56.641106 
L 114.301146 -56.641106 
L 113.163822 -56.641106 
L 112.595159 -56.641106 
L 111.457834 -56.641106 
L 110.889172 -56.641106 
L 109.183185 -56.641106 
L 108.614522 -56.641106 
L 108.04586 -56.641106 
L 106.908535 -56.641106 
L 105.77121 -56.641106 
L 104.065223 -56.641106 
L 103.496561 -56.641106 
L 102.927898 -56.641106 
L 102.359236 -56.641106 
L 101.790573 -56.641106 
L 101.221911 -56.641106 
L 100.653248 -56.641106 
L 98.378599 -56.641106 
L 97.809936 -56.641106 
L 97.241274 -56.641106 
L 96.672611 -56.641106 
L 96.103949 -56.641106 
L 92.123312 -56.641106 
L 91.55465 -56.641106 
L 90.417325 -56.641106 
L 89.848662 -56.641106 
L 88.711338 -56.641106 
L 88.142675 -56.641106 
L 87.574013 -56.641106 
L 87.00535 -56.641106 
L 85.868025 -56.641106 
L 84.162038 -56.641106 
L 82.456051 -56.641106 
L 80.750064 -56.641106 
L 80.181401 -56.641106 
L 78.475414 -56.641106 
L 77.906752 -56.641106 
L 76.769427 -56.641106 
L 76.200764 -56.641106 
L 75.632102 -56.641106 
L 74.494777 -56.641106 
L 72.78879 -56.641106 
L 72.220127 -56.641106 
L 70.51414 -56.641106 
L 66.533503 -56.641106 
L 65.964841 -56.641106 
L 65.396178 -56.641106 
L 64.258854 -56.641106 
L 63.121529 -56.641106 
L 62.552866 -56.641106 
L 61.415541 -56.641106 
L 60.846879 -56.641106 
L 60.278217 -56.641106 
L 58.572229 -56.641106 
L 58.003567 -56.641106 
L 56.29758 -56.641106 
L 55.160255 -56.641106 
L 54.591592 -56.641106 
L 53.454268 -56.641106 
L 52.885605 -56.641106 
L 52.316943 -56.641106 
L 51.74828 -56.641106 
L 49.473631 -56.641106 
L 46.061656 -56.641106 
L 42.649682 -56.641106 
L 40.943694 -56.641106 
L 38.100382 -56.641106 
L 37.53172 -56.641106 
L 35.825732 -56.641106 
L 27.295796 -56.641106 
L 18.197197 -56.641106 
L 17.059873 -56.641106 
L 15.922548 -56.641106 
L 7.392611 -56.641106 
L 6.823949 -56.641106 
L 2.843312 -56.641106 
L 2.27465 -56.641106 
L 0.568662 -56.641106 
L 0 -56.641106 
z
" style="stroke: #d5397b; stroke-opacity: 0.4"/>
    </defs>
    <g clip-path="url(#p294bd59f63)">
     <use xlink:href="#m38af4f4db2" x="0" y="306.830981" style="fill: #d5397b; fill-opacity: 0.4; stroke: #d5397b; stroke-opacity: 0.4"/>
    </g>
   </g>
   <g id="matplotlib.axis_1">
    <g id="xtick_1">
     <g id="line2d_1">
      <defs>
       <path id="m3da6967938" d="M 0 0 
L 0 3.5 
" style="stroke: #cccccc; stroke-width: 0.8"/>
      </defs>
      <g>
       <use xlink:href="#m3da6967938" x="0" y="250.189875" style="fill: #cccccc; stroke: #cccccc; stroke-width: 0.8"/>
      </g>
     </g>
     <g id="text_1">
      <!-- 2024-11-10 -->
      <g style="fill: #cccccc" transform="translate(1.698714 262.562229) rotate(-315) scale(0.1 -0.1)">
       <defs>
        <path id="DejaVuSansMono-15" d="M 1166 531 
L 3309 531 
L 3309 0 
L 475 0 
L 475 531 
Q 1059 1147 1496 1619 
Q 1934 2091 2100 2284 
Q 2413 2666 2522 2902 
Q 2631 3138 2631 3384 
Q 2631 3775 2401 3997 
Q 2172 4219 1772 4219 
Q 1488 4219 1175 4116 
Q 863 4013 513 3803 
L 513 4441 
Q 834 4594 1145 4672 
Q 1456 4750 1759 4750 
Q 2444 4750 2861 4386 
Q 3278 4022 3278 3431 
Q 3278 3131 3139 2831 
Q 3000 2531 2688 2169 
Q 2513 1966 2180 1606 
Q 1847 1247 1166 531 
z
" transform="scale(0.015625)"/>
        <path id="DejaVuSansMono-13" d="M 1509 2344 
Q 1509 2516 1629 2641 
Q 1750 2766 1919 2766 
Q 2094 2766 2219 2641 
Q 2344 2516 2344 2344 
Q 2344 2169 2220 2047 
Q 2097 1925 1919 1925 
Q 1744 1925 1626 2044 
Q 1509 2163 1509 2344 
z
M 1925 4250 
Q 1484 4250 1267 3775 
Q 1050 3300 1050 2328 
Q 1050 1359 1267 884 
Q 1484 409 1925 409 
Q 2369 409 2586 884 
Q 2803 1359 2803 2328 
Q 2803 3300 2586 3775 
Q 2369 4250 1925 4250 
z
M 1925 4750 
Q 2672 4750 3055 4137 
Q 3438 3525 3438 2328 
Q 3438 1134 3055 521 
Q 2672 -91 1925 -91 
Q 1178 -91 797 521 
Q 416 1134 416 2328 
Q 416 3525 797 4137 
Q 1178 4750 1925 4750 
z
" transform="scale(0.015625)"/>
        <path id="DejaVuSansMono-17" d="M 2297 4091 
L 825 1625 
L 2297 1625 
L 2297 4091 
z
M 2194 4666 
L 2925 4666 
L 2925 1625 
L 3547 1625 
L 3547 1113 
L 2925 1113 
L 2925 0 
L 2297 0 
L 2297 1113 
L 319 1113 
L 319 1709 
L 2194 4666 
z
" transform="scale(0.015625)"/>
        <path id="DejaVuSansMono-10" d="M 1113 2009 
L 2741 2009 
L 2741 1497 
L 1113 1497 
L 1113 2009 
z
" transform="scale(0.015625)"/>
        <path id="DejaVuSansMono-14" d="M 844 531 
L 1825 531 
L 1825 4097 
L 769 3859 
L 769 4434 
L 1819 4666 
L 2450 4666 
L 2450 531 
L 3419 531 
L 3419 0 
L 844 0 
L 844 531 
z
" transform="scale(0.015625)"/>
       </defs>
       <use xlink:href="#DejaVuSansMono-15"/>
       <use xlink:href="#DejaVuSansMono-13" transform="translate(60.203125 0)"/>
       <use xlink:href="#DejaVuSansMono-15" transform="translate(120.40625 0)"/>
       <use xlink:href="#DejaVuSansMono-17" transform="translate(180.609375 0)"/>
       <use xlink:href="#DejaVuSansMono-10" transform="translate(240.8125 0)"/>
       <use xlink:href="#DejaVuSansMono-14" transform="translate(301.015625 0)"/>
       <use xlink:href="#DejaVuSansMono-14" transform="translate(361.21875 0)"/>
       <use xlink:href="#DejaVuSansMono-10" transform="translate(421.421875 0)"/>
       <use xlink:href="#DejaVuSansMono-14" transform="translate(481.625 0)"/>
       <use xlink:href="#DejaVuSansMono-13" transform="translate(541.828125 0)"/>
      </g>
     </g>
    </g>
    <g id="xtick_2">
     <g id="line2d_2">
      <g>
       <use xlink:href="#m3da6967938" x="29.570446" y="250.189875" style="fill: #cccccc; stroke: #cccccc; stroke-width: 0.8"/>
      </g>
     </g>
     <g id="text_2">
      <!-- 2025-01-01 -->
      <g style="fill: #cccccc" transform="translate(31.269159 262.562229) rotate(-315) scale(0.1 -0.1)">
       <defs>
        <path id="DejaVuSansMono-18" d="M 647 4666 
L 3009 4666 
L 3009 4134 
L 1222 4134 
L 1222 2988 
Q 1356 3038 1492 3061 
Q 1628 3084 1766 3084 
Q 2491 3084 2916 2656 
Q 3341 2228 3341 1497 
Q 3341 759 2895 334 
Q 2450 -91 1678 -91 
Q 1306 -91 998 -41 
Q 691 9 447 109 
L 447 750 
Q 734 594 1025 517 
Q 1316 441 1619 441 
Q 2141 441 2423 716 
Q 2706 991 2706 1497 
Q 2706 1997 2414 2275 
Q 2122 2553 1600 2553 
Q 1347 2553 1106 2495 
Q 866 2438 647 2322 
L 647 4666 
z
" transform="scale(0.015625)"/>
       </defs>
       <use xlink:href="#DejaVuSansMono-15"/>
       <use xlink:href="#DejaVuSansMono-13" transform="translate(60.203125 0)"/>
       <use xlink:href="#DejaVuSansMono-15" transform="translate(120.40625 0)"/>
       <use xlink:href="#DejaVuSansMono-18" transform="translate(180.609375 0)"/>
       <use xlink:href="#DejaVuSansMono-10" transform="translate(240.8125 0)"/>
       <use xlink:href="#DejaVuSansMono-13" transform="translate(301.015625 0)"/>
       <use xlink:href="#DejaVuSansMono-14" transform="translate(361.21875 0)"/>
       <use xlink:href="#DejaVuSansMono-10" transform="translate(421.421875 0)"/>
       <use xlink:href="#DejaVuSansMono-13" transform="translate(481.625 0)"/>
       <use xlink:href="#DejaVuSansMono-14" transform="translate(541.828125 0)"/>
      </g>
     </g>
    </g>
    <g id="xtick_3">
     <g id="line2d_3">
      <g>
       <use xlink:href="#m3da6967938" x="63.121529" y="250.189875" style="fill: #cccccc; stroke: #cccccc; stroke-width: 0.8"/>
      </g>
     </g>
     <g id="text_3">
      <!-- 2025-03-01 -->
      <g style="fill: #cccccc" transform="translate(64.820242 262.562229) rotate(-315) scale(0.1 -0.1)">
       <defs>
        <path id="DejaVuSansMono-16" d="M 2425 2497 
Q 2884 2375 3128 2064 
Q 3372 1753 3372 1288 
Q 3372 644 2939 276 
Q 2506 -91 1741 -91 
Q 1419 -91 1084 -31 
Q 750 28 428 141 
L 428 769 
Q 747 603 1056 522 
Q 1366 441 1672 441 
Q 2191 441 2469 675 
Q 2747 909 2747 1350 
Q 2747 1756 2469 1995 
Q 2191 2234 1716 2234 
L 1234 2234 
L 1234 2753 
L 1716 2753 
Q 2150 2753 2394 2943 
Q 2638 3134 2638 3475 
Q 2638 3834 2411 4026 
Q 2184 4219 1766 4219 
Q 1488 4219 1191 4156 
Q 894 4094 569 3969 
L 569 4550 
Q 947 4650 1242 4700 
Q 1538 4750 1766 4750 
Q 2447 4750 2855 4408 
Q 3263 4066 3263 3500 
Q 3263 3116 3048 2859 
Q 2834 2603 2425 2497 
z
" transform="scale(0.015625)"/>
       </defs>
       <use xlink:href="#DejaVuSansMono-15"/>
       <use xlink:href="#DejaVuSansMono-13" transform="translate(60.203125 0)"/>
       <use xlink:href="#DejaVuSansMono-15" transform="translate(120.40625 0)"/>
       <use xlink:href="#DejaVuSansMono-18" transform="translate(180.609375 0)"/>
       <use xlink:href="#DejaVuSansMono-10" transform="translate(240.8125 0)"/>
       <use xlink:href="#DejaVuSansMono-13" transform="translate(301.015625 0)"/>
       <use xlink:href="#DejaVuSansMono-16" transform="translate(361.21875 0)"/>
       <use xlink:href="#DejaVuSansMono-10" transform="translate(421.421875 0)"/>
       <use xlink:href="#DejaVuSansMono-13" transform="translate(481.625 0)"/>
       <use xlink:href="#DejaVuSansMono-14" transform="translate(541.828125 0)"/>
      </g>
     </g>
    </g>
    <g id="xtick_4">
     <g id="line2d_4">
      <g>
       <use xlink:href="#m3da6967938" x="97.809936" y="250.189875" style="fill: #cccccc; stroke: #cccccc; stroke-width: 0.8"/>
      </g>
     </g>
     <g id="text_4">
      <!-- 2025-05-01 -->
      <g style="fill: #cccccc" transform="translate(99.50865 262.562229) rotate(-315) scale(0.1 -0.1)">
       <use xlink:href="#DejaVuSansMono-15"/>
       <use xlink:href="#DejaVuSansMono-13" transform="translate(60.203125 0)"/>
       <use xlink:href="#DejaVuSansMono-15" transform="translate(120.40625 0)"/>
       <use xlink:href="#DejaVuSansMono-18" transform="translate(180.609375 0)"/>
       <use xlink:href="#DejaVuSansMono-10" transform="translate(240.8125 0)"/>
       <use xlink:href="#DejaVuSansMono-13" transform="translate(301.015625 0)"/>
       <use xlink:href="#DejaVuSansMono-18" transform="translate(361.21875 0)"/>
       <use xlink:href="#DejaVuSansMono-10" transform="translate(421.421875 0)"/>
       <use xlink:href="#DejaVuSansMono-13" transform="translate(481.625 0)"/>
       <use xlink:href="#DejaVuSansMono-14" transform="translate(541.828125 0)"/>
      </g>
     </g>
    </g>
    <g id="xtick_5">
     <g id="line2d_5">
      <g>
       <use xlink:href="#m3da6967938" x="132.498344" y="250.189875" style="fill: #cccccc; stroke: #cccccc; stroke-width: 0.8"/>
      </g>
     </g>
     <g id="text_5">
      <!-- 2025-07-01 -->
      <g style="fill: #cccccc" transform="translate(134.197058 262.562229) rotate(-315) scale(0.1 -0.1)">
       <defs>
        <path id="DejaVuSansMono-1a" d="M 434 4666 
L 3372 4666 
L 3372 4397 
L 1703 0 
L 1044 0 
L 2669 4134 
L 434 4134 
L 434 4666 
z
" transform="scale(0.015625)"/>
       </defs>
       <use xlink:href="#DejaVuSansMono-15"/>
       <use xlink:href="#DejaVuSansMono-13" transform="translate(60.203125 0)"/>
       <use xlink:href="#DejaVuSansMono-15" transform="translate(120.40625 0)"/>
       <use xlink:href="#DejaVuSansMono-18" transform="translate(180.609375 0)"/>
       <use xlink:href="#DejaVuSansMono-10" transform="translate(240.8125 0)"/>
       <use xlink:href="#DejaVuSansMono-13" transform="translate(301.015625 0)"/>
       <use xlink:href="#DejaVuSansMono-1a" transform="translate(361.21875 0)"/>
       <use xlink:href="#DejaVuSansMono-10" transform="translate(421.421875 0)"/>
       <use xlink:href="#DejaVuSansMono-13" transform="translate(481.625 0)"/>
       <use xlink:href="#DejaVuSansMono-14" transform="translate(541.828125 0)"/>
      </g>
     </g>
    </g>
    <g id="xtick_6">
     <g id="line2d_6">
      <g>
       <use xlink:href="#m3da6967938" x="167.755414" y="250.189875" style="fill: #cccccc; stroke: #cccccc; stroke-width: 0.8"/>
      </g>
     </g>
     <g id="text_6">
      <!-- 2025-09-01 -->
      <g style="fill: #cccccc" transform="translate(169.454128 262.562229) rotate(-315) scale(0.1 -0.1)">
       <defs>
        <path id="DejaVuSansMono-1c" d="M 1863 2069 
Q 2266 2069 2495 2359 
Q 2725 2650 2725 3163 
Q 2725 3675 2495 3965 
Q 2266 4256 1863 4256 
Q 1444 4256 1231 3979 
Q 1019 3703 1019 3163 
Q 1019 2619 1230 2344 
Q 1441 2069 1863 2069 
z
M 738 97 
L 738 678 
Q 934 563 1156 502 
Q 1378 441 1619 441 
Q 2219 441 2526 892 
Q 2834 1344 2834 2222 
Q 2688 1909 2422 1742 
Q 2156 1575 1813 1575 
Q 1138 1575 767 1990 
Q 397 2406 397 3169 
Q 397 3922 776 4336 
Q 1156 4750 1850 4750 
Q 2663 4750 3041 4165 
Q 3419 3581 3419 2328 
Q 3419 1150 2964 529 
Q 2509 -91 1644 -91 
Q 1416 -91 1184 -42 
Q 953 6 738 97 
z
" transform="scale(0.015625)"/>
       </defs>
       <use xlink:href="#DejaVuSansMono-15"/>
       <use xlink:href="#DejaVuSansMono-13" transform="translate(60.203125 0)"/>
       <use xlink:href="#DejaVuSansMono-15" transform="translate(120.40625 0)"/>
       <use xlink:href="#DejaVuSansMono-18" transform="translate(180.609375 0)"/>
       <use xlink:href="#DejaVuSansMono-10" transform="translate(240.8125 0)"/>
       <use xlink:href="#DejaVuSansMono-13" transform="translate(301.015625 0)"/>
       <use xlink:href="#DejaVuSansMono-1c" transform="translate(361.21875 0)"/>
       <use xlink:href="#DejaVuSansMono-10" transform="translate(421.421875 0)"/>
       <use xlink:href="#DejaVuSansMono-13" transform="translate(481.625 0)"/>
       <use xlink:href="#DejaVuSansMono-14" transform="translate(541.828125 0)"/>
      </g>
     </g>
    </g>
    <g id="xtick_7">
     <g id="line2d_7">
      <g>
       <use xlink:href="#m3da6967938" x="202.443822" y="250.189875" style="fill: #cccccc; stroke: #cccccc; stroke-width: 0.8"/>
      </g>
     </g>
     <g id="text_7">
      <!-- 2025-11-01 -->
      <g style="fill: #cccccc" transform="translate(204.142535 262.562229) rotate(-315) scale(0.1 -0.1)">
       <use xlink:href="#DejaVuSansMono-15"/>
       <use xlink:href="#DejaVuSansMono-13" transform="translate(60.203125 0)"/>
       <use xlink:href="#DejaVuSansMono-15" transform="translate(120.40625 0)"/>
       <use xlink:href="#DejaVuSansMono-18" transform="translate(180.609375 0)"/>
       <use xlink:href="#DejaVuSansMono-10" transform="translate(240.8125 0)"/>
       <use xlink:href="#DejaVuSansMono-14" transform="translate(301.015625 0)"/>
       <use xlink:href="#DejaVuSansMono-14" transform="translate(361.21875 0)"/>
       <use xlink:href="#DejaVuSansMono-10" transform="translate(421.421875 0)"/>
       <use xlink:href="#DejaVuSansMono-13" transform="translate(481.625 0)"/>
       <use xlink:href="#DejaVuSansMono-14" transform="translate(541.828125 0)"/>
      </g>
     </g>
    </g>
    <g id="xtick_8">
     <g id="line2d_8">
      <g>
       <use xlink:href="#m3da6967938" x="237.132229" y="250.189875" style="fill: #cccccc; stroke: #cccccc; stroke-width: 0.8"/>
      </g>
     </g>
     <g id="text_8">
      <!-- 2026-01-01 -->
      <g style="fill: #cccccc" transform="translate(238.830943 262.562229) rotate(-315) scale(0.1 -0.1)">
       <defs>
        <path id="DejaVuSansMono-19" d="M 3097 4563 
L 3097 3981 
Q 2900 4097 2678 4158 
Q 2456 4219 2216 4219 
Q 1616 4219 1306 3767 
Q 997 3316 997 2438 
Q 1147 2750 1412 2917 
Q 1678 3084 2022 3084 
Q 2697 3084 3067 2670 
Q 3438 2256 3438 1497 
Q 3438 741 3056 325 
Q 2675 -91 1984 -91 
Q 1172 -91 794 492 
Q 416 1075 416 2328 
Q 416 3509 870 4129 
Q 1325 4750 2188 4750 
Q 2419 4750 2650 4701 
Q 2881 4653 3097 4563 
z
M 1972 2591 
Q 1569 2591 1337 2300 
Q 1106 2009 1106 1497 
Q 1106 984 1337 693 
Q 1569 403 1972 403 
Q 2391 403 2603 679 
Q 2816 956 2816 1497 
Q 2816 2041 2603 2316 
Q 2391 2591 1972 2591 
z
" transform="scale(0.015625)"/>
       </defs>
       <use xlink:href="#DejaVuSansMono-15"/>
       <use xlink:href="#DejaVuSansMono-13" transform="translate(60.203125 0)"/>
       <use xlink:href="#DejaVuSansMono-15" transform="translate(120.40625 0)"/>
       <use xlink:href="#DejaVuSansMono-19" transform="translate(180.609375 0)"/>
       <use xlink:href="#DejaVuSansMono-10" transform="translate(240.8125 0)"/>
       <use xlink:href="#DejaVuSansMono-13" transform="translate(301.015625 0)"/>
       <use xlink:href="#DejaVuSansMono-14" transform="translate(361.21875 0)"/>
       <use xlink:href="#DejaVuSansMono-10" transform="translate(421.421875 0)"/>
       <use xlink:href="#DejaVuSansMono-13" transform="translate(481.625 0)"/>
       <use xlink:href="#DejaVuSansMono-14" transform="translate(541.828125 0)"/>
      </g>
     </g>
    </g>
    <g id="xtick_9">
     <g id="line2d_9">
      <g>
       <use xlink:href="#m3da6967938" x="270.683312" y="250.189875" style="fill: #cccccc; stroke: #cccccc; stroke-width: 0.8"/>
      </g>
     </g>
     <g id="text_9">
      <!-- 2026-03-01 -->
      <g style="fill: #cccccc" transform="translate(272.382026 262.562229) rotate(-315) scale(0.1 -0.1)">
       <use xlink:href="#DejaVuSansMono-15"/>
       <use xlink:href="#DejaVuSansMono-13" transform="translate(60.203125 0)"/>
       <use xlink:href="#DejaVuSansMono-15" transform="translate(120.40625 0)"/>
       <use xlink:href="#DejaVuSansMono-19" transform="translate(180.609375 0)"/>
       <use xlink:href="#DejaVuSansMono-10" transform="translate(240.8125 0)"/>
       <use xlink:href="#DejaVuSansMono-13" transform="translate(301.015625 0)"/>
       <use xlink:href="#DejaVuSansMono-16" transform="translate(361.21875 0)"/>
       <use xlink:href="#DejaVuSansMono-10" transform="translate(421.421875 0)"/>
       <use xlink:href="#DejaVuSansMono-13" transform="translate(481.625 0)"/>
       <use xlink:href="#DejaVuSansMono-14" transform="translate(541.828125 0)"/>
      </g>
     </g>
    </g>
    <g id="xtick_10">
     <g id="line2d_10">
      <g>
       <use xlink:href="#m3da6967938" x="305.37172" y="250.189875" style="fill: #cccccc; stroke: #cccccc; stroke-width: 0.8"/>
      </g>
     </g>
     <g id="text_10">
      <!-- 2026-05-01 -->
      <g style="fill: #cccccc" transform="translate(307.070433 262.562229) rotate(-315) scale(0.1 -0.1)">
       <use xlink:href="#DejaVuSansMono-15"/>
       <use xlink:href="#DejaVuSansMono-13" transform="translate(60.203125 0)"/>
       <use xlink:href="#DejaVuSansMono-15" transform="translate(120.40625 0)"/>
       <use xlink:href="#DejaVuSansMono-19" transform="translate(180.609375 0)"/>
       <use xlink:href="#DejaVuSansMono-10" transform="translate(240.8125 0)"/>
       <use xlink:href="#DejaVuSansMono-13" transform="translate(301.015625 0)"/>
       <use xlink:href="#DejaVuSansMono-18" transform="translate(361.21875 0)"/>
       <use xlink:href="#DejaVuSansMono-10" transform="translate(421.421875 0)"/>
       <use xlink:href="#DejaVuSansMono-13" transform="translate(481.625 0)"/>
       <use xlink:href="#DejaVuSansMono-14" transform="translate(541.828125 0)"/>
      </g>
     </g>
    </g>
    <g id="xtick_11">
     <g id="line2d_11">
      <g>
       <use xlink:href="#m3da6967938" x="357.12" y="250.189875" style="fill: #cccccc; stroke: #cccccc; stroke-width: 0.8"/>
      </g>
     </g>
     <g id="text_11">
      <!-- 2026-07-31 -->
      <g style="fill: #cccccc" transform="translate(358.818714 262.562229) rotate(-315) scale(0.1 -0.1)">
       <use xlink:href="#DejaVuSansMono-15"/>
       <use xlink:href="#DejaVuSansMono-13" transform="translate(60.203125 0)"/>
       <use xlink:href="#DejaVuSansMono-15" transform="translate(120.40625 0)"/>
       <use xlink:href="#DejaVuSansMono-19" transform="translate(180.609375 0)"/>
       <use xlink:href="#DejaVuSansMono-10" transform="translate(240.8125 0)"/>
       <use xlink:href="#DejaVuSansMono-13" transform="translate(301.015625 0)"/>
       <use xlink:href="#DejaVuSansMono-1a" transform="translate(361.21875 0)"/>
       <use xlink:href="#DejaVuSansMono-10" transform="translate(421.421875 0)"/>
       <use xlink:href="#DejaVuSansMono-16" transform="translate(481.625 0)"/>
       <use xlink:href="#DejaVuSansMono-14" transform="translate(541.828125 0)"/>
      </g>
     </g>
    </g>
   </g>
   <g id="matplotlib.axis_2">
    <g id="ytick_1">
     <g id="line2d_12">
      <defs>
       <path id="mcff2ceaf2c" d="M 0 0 
L 3.5 0 
" style="stroke: #cccccc; stroke-width: 0.8"/>
      </defs>
      <g>
       <use xlink:href="#mcff2ceaf2c" x="357.12" y="250.189875" style="fill: #cccccc; stroke: #cccccc; stroke-width: 0.8"/>
      </g>
     </g>
     <g id="text_12">
      <!-- 0 -->
      <g style="fill: #cccccc" transform="translate(364.12 253.988703) scale(0.1 -0.1)">
       <use xlink:href="#DejaVuSansMono-13"/>
      </g>
     </g>
    </g>
    <g id="ytick_2">
     <g id="line2d_13">
      <g>
       <use xlink:href="#mcff2ceaf2c" x="357.12" y="198.765805" style="fill: #cccccc; stroke: #cccccc; stroke-width: 0.8"/>
      </g>
     </g>
     <g id="text_13">
      <!-- 200 -->
      <g style="fill: #cccccc" transform="translate(364.12 202.564633) scale(0.1 -0.1)">
       <use xlink:href="#DejaVuSansMono-15"/>
       <use xlink:href="#DejaVuSansMono-13" transform="translate(60.203125 0)"/>
       <use xlink:href="#DejaVuSansMono-13" transform="translate(120.40625 0)"/>
      </g>
     </g>
    </g>
    <g id="ytick_3">
     <g id="line2d_14">
      <g>
       <use xlink:href="#mcff2ceaf2c" x="357.12" y="147.341735" style="fill: #cccccc; stroke: #cccccc; stroke-width: 0.8"/>
      </g>
     </g>
     <g id="text_14">
      <!-- 400 -->
      <g style="fill: #cccccc" transform="translate(364.12 151.140563) scale(0.1 -0.1)">
       <use xlink:href="#DejaVuSansMono-17"/>
       <use xlink:href="#DejaVuSansMono-13" transform="translate(60.203125 0)"/>
       <use xlink:href="#DejaVuSansMono-13" transform="translate(120.40625 0)"/>
      </g>
     </g>
    </g>
    <g id="ytick_4">
     <g id="line2d_15">
      <g>
       <use xlink:href="#mcff2ceaf2c" x="357.12" y="95.917665" style="fill: #cccccc; stroke: #cccccc; stroke-width: 0.8"/>
      </g>
     </g>
     <g id="text_15">
      <!-- 600 -->
      <g style="fill: #cccccc" transform="translate(364.12 99.716493) scale(0.1 -0.1)">
       <use xlink:href="#DejaVuSansMono-19"/>
       <use xlink:href="#DejaVuSansMono-13" transform="translate(60.203125 0)"/>
       <use xlink:href="#DejaVuSansMono-13" transform="translate(120.40625 0)"/>
      </g>
     </g>
    </g>
    <g id="ytick_5">
     <g id="line2d_16">
      <g>
       <use xlink:href="#mcff2ceaf2c" x="357.12" y="44.493595" style="fill: #cccccc; stroke: #cccccc; stroke-width: 0.8"/>
      </g>
     </g>
     <g id="text_16">
      <!-- 800 -->
      <g style="fill: #cccccc" transform="translate(364.12 48.292423) scale(0.1 -0.1)">
       <defs>
        <path id="DejaVuSansMono-1b" d="M 1925 2216 
Q 1503 2216 1273 1980 
Q 1044 1744 1044 1313 
Q 1044 881 1276 642 
Q 1509 403 1925 403 
Q 2350 403 2579 639 
Q 2809 875 2809 1313 
Q 2809 1741 2576 1978 
Q 2344 2216 1925 2216 
z
M 1375 2478 
Q 972 2581 745 2862 
Q 519 3144 519 3541 
Q 519 4097 897 4423 
Q 1275 4750 1925 4750 
Q 2578 4750 2956 4423 
Q 3334 4097 3334 3541 
Q 3334 3144 3107 2862 
Q 2881 2581 2478 2478 
Q 2947 2375 3195 2062 
Q 3444 1750 3444 1253 
Q 3444 622 3041 265 
Q 2638 -91 1925 -91 
Q 1213 -91 811 264 
Q 409 619 409 1247 
Q 409 1747 657 2061 
Q 906 2375 1375 2478 
z
M 1147 3481 
Q 1147 3106 1347 2909 
Q 1547 2713 1925 2713 
Q 2306 2713 2506 2909 
Q 2706 3106 2706 3481 
Q 2706 3863 2507 4063 
Q 2309 4263 1925 4263 
Q 1547 4263 1347 4061 
Q 1147 3859 1147 3481 
z
" transform="scale(0.015625)"/>
       </defs>
       <use xlink:href="#DejaVuSansMono-1b"/>
       <use xlink:href="#DejaVuSansMono-13" transform="translate(60.203125 0)"/>
       <use xlink:href="#DejaVuSansMono-13" transform="translate(120.40625 0)"/>
      </g>
     </g>
    </g>
    <g id="ytick_6">
     <g id="line2d_17">
      <g>
       <use xlink:href="#mcff2ceaf2c" x="357.12" y="15.438995" style="fill: #cccccc; stroke: #cccccc; stroke-width: 0.8"/>
      </g>
     </g>
     <g id="text_17">
      <!-- 913 -->
      <g style="fill: #cccccc" transform="translate(364.12 19.237823) scale(0.1 -0.1)">
       <use xlink:href="#DejaVuSansMono-1c"/>
       <use xlink:href="#DejaVuSansMono-14" transform="translate(60.203125 0)"/>
       <use xlink:href="#DejaVuSansMono-16" transform="translate(120.40625 0)"/>
      </g>
     </g>
    </g>
    <g id="text_18">
     <!-- recording -->
     <g style="fill: #cccccc" transform="translate(393.779375 159.777281) rotate(-90) scale(0.1 -0.1)">
      <defs>
       <path id="DejaVuSansMono-55" d="M 3609 2778 
Q 3425 2922 3234 2987 
Q 3044 3053 2816 3053 
Q 2278 3053 1993 2715 
Q 1709 2378 1709 1741 
L 1709 0 
L 1131 0 
L 1131 3500 
L 1709 3500 
L 1709 2816 
Q 1853 3188 2151 3386 
Q 2450 3584 2859 3584 
Q 3072 3584 3256 3531 
Q 3441 3478 3609 3366 
L 3609 2778 
z
" transform="scale(0.015625)"/>
       <path id="DejaVuSansMono-48" d="M 3475 1894 
L 3475 1613 
L 984 1613 
L 984 1594 
Q 984 1022 1282 709 
Q 1581 397 2125 397 
Q 2400 397 2700 484 
Q 3000 572 3341 750 
L 3341 178 
Q 3013 44 2708 -23 
Q 2403 -91 2119 -91 
Q 1303 -91 843 398 
Q 384 888 384 1747 
Q 384 2584 834 3084 
Q 1284 3584 2034 3584 
Q 2703 3584 3089 3131 
Q 3475 2678 3475 1894 
z
M 2900 2063 
Q 2888 2569 2661 2833 
Q 2434 3097 2009 3097 
Q 1594 3097 1325 2822 
Q 1056 2547 1006 2059 
L 2900 2063 
z
" transform="scale(0.015625)"/>
       <path id="DejaVuSansMono-46" d="M 3316 178 
Q 3084 44 2839 -23 
Q 2594 -91 2338 -91 
Q 1525 -91 1067 396 
Q 609 884 609 1747 
Q 609 2609 1067 3096 
Q 1525 3584 2338 3584 
Q 2591 3584 2831 3518 
Q 3072 3453 3316 3316 
L 3316 2713 
Q 3088 2916 2858 3006 
Q 2628 3097 2338 3097 
Q 1797 3097 1506 2747 
Q 1216 2397 1216 1747 
Q 1216 1100 1508 748 
Q 1800 397 2338 397 
Q 2638 397 2875 489 
Q 3113 581 3316 775 
L 3316 178 
z
" transform="scale(0.015625)"/>
       <path id="DejaVuSansMono-52" d="M 1925 3097 
Q 1488 3097 1263 2756 
Q 1038 2416 1038 1747 
Q 1038 1081 1263 739 
Q 1488 397 1925 397 
Q 2366 397 2591 739 
Q 2816 1081 2816 1747 
Q 2816 2416 2591 2756 
Q 2366 3097 1925 3097 
z
M 1925 3584 
Q 2653 3584 3039 3112 
Q 3425 2641 3425 1747 
Q 3425 850 3040 379 
Q 2656 -91 1925 -91 
Q 1197 -91 812 379 
Q 428 850 428 1747 
Q 428 2641 812 3112 
Q 1197 3584 1925 3584 
z
" transform="scale(0.015625)"/>
       <path id="DejaVuSansMono-47" d="M 2681 3053 
L 2681 4863 
L 3256 4863 
L 3256 0 
L 2681 0 
L 2681 441 
Q 2538 181 2298 45 
Q 2059 -91 1747 -91 
Q 1113 -91 748 401 
Q 384 894 384 1759 
Q 384 2613 750 3098 
Q 1116 3584 1747 3584 
Q 2063 3584 2303 3448 
Q 2544 3313 2681 3053 
z
M 991 1747 
Q 991 1078 1203 737 
Q 1416 397 1831 397 
Q 2247 397 2464 740 
Q 2681 1084 2681 1747 
Q 2681 2413 2464 2755 
Q 2247 3097 1831 3097 
Q 1416 3097 1203 2756 
Q 991 2416 991 1747 
z
" transform="scale(0.015625)"/>
       <path id="DejaVuSansMono-4c" d="M 800 3500 
L 2272 3500 
L 2272 447 
L 3413 447 
L 3413 0 
L 556 0 
L 556 447 
L 1697 447 
L 1697 3053 
L 800 3053 
L 800 3500 
z
M 1697 4863 
L 2272 4863 
L 2272 4134 
L 1697 4134 
L 1697 4863 
z
" transform="scale(0.015625)"/>
       <path id="DejaVuSansMono-51" d="M 3284 2169 
L 3284 0 
L 2706 0 
L 2706 2169 
Q 2706 2641 2540 2862 
Q 2375 3084 2022 3084 
Q 1619 3084 1401 2798 
Q 1184 2513 1184 1978 
L 1184 0 
L 609 0 
L 609 3500 
L 1184 3500 
L 1184 2975 
Q 1338 3275 1600 3429 
Q 1863 3584 2222 3584 
Q 2756 3584 3020 3232 
Q 3284 2881 3284 2169 
z
" transform="scale(0.015625)"/>
       <path id="DejaVuSansMono-4a" d="M 2681 1778 
Q 2681 2425 2470 2761 
Q 2259 3097 1856 3097 
Q 1434 3097 1212 2761 
Q 991 2425 991 1778 
Q 991 1131 1214 792 
Q 1438 453 1863 453 
Q 2259 453 2470 793 
Q 2681 1134 2681 1778 
z
M 3256 225 
Q 3256 -563 2884 -969 
Q 2513 -1375 1791 -1375 
Q 1553 -1375 1293 -1331 
Q 1034 -1288 775 -1203 
L 775 -634 
Q 1081 -778 1331 -847 
Q 1581 -916 1791 -916 
Q 2256 -916 2468 -662 
Q 2681 -409 2681 141 
L 2681 166 
L 2681 556 
Q 2544 263 2306 119 
Q 2069 -25 1728 -25 
Q 1116 -25 750 465 
Q 384 956 384 1778 
Q 384 2603 750 3093 
Q 1116 3584 1728 3584 
Q 2066 3584 2300 3450 
Q 2534 3316 2681 3034 
L 2681 3488 
L 3256 3488 
L 3256 225 
z
" transform="scale(0.015625)"/>
      </defs>
      <use xlink:href="#DejaVuSansMono-55"/>
      <use xlink:href="#DejaVuSansMono-48" transform="translate(60.203125 0)"/>
      <use xlink:href="#DejaVuSansMono-46" transform="translate(120.40625 0)"/>
      <use xlink:href="#DejaVuSansMono-52" transform="translate(180.609375 0)"/>
      <use xlink:href="#DejaVuSansMono-55" transform="translate(240.8125 0)"/>
      <use xlink:href="#DejaVuSansMono-47" transform="translate(301.015625 0)"/>
      <use xlink:href="#DejaVuSansMono-4c" transform="translate(361.21875 0)"/>
      <use xlink:href="#DejaVuSansMono-51" transform="translate(421.421875 0)"/>
      <use xlink:href="#DejaVuSansMono-4a" transform="translate(481.625 0)"/>
     </g>
    </g>
   </g>
   <g id="line2d_18">
    <path d="M 0 249.932755 
L 0.568662 249.161394 
L 2.27465 245.818829 
L 2.843312 245.561709 
L 6.823949 245.561709 
L 7.392611 245.818829 
L 17.059873 241.704903 
L 18.197197 241.447783 
L 27.295796 241.190663 
L 35.825732 236.048256 
L 37.53172 235.791135 
L 38.100382 231.162969 
L 40.943694 230.905849 
L 42.649682 229.363127 
L 46.061656 226.791923 
L 49.473631 226.277682 
L 51.74828 222.935118 
L 52.316943 218.564072 
L 52.885605 216.764229 
L 53.454268 213.678785 
L 54.591592 210.336221 
L 56.29758 204.422453 
L 58.003567 202.879731 
L 58.572229 201.079888 
L 60.278217 196.451722 
L 60.846879 193.880518 
L 62.552866 193.109157 
L 64.258854 191.566435 
L 65.396178 191.309315 
L 65.964841 190.023713 
L 66.533503 184.624186 
L 70.51414 181.024501 
L 72.220127 180.76738 
L 72.78879 178.967538 
L 74.494777 176.910575 
L 75.632102 171.768168 
L 76.200764 171.511048 
L 76.769427 169.454085 
L 77.906752 165.8544 
L 78.475414 164.825919 
L 80.181401 164.311678 
L 80.750064 163.283197 
L 82.456051 159.426391 
L 84.162038 154.283984 
L 85.868025 154.026864 
L 87.574013 152.741262 
L 88.142675 147.855976 
L 88.711338 147.598855 
L 89.848662 147.341735 
L 91.55465 145.799013 
L 92.123312 140.913726 
L 96.103949 140.399486 
L 96.672611 139.885245 
L 97.241274 133.714356 
L 97.809936 132.171634 
L 98.378599 131.914514 
L 100.653248 131.143153 
L 101.221911 130.628912 
L 101.790573 126.257866 
L 102.359236 124.972264 
L 102.927898 124.715144 
L 104.065223 120.601219 
L 105.77121 119.572737 
L 106.908535 119.315617 
L 108.04586 118.030015 
L 109.183185 114.43033 
L 110.889172 111.087766 
L 111.457834 103.374155 
L 112.595159 102.859914 
L 113.163822 101.317192 
L 114.301146 101.317192 
L 117.713121 97.203267 
L 118.850446 96.689026 
L 119.419108 95.660545 
L 122.26242 90.775258 
L 123.399745 89.746777 
L 124.53707 88.975415 
L 125.674395 88.718295 
L 129.655032 88.204054 
L 133.635669 85.375731 
L 135.910318 84.347249 
L 136.478981 83.318768 
L 137.047643 78.690601 
L 137.616306 78.690601 
L 141.02828 78.176361 
L 145.008917 78.176361 
L 145.57758 77.147879 
L 146.714904 76.376518 
L 147.283567 75.605157 
L 154.676178 75.090917 
L 155.244841 70.46275 
L 161.500127 69.94851 
L 162.637452 67.634426 
L 167.755414 64.806103 
L 168.324076 64.806103 
L 170.598726 64.548982 
L 171.167389 63.777621 
L 172.873376 61.977779 
L 174.010701 61.977779 
L 177.422675 60.435057 
L 177.991338 57.606733 
L 178.56 56.835372 
L 179.697325 56.578251 
L 185.383949 54.521289 
L 187.658599 54.521289 
L 189.933248 53.492807 
L 190.501911 52.978566 
L 192.776561 52.978566 
L 193.913885 52.721446 
L 195.619873 52.464326 
L 196.188535 51.950085 
L 196.757197 51.692965 
L 201.875159 51.178724 
L 212.111083 50.921604 
L 218.935032 50.150243 
L 222.347006 49.636002 
L 226.896306 48.607521 
L 239.975541 47.836159 
L 250.211465 47.064798 
L 270.683312 46.293437 
L 275.232611 46.293437 
L 279.213248 45.779197 
L 301.959745 45.522076 
L 303.09707 45.264956 
L 307.646369 45.264956 
L 312.195669 45.007836 
L 313.901656 44.750715 
L 317.882293 42.179512 
L 333.236178 38.322707 
L 334.373503 38.322707 
L 340.62879 38.065586 
L 342.334777 37.808466 
L 345.178089 35.237262 
L 346.884076 35.237262 
L 347.452739 32.923179 
L 348.021401 32.666059 
L 348.590064 32.923179 
L 349.727389 26.23805 
L 350.296051 21.095643 
L 350.864713 21.095643 
L 351.433376 19.295801 
L 352.002038 19.03868 
L 357.12 15.438995 
L 357.12 15.438995 
" clip-path="url(#p294bd59f63)" style="fill: none; stroke: #d5397b; stroke-opacity: 0.5; stroke-width: 1.5; stroke-linecap: square"/>
   </g>
   <g id="text_19">
    <!-- days: 628 -->
    <g style="fill: #cccccc" transform="translate(35.712 48.94205) scale(0.1 -0.1)">
     <defs>
      <path id="DejaVuSansMono-44" d="M 2194 1759 
L 2003 1759 
Q 1500 1759 1245 1582 
Q 991 1406 991 1056 
Q 991 741 1181 566 
Q 1372 391 1709 391 
Q 2184 391 2456 720 
Q 2728 1050 2731 1631 
L 2731 1759 
L 2194 1759 
z
M 3309 1997 
L 3309 0 
L 2731 0 
L 2731 519 
Q 2547 206 2267 57 
Q 1988 -91 1588 -91 
Q 1053 -91 734 211 
Q 416 513 416 1019 
Q 416 1603 808 1906 
Q 1200 2209 1959 2209 
L 2731 2209 
L 2731 2300 
Q 2728 2719 2518 2908 
Q 2309 3097 1850 3097 
Q 1556 3097 1256 3012 
Q 956 2928 672 2766 
L 672 3341 
Q 991 3463 1283 3523 
Q 1575 3584 1850 3584 
Q 2284 3584 2592 3456 
Q 2900 3328 3091 3072 
Q 3209 2916 3259 2686 
Q 3309 2456 3309 1997 
z
" transform="scale(0.015625)"/>
      <path id="DejaVuSansMono-5c" d="M 2681 1125 
Q 2538 759 2316 163 
Q 2006 -663 1900 -844 
Q 1756 -1088 1540 -1209 
Q 1325 -1331 1038 -1331 
L 575 -1331 
L 575 -850 
L 916 -850 
Q 1169 -850 1312 -703 
Q 1456 -556 1678 56 
L 325 3500 
L 934 3500 
L 1972 763 
L 2994 3500 
L 3603 3500 
L 2681 1125 
z
" transform="scale(0.015625)"/>
      <path id="DejaVuSansMono-56" d="M 3041 3378 
L 3041 2816 
Q 2794 2959 2544 3031 
Q 2294 3103 2034 3103 
Q 1644 3103 1451 2976 
Q 1259 2850 1259 2591 
Q 1259 2356 1403 2240 
Q 1547 2125 2119 2016 
L 2350 1972 
Q 2778 1891 2998 1647 
Q 3219 1403 3219 1013 
Q 3219 494 2850 201 
Q 2481 -91 1825 -91 
Q 1566 -91 1281 -36 
Q 997 19 666 128 
L 666 722 
Q 988 556 1281 473 
Q 1575 391 1838 391 
Q 2219 391 2428 545 
Q 2638 700 2638 978 
Q 2638 1378 1872 1531 
L 1847 1538 
L 1631 1581 
Q 1134 1678 906 1908 
Q 678 2138 678 2534 
Q 678 3038 1018 3311 
Q 1359 3584 1991 3584 
Q 2272 3584 2531 3532 
Q 2791 3481 3041 3378 
z
" transform="scale(0.015625)"/>
      <path id="DejaVuSansMono-1d" d="M 1528 3322 
L 2316 3322 
L 2316 2375 
L 1528 2375 
L 1528 3322 
z
M 1528 953 
L 2316 953 
L 2316 0 
L 1528 0 
L 1528 953 
z
" transform="scale(0.015625)"/>
      <path id="DejaVuSansMono-3" transform="scale(0.015625)"/>
     </defs>
     <use xlink:href="#DejaVuSansMono-47"/>
     <use xlink:href="#DejaVuSansMono-44" transform="translate(60.203125 0)"/>
     <use xlink:href="#DejaVuSansMono-5c" transform="translate(120.40625 0)"/>
     <use xlink:href="#DejaVuSansMono-56" transform="translate(180.609375 0)"/>
     <use xlink:href="#DejaVuSansMono-1d" transform="translate(240.8125 0)"/>
     <use xlink:href="#DejaVuSansMono-3" transform="translate(301.015625 0)"/>
     <use xlink:href="#DejaVuSansMono-19" transform="translate(361.21875 0)"/>
     <use xlink:href="#DejaVuSansMono-15" transform="translate(421.421875 0)"/>
     <use xlink:href="#DejaVuSansMono-1b" transform="translate(481.625 0)"/>
    </g>
    <!--  avg: 1.45 -->
    <g style="fill: #cccccc" transform="translate(35.712 63.753769) scale(0.1 -0.1)">
     <defs>
      <path id="DejaVuSansMono-59" d="M 313 3500 
L 909 3500 
L 1925 563 
L 2944 3500 
L 3541 3500 
L 2297 0 
L 1556 0 
L 313 3500 
z
" transform="scale(0.015625)"/>
      <path id="DejaVuSansMono-11" d="M 1528 953 
L 2316 953 
L 2316 0 
L 1528 0 
L 1528 953 
z
" transform="scale(0.015625)"/>
     </defs>
     <use xlink:href="#DejaVuSansMono-3"/>
     <use xlink:href="#DejaVuSansMono-44" transform="translate(60.203125 0)"/>
     <use xlink:href="#DejaVuSansMono-59" transform="translate(120.40625 0)"/>
     <use xlink:href="#DejaVuSansMono-4a" transform="translate(180.609375 0)"/>
     <use xlink:href="#DejaVuSansMono-1d" transform="translate(240.8125 0)"/>
     <use xlink:href="#DejaVuSansMono-3" transform="translate(301.015625 0)"/>
     <use xlink:href="#DejaVuSansMono-14" transform="translate(361.21875 0)"/>
     <use xlink:href="#DejaVuSansMono-11" transform="translate(421.421875 0)"/>
     <use xlink:href="#DejaVuSansMono-17" transform="translate(481.625 0)"/>
     <use xlink:href="#DejaVuSansMono-18" transform="translate(541.828125 0)"/>
    </g>
   </g>
   <g id="text_20">
    <!-- recording count in listen.ron over time -->
    <g style="fill: #cccccc" transform="translate(37.684688 9.181875) scale(0.12 -0.12)">
     <defs>
      <path id="DejaVuSansMono-58" d="M 609 1325 
L 609 3494 
L 1184 3494 
L 1184 1325 
Q 1184 853 1351 631 
Q 1519 409 1869 409 
Q 2275 409 2490 695 
Q 2706 981 2706 1516 
L 2706 3494 
L 3284 3494 
L 3284 0 
L 2706 0 
L 2706 525 
Q 2553 222 2289 65 
Q 2025 -91 1672 -91 
Q 1134 -91 871 261 
Q 609 613 609 1325 
z
" transform="scale(0.015625)"/>
      <path id="DejaVuSansMono-57" d="M 1919 4494 
L 1919 3500 
L 3225 3500 
L 3225 3053 
L 1919 3053 
L 1919 1153 
Q 1919 766 2066 612 
Q 2213 459 2578 459 
L 3225 459 
L 3225 0 
L 2522 0 
Q 1875 0 1609 259 
Q 1344 519 1344 1153 
L 1344 3053 
L 409 3053 
L 409 3500 
L 1344 3500 
L 1344 4494 
L 1919 4494 
z
" transform="scale(0.015625)"/>
      <path id="DejaVuSansMono-4f" d="M 1997 1269 
Q 1997 881 2139 684 
Q 2281 488 2559 488 
L 3231 488 
L 3231 0 
L 2503 0 
Q 1988 0 1705 331 
Q 1422 663 1422 1269 
L 1422 4447 
L 500 4447 
L 500 4897 
L 1997 4897 
L 1997 1269 
z
" transform="scale(0.015625)"/>
      <path id="DejaVuSansMono-50" d="M 2113 3144 
Q 2219 3369 2383 3476 
Q 2547 3584 2778 3584 
Q 3200 3584 3373 3257 
Q 3547 2931 3547 2028 
L 3547 0 
L 3022 0 
L 3022 2003 
Q 3022 2744 2939 2923 
Q 2856 3103 2638 3103 
Q 2388 3103 2295 2911 
Q 2203 2719 2203 2003 
L 2203 0 
L 1678 0 
L 1678 2003 
Q 1678 2753 1589 2928 
Q 1500 3103 1269 3103 
Q 1041 3103 952 2911 
Q 863 2719 863 2003 
L 863 0 
L 341 0 
L 341 3500 
L 863 3500 
L 863 3200 
Q 966 3388 1120 3486 
Q 1275 3584 1472 3584 
Q 1709 3584 1867 3475 
Q 2025 3366 2113 3144 
z
" transform="scale(0.015625)"/>
     </defs>
     <use xlink:href="#DejaVuSansMono-55"/>
     <use xlink:href="#DejaVuSansMono-48" transform="translate(60.203125 0)"/>
     <use xlink:href="#DejaVuSansMono-46" transform="translate(120.40625 0)"/>
     <use xlink:href="#DejaVuSansMono-52" transform="translate(180.609375 0)"/>
     <use xlink:href="#DejaVuSansMono-55" transform="translate(240.8125 0)"/>
     <use xlink:href="#DejaVuSansMono-47" transform="translate(301.015625 0)"/>
     <use xlink:href="#DejaVuSansMono-4c" transform="translate(361.21875 0)"/>
     <use xlink:href="#DejaVuSansMono-51" transform="translate(421.421875 0)"/>
     <use xlink:href="#DejaVuSansMono-4a" transform="translate(481.625 0)"/>
     <use xlink:href="#DejaVuSansMono-3" transform="translate(541.828125 0)"/>
     <use xlink:href="#DejaVuSansMono-46" transform="translate(602.03125 0)"/>
     <use xlink:href="#DejaVuSansMono-52" transform="translate(662.234375 0)"/>
     <use xlink:href="#DejaVuSansMono-58" transform="translate(722.4375 0)"/>
     <use xlink:href="#DejaVuSansMono-51" transform="translate(782.640625 0)"/>
     <use xlink:href="#DejaVuSansMono-57" transform="translate(842.84375 0)"/>
     <use xlink:href="#DejaVuSansMono-3" transform="translate(903.046875 0)"/>
     <use xlink:href="#DejaVuSansMono-4c" transform="translate(963.25 0)"/>
     <use xlink:href="#DejaVuSansMono-51" transform="translate(1023.453125 0)"/>
     <use xlink:href="#DejaVuSansMono-3" transform="translate(1083.65625 0)"/>
     <use xlink:href="#DejaVuSansMono-4f" transform="translate(1143.859375 0)"/>
     <use xlink:href="#DejaVuSansMono-4c" transform="translate(1204.0625 0)"/>
     <use xlink:href="#DejaVuSansMono-56" transform="translate(1264.265625 0)"/>
     <use xlink:href="#DejaVuSansMono-57" transform="translate(1324.46875 0)"/>
     <use xlink:href="#DejaVuSansMono-48" transform="translate(1384.671875 0)"/>
     <use xlink:href="#DejaVuSansMono-51" transform="translate(1444.875 0)"/>
     <use xlink:href="#DejaVuSansMono-11" transform="translate(1505.078125 0)"/>
     <use xlink:href="#DejaVuSansMono-55" transform="translate(1565.28125 0)"/>
     <use xlink:href="#DejaVuSansMono-52" transform="translate(1625.484375 0)"/>
     <use xlink:href="#DejaVuSansMono-51" transform="translate(1685.6875 0)"/>
     <use xlink:href="#DejaVuSansMono-3" transform="translate(1745.890625 0)"/>
     <use xlink:href="#DejaVuSansMono-52" transform="translate(1806.09375 0)"/>
     <use xlink:href="#DejaVuSansMono-59" transform="translate(1866.296875 0)"/>
     <use xlink:href="#DejaVuSansMono-48" transform="translate(1926.5 0)"/>
     <use xlink:href="#DejaVuSansMono-55" transform="translate(1986.703125 0)"/>
     <use xlink:href="#DejaVuSansMono-3" transform="translate(2046.90625 0)"/>
     <use xlink:href="#DejaVuSansMono-57" transform="translate(2107.109375 0)"/>
     <use xlink:href="#DejaVuSansMono-4c" transform="translate(2167.3125 0)"/>
     <use xlink:href="#DejaVuSansMono-50" transform="translate(2227.515625 0)"/>
     <use xlink:href="#DejaVuSansMono-48" transform="translate(2287.71875 0)"/>
    </g>
   </g>
  </g>
 </g>
 <defs>
  <clipPath id="p294bd59f63">
   <rect x="0" y="15.181875" width="357.12" height="235.008"/>
  </clipPath>
 </defs>
</svg>
