<?xml version="1.0" encoding="utf-8" standalone="no"?>
<!DOCTYPE svg PUBLIC "-//W3C//DTD SVG 1.1//EN"
  "http://www.w3.org/Graphics/SVG/1.1/DTD/svg11.dtd">
<svg xmlns:xlink="http://www.w3.org/1999/xlink" width="406.761106pt" height="306.830981pt" viewBox="0 0 406.761106 306.830981" xmlns="http://www.w3.org/2000/svg" version="1.1">
 <metadata>
  <rdf:RDF xmlns:dc="http://purl.org/dc/elements/1.1/" xmlns:cc="http://creativecommons.org/ns#" xmlns:rdf="http://www.w3.org/1999/02/22-rdf-syntax-ns#">
   <cc:Work>
    <dc:type rdf:resource="http://purl.org/dc/dcmitype/StillImage"/>
    <dc:date>2026-08-28T02:18:36.021108</dc:date>
    <dc:format>image/svg+xml</dc:format>
    <dc:creator>
     <cc:Agent>
      <dc:title>Matplotlib v3.11.1, https://matplotlib.org/</dc:title>
     </cc:Agent>
    </dc:creator>
   </cc:Work>
  </rdf:RDF>
 </metadata>
 <defs>
  <style type="text/css">*{stroke-linejoin: round; stroke-linecap: butt}</style>
 </defs>
 <g id="figure_1">
  <g id="patch_1">
   <path d="M 0 306.830981 
L 406.761106 306.830981 
L 406.761106 0 
L 0 0 
L 0 306.830981 
z
" style="fill: none"/>
  </g>
  <g id="axes_1">
   <g id="patch_2">
    <path d="M 0 250.189875 
L 357.12 250.189875 
L 357.12 15.181875 
L 0 15.181875 
L 0 250.189875 
z
" style="fill: none"/>
   </g>
   <g id="FillBetweenPolyCollection_1">
    <defs>
     <path id="m60f6906ba2" d="M 0 -56.641106 
L 0 -56.849077 
L 0.546891 -57.472992 
L 2.187565 -60.176624 
L 2.734456 -60.384596 
L 6.562695 -60.384596 
L 7.109587 -60.176624 
L 15.312956 -63.088228 
L 16.406738 -63.504171 
L 17.500521 -63.712143 
L 26.250781 -63.920115 
L 34.45415 -68.079548 
L 36.094824 -68.28752 
L 36.641715 -72.03101 
L 39.376172 -72.238982 
L 41.016845 -73.486812 
L 44.298193 -75.566529 
L 47.579541 -75.982472 
L 49.767106 -78.686104 
L 50.313997 -82.221623 
L 50.860888 -83.677424 
L 51.407779 -86.173085 
L 52.501562 -88.876716 
L 53.048453 -90.54049 
L 54.142236 -93.660065 
L 55.78291 -94.907895 
L 56.329801 -96.363697 
L 57.970475 -100.107187 
L 58.517366 -102.186904 
L 59.064257 -102.394876 
L 60.15804 -102.810819 
L 60.704931 -103.226762 
L 61.798714 -104.058649 
L 62.892496 -104.266621 
L 63.439387 -105.306479 
L 63.986279 -109.673885 
L 67.814518 -112.585488 
L 69.455191 -112.79346 
L 70.002083 -114.249262 
L 71.642757 -115.913035 
L 72.736539 -120.072469 
L 73.28343 -120.28044 
L 73.830322 -121.944214 
L 74.924104 -124.855817 
L 75.470995 -125.687704 
L 77.111669 -126.103647 
L 77.65856 -126.935534 
L 79.299234 -130.055109 
L 80.939908 -134.214543 
L 82.580582 -134.422515 
L 83.674364 -135.04643 
L 84.221256 -135.462373 
L 84.768147 -139.413835 
L 85.315038 -139.621807 
L 86.408821 -139.829778 
L 86.955712 -140.245722 
L 88.049495 -141.077608 
L 88.596386 -145.02907 
L 92.424625 -145.445014 
L 92.971516 -145.860957 
L 93.518407 -150.852277 
L 94.065299 -152.100108 
L 94.61219 -152.308079 
L 96.799755 -152.931994 
L 97.346646 -153.347938 
L 97.893538 -156.883456 
L 98.440429 -157.923315 
L 98.98732 -158.131286 
L 99.534211 -159.79506 
L 100.081103 -161.458833 
L 101.721776 -162.29072 
L 102.815559 -162.498692 
L 103.909342 -163.53855 
L 104.456233 -164.994352 
L 105.003124 -166.450154 
L 106.643798 -169.153785 
L 107.190689 -175.392936 
L 108.284472 -175.808879 
L 108.831363 -177.056709 
L 109.925145 -177.056709 
L 113.206493 -180.384256 
L 114.300276 -180.8002 
L 114.847167 -181.632086 
L 117.581623 -185.583548 
L 118.128515 -185.999492 
L 118.675406 -186.415435 
L 119.769188 -187.03935 
L 120.862971 -187.247322 
L 124.69121 -187.663265 
L 128.519449 -189.950954 
L 130.707014 -190.78284 
L 131.253905 -191.614727 
L 131.800796 -195.358217 
L 132.347688 -195.358217 
L 135.629035 -195.774161 
L 139.457274 -195.774161 
L 140.004165 -196.606047 
L 141.097948 -197.229962 
L 141.644839 -197.853877 
L 148.754426 -198.269821 
L 149.301317 -202.013311 
L 155.317121 -202.429254 
L 156.410904 -204.301 
L 161.332925 -206.588688 
L 161.879816 -206.588688 
L 164.067381 -206.79666 
L 164.614273 -207.420575 
L 166.254946 -208.876377 
L 167.348729 -208.876377 
L 170.630077 -210.124207 
L 171.176968 -212.411895 
L 171.723859 -213.03581 
L 172.817642 -213.243782 
L 178.286554 -214.907555 
L 180.474119 -214.907555 
L 181.021011 -215.115527 
L 181.567902 -215.323499 
L 182.661685 -215.739442 
L 183.208576 -216.155385 
L 185.396141 -216.155385 
L 186.489923 -216.363357 
L 188.130597 -216.571329 
L 188.677489 -216.987272 
L 189.22438 -217.195244 
L 191.411945 -217.403215 
L 194.146401 -217.611187 
L 203.990444 -217.819159 
L 210.553139 -218.443074 
L 213.834487 -218.859017 
L 218.209617 -219.690904 
L 222.584747 -219.898876 
L 225.866095 -220.106847 
L 230.788116 -220.314819 
L 240.632159 -220.938734 
L 252.116876 -221.354677 
L 260.320245 -221.562649 
L 264.695375 -221.562649 
L 268.523614 -221.978592 
L 290.399265 -222.186564 
L 291.493047 -222.394536 
L 295.868178 -222.394536 
L 300.243308 -222.602508 
L 301.883982 -222.810479 
L 305.165329 -224.682224 
L 305.712221 -224.890196 
L 320.478285 -228.009771 
L 321.572067 -228.009771 
L 327.587871 -228.217743 
L 329.228545 -228.425715 
L 331.963002 -230.505431 
L 333.603675 -230.505431 
L 334.150567 -232.377177 
L 334.697458 -232.585148 
L 335.244349 -232.377177 
L 336.338132 -237.78444 
L 336.885023 -241.943874 
L 337.431914 -241.943874 
L 337.978806 -243.399676 
L 338.525697 -243.607647 
L 343.447718 -246.519251 
L 345.635283 -249.430854 
L 346.729066 -251.094628 
L 347.275957 -255.670005 
L 347.822848 -255.877977 
L 348.36974 -264.196844 
L 348.916631 -268.980192 
L 349.463522 -270.228023 
L 350.557305 -273.139626 
L 351.104196 -275.011371 
L 351.651087 -279.378777 
L 352.197979 -283.954154 
L 352.74487 -286.241842 
L 355.479326 -291.441134 
L 356.026217 -291.441134 
L 356.573109 -291.441134 
L 357.12 -291.441134 
L 357.12 -56.641106 
L 357.12 -56.641106 
L 356.573109 -56.641106 
L 356.026217 -56.641106 
L 355.479326 -56.641106 
L 352.74487 -56.641106 
L 352.197979 -56.641106 
L 351.651087 -56.641106 
L 351.104196 -56.641106 
L 350.557305 -56.641106 
L 349.463522 -56.641106 
L 348.916631 -56.641106 
L 348.36974 -56.641106 
L 347.822848 -56.641106 
L 347.275957 -56.641106 
L 346.729066 -56.641106 
L 345.635283 -56.641106 
L 343.447718 -56.641106 
L 338.525697 -56.641106 
L 337.978806 -56.641106 
L 337.431914 -56.641106 
L 336.885023 -56.641106 
L 336.338132 -56.641106 
L 335.244349 -56.641106 
L 334.697458 -56.641106 
L 334.150567 -56.641106 
L 333.603675 -56.641106 
L 331.963002 -56.641106 
L 329.228545 -56.641106 
L 327.587871 -56.641106 
L 321.572067 -56.641106 
L 320.478285 -56.641106 
L 305.712221 -56.641106 
L 305.165329 -56.641106 
L 301.883982 -56.641106 
L 300.243308 -56.641106 
L 295.868178 -56.641106 
L 291.493047 -56.641106 
L 290.399265 -56.641106 
L 268.523614 -56.641106 
L 264.695375 -56.641106 
L 260.320245 -56.641106 
L 252.116876 -56.641106 
L 240.632159 -56.641106 
L 230.788116 -56.641106 
L 225.866095 -56.641106 
L 222.584747 -56.641106 
L 218.209617 -56.641106 
L 213.834487 -56.641106 
L 210.553139 -56.641106 
L 203.990444 -56.641106 
L 194.146401 -56.641106 
L 191.411945 -56.641106 
L 189.22438 -56.641106 
L 188.677489 -56.641106 
L 188.130597 -56.641106 
L 186.489923 -56.641106 
L 185.396141 -56.641106 
L 183.208576 -56.641106 
L 182.661685 -56.641106 
L 181.567902 -56.641106 
L 181.021011 -56.641106 
L 180.474119 -56.641106 
L 178.286554 -56.641106 
L 172.817642 -56.641106 
L 171.723859 -56.641106 
L 171.176968 -56.641106 
L 170.630077 -56.641106 
L 167.348729 -56.641106 
L 166.254946 -56.641106 
L 164.614273 -56.641106 
L 164.067381 -56.641106 
L 161.879816 -56.641106 
L 161.332925 -56.641106 
L 156.410904 -56.641106 
L 155.317121 -56.641106 
L 149.301317 -56.641106 
L 148.754426 -56.641106 
L 141.644839 -56.641106 
L 141.097948 -56.641106 
L 140.004165 -56.641106 
L 139.457274 -56.641106 
L 135.629035 -56.641106 
L 132.347688 -56.641106 
L 131.800796 -56.641106 
L 131.253905 -56.641106 
L 130.707014 -56.641106 
L 128.519449 -56.641106 
L 124.69121 -56.641106 
L 120.862971 -56.641106 
L 119.769188 -56.641106 
L 118.675406 -56.641106 
L 118.128515 -56.641106 
L 117.581623 -56.641106 
L 114.847167 -56.641106 
L 114.300276 -56.641106 
L 113.206493 -56.641106 
L 109.925145 -56.641106 
L 108.831363 -56.641106 
L 108.284472 -56.641106 
L 107.190689 -56.641106 
L 106.643798 -56.641106 
L 105.003124 -56.641106 
L 104.456233 -56.641106 
L 103.909342 -56.641106 
L 102.815559 -56.641106 
L 101.721776 -56.641106 
L 100.081103 -56.641106 
L 99.534211 -56.641106 
L 98.98732 -56.641106 
L 98.440429 -56.641106 
L 97.893538 -56.641106 
L 97.346646 -56.641106 
L 96.799755 -56.641106 
L 94.61219 -56.641106 
L 94.065299 -56.641106 
L 93.518407 -56.641106 
L 92.971516 -56.641106 
L 92.424625 -56.641106 
L 88.596386 -56.641106 
L 88.049495 -56.641106 
L 86.955712 -56.641106 
L 86.408821 -56.641106 
L 85.315038 -56.641106 
L 84.768147 -56.641106 
L 84.221256 -56.641106 
L 83.674364 -56.641106 
L 82.580582 -56.641106 
L 80.939908 -56.641106 
L 79.299234 -56.641106 
L 77.65856 -56.641106 
L 77.111669 -56.641106 
L 75.470995 -56.641106 
L 74.924104 -56.641106 
L 73.830322 -56.641106 
L 73.28343 -56.641106 
L 72.736539 -56.641106 
L 71.642757 -56.641106 
L 70.002083 -56.641106 
L 69.455191 -56.641106 
L 67.814518 -56.641106 
L 63.986279 -56.641106 
L 63.439387 -56.641106 
L 62.892496 -56.641106 
L 61.798714 -56.641106 
L 60.704931 -56.641106 
L 60.15804 -56.641106 
L 59.064257 -56.641106 
L 58.517366 -56.641106 
L 57.970475 -56.641106 
L 56.329801 -56.641106 
L 55.78291 -56.641106 
L 54.142236 -56.641106 
L 53.048453 -56.641106 
L 52.501562 -56.641106 
L 51.407779 -56.641106 
L 50.860888 -56.641106 
L 50.313997 -56.641106 
L 49.767106 -56.641106 
L 47.579541 -56.641106 
L 44.298193 -56.641106 
L 41.016845 -56.641106 
L 39.376172 -56.641106 
L 36.641715 -56.641106 
L 36.094824 -56.641106 
L 34.45415 -56.641106 
L 26.250781 -56.641106 
L 17.500521 -56.641106 
L 16.406738 -56.641106 
L 15.312956 -56.641106 
L 7.109587 -56.641106 
L 6.562695 -56.641106 
L 2.734456 -56.641106 
L 2.187565 -56.641106 
L 0.546891 -56.641106 
L 0 -56.641106 
z
" style="stroke: #d5397b; stroke-opacity: 0.4"/>
    </defs>
    <g clip-path="url(#p8cbe276ca2)">
     <use xlink:href="#m60f6906ba2" x="0" y="306.830981" style="fill: #d5397b; fill-opacity: 0.4; stroke: #d5397b; stroke-opacity: 0.4"/>
    </g>
   </g>
   <g id="matplotlib.axis_1">
    <g id="xtick_1">
     <g id="line2d_1">
      <defs>
       <path id="m8f2bc50ae8" d="M 0 0 
L 0 3.5 
" style="stroke: #cccccc; stroke-width: 0.8"/>
      </defs>
      <g>
       <use xlink:href="#m8f2bc50ae8" x="0" y="250.189875" style="fill: #cccccc; stroke: #cccccc; stroke-width: 0.8"/>
      </g>
     </g>
     <g id="text_1">
      <!-- 2024-11-10 -->
      <g style="fill: #cccccc" transform="translate(1.698714 262.562229) rotate(-315) scale(0.1 -0.1)">
       <defs>
        <path id="DejaVuSansMono-15" d="M 1166 531 
L 3309 531 
L 3309 0 
L 475 0 
L 475 531 
Q 1059 1147 1496 1619 
Q 1934 2091 2100 2284 
Q 2413 2666 2522 2902 
Q 2631 3138 2631 3384 
Q 2631 3775 2401 3997 
Q 2172 4219 1772 4219 
Q 1488 4219 1175 4116 
Q 863 4013 513 3803 
L 513 4441 
Q 834 4594 1145 4672 
Q 1456 4750 1759 4750 
Q 2444 4750 2861 4386 
Q 3278 4022 3278 3431 
Q 3278 3131 3139 2831 
Q 3000 2531 2688 2169 
Q 2513 1966 2180 1606 
Q 1847 1247 1166 531 
z
" transform="scale(0.015625)"/>
        <path id="DejaVuSansMono-13" d="M 1509 2344 
Q 1509 2516 1629 2641 
Q 1750 2766 1919 2766 
Q 2094 2766 2219 2641 
Q 2344 2516 2344 2344 
Q 2344 2169 2220 2047 
Q 2097 1925 1919 1925 
Q 1744 1925 1626 2044 
Q 1509 2163 1509 2344 
z
M 1925 4250 
Q 1484 4250 1267 3775 
Q 1050 3300 1050 2328 
Q 1050 1359 1267 884 
Q 1484 409 1925 409 
Q 2369 409 2586 884 
Q 2803 1359 2803 2328 
Q 2803 3300 2586 3775 
Q 2369 4250 1925 4250 
z
M 1925 4750 
Q 2672 4750 3055 4137 
Q 3438 3525 3438 2328 
Q 3438 1134 3055 521 
Q 2672 -91 1925 -91 
Q 1178 -91 797 521 
Q 416 1134 416 2328 
Q 416 3525 797 4137 
Q 1178 4750 1925 4750 
z
" transform="scale(0.015625)"/>
        <path id="DejaVuSansMono-17" d="M 2297 4091 
L 825 1625 
L 2297 1625 
L 2297 4091 
z
M 2194 4666 
L 2925 4666 
L 2925 1625 
L 3547 1625 
L 3547 1113 
L 2925 1113 
L 2925 0 
L 2297 0 
L 2297 1113 
L 319 1113 
L 319 1709 
L 2194 4666 
z
" transform="scale(0.015625)"/>
        <path id="DejaVuSansMono-10" d="M 1113 2009 
L 2741 2009 
L 2741 1497 
L 1113 1497 
L 1113 2009 
z
" transform="scale(0.015625)"/>
        <path id="DejaVuSansMono-14" d="M 844 531 
L 1825 531 
L 1825 4097 
L 769 3859 
L 769 4434 
L 1819 4666 
L 2450 4666 
L 2450 531 
L 3419 531 
L 3419 0 
L 844 0 
L 844 531 
z
" transform="scale(0.015625)"/>
       </defs>
       <use xlink:href="#DejaVuSansMono-15"/>
       <use xlink:href="#DejaVuSansMono-13" transform="translate(60.203125 0)"/>
       <use xlink:href="#DejaVuSansMono-15" transform="translate(120.40625 0)"/>
       <use xlink:href="#DejaVuSansMono-17" transform="translate(180.609375 0)"/>
       <use xlink:href="#DejaVuSansMono-10" transform="translate(240.8125 0)"/>
       <use xlink:href="#DejaVuSansMono-14" transform="translate(301.015625 0)"/>
       <use xlink:href="#DejaVuSansMono-14" transform="translate(361.21875 0)"/>
       <use xlink:href="#DejaVuSansMono-10" transform="translate(421.421875 0)"/>
       <use xlink:href="#DejaVuSansMono-14" transform="translate(481.625 0)"/>
       <use xlink:href="#DejaVuSansMono-13" transform="translate(541.828125 0)"/>
      </g>
     </g>
    </g>
    <g id="xtick_2">
     <g id="line2d_2">
      <g>
       <use xlink:href="#m8f2bc50ae8" x="28.438346" y="250.189875" style="fill: #cccccc; stroke: #cccccc; stroke-width: 0.8"/>
      </g>
     </g>
     <g id="text_2">
      <!-- 2025-01-01 -->
      <g style="fill: #cccccc" transform="translate(30.13706 262.562229) rotate(-315) scale(0.1 -0.1)">
       <defs>
        <path id="DejaVuSansMono-18" d="M 647 4666 
L 3009 4666 
L 3009 4134 
L 1222 4134 
L 1222 2988 
Q 1356 3038 1492 3061 
Q 1628 3084 1766 3084 
Q 2491 3084 2916 2656 
Q 3341 2228 3341 1497 
Q 3341 759 2895 334 
Q 2450 -91 1678 -91 
Q 1306 -91 998 -41 
Q 691 9 447 109 
L 447 750 
Q 734 594 1025 517 
Q 1316 441 1619 441 
Q 2141 441 2423 716 
Q 2706 991 2706 1497 
Q 2706 1997 2414 2275 
Q 2122 2553 1600 2553 
Q 1347 2553 1106 2495 
Q 866 2438 647 2322 
L 647 4666 
z
" transform="scale(0.015625)"/>
       </defs>
       <use xlink:href="#DejaVuSansMono-15"/>
       <use xlink:href="#DejaVuSansMono-13" transform="translate(60.203125 0)"/>
       <use xlink:href="#DejaVuSansMono-15" transform="translate(120.40625 0)"/>
       <use xlink:href="#DejaVuSansMono-18" transform="translate(180.609375 0)"/>
       <use xlink:href="#DejaVuSansMono-10" transform="translate(240.8125 0)"/>
       <use xlink:href="#DejaVuSansMono-13" transform="translate(301.015625 0)"/>
       <use xlink:href="#DejaVuSansMono-14" transform="translate(361.21875 0)"/>
       <use xlink:href="#DejaVuSansMono-10" transform="translate(421.421875 0)"/>
       <use xlink:href="#DejaVuSansMono-13" transform="translate(481.625 0)"/>
       <use xlink:href="#DejaVuSansMono-14" transform="translate(541.828125 0)"/>
      </g>
     </g>
    </g>
    <g id="xtick_3">
     <g id="line2d_3">
      <g>
       <use xlink:href="#m8f2bc50ae8" x="60.704931" y="250.189875" style="fill: #cccccc; stroke: #cccccc; stroke-width: 0.8"/>
      </g>
     </g>
     <g id="text_3">
      <!-- 2025-03-01 -->
      <g style="fill: #cccccc" transform="translate(62.403645 262.562229) rotate(-315) scale(0.1 -0.1)">
       <defs>
        <path id="DejaVuSansMono-16" d="M 2425 2497 
Q 2884 2375 3128 2064 
Q 3372 1753 3372 1288 
Q 3372 644 2939 276 
Q 2506 -91 1741 -91 
Q 1419 -91 1084 -31 
Q 750 28 428 141 
L 428 769 
Q 747 603 1056 522 
Q 1366 441 1672 441 
Q 2191 441 2469 675 
Q 2747 909 2747 1350 
Q 2747 1756 2469 1995 
Q 2191 2234 1716 2234 
L 1234 2234 
L 1234 2753 
L 1716 2753 
Q 2150 2753 2394 2943 
Q 2638 3134 2638 3475 
Q 2638 3834 2411 4026 
Q 2184 4219 1766 4219 
Q 1488 4219 1191 4156 
Q 894 4094 569 3969 
L 569 4550 
Q 947 4650 1242 4700 
Q 1538 4750 1766 4750 
Q 2447 4750 2855 4408 
Q 3263 4066 3263 3500 
Q 3263 3116 3048 2859 
Q 2834 2603 2425 2497 
z
" transform="scale(0.015625)"/>
       </defs>
       <use xlink:href="#DejaVuSansMono-15"/>
       <use xlink:href="#DejaVuSansMono-13" transform="translate(60.203125 0)"/>
       <use xlink:href="#DejaVuSansMono-15" transform="translate(120.40625 0)"/>
       <use xlink:href="#DejaVuSansMono-18" transform="translate(180.609375 0)"/>
       <use xlink:href="#DejaVuSansMono-10" transform="translate(240.8125 0)"/>
       <use xlink:href="#DejaVuSansMono-13" transform="translate(301.015625 0)"/>
       <use xlink:href="#DejaVuSansMono-16" transform="translate(361.21875 0)"/>
       <use xlink:href="#DejaVuSansMono-10" transform="translate(421.421875 0)"/>
       <use xlink:href="#DejaVuSansMono-13" transform="translate(481.625 0)"/>
       <use xlink:href="#DejaVuSansMono-14" transform="translate(541.828125 0)"/>
      </g>
     </g>
    </g>
    <g id="xtick_4">
     <g id="line2d_4">
      <g>
       <use xlink:href="#m8f2bc50ae8" x="94.065299" y="250.189875" style="fill: #cccccc; stroke: #cccccc; stroke-width: 0.8"/>
      </g>
     </g>
     <g id="text_4">
      <!-- 2025-05-01 -->
      <g style="fill: #cccccc" transform="translate(95.764012 262.562229) rotate(-315) scale(0.1 -0.1)">
       <use xlink:href="#DejaVuSansMono-15"/>
       <use xlink:href="#DejaVuSansMono-13" transform="translate(60.203125 0)"/>
       <use xlink:href="#DejaVuSansMono-15" transform="translate(120.40625 0)"/>
       <use xlink:href="#DejaVuSansMono-18" transform="translate(180.609375 0)"/>
       <use xlink:href="#DejaVuSansMono-10" transform="translate(240.8125 0)"/>
       <use xlink:href="#DejaVuSansMono-13" transform="translate(301.015625 0)"/>
       <use xlink:href="#DejaVuSansMono-18" transform="translate(361.21875 0)"/>
       <use xlink:href="#DejaVuSansMono-10" transform="translate(421.421875 0)"/>
       <use xlink:href="#DejaVuSansMono-13" transform="translate(481.625 0)"/>
       <use xlink:href="#DejaVuSansMono-14" transform="translate(541.828125 0)"/>
      </g>
     </g>
    </g>
    <g id="xtick_5">
     <g id="line2d_5">
      <g>
       <use xlink:href="#m8f2bc50ae8" x="127.425666" y="250.189875" style="fill: #cccccc; stroke: #cccccc; stroke-width: 0.8"/>
      </g>
     </g>
     <g id="text_5">
      <!-- 2025-07-01 -->
      <g style="fill: #cccccc" transform="translate(129.12438 262.562229) rotate(-315) scale(0.1 -0.1)">
       <defs>
        <path id="DejaVuSansMono-1a" d="M 434 4666 
L 3372 4666 
L 3372 4397 
L 1703 0 
L 1044 0 
L 2669 4134 
L 434 4134 
L 434 4666 
z
" transform="scale(0.015625)"/>
       </defs>
       <use xlink:href="#DejaVuSansMono-15"/>
       <use xlink:href="#DejaVuSansMono-13" transform="translate(60.203125 0)"/>
       <use xlink:href="#DejaVuSansMono-15" transform="translate(120.40625 0)"/>
       <use xlink:href="#DejaVuSansMono-18" transform="translate(180.609375 0)"/>
       <use xlink:href="#DejaVuSansMono-10" transform="translate(240.8125 0)"/>
       <use xlink:href="#DejaVuSansMono-13" transform="translate(301.015625 0)"/>
       <use xlink:href="#DejaVuSansMono-1a" transform="translate(361.21875 0)"/>
       <use xlink:href="#DejaVuSansMono-10" transform="translate(421.421875 0)"/>
       <use xlink:href="#DejaVuSansMono-13" transform="translate(481.625 0)"/>
       <use xlink:href="#DejaVuSansMono-14" transform="translate(541.828125 0)"/>
      </g>
     </g>
    </g>
    <g id="xtick_6">
     <g id="line2d_6">
      <g>
       <use xlink:href="#m8f2bc50ae8" x="161.332925" y="250.189875" style="fill: #cccccc; stroke: #cccccc; stroke-width: 0.8"/>
      </g>
     </g>
     <g id="text_6">
      <!-- 2025-09-01 -->
      <g style="fill: #cccccc" transform="translate(163.031639 262.562229) rotate(-315) scale(0.1 -0.1)">
       <defs>
        <path id="DejaVuSansMono-1c" d="M 1863 2069 
Q 2266 2069 2495 2359 
Q 2725 2650 2725 3163 
Q 2725 3675 2495 3965 
Q 2266 4256 1863 4256 
Q 1444 4256 1231 3979 
Q 1019 3703 1019 3163 
Q 1019 2619 1230 2344 
Q 1441 2069 1863 2069 
z
M 738 97 
L 738 678 
Q 934 563 1156 502 
Q 1378 441 1619 441 
Q 2219 441 2526 892 
Q 2834 1344 2834 2222 
Q 2688 1909 2422 1742 
Q 2156 1575 1813 1575 
Q 1138 1575 767 1990 
Q 397 2406 397 3169 
Q 397 3922 776 4336 
Q 1156 4750 1850 4750 
Q 2663 4750 3041 4165 
Q 3419 3581 3419 2328 
Q 3419 1150 2964 529 
Q 2509 -91 1644 -91 
Q 1416 -91 1184 -42 
Q 953 6 738 97 
z
" transform="scale(0.015625)"/>
       </defs>
       <use xlink:href="#DejaVuSansMono-15"/>
       <use xlink:href="#DejaVuSansMono-13" transform="translate(60.203125 0)"/>
       <use xlink:href="#DejaVuSansMono-15" transform="translate(120.40625 0)"/>
       <use xlink:href="#DejaVuSansMono-18" transform="translate(180.609375 0)"/>
       <use xlink:href="#DejaVuSansMono-10" transform="translate(240.8125 0)"/>
       <use xlink:href="#DejaVuSansMono-13" transform="translate(301.015625 0)"/>
       <use xlink:href="#DejaVuSansMono-1c" transform="translate(361.21875 0)"/>
       <use xlink:href="#DejaVuSansMono-10" transform="translate(421.421875 0)"/>
       <use xlink:href="#DejaVuSansMono-13" transform="translate(481.625 0)"/>
       <use xlink:href="#DejaVuSansMono-14" transform="translate(541.828125 0)"/>
      </g>
     </g>
    </g>
    <g id="xtick_7">
     <g id="line2d_7">
      <g>
       <use xlink:href="#m8f2bc50ae8" x="194.693292" y="250.189875" style="fill: #cccccc; stroke: #cccccc; stroke-width: 0.8"/>
      </g>
     </g>
     <g id="text_7">
      <!-- 2025-11-01 -->
      <g style="fill: #cccccc" transform="translate(196.392006 262.562229) rotate(-315) scale(0.1 -0.1)">
       <use xlink:href="#DejaVuSansMono-15"/>
       <use xlink:href="#DejaVuSansMono-13" transform="translate(60.203125 0)"/>
       <use xlink:href="#DejaVuSansMono-15" transform="translate(120.40625 0)"/>
       <use xlink:href="#DejaVuSansMono-18" transform="translate(180.609375 0)"/>
       <use xlink:href="#DejaVuSansMono-10" transform="translate(240.8125 0)"/>
       <use xlink:href="#DejaVuSansMono-14" transform="translate(301.015625 0)"/>
       <use xlink:href="#DejaVuSansMono-14" transform="translate(361.21875 0)"/>
       <use xlink:href="#DejaVuSansMono-10" transform="translate(421.421875 0)"/>
       <use xlink:href="#DejaVuSansMono-13" transform="translate(481.625 0)"/>
       <use xlink:href="#DejaVuSansMono-14" transform="translate(541.828125 0)"/>
      </g>
     </g>
    </g>
    <g id="xtick_8">
     <g id="line2d_8">
      <g>
       <use xlink:href="#m8f2bc50ae8" x="228.05366" y="250.189875" style="fill: #cccccc; stroke: #cccccc; stroke-width: 0.8"/>
      </g>
     </g>
     <g id="text_8">
      <!-- 2026-01-01 -->
      <g style="fill: #cccccc" transform="translate(229.752374 262.562229) rotate(-315) scale(0.1 -0.1)">
       <defs>
        <path id="DejaVuSansMono-19" d="M 3097 4563 
L 3097 3981 
Q 2900 4097 2678 4158 
Q 2456 4219 2216 4219 
Q 1616 4219 1306 3767 
Q 997 3316 997 2438 
Q 1147 2750 1412 2917 
Q 1678 3084 2022 3084 
Q 2697 3084 3067 2670 
Q 3438 2256 3438 1497 
Q 3438 741 3056 325 
Q 2675 -91 1984 -91 
Q 1172 -91 794 492 
Q 416 1075 416 2328 
Q 416 3509 870 4129 
Q 1325 4750 2188 4750 
Q 2419 4750 2650 4701 
Q 2881 4653 3097 4563 
z
M 1972 2591 
Q 1569 2591 1337 2300 
Q 1106 2009 1106 1497 
Q 1106 984 1337 693 
Q 1569 403 1972 403 
Q 2391 403 2603 679 
Q 2816 956 2816 1497 
Q 2816 2041 2603 2316 
Q 2391 2591 1972 2591 
z
" transform="scale(0.015625)"/>
       </defs>
       <use xlink:href="#DejaVuSansMono-15"/>
       <use xlink:href="#DejaVuSansMono-13" transform="translate(60.203125 0)"/>
       <use xlink:href="#DejaVuSansMono-15" transform="translate(120.40625 0)"/>
       <use xlink:href="#DejaVuSansMono-19" transform="translate(180.609375 0)"/>
       <use xlink:href="#DejaVuSansMono-10" transform="translate(240.8125 0)"/>
       <use xlink:href="#DejaVuSansMono-13" transform="translate(301.015625 0)"/>
       <use xlink:href="#DejaVuSansMono-14" transform="translate(361.21875 0)"/>
       <use xlink:href="#DejaVuSansMono-10" transform="translate(421.421875 0)"/>
       <use xlink:href="#DejaVuSansMono-13" transform="translate(481.625 0)"/>
       <use xlink:href="#DejaVuSansMono-14" transform="translate(541.828125 0)"/>
      </g>
     </g>
    </g>
    <g id="xtick_9">
     <g id="line2d_9">
      <g>
       <use xlink:href="#m8f2bc50ae8" x="260.320245" y="250.189875" style="fill: #cccccc; stroke: #cccccc; stroke-width: 0.8"/>
      </g>
     </g>
     <g id="text_9">
      <!-- 2026-03-01 -->
      <g style="fill: #cccccc" transform="translate(262.018959 262.562229) rotate(-315) scale(0.1 -0.1)">
       <use xlink:href="#DejaVuSansMono-15"/>
       <use xlink:href="#DejaVuSansMono-13" transform="translate(60.203125 0)"/>
       <use xlink:href="#DejaVuSansMono-15" transform="translate(120.40625 0)"/>
       <use xlink:href="#DejaVuSansMono-19" transform="translate(180.609375 0)"/>
       <use xlink:href="#DejaVuSansMono-10" transform="translate(240.8125 0)"/>
       <use xlink:href="#DejaVuSansMono-13" transform="translate(301.015625 0)"/>
       <use xlink:href="#DejaVuSansMono-16" transform="translate(361.21875 0)"/>
       <use xlink:href="#DejaVuSansMono-10" transform="translate(421.421875 0)"/>
       <use xlink:href="#DejaVuSansMono-13" transform="translate(481.625 0)"/>
       <use xlink:href="#DejaVuSansMono-14" transform="translate(541.828125 0)"/>
      </g>
     </g>
    </g>
    <g id="xtick_10">
     <g id="line2d_10">
      <g>
       <use xlink:href="#m8f2bc50ae8" x="293.680613" y="250.189875" style="fill: #cccccc; stroke: #cccccc; stroke-width: 0.8"/>
      </g>
     </g>
     <g id="text_10">
      <!-- 2026-05-01 -->
      <g style="fill: #cccccc" transform="translate(295.379326 262.562229) rotate(-315) scale(0.1 -0.1)">
       <use xlink:href="#DejaVuSansMono-15"/>
       <use xlink:href="#DejaVuSansMono-13" transform="translate(60.203125 0)"/>
       <use xlink:href="#DejaVuSansMono-15" transform="translate(120.40625 0)"/>
       <use xlink:href="#DejaVuSansMono-19" transform="translate(180.609375 0)"/>
       <use xlink:href="#DejaVuSansMono-10" transform="translate(240.8125 0)"/>
       <use xlink:href="#DejaVuSansMono-13" transform="translate(301.015625 0)"/>
       <use xlink:href="#DejaVuSansMono-18" transform="translate(361.21875 0)"/>
       <use xlink:href="#DejaVuSansMono-10" transform="translate(421.421875 0)"/>
       <use xlink:href="#DejaVuSansMono-13" transform="translate(481.625 0)"/>
       <use xlink:href="#DejaVuSansMono-14" transform="translate(541.828125 0)"/>
      </g>
     </g>
    </g>
    <g id="xtick_11">
     <g id="line2d_11">
      <g>
       <use xlink:href="#m8f2bc50ae8" x="327.04098" y="250.189875" style="fill: #cccccc; stroke: #cccccc; stroke-width: 0.8"/>
      </g>
     </g>
     <g id="text_11">
      <!-- 2026-07-01 -->
      <g style="fill: #cccccc" transform="translate(328.739694 262.562229) rotate(-315) scale(0.1 -0.1)">
       <use xlink:href="#DejaVuSansMono-15"/>
       <use xlink:href="#DejaVuSansMono-13" transform="translate(60.203125 0)"/>
       <use xlink:href="#DejaVuSansMono-15" transform="translate(120.40625 0)"/>
       <use xlink:href="#DejaVuSansMono-19" transform="translate(180.609375 0)"/>
       <use xlink:href="#DejaVuSansMono-10" transform="translate(240.8125 0)"/>
       <use xlink:href="#DejaVuSansMono-13" transform="translate(301.015625 0)"/>
       <use xlink:href="#DejaVuSansMono-1a" transform="translate(361.21875 0)"/>
       <use xlink:href="#DejaVuSansMono-10" transform="translate(421.421875 0)"/>
       <use xlink:href="#DejaVuSansMono-13" transform="translate(481.625 0)"/>
       <use xlink:href="#DejaVuSansMono-14" transform="translate(541.828125 0)"/>
      </g>
     </g>
    </g>
    <g id="xtick_12">
     <g id="line2d_12">
      <g>
       <use xlink:href="#m8f2bc50ae8" x="357.12" y="250.189875" style="fill: #cccccc; stroke: #cccccc; stroke-width: 0.8"/>
      </g>
     </g>
     <g id="text_12">
      <!-- 2026-08-25 -->
      <g style="fill: #cccccc" transform="translate(358.818714 262.562229) rotate(-315) scale(0.1 -0.1)">
       <defs>
        <path id="DejaVuSansMono-1b" d="M 1925 2216 
Q 1503 2216 1273 1980 
Q 1044 1744 1044 1313 
Q 1044 881 1276 642 
Q 1509 403 1925 403 
Q 2350 403 2579 639 
Q 2809 875 2809 1313 
Q 2809 1741 2576 1978 
Q 2344 2216 1925 2216 
z
M 1375 2478 
Q 972 2581 745 2862 
Q 519 3144 519 3541 
Q 519 4097 897 4423 
Q 1275 4750 1925 4750 
Q 2578 4750 2956 4423 
Q 3334 4097 3334 3541 
Q 3334 3144 3107 2862 
Q 2881 2581 2478 2478 
Q 2947 2375 3195 2062 
Q 3444 1750 3444 1253 
Q 3444 622 3041 265 
Q 2638 -91 1925 -91 
Q 1213 -91 811 264 
Q 409 619 409 1247 
Q 409 1747 657 2061 
Q 906 2375 1375 2478 
z
M 1147 3481 
Q 1147 3106 1347 2909 
Q 1547 2713 1925 2713 
Q 2306 2713 2506 2909 
Q 2706 3106 2706 3481 
Q 2706 3863 2507 4063 
Q 2309 4263 1925 4263 
Q 1547 4263 1347 4061 
Q 1147 3859 1147 3481 
z
" transform="scale(0.015625)"/>
       </defs>
       <use xlink:href="#DejaVuSansMono-15"/>
       <use xlink:href="#DejaVuSansMono-13" transform="translate(60.203125 0)"/>
       <use xlink:href="#DejaVuSansMono-15" transform="translate(120.40625 0)"/>
       <use xlink:href="#DejaVuSansMono-19" transform="translate(180.609375 0)"/>
       <use xlink:href="#DejaVuSansMono-10" transform="translate(240.8125 0)"/>
       <use xlink:href="#DejaVuSansMono-13" transform="translate(301.015625 0)"/>
       <use xlink:href="#DejaVuSansMono-1b" transform="translate(361.21875 0)"/>
       <use xlink:href="#DejaVuSansMono-10" transform="translate(421.421875 0)"/>
       <use xlink:href="#DejaVuSansMono-15" transform="translate(481.625 0)"/>
       <use xlink:href="#DejaVuSansMono-18" transform="translate(541.828125 0)"/>
      </g>
     </g>
    </g>
   </g>
   <g id="matplotlib.axis_2">
    <g id="ytick_1">
     <g id="line2d_13">
      <defs>
       <path id="m7245befbf6" d="M 0 0 
L 3.5 0 
" style="stroke: #cccccc; stroke-width: 0.8"/>
      </defs>
      <g>
       <use xlink:href="#m7245befbf6" x="357.12" y="250.189875" style="fill: #cccccc; stroke: #cccccc; stroke-width: 0.8"/>
      </g>
     </g>
     <g id="text_13">
      <!-- 0 -->
      <g style="fill: #cccccc" transform="translate(364.12 253.988703) scale(0.1 -0.1)">
       <use xlink:href="#DejaVuSansMono-13"/>
      </g>
     </g>
    </g>
    <g id="ytick_2">
     <g id="line2d_14">
      <g>
       <use xlink:href="#m7245befbf6" x="357.12" y="208.595539" style="fill: #cccccc; stroke: #cccccc; stroke-width: 0.8"/>
      </g>
     </g>
     <g id="text_14">
      <!-- 200 -->
      <g style="fill: #cccccc" transform="translate(364.12 212.394367) scale(0.1 -0.1)">
       <use xlink:href="#DejaVuSansMono-15"/>
       <use xlink:href="#DejaVuSansMono-13" transform="translate(60.203125 0)"/>
       <use xlink:href="#DejaVuSansMono-13" transform="translate(120.40625 0)"/>
      </g>
     </g>
    </g>
    <g id="ytick_3">
     <g id="line2d_15">
      <g>
       <use xlink:href="#m7245befbf6" x="357.12" y="167.001202" style="fill: #cccccc; stroke: #cccccc; stroke-width: 0.8"/>
      </g>
     </g>
     <g id="text_15">
      <!-- 400 -->
      <g style="fill: #cccccc" transform="translate(364.12 170.800031) scale(0.1 -0.1)">
       <use xlink:href="#DejaVuSansMono-17"/>
       <use xlink:href="#DejaVuSansMono-13" transform="translate(60.203125 0)"/>
       <use xlink:href="#DejaVuSansMono-13" transform="translate(120.40625 0)"/>
      </g>
     </g>
    </g>
    <g id="ytick_4">
     <g id="line2d_16">
      <g>
       <use xlink:href="#m7245befbf6" x="357.12" y="125.406866" style="fill: #cccccc; stroke: #cccccc; stroke-width: 0.8"/>
      </g>
     </g>
     <g id="text_16">
      <!-- 600 -->
      <g style="fill: #cccccc" transform="translate(364.12 129.205694) scale(0.1 -0.1)">
       <use xlink:href="#DejaVuSansMono-19"/>
       <use xlink:href="#DejaVuSansMono-13" transform="translate(60.203125 0)"/>
       <use xlink:href="#DejaVuSansMono-13" transform="translate(120.40625 0)"/>
      </g>
     </g>
    </g>
    <g id="ytick_5">
     <g id="line2d_17">
      <g>
       <use xlink:href="#m7245befbf6" x="357.12" y="83.81253" style="fill: #cccccc; stroke: #cccccc; stroke-width: 0.8"/>
      </g>
     </g>
     <g id="text_17">
      <!-- 800 -->
      <g style="fill: #cccccc" transform="translate(364.12 87.611358) scale(0.1 -0.1)">
       <use xlink:href="#DejaVuSansMono-1b"/>
       <use xlink:href="#DejaVuSansMono-13" transform="translate(60.203125 0)"/>
       <use xlink:href="#DejaVuSansMono-13" transform="translate(120.40625 0)"/>
      </g>
     </g>
    </g>
    <g id="ytick_6">
     <g id="line2d_18">
      <g>
       <use xlink:href="#m7245befbf6" x="357.12" y="42.218194" style="fill: #cccccc; stroke: #cccccc; stroke-width: 0.8"/>
      </g>
     </g>
     <g id="text_18">
      <!-- 1000 -->
      <g style="fill: #cccccc" transform="translate(364.12 46.017022) scale(0.1 -0.1)">
       <use xlink:href="#DejaVuSansMono-14"/>
       <use xlink:href="#DejaVuSansMono-13" transform="translate(60.203125 0)"/>
       <use xlink:href="#DejaVuSansMono-13" transform="translate(120.40625 0)"/>
       <use xlink:href="#DejaVuSansMono-13" transform="translate(180.609375 0)"/>
      </g>
     </g>
    </g>
    <g id="ytick_7">
     <g id="line2d_19">
      <g>
       <use xlink:href="#m7245befbf6" x="357.12" y="15.389847" style="fill: #cccccc; stroke: #cccccc; stroke-width: 0.8"/>
      </g>
     </g>
     <g id="text_19">
      <!-- 1129 -->
      <g style="fill: #cccccc" transform="translate(364.12 19.188675) scale(0.1 -0.1)">
       <use xlink:href="#DejaVuSansMono-14"/>
       <use xlink:href="#DejaVuSansMono-14" transform="translate(60.203125 0)"/>
       <use xlink:href="#DejaVuSansMono-15" transform="translate(120.40625 0)"/>
       <use xlink:href="#DejaVuSansMono-1c" transform="translate(180.609375 0)"/>
      </g>
     </g>
    </g>
    <g id="text_20">
     <!-- recording -->
     <g style="fill: #cccccc" transform="translate(399.799688 159.777281) rotate(-90) scale(0.1 -0.1)">
      <defs>
       <path id="DejaVuSansMono-55" d="M 3609 2778 
Q 3425 2922 3234 2987 
Q 3044 3053 2816 3053 
Q 2278 3053 1993 2715 
Q 1709 2378 1709 1741 
L 1709 0 
L 1131 0 
L 1131 3500 
L 1709 3500 
L 1709 2816 
Q 1853 3188 2151 3386 
Q 2450 3584 2859 3584 
Q 3072 3584 3256 3531 
Q 3441 3478 3609 3366 
L 3609 2778 
z
" transform="scale(0.015625)"/>
       <path id="DejaVuSansMono-48" d="M 3475 1894 
L 3475 1613 
L 984 1613 
L 984 1594 
Q 984 1022 1282 709 
Q 1581 397 2125 397 
Q 2400 397 2700 484 
Q 3000 572 3341 750 
L 3341 178 
Q 3013 44 2708 -23 
Q 2403 -91 2119 -91 
Q 1303 -91 843 398 
Q 384 888 384 1747 
Q 384 2584 834 3084 
Q 1284 3584 2034 3584 
Q 2703 3584 3089 3131 
Q 3475 2678 3475 1894 
z
M 2900 2063 
Q 2888 2569 2661 2833 
Q 2434 3097 2009 3097 
Q 1594 3097 1325 2822 
Q 1056 2547 1006 2059 
L 2900 2063 
z
" transform="scale(0.015625)"/>
       <path id="DejaVuSansMono-46" d="M 3316 178 
Q 3084 44 2839 -23 
Q 2594 -91 2338 -91 
Q 1525 -91 1067 396 
Q 609 884 609 1747 
Q 609 2609 1067 3096 
Q 1525 3584 2338 3584 
Q 2591 3584 2831 3518 
Q 3072 3453 3316 3316 
L 3316 2713 
Q 3088 2916 2858 3006 
Q 2628 3097 2338 3097 
Q 1797 3097 1506 2747 
Q 1216 2397 1216 1747 
Q 1216 1100 1508 748 
Q 1800 397 2338 397 
Q 2638 397 2875 489 
Q 3113 581 3316 775 
L 3316 178 
z
" transform="scale(0.015625)"/>
       <path id="DejaVuSansMono-52" d="M 1925 3097 
Q 1488 3097 1263 2756 
Q 1038 2416 1038 1747 
Q 1038 1081 1263 739 
Q 1488 397 1925 397 
Q 2366 397 2591 739 
Q 2816 1081 2816 1747 
Q 2816 2416 2591 2756 
Q 2366 3097 1925 3097 
z
M 1925 3584 
Q 2653 3584 3039 3112 
Q 3425 2641 3425 1747 
Q 3425 850 3040 379 
Q 2656 -91 1925 -91 
Q 1197 -91 812 379 
Q 428 850 428 1747 
Q 428 2641 812 3112 
Q 1197 3584 1925 3584 
z
" transform="scale(0.015625)"/>
       <path id="DejaVuSansMono-47" d="M 2681 3053 
L 2681 4863 
L 3256 4863 
L 3256 0 
L 2681 0 
L 2681 441 
Q 2538 181 2298 45 
Q 2059 -91 1747 -91 
Q 1113 -91 748 401 
Q 384 894 384 1759 
Q 384 2613 750 3098 
Q 1116 3584 1747 3584 
Q 2063 3584 2303 3448 
Q 2544 3313 2681 3053 
z
M 991 1747 
Q 991 1078 1203 737 
Q 1416 397 1831 397 
Q 2247 397 2464 740 
Q 2681 1084 2681 1747 
Q 2681 2413 2464 2755 
Q 2247 3097 1831 3097 
Q 1416 3097 1203 2756 
Q 991 2416 991 1747 
z
" transform="scale(0.015625)"/>
       <path id="DejaVuSansMono-4c" d="M 800 3500 
L 2272 3500 
L 2272 447 
L 3413 447 
L 3413 0 
L 556 0 
L 556 447 
L 1697 447 
L 1697 3053 
L 800 3053 
L 800 3500 
z
M 1697 4863 
L 2272 4863 
L 2272 4134 
L 1697 4134 
L 1697 4863 
z
" transform="scale(0.015625)"/>
       <path id="DejaVuSansMono-51" d="M 3284 2169 
L 3284 0 
L 2706 0 
L 2706 2169 
Q 2706 2641 2540 2862 
Q 2375 3084 2022 3084 
Q 1619 3084 1401 2798 
Q 1184 2513 1184 1978 
L 1184 0 
L 609 0 
L 609 3500 
L 1184 3500 
L 1184 2975 
Q 1338 3275 1600 3429 
Q 1863 3584 2222 3584 
Q 2756 3584 3020 3232 
Q 3284 2881 3284 2169 
z
" transform="scale(0.015625)"/>
       <path id="DejaVuSansMono-4a" d="M 2681 1778 
Q 2681 2425 2470 2761 
Q 2259 3097 1856 3097 
Q 1434 3097 1212 2761 
Q 991 2425 991 1778 
Q 991 1131 1214 792 
Q 1438 453 1863 453 
Q 2259 453 2470 793 
Q 2681 1134 2681 1778 
z
M 3256 225 
Q 3256 -563 2884 -969 
Q 2513 -1375 1791 -1375 
Q 1553 -1375 1293 -1331 
Q 1034 -1288 775 -1203 
L 775 -634 
Q 1081 -778 1331 -847 
Q 1581 -916 1791 -916 
Q 2256 -916 2468 -662 
Q 2681 -409 2681 141 
L 2681 166 
L 2681 556 
Q 2544 263 2306 119 
Q 2069 -25 1728 -25 
Q 1116 -25 750 465 
Q 384 956 384 1778 
Q 384 2603 750 3093 
Q 1116 3584 1728 3584 
Q 2066 3584 2300 3450 
Q 2534 3316 2681 3034 
L 2681 3488 
L 3256 3488 
L 3256 225 
z
" transform="scale(0.015625)"/>
      </defs>
      <use xlink:href="#DejaVuSansMono-55"/>
      <use xlink:href="#DejaVuSansMono-48" transform="translate(60.203125 0)"/>
      <use xlink:href="#DejaVuSansMono-46" transform="translate(120.40625 0)"/>
      <use xlink:href="#DejaVuSansMono-52" transform="translate(180.609375 0)"/>
      <use xlink:href="#DejaVuSansMono-55" transform="translate(240.8125 0)"/>
      <use xlink:href="#DejaVuSansMono-47" transform="translate(301.015625 0)"/>
      <use xlink:href="#DejaVuSansMono-4c" transform="translate(361.21875 0)"/>
      <use xlink:href="#DejaVuSansMono-51" transform="translate(421.421875 0)"/>
      <use xlink:href="#DejaVuSansMono-4a" transform="translate(481.625 0)"/>
     </g>
    </g>
   </g>
   <g id="line2d_20">
    <path d="M 0 249.981903 
L 0.546891 249.357988 
L 2.187565 246.654356 
L 2.734456 246.446385 
L 6.562695 246.446385 
L 7.109587 246.654356 
L 16.406738 243.32681 
L 17.500521 243.118838 
L 26.250781 242.910866 
L 34.45415 238.751433 
L 36.094824 238.543461 
L 36.641715 234.799971 
L 39.376172 234.591999 
L 41.016845 233.344169 
L 44.298193 231.264452 
L 47.579541 230.848509 
L 49.767106 228.144877 
L 50.313997 224.609358 
L 50.860888 223.153556 
L 51.407779 220.657896 
L 52.501562 217.954264 
L 54.142236 213.170916 
L 55.78291 211.923086 
L 56.329801 210.467284 
L 57.970475 206.723794 
L 58.517366 204.644077 
L 60.15804 204.020162 
L 61.798714 202.772332 
L 62.892496 202.56436 
L 63.439387 201.524502 
L 63.986279 197.157096 
L 67.814518 194.245493 
L 69.455191 194.037521 
L 70.002083 192.581719 
L 71.642757 190.917946 
L 72.736539 186.758512 
L 73.28343 186.55054 
L 73.830322 184.886767 
L 74.924104 181.975163 
L 75.470995 181.143277 
L 77.111669 180.727333 
L 77.65856 179.895447 
L 79.299234 176.775871 
L 80.939908 172.616438 
L 82.580582 172.408466 
L 84.221256 171.368608 
L 84.768147 167.417146 
L 85.315038 167.209174 
L 86.408821 167.001202 
L 88.049495 165.753372 
L 88.596386 161.80191 
L 92.424625 161.385967 
L 92.971516 160.970024 
L 93.518407 155.978703 
L 94.065299 154.730873 
L 94.61219 154.522902 
L 96.799755 153.898987 
L 97.346646 153.483043 
L 97.893538 149.947525 
L 98.440429 148.907666 
L 98.98732 148.699694 
L 100.081103 145.372148 
L 101.721776 144.540261 
L 102.815559 144.332289 
L 103.909342 143.292431 
L 105.003124 140.380827 
L 106.643798 137.677195 
L 107.190689 131.438045 
L 108.284472 131.022102 
L 108.831363 129.774271 
L 109.925145 129.774271 
L 113.206493 126.446725 
L 114.300276 126.030781 
L 114.847167 125.198894 
L 117.581623 121.247433 
L 118.675406 120.415546 
L 119.769188 119.791631 
L 120.862971 119.583659 
L 124.69121 119.167716 
L 128.519449 116.880027 
L 130.707014 116.04814 
L 131.253905 115.216254 
L 131.800796 111.472763 
L 132.347688 111.472763 
L 135.629035 111.05682 
L 139.457274 111.05682 
L 140.004165 110.224933 
L 141.097948 109.601018 
L 141.644839 108.977103 
L 148.754426 108.56116 
L 149.301317 104.81767 
L 155.317121 104.401726 
L 156.410904 102.529981 
L 161.332925 100.242293 
L 161.879816 100.242293 
L 164.067381 100.034321 
L 164.614273 99.410406 
L 166.254946 97.954604 
L 167.348729 97.954604 
L 170.630077 96.706774 
L 171.176968 94.419086 
L 171.723859 93.795171 
L 172.817642 93.587199 
L 178.286554 91.923425 
L 180.474119 91.923425 
L 182.661685 91.091539 
L 183.208576 90.675595 
L 185.396141 90.675595 
L 188.130597 90.259652 
L 188.677489 89.843709 
L 189.22438 89.635737 
L 194.146401 89.219794 
L 203.990444 89.011822 
L 213.834487 87.971963 
L 218.209617 87.140077 
L 230.788116 86.516162 
L 240.632159 85.892247 
L 260.320245 85.268332 
L 264.695375 85.268332 
L 268.523614 84.852388 
L 290.399265 84.644417 
L 291.493047 84.436445 
L 295.868178 84.436445 
L 300.243308 84.228473 
L 301.883982 84.020502 
L 305.712221 81.940785 
L 320.478285 78.82121 
L 321.572067 78.82121 
L 327.587871 78.613238 
L 329.228545 78.405266 
L 331.963002 76.325549 
L 333.603675 76.325549 
L 334.150567 74.453804 
L 334.697458 74.245833 
L 335.244349 74.453804 
L 336.338132 69.04654 
L 336.885023 64.887107 
L 337.431914 64.887107 
L 337.978806 63.431305 
L 338.525697 63.223333 
L 343.447718 60.31173 
L 345.635283 57.400126 
L 346.729066 55.736353 
L 347.275957 51.160976 
L 347.822848 50.953004 
L 348.36974 42.634137 
L 348.916631 37.850788 
L 349.463522 36.602958 
L 350.557305 33.691355 
L 351.104196 31.81961 
L 352.197979 22.876827 
L 352.74487 20.589139 
L 355.479326 15.389847 
L 357.12 15.389847 
L 357.12 15.389847 
" clip-path="url(#p8cbe276ca2)" style="fill: none; stroke: #d5397b; stroke-opacity: 0.5; stroke-width: 1.5; stroke-linecap: square"/>
   </g>
   <g id="text_21">
    <!-- days: 656 -->
    <g style="fill: #cccccc" transform="translate(35.712 48.94205) scale(0.1 -0.1)">
     <defs>
      <path id="DejaVuSansMono-44" d="M 2194 1759 
L 2003 1759 
Q 1500 1759 1245 1582 
Q 991 1406 991 1056 
Q 991 741 1181 566 
Q 1372 391 1709 391 
Q 2184 391 2456 720 
Q 2728 1050 2731 1631 
L 2731 1759 
L 2194 1759 
z
M 3309 1997 
L 3309 0 
L 2731 0 
L 2731 519 
Q 2547 206 2267 57 
Q 1988 -91 1588 -91 
Q 1053 -91 734 211 
Q 416 513 416 1019 
Q 416 1603 808 1906 
Q 1200 2209 1959 2209 
L 2731 2209 
L 2731 2300 
Q 2728 2719 2518 2908 
Q 2309 3097 1850 3097 
Q 1556 3097 1256 3012 
Q 956 2928 672 2766 
L 672 3341 
Q 991 3463 1283 3523 
Q 1575 3584 1850 3584 
Q 2284 3584 2592 3456 
Q 2900 3328 3091 3072 
Q 3209 2916 3259 2686 
Q 3309 2456 3309 1997 
z
" transform="scale(0.015625)"/>
      <path id="DejaVuSansMono-5c" d="M 2681 1125 
Q 2538 759 2316 163 
Q 2006 -663 1900 -844 
Q 1756 -1088 1540 -1209 
Q 1325 -1331 1038 -1331 
L 575 -1331 
L 575 -850 
L 916 -850 
Q 1169 -850 1312 -703 
Q 1456 -556 1678 56 
L 325 3500 
L 934 3500 
L 1972 763 
L 2994 3500 
L 3603 3500 
L 2681 1125 
z
" transform="scale(0.015625)"/>
      <path id="DejaVuSansMono-56" d="M 3041 3378 
L 3041 2816 
Q 2794 2959 2544 3031 
Q 2294 3103 2034 3103 
Q 1644 3103 1451 2976 
Q 1259 2850 1259 2591 
Q 1259 2356 1403 2240 
Q 1547 2125 2119 2016 
L 2350 1972 
Q 2778 1891 2998 1647 
Q 3219 1403 3219 1013 
Q 3219 494 2850 201 
Q 2481 -91 1825 -91 
Q 1566 -91 1281 -36 
Q 997 19 666 128 
L 666 722 
Q 988 556 1281 473 
Q 1575 391 1838 391 
Q 2219 391 2428 545 
Q 2638 700 2638 978 
Q 2638 1378 1872 1531 
L 1847 1538 
L 1631 1581 
Q 1134 1678 906 1908 
Q 678 2138 678 2534 
Q 678 3038 1018 3311 
Q 1359 3584 1991 3584 
Q 2272 3584 2531 3532 
Q 2791 3481 3041 3378 
z
" transform="scale(0.015625)"/>
      <path id="DejaVuSansMono-1d" d="M 1528 3322 
L 2316 3322 
L 2316 2375 
L 1528 2375 
L 1528 3322 
z
M 1528 953 
L 2316 953 
L 2316 0 
L 1528 0 
L 1528 953 
z
" transform="scale(0.015625)"/>
      <path id="DejaVuSansMono-3" transform="scale(0.015625)"/>
     </defs>
     <use xlink:href="#DejaVuSansMono-47"/>
     <use xlink:href="#DejaVuSansMono-44" transform="translate(60.203125 0)"/>
     <use xlink:href="#DejaVuSansMono-5c" transform="translate(120.40625 0)"/>
     <use xlink:href="#DejaVuSansMono-56" transform="translate(180.609375 0)"/>
     <use xlink:href="#DejaVuSansMono-1d" transform="translate(240.8125 0)"/>
     <use xlink:href="#DejaVuSansMono-3" transform="translate(301.015625 0)"/>
     <use xlink:href="#DejaVuSansMono-19" transform="translate(361.21875 0)"/>
     <use xlink:href="#DejaVuSansMono-18" transform="translate(421.421875 0)"/>
     <use xlink:href="#DejaVuSansMono-19" transform="translate(481.625 0)"/>
    </g>
    <!--  avg: 1.72 -->
    <g style="fill: #cccccc" transform="translate(35.712 63.819394) scale(0.1 -0.1)">
     <defs>
      <path id="DejaVuSansMono-59" d="M 313 3500 
L 909 3500 
L 1925 563 
L 2944 3500 
L 3541 3500 
L 2297 0 
L 1556 0 
L 313 3500 
z
" transform="scale(0.015625)"/>
      <path id="DejaVuSansMono-11" d="M 1528 953 
L 2316 953 
L 2316 0 
L 1528 0 
L 1528 953 
z
" transform="scale(0.015625)"/>
     </defs>
     <use xlink:href="#DejaVuSansMono-3"/>
     <use xlink:href="#DejaVuSansMono-44" transform="translate(60.203125 0)"/>
     <use xlink:href="#DejaVuSansMono-59" transform="translate(120.40625 0)"/>
     <use xlink:href="#DejaVuSansMono-4a" transform="translate(180.609375 0)"/>
     <use xlink:href="#DejaVuSansMono-1d" transform="translate(240.8125 0)"/>
     <use xlink:href="#DejaVuSansMono-3" transform="translate(301.015625 0)"/>
     <use xlink:href="#DejaVuSansMono-14" transform="translate(361.21875 0)"/>
     <use xlink:href="#DejaVuSansMono-11" transform="translate(421.421875 0)"/>
     <use xlink:href="#DejaVuSansMono-1a" transform="translate(481.625 0)"/>
     <use xlink:href="#DejaVuSansMono-15" transform="translate(541.828125 0)"/>
    </g>
   </g>
   <g id="text_22">
    <!-- recording count in listen.ron over time -->
    <g style="fill: #cccccc" transform="translate(37.684688 9.181875) scale(0.12 -0.12)">
     <defs>
      <path id="DejaVuSansMono-58" d="M 609 1325 
L 609 3494 
L 1184 3494 
L 1184 1325 
Q 1184 853 1351 631 
Q 1519 409 1869 409 
Q 2275 409 2490 695 
Q 2706 981 2706 1516 
L 2706 3494 
L 3284 3494 
L 3284 0 
L 2706 0 
L 2706 525 
Q 2553 222 2289 65 
Q 2025 -91 1672 -91 
Q 1134 -91 871 261 
Q 609 613 609 1325 
z
" transform="scale(0.015625)"/>
      <path id="DejaVuSansMono-57" d="M 1919 4494 
L 1919 3500 
L 3225 3500 
L 3225 3053 
L 1919 3053 
L 1919 1153 
Q 1919 766 2066 612 
Q 2213 459 2578 459 
L 3225 459 
L 3225 0 
L 2522 0 
Q 1875 0 1609 259 
Q 1344 519 1344 1153 
L 1344 3053 
L 409 3053 
L 409 3500 
L 1344 3500 
L 1344 4494 
L 1919 4494 
z
" transform="scale(0.015625)"/>
      <path id="DejaVuSansMono-4f" d="M 1997 1269 
Q 1997 881 2139 684 
Q 2281 488 2559 488 
L 3231 488 
L 3231 0 
L 2503 0 
Q 1988 0 1705 331 
Q 1422 663 1422 1269 
L 1422 4447 
L 500 4447 
L 500 4897 
L 1997 4897 
L 1997 1269 
z
" transform="scale(0.015625)"/>
      <path id="DejaVuSansMono-50" d="M 2113 3144 
Q 2219 3369 2383 3476 
Q 2547 3584 2778 3584 
Q 3200 3584 3373 3257 
Q 3547 2931 3547 2028 
L 3547 0 
L 3022 0 
L 3022 2003 
Q 3022 2744 2939 2923 
Q 2856 3103 2638 3103 
Q 2388 3103 2295 2911 
Q 2203 2719 2203 2003 
L 2203 0 
L 1678 0 
L 1678 2003 
Q 1678 2753 1589 2928 
Q 1500 3103 1269 3103 
Q 1041 3103 952 2911 
Q 863 2719 863 2003 
L 863 0 
L 341 0 
L 341 3500 
L 863 3500 
L 863 3200 
Q 966 3388 1120 3486 
Q 1275 3584 1472 3584 
Q 1709 3584 1867 3475 
Q 2025 3366 2113 3144 
z
" transform="scale(0.015625)"/>
     </defs>
     <use xlink:href="#DejaVuSansMono-55"/>
     <use xlink:href="#DejaVuSansMono-48" transform="translate(60.203125 0)"/>
     <use xlink:href="#DejaVuSansMono-46" transform="translate(120.40625 0)"/>
     <use xlink:href="#DejaVuSansMono-52" transform="translate(180.609375 0)"/>
     <use xlink:href="#DejaVuSansMono-55" transform="translate(240.8125 0)"/>
     <use xlink:href="#DejaVuSansMono-47" transform="translate(301.015625 0)"/>
     <use xlink:href="#DejaVuSansMono-4c" transform="translate(361.21875 0)"/>
     <use xlink:href="#DejaVuSansMono-51" transform="translate(421.421875 0)"/>
     <use xlink:href="#DejaVuSansMono-4a" transform="translate(481.625 0)"/>
     <use xlink:href="#DejaVuSansMono-3" transform="translate(541.828125 0)"/>
     <use xlink:href="#DejaVuSansMono-46" transform="translate(602.03125 0)"/>
     <use xlink:href="#DejaVuSansMono-52" transform="translate(662.234375 0)"/>
     <use xlink:href="#DejaVuSansMono-58" transform="translate(722.4375 0)"/>
     <use xlink:href="#DejaVuSansMono-51" transform="translate(782.640625 0)"/>
     <use xlink:href="#DejaVuSansMono-57" transform="translate(842.84375 0)"/>
     <use xlink:href="#DejaVuSansMono-3" transform="translate(903.046875 0)"/>
     <use xlink:href="#DejaVuSansMono-4c" transform="translate(963.25 0)"/>
     <use xlink:href="#DejaVuSansMono-51" transform="translate(1023.453125 0)"/>
     <use xlink:href="#DejaVuSansMono-3" transform="translate(1083.65625 0)"/>
     <use xlink:href="#DejaVuSansMono-4f" transform="translate(1143.859375 0)"/>
     <use xlink:href="#DejaVuSansMono-4c" transform="translate(1204.0625 0)"/>
     <use xlink:href="#DejaVuSansMono-56" transform="translate(1264.265625 0)"/>
     <use xlink:href="#DejaVuSansMono-57" transform="translate(1324.46875 0)"/>
     <use xlink:href="#DejaVuSansMono-48" transform="translate(1384.671875 0)"/>
     <use xlink:href="#DejaVuSansMono-51" transform="translate(1444.875 0)"/>
     <use xlink:href="#DejaVuSansMono-11" transform="translate(1505.078125 0)"/>
     <use xlink:href="#DejaVuSansMono-55" transform="translate(1565.28125 0)"/>
     <use xlink:href="#DejaVuSansMono-52" transform="translate(1625.484375 0)"/>
     <use xlink:href="#DejaVuSansMono-51" transform="translate(1685.6875 0)"/>
     <use xlink:href="#DejaVuSansMono-3" transform="translate(1745.890625 0)"/>
     <use xlink:href="#DejaVuSansMono-52" transform="translate(1806.09375 0)"/>
     <use xlink:href="#DejaVuSansMono-59" transform="translate(1866.296875 0)"/>
     <use xlink:href="#DejaVuSansMono-48" transform="translate(1926.5 0)"/>
     <use xlink:href="#DejaVuSansMono-55" transform="translate(1986.703125 0)"/>
     <use xlink:href="#DejaVuSansMono-3" transform="translate(2046.90625 0)"/>
     <use xlink:href="#DejaVuSansMono-57" transform="translate(2107.109375 0)"/>
     <use xlink:href="#DejaVuSansMono-4c" transform="translate(2167.3125 0)"/>
     <use xlink:href="#DejaVuSansMono-50" transform="translate(2227.515625 0)"/>
     <use xlink:href="#DejaVuSansMono-48" transform="translate(2287.71875 0)"/>
    </g>
   </g>
  </g>
 </g>
 <defs>
  <clipPath id="p8cbe276ca2">
   <rect x="0" y="15.181875" width="357.12" height="235.008"/>
  </clipPath>
 </defs>
</svg>
