<?xml version="1.0" encoding="utf-8" standalone="no"?>
<!DOCTYPE svg PUBLIC "-//W3C//DTD SVG 1.1//EN"
  "http://www.w3.org/Graphics/SVG/1.1/DTD/svg11.dtd">
<svg xmlns:xlink="http://www.w3.org/1999/xlink" width="406.761106pt" height="306.830981pt" viewBox="0 0 406.761106 306.830981" xmlns="http://www.w3.org/2000/svg" version="1.1">
 <metadata>
  <rdf:RDF xmlns:dc="http://purl.org/dc/elements/1.1/" xmlns:cc="http://creativecommons.org/ns#" xmlns:rdf="http://www.w3.org/1999/02/22-rdf-syntax-ns#">
   <cc:Work>
    <dc:type rdf:resource="http://purl.org/dc/dcmitype/StillImage"/>
    <dc:date>2026-07-22T19:59:39.817279</dc:date>
    <dc:format>image/svg+xml</dc:format>
    <dc:creator>
     <cc:Agent>
      <dc:title>Matplotlib v3.11.1, https://matplotlib.org/</dc:title>
     </cc:Agent>
    </dc:creator>
   </cc:Work>
  </rdf:RDF>
 </metadata>
 <defs>
  <style type="text/css">*{stroke-linejoin: round; stroke-linecap: butt}</style>
 </defs>
 <g id="figure_1">
  <g id="patch_1">
   <path d="M 0 306.830981 
L 406.761106 306.830981 
L 406.761106 0 
L 0 0 
L 0 306.830981 
z
" style="fill: none"/>
  </g>
  <g id="axes_1">
   <g id="patch_2">
    <path d="M 0 250.189875 
L 357.12 250.189875 
L 357.12 15.181875 
L 0 15.181875 
L 0 250.189875 
z
" style="fill: none"/>
   </g>
   <g id="FillBetweenPolyCollection_1">
    <defs>
     <path id="m38bfda8837" d="M 0 -56.641106 
L 0 -56.902516 
L 0.577864 -57.686748 
L 2.311456 -61.085084 
L 2.88932 -61.346494 
L 6.934369 -61.346494 
L 7.512233 -61.085084 
L 16.180194 -64.74483 
L 17.335922 -65.267651 
L 18.49165 -65.529061 
L 27.737476 -65.790472 
L 36.405437 -71.018681 
L 38.139029 -71.280091 
L 38.716893 -75.985479 
L 41.606214 -76.24689 
L 43.339806 -77.815353 
L 46.80699 -80.429457 
L 50.274175 -80.952278 
L 52.585631 -84.350614 
L 53.163495 -88.794592 
L 53.741359 -90.624465 
L 54.319223 -93.761391 
L 55.474951 -97.159726 
L 56.052816 -99.25101 
L 57.208544 -103.172167 
L 58.942136 -104.74063 
L 59.52 -106.570503 
L 61.253592 -111.275891 
L 61.831456 -113.889996 
L 62.40932 -114.151406 
L 63.565049 -114.674227 
L 64.142913 -115.197048 
L 65.298641 -116.24269 
L 66.454369 -116.5041 
L 67.032233 -117.811152 
L 67.610097 -123.300772 
L 71.655146 -126.960518 
L 73.388738 -127.221929 
L 73.966602 -129.051802 
L 75.700194 -131.143086 
L 76.855922 -136.371295 
L 77.433786 -136.632705 
L 78.01165 -138.723989 
L 79.167379 -142.383735 
L 79.745243 -143.429377 
L 81.478835 -143.952198 
L 82.056699 -144.99784 
L 83.790291 -148.918997 
L 85.523883 -154.147206 
L 87.257476 -154.408616 
L 88.413204 -155.192848 
L 88.991068 -155.715669 
L 89.568932 -160.682467 
L 90.146796 -160.943878 
L 91.302524 -161.205288 
L 91.880388 -161.728109 
L 93.036117 -162.773751 
L 93.613981 -167.74055 
L 97.659029 -168.26337 
L 98.236893 -168.786191 
L 98.814757 -175.060042 
L 99.392621 -176.628505 
L 99.970485 -176.889916 
L 102.281942 -177.674147 
L 102.859806 -178.196968 
L 103.43767 -182.640946 
L 104.015534 -183.947998 
L 104.593398 -184.209408 
L 105.171262 -186.300692 
L 105.749126 -188.391976 
L 107.482718 -189.437617 
L 108.638447 -189.699028 
L 109.794175 -191.00608 
L 110.372039 -192.835953 
L 110.949903 -194.665827 
L 112.683495 -198.064162 
L 113.261359 -205.906476 
L 114.417087 -206.429297 
L 114.994951 -207.99776 
L 116.15068 -207.99776 
L 119.617864 -212.180327 
L 120.773592 -212.703148 
L 121.351456 -213.74879 
L 124.240777 -218.715589 
L 124.818641 -219.238409 
L 125.396505 -219.76123 
L 126.552233 -220.545462 
L 127.707961 -220.806872 
L 131.75301 -221.329693 
L 135.798058 -224.205208 
L 138.109515 -225.25085 
L 138.687379 -226.296492 
L 139.265243 -231.00188 
L 139.843107 -231.00188 
L 143.310291 -231.524701 
L 147.35534 -231.524701 
L 147.933204 -232.570343 
L 149.088932 -233.354574 
L 149.666796 -234.138805 
L 157.179029 -234.661626 
L 157.756893 -239.367015 
L 164.113398 -239.889835 
L 165.269126 -242.24253 
L 170.469903 -245.118045 
L 171.047767 -245.118045 
L 173.359223 -245.379455 
L 173.937087 -246.163686 
L 175.67068 -247.99356 
L 176.826408 -247.99356 
L 180.293592 -249.562022 
L 180.871456 -252.437537 
L 181.44932 -253.221769 
L 182.605049 -253.483179 
L 188.383689 -255.574463 
L 190.695146 -255.574463 
L 191.27301 -255.835873 
L 191.850874 -256.097284 
L 193.006602 -256.620105 
L 193.584466 -257.142926 
L 195.895922 -257.142926 
L 197.05165 -257.404336 
L 198.785243 -257.665746 
L 199.363107 -258.188567 
L 199.940971 -258.449978 
L 202.252427 -258.711388 
L 205.141748 -258.972799 
L 215.543301 -259.234209 
L 222.47767 -260.018441 
L 225.944854 -260.541261 
L 230.567767 -261.586903 
L 235.19068 -261.848314 
L 238.657864 -262.109724 
L 243.858641 -262.371135 
L 254.260194 -263.155366 
L 266.39534 -263.678187 
L 275.063301 -263.939597 
L 279.686214 -263.939597 
L 283.731262 -264.462418 
L 306.845825 -264.723829 
L 308.001553 -264.985239 
L 312.624466 -264.985239 
L 317.247379 -265.24665 
L 318.980971 -265.50806 
L 322.448155 -267.860754 
L 323.026019 -268.122165 
L 338.62835 -272.043322 
L 339.784078 -272.043322 
L 346.140583 -272.304732 
L 347.874175 -272.566142 
L 350.763495 -275.180247 
L 352.497087 -275.180247 
L 353.074951 -277.532941 
L 353.652816 -277.794352 
L 354.23068 -277.532941 
L 355.386408 -284.329613 
L 355.964272 -289.557822 
L 356.542136 -289.557822 
L 357.12 -291.387695 
L 357.12 -56.641106 
L 357.12 -56.641106 
L 356.542136 -56.641106 
L 355.964272 -56.641106 
L 355.386408 -56.641106 
L 354.23068 -56.641106 
L 353.652816 -56.641106 
L 353.074951 -56.641106 
L 352.497087 -56.641106 
L 350.763495 -56.641106 
L 347.874175 -56.641106 
L 346.140583 -56.641106 
L 339.784078 -56.641106 
L 338.62835 -56.641106 
L 323.026019 -56.641106 
L 322.448155 -56.641106 
L 318.980971 -56.641106 
L 317.247379 -56.641106 
L 312.624466 -56.641106 
L 308.001553 -56.641106 
L 306.845825 -56.641106 
L 283.731262 -56.641106 
L 279.686214 -56.641106 
L 275.063301 -56.641106 
L 266.39534 -56.641106 
L 254.260194 -56.641106 
L 243.858641 -56.641106 
L 238.657864 -56.641106 
L 235.19068 -56.641106 
L 230.567767 -56.641106 
L 225.944854 -56.641106 
L 222.47767 -56.641106 
L 215.543301 -56.641106 
L 205.141748 -56.641106 
L 202.252427 -56.641106 
L 199.940971 -56.641106 
L 199.363107 -56.641106 
L 198.785243 -56.641106 
L 197.05165 -56.641106 
L 195.895922 -56.641106 
L 193.584466 -56.641106 
L 193.006602 -56.641106 
L 191.850874 -56.641106 
L 191.27301 -56.641106 
L 190.695146 -56.641106 
L 188.383689 -56.641106 
L 182.605049 -56.641106 
L 181.44932 -56.641106 
L 180.871456 -56.641106 
L 180.293592 -56.641106 
L 176.826408 -56.641106 
L 175.67068 -56.641106 
L 173.937087 -56.641106 
L 173.359223 -56.641106 
L 171.047767 -56.641106 
L 170.469903 -56.641106 
L 165.269126 -56.641106 
L 164.113398 -56.641106 
L 157.756893 -56.641106 
L 157.179029 -56.641106 
L 149.666796 -56.641106 
L 149.088932 -56.641106 
L 147.933204 -56.641106 
L 147.35534 -56.641106 
L 143.310291 -56.641106 
L 139.843107 -56.641106 
L 139.265243 -56.641106 
L 138.687379 -56.641106 
L 138.109515 -56.641106 
L 135.798058 -56.641106 
L 131.75301 -56.641106 
L 127.707961 -56.641106 
L 126.552233 -56.641106 
L 125.396505 -56.641106 
L 124.818641 -56.641106 
L 124.240777 -56.641106 
L 121.351456 -56.641106 
L 120.773592 -56.641106 
L 119.617864 -56.641106 
L 116.15068 -56.641106 
L 114.994951 -56.641106 
L 114.417087 -56.641106 
L 113.261359 -56.641106 
L 112.683495 -56.641106 
L 110.949903 -56.641106 
L 110.372039 -56.641106 
L 109.794175 -56.641106 
L 108.638447 -56.641106 
L 107.482718 -56.641106 
L 105.749126 -56.641106 
L 105.171262 -56.641106 
L 104.593398 -56.641106 
L 104.015534 -56.641106 
L 103.43767 -56.641106 
L 102.859806 -56.641106 
L 102.281942 -56.641106 
L 99.970485 -56.641106 
L 99.392621 -56.641106 
L 98.814757 -56.641106 
L 98.236893 -56.641106 
L 97.659029 -56.641106 
L 93.613981 -56.641106 
L 93.036117 -56.641106 
L 91.880388 -56.641106 
L 91.302524 -56.641106 
L 90.146796 -56.641106 
L 89.568932 -56.641106 
L 88.991068 -56.641106 
L 88.413204 -56.641106 
L 87.257476 -56.641106 
L 85.523883 -56.641106 
L 83.790291 -56.641106 
L 82.056699 -56.641106 
L 81.478835 -56.641106 
L 79.745243 -56.641106 
L 79.167379 -56.641106 
L 78.01165 -56.641106 
L 77.433786 -56.641106 
L 76.855922 -56.641106 
L 75.700194 -56.641106 
L 73.966602 -56.641106 
L 73.388738 -56.641106 
L 71.655146 -56.641106 
L 67.610097 -56.641106 
L 67.032233 -56.641106 
L 66.454369 -56.641106 
L 65.298641 -56.641106 
L 64.142913 -56.641106 
L 63.565049 -56.641106 
L 62.40932 -56.641106 
L 61.831456 -56.641106 
L 61.253592 -56.641106 
L 59.52 -56.641106 
L 58.942136 -56.641106 
L 57.208544 -56.641106 
L 56.052816 -56.641106 
L 55.474951 -56.641106 
L 54.319223 -56.641106 
L 53.741359 -56.641106 
L 53.163495 -56.641106 
L 52.585631 -56.641106 
L 50.274175 -56.641106 
L 46.80699 -56.641106 
L 43.339806 -56.641106 
L 41.606214 -56.641106 
L 38.716893 -56.641106 
L 38.139029 -56.641106 
L 36.405437 -56.641106 
L 27.737476 -56.641106 
L 18.49165 -56.641106 
L 17.335922 -56.641106 
L 16.180194 -56.641106 
L 7.512233 -56.641106 
L 6.934369 -56.641106 
L 2.88932 -56.641106 
L 2.311456 -56.641106 
L 0.577864 -56.641106 
L 0 -56.641106 
z
" style="stroke: #d5397b; stroke-opacity: 0.4"/>
    </defs>
    <g clip-path="url(#p5c028d4a1c)">
     <use xlink:href="#m38bfda8837" x="0" y="306.830981" style="fill: #d5397b; fill-opacity: 0.4; stroke: #d5397b; stroke-opacity: 0.4"/>
    </g>
   </g>
   <g id="matplotlib.axis_1">
    <g id="xtick_1">
     <g id="line2d_1">
      <defs>
       <path id="m9e7f942725" d="M 0 0 
L 0 3.5 
" style="stroke: #cccccc; stroke-width: 0.8"/>
      </defs>
      <g>
       <use xlink:href="#m9e7f942725" x="0" y="250.189875" style="fill: #cccccc; stroke: #cccccc; stroke-width: 0.8"/>
      </g>
     </g>
     <g id="text_1">
      <!-- 2024-11-10 -->
      <g style="fill: #cccccc" transform="translate(1.698714 262.562229) rotate(-315) scale(0.1 -0.1)">
       <defs>
        <path id="DejaVuSansMono-15" d="M 1166 531 
L 3309 531 
L 3309 0 
L 475 0 
L 475 531 
Q 1059 1147 1496 1619 
Q 1934 2091 2100 2284 
Q 2413 2666 2522 2902 
Q 2631 3138 2631 3384 
Q 2631 3775 2401 3997 
Q 2172 4219 1772 4219 
Q 1488 4219 1175 4116 
Q 863 4013 513 3803 
L 513 4441 
Q 834 4594 1145 4672 
Q 1456 4750 1759 4750 
Q 2444 4750 2861 4386 
Q 3278 4022 3278 3431 
Q 3278 3131 3139 2831 
Q 3000 2531 2688 2169 
Q 2513 1966 2180 1606 
Q 1847 1247 1166 531 
z
" transform="scale(0.015625)"/>
        <path id="DejaVuSansMono-13" d="M 1509 2344 
Q 1509 2516 1629 2641 
Q 1750 2766 1919 2766 
Q 2094 2766 2219 2641 
Q 2344 2516 2344 2344 
Q 2344 2169 2220 2047 
Q 2097 1925 1919 1925 
Q 1744 1925 1626 2044 
Q 1509 2163 1509 2344 
z
M 1925 4250 
Q 1484 4250 1267 3775 
Q 1050 3300 1050 2328 
Q 1050 1359 1267 884 
Q 1484 409 1925 409 
Q 2369 409 2586 884 
Q 2803 1359 2803 2328 
Q 2803 3300 2586 3775 
Q 2369 4250 1925 4250 
z
M 1925 4750 
Q 2672 4750 3055 4137 
Q 3438 3525 3438 2328 
Q 3438 1134 3055 521 
Q 2672 -91 1925 -91 
Q 1178 -91 797 521 
Q 416 1134 416 2328 
Q 416 3525 797 4137 
Q 1178 4750 1925 4750 
z
" transform="scale(0.015625)"/>
        <path id="DejaVuSansMono-17" d="M 2297 4091 
L 825 1625 
L 2297 1625 
L 2297 4091 
z
M 2194 4666 
L 2925 4666 
L 2925 1625 
L 3547 1625 
L 3547 1113 
L 2925 1113 
L 2925 0 
L 2297 0 
L 2297 1113 
L 319 1113 
L 319 1709 
L 2194 4666 
z
" transform="scale(0.015625)"/>
        <path id="DejaVuSansMono-10" d="M 1113 2009 
L 2741 2009 
L 2741 1497 
L 1113 1497 
L 1113 2009 
z
" transform="scale(0.015625)"/>
        <path id="DejaVuSansMono-14" d="M 844 531 
L 1825 531 
L 1825 4097 
L 769 3859 
L 769 4434 
L 1819 4666 
L 2450 4666 
L 2450 531 
L 3419 531 
L 3419 0 
L 844 0 
L 844 531 
z
" transform="scale(0.015625)"/>
       </defs>
       <use xlink:href="#DejaVuSansMono-15"/>
       <use xlink:href="#DejaVuSansMono-13" transform="translate(60.203125 0)"/>
       <use xlink:href="#DejaVuSansMono-15" transform="translate(120.40625 0)"/>
       <use xlink:href="#DejaVuSansMono-17" transform="translate(180.609375 0)"/>
       <use xlink:href="#DejaVuSansMono-10" transform="translate(240.8125 0)"/>
       <use xlink:href="#DejaVuSansMono-14" transform="translate(301.015625 0)"/>
       <use xlink:href="#DejaVuSansMono-14" transform="translate(361.21875 0)"/>
       <use xlink:href="#DejaVuSansMono-10" transform="translate(421.421875 0)"/>
       <use xlink:href="#DejaVuSansMono-14" transform="translate(481.625 0)"/>
       <use xlink:href="#DejaVuSansMono-13" transform="translate(541.828125 0)"/>
      </g>
     </g>
    </g>
    <g id="xtick_2">
     <g id="line2d_2">
      <g>
       <use xlink:href="#m9e7f942725" x="30.048932" y="250.189875" style="fill: #cccccc; stroke: #cccccc; stroke-width: 0.8"/>
      </g>
     </g>
     <g id="text_2">
      <!-- 2025-01-01 -->
      <g style="fill: #cccccc" transform="translate(31.747646 262.562229) rotate(-315) scale(0.1 -0.1)">
       <defs>
        <path id="DejaVuSansMono-18" d="M 647 4666 
L 3009 4666 
L 3009 4134 
L 1222 4134 
L 1222 2988 
Q 1356 3038 1492 3061 
Q 1628 3084 1766 3084 
Q 2491 3084 2916 2656 
Q 3341 2228 3341 1497 
Q 3341 759 2895 334 
Q 2450 -91 1678 -91 
Q 1306 -91 998 -41 
Q 691 9 447 109 
L 447 750 
Q 734 594 1025 517 
Q 1316 441 1619 441 
Q 2141 441 2423 716 
Q 2706 991 2706 1497 
Q 2706 1997 2414 2275 
Q 2122 2553 1600 2553 
Q 1347 2553 1106 2495 
Q 866 2438 647 2322 
L 647 4666 
z
" transform="scale(0.015625)"/>
       </defs>
       <use xlink:href="#DejaVuSansMono-15"/>
       <use xlink:href="#DejaVuSansMono-13" transform="translate(60.203125 0)"/>
       <use xlink:href="#DejaVuSansMono-15" transform="translate(120.40625 0)"/>
       <use xlink:href="#DejaVuSansMono-18" transform="translate(180.609375 0)"/>
       <use xlink:href="#DejaVuSansMono-10" transform="translate(240.8125 0)"/>
       <use xlink:href="#DejaVuSansMono-13" transform="translate(301.015625 0)"/>
       <use xlink:href="#DejaVuSansMono-14" transform="translate(361.21875 0)"/>
       <use xlink:href="#DejaVuSansMono-10" transform="translate(421.421875 0)"/>
       <use xlink:href="#DejaVuSansMono-13" transform="translate(481.625 0)"/>
       <use xlink:href="#DejaVuSansMono-14" transform="translate(541.828125 0)"/>
      </g>
     </g>
    </g>
    <g id="xtick_3">
     <g id="line2d_3">
      <g>
       <use xlink:href="#m9e7f942725" x="64.142913" y="250.189875" style="fill: #cccccc; stroke: #cccccc; stroke-width: 0.8"/>
      </g>
     </g>
     <g id="text_3">
      <!-- 2025-03-01 -->
      <g style="fill: #cccccc" transform="translate(65.841626 262.562229) rotate(-315) scale(0.1 -0.1)">
       <defs>
        <path id="DejaVuSansMono-16" d="M 2425 2497 
Q 2884 2375 3128 2064 
Q 3372 1753 3372 1288 
Q 3372 644 2939 276 
Q 2506 -91 1741 -91 
Q 1419 -91 1084 -31 
Q 750 28 428 141 
L 428 769 
Q 747 603 1056 522 
Q 1366 441 1672 441 
Q 2191 441 2469 675 
Q 2747 909 2747 1350 
Q 2747 1756 2469 1995 
Q 2191 2234 1716 2234 
L 1234 2234 
L 1234 2753 
L 1716 2753 
Q 2150 2753 2394 2943 
Q 2638 3134 2638 3475 
Q 2638 3834 2411 4026 
Q 2184 4219 1766 4219 
Q 1488 4219 1191 4156 
Q 894 4094 569 3969 
L 569 4550 
Q 947 4650 1242 4700 
Q 1538 4750 1766 4750 
Q 2447 4750 2855 4408 
Q 3263 4066 3263 3500 
Q 3263 3116 3048 2859 
Q 2834 2603 2425 2497 
z
" transform="scale(0.015625)"/>
       </defs>
       <use xlink:href="#DejaVuSansMono-15"/>
       <use xlink:href="#DejaVuSansMono-13" transform="translate(60.203125 0)"/>
       <use xlink:href="#DejaVuSansMono-15" transform="translate(120.40625 0)"/>
       <use xlink:href="#DejaVuSansMono-18" transform="translate(180.609375 0)"/>
       <use xlink:href="#DejaVuSansMono-10" transform="translate(240.8125 0)"/>
       <use xlink:href="#DejaVuSansMono-13" transform="translate(301.015625 0)"/>
       <use xlink:href="#DejaVuSansMono-16" transform="translate(361.21875 0)"/>
       <use xlink:href="#DejaVuSansMono-10" transform="translate(421.421875 0)"/>
       <use xlink:href="#DejaVuSansMono-13" transform="translate(481.625 0)"/>
       <use xlink:href="#DejaVuSansMono-14" transform="translate(541.828125 0)"/>
      </g>
     </g>
    </g>
    <g id="xtick_4">
     <g id="line2d_4">
      <g>
       <use xlink:href="#m9e7f942725" x="99.392621" y="250.189875" style="fill: #cccccc; stroke: #cccccc; stroke-width: 0.8"/>
      </g>
     </g>
     <g id="text_4">
      <!-- 2025-05-01 -->
      <g style="fill: #cccccc" transform="translate(101.091335 262.562229) rotate(-315) scale(0.1 -0.1)">
       <use xlink:href="#DejaVuSansMono-15"/>
       <use xlink:href="#DejaVuSansMono-13" transform="translate(60.203125 0)"/>
       <use xlink:href="#DejaVuSansMono-15" transform="translate(120.40625 0)"/>
       <use xlink:href="#DejaVuSansMono-18" transform="translate(180.609375 0)"/>
       <use xlink:href="#DejaVuSansMono-10" transform="translate(240.8125 0)"/>
       <use xlink:href="#DejaVuSansMono-13" transform="translate(301.015625 0)"/>
       <use xlink:href="#DejaVuSansMono-18" transform="translate(361.21875 0)"/>
       <use xlink:href="#DejaVuSansMono-10" transform="translate(421.421875 0)"/>
       <use xlink:href="#DejaVuSansMono-13" transform="translate(481.625 0)"/>
       <use xlink:href="#DejaVuSansMono-14" transform="translate(541.828125 0)"/>
      </g>
     </g>
    </g>
    <g id="xtick_5">
     <g id="line2d_5">
      <g>
       <use xlink:href="#m9e7f942725" x="134.64233" y="250.189875" style="fill: #cccccc; stroke: #cccccc; stroke-width: 0.8"/>
      </g>
     </g>
     <g id="text_5">
      <!-- 2025-07-01 -->
      <g style="fill: #cccccc" transform="translate(136.341044 262.562229) rotate(-315) scale(0.1 -0.1)">
       <defs>
        <path id="DejaVuSansMono-1a" d="M 434 4666 
L 3372 4666 
L 3372 4397 
L 1703 0 
L 1044 0 
L 2669 4134 
L 434 4134 
L 434 4666 
z
" transform="scale(0.015625)"/>
       </defs>
       <use xlink:href="#DejaVuSansMono-15"/>
       <use xlink:href="#DejaVuSansMono-13" transform="translate(60.203125 0)"/>
       <use xlink:href="#DejaVuSansMono-15" transform="translate(120.40625 0)"/>
       <use xlink:href="#DejaVuSansMono-18" transform="translate(180.609375 0)"/>
       <use xlink:href="#DejaVuSansMono-10" transform="translate(240.8125 0)"/>
       <use xlink:href="#DejaVuSansMono-13" transform="translate(301.015625 0)"/>
       <use xlink:href="#DejaVuSansMono-1a" transform="translate(361.21875 0)"/>
       <use xlink:href="#DejaVuSansMono-10" transform="translate(421.421875 0)"/>
       <use xlink:href="#DejaVuSansMono-13" transform="translate(481.625 0)"/>
       <use xlink:href="#DejaVuSansMono-14" transform="translate(541.828125 0)"/>
      </g>
     </g>
    </g>
    <g id="xtick_6">
     <g id="line2d_6">
      <g>
       <use xlink:href="#m9e7f942725" x="170.469903" y="250.189875" style="fill: #cccccc; stroke: #cccccc; stroke-width: 0.8"/>
      </g>
     </g>
     <g id="text_6">
      <!-- 2025-09-01 -->
      <g style="fill: #cccccc" transform="translate(172.168616 262.562229) rotate(-315) scale(0.1 -0.1)">
       <defs>
        <path id="DejaVuSansMono-1c" d="M 1863 2069 
Q 2266 2069 2495 2359 
Q 2725 2650 2725 3163 
Q 2725 3675 2495 3965 
Q 2266 4256 1863 4256 
Q 1444 4256 1231 3979 
Q 1019 3703 1019 3163 
Q 1019 2619 1230 2344 
Q 1441 2069 1863 2069 
z
M 738 97 
L 738 678 
Q 934 563 1156 502 
Q 1378 441 1619 441 
Q 2219 441 2526 892 
Q 2834 1344 2834 2222 
Q 2688 1909 2422 1742 
Q 2156 1575 1813 1575 
Q 1138 1575 767 1990 
Q 397 2406 397 3169 
Q 397 3922 776 4336 
Q 1156 4750 1850 4750 
Q 2663 4750 3041 4165 
Q 3419 3581 3419 2328 
Q 3419 1150 2964 529 
Q 2509 -91 1644 -91 
Q 1416 -91 1184 -42 
Q 953 6 738 97 
z
" transform="scale(0.015625)"/>
       </defs>
       <use xlink:href="#DejaVuSansMono-15"/>
       <use xlink:href="#DejaVuSansMono-13" transform="translate(60.203125 0)"/>
       <use xlink:href="#DejaVuSansMono-15" transform="translate(120.40625 0)"/>
       <use xlink:href="#DejaVuSansMono-18" transform="translate(180.609375 0)"/>
       <use xlink:href="#DejaVuSansMono-10" transform="translate(240.8125 0)"/>
       <use xlink:href="#DejaVuSansMono-13" transform="translate(301.015625 0)"/>
       <use xlink:href="#DejaVuSansMono-1c" transform="translate(361.21875 0)"/>
       <use xlink:href="#DejaVuSansMono-10" transform="translate(421.421875 0)"/>
       <use xlink:href="#DejaVuSansMono-13" transform="translate(481.625 0)"/>
       <use xlink:href="#DejaVuSansMono-14" transform="translate(541.828125 0)"/>
      </g>
     </g>
    </g>
    <g id="xtick_7">
     <g id="line2d_7">
      <g>
       <use xlink:href="#m9e7f942725" x="205.719612" y="250.189875" style="fill: #cccccc; stroke: #cccccc; stroke-width: 0.8"/>
      </g>
     </g>
     <g id="text_7">
      <!-- 2025-11-01 -->
      <g style="fill: #cccccc" transform="translate(207.418325 262.562229) rotate(-315) scale(0.1 -0.1)">
       <use xlink:href="#DejaVuSansMono-15"/>
       <use xlink:href="#DejaVuSansMono-13" transform="translate(60.203125 0)"/>
       <use xlink:href="#DejaVuSansMono-15" transform="translate(120.40625 0)"/>
       <use xlink:href="#DejaVuSansMono-18" transform="translate(180.609375 0)"/>
       <use xlink:href="#DejaVuSansMono-10" transform="translate(240.8125 0)"/>
       <use xlink:href="#DejaVuSansMono-14" transform="translate(301.015625 0)"/>
       <use xlink:href="#DejaVuSansMono-14" transform="translate(361.21875 0)"/>
       <use xlink:href="#DejaVuSansMono-10" transform="translate(421.421875 0)"/>
       <use xlink:href="#DejaVuSansMono-13" transform="translate(481.625 0)"/>
       <use xlink:href="#DejaVuSansMono-14" transform="translate(541.828125 0)"/>
      </g>
     </g>
    </g>
    <g id="xtick_8">
     <g id="line2d_8">
      <g>
       <use xlink:href="#m9e7f942725" x="240.96932" y="250.189875" style="fill: #cccccc; stroke: #cccccc; stroke-width: 0.8"/>
      </g>
     </g>
     <g id="text_8">
      <!-- 2026-01-01 -->
      <g style="fill: #cccccc" transform="translate(242.668034 262.562229) rotate(-315) scale(0.1 -0.1)">
       <defs>
        <path id="DejaVuSansMono-19" d="M 3097 4563 
L 3097 3981 
Q 2900 4097 2678 4158 
Q 2456 4219 2216 4219 
Q 1616 4219 1306 3767 
Q 997 3316 997 2438 
Q 1147 2750 1412 2917 
Q 1678 3084 2022 3084 
Q 2697 3084 3067 2670 
Q 3438 2256 3438 1497 
Q 3438 741 3056 325 
Q 2675 -91 1984 -91 
Q 1172 -91 794 492 
Q 416 1075 416 2328 
Q 416 3509 870 4129 
Q 1325 4750 2188 4750 
Q 2419 4750 2650 4701 
Q 2881 4653 3097 4563 
z
M 1972 2591 
Q 1569 2591 1337 2300 
Q 1106 2009 1106 1497 
Q 1106 984 1337 693 
Q 1569 403 1972 403 
Q 2391 403 2603 679 
Q 2816 956 2816 1497 
Q 2816 2041 2603 2316 
Q 2391 2591 1972 2591 
z
" transform="scale(0.015625)"/>
       </defs>
       <use xlink:href="#DejaVuSansMono-15"/>
       <use xlink:href="#DejaVuSansMono-13" transform="translate(60.203125 0)"/>
       <use xlink:href="#DejaVuSansMono-15" transform="translate(120.40625 0)"/>
       <use xlink:href="#DejaVuSansMono-19" transform="translate(180.609375 0)"/>
       <use xlink:href="#DejaVuSansMono-10" transform="translate(240.8125 0)"/>
       <use xlink:href="#DejaVuSansMono-13" transform="translate(301.015625 0)"/>
       <use xlink:href="#DejaVuSansMono-14" transform="translate(361.21875 0)"/>
       <use xlink:href="#DejaVuSansMono-10" transform="translate(421.421875 0)"/>
       <use xlink:href="#DejaVuSansMono-13" transform="translate(481.625 0)"/>
       <use xlink:href="#DejaVuSansMono-14" transform="translate(541.828125 0)"/>
      </g>
     </g>
    </g>
    <g id="xtick_9">
     <g id="line2d_9">
      <g>
       <use xlink:href="#m9e7f942725" x="275.063301" y="250.189875" style="fill: #cccccc; stroke: #cccccc; stroke-width: 0.8"/>
      </g>
     </g>
     <g id="text_9">
      <!-- 2026-03-01 -->
      <g style="fill: #cccccc" transform="translate(276.762015 262.562229) rotate(-315) scale(0.1 -0.1)">
       <use xlink:href="#DejaVuSansMono-15"/>
       <use xlink:href="#DejaVuSansMono-13" transform="translate(60.203125 0)"/>
       <use xlink:href="#DejaVuSansMono-15" transform="translate(120.40625 0)"/>
       <use xlink:href="#DejaVuSansMono-19" transform="translate(180.609375 0)"/>
       <use xlink:href="#DejaVuSansMono-10" transform="translate(240.8125 0)"/>
       <use xlink:href="#DejaVuSansMono-13" transform="translate(301.015625 0)"/>
       <use xlink:href="#DejaVuSansMono-16" transform="translate(361.21875 0)"/>
       <use xlink:href="#DejaVuSansMono-10" transform="translate(421.421875 0)"/>
       <use xlink:href="#DejaVuSansMono-13" transform="translate(481.625 0)"/>
       <use xlink:href="#DejaVuSansMono-14" transform="translate(541.828125 0)"/>
      </g>
     </g>
    </g>
    <g id="xtick_10">
     <g id="line2d_10">
      <g>
       <use xlink:href="#m9e7f942725" x="310.31301" y="250.189875" style="fill: #cccccc; stroke: #cccccc; stroke-width: 0.8"/>
      </g>
     </g>
     <g id="text_10">
      <!-- 2026-05-01 -->
      <g style="fill: #cccccc" transform="translate(312.011723 262.562229) rotate(-315) scale(0.1 -0.1)">
       <use xlink:href="#DejaVuSansMono-15"/>
       <use xlink:href="#DejaVuSansMono-13" transform="translate(60.203125 0)"/>
       <use xlink:href="#DejaVuSansMono-15" transform="translate(120.40625 0)"/>
       <use xlink:href="#DejaVuSansMono-19" transform="translate(180.609375 0)"/>
       <use xlink:href="#DejaVuSansMono-10" transform="translate(240.8125 0)"/>
       <use xlink:href="#DejaVuSansMono-13" transform="translate(301.015625 0)"/>
       <use xlink:href="#DejaVuSansMono-18" transform="translate(361.21875 0)"/>
       <use xlink:href="#DejaVuSansMono-10" transform="translate(421.421875 0)"/>
       <use xlink:href="#DejaVuSansMono-13" transform="translate(481.625 0)"/>
       <use xlink:href="#DejaVuSansMono-14" transform="translate(541.828125 0)"/>
      </g>
     </g>
    </g>
    <g id="xtick_11">
     <g id="line2d_11">
      <g>
       <use xlink:href="#m9e7f942725" x="345.562718" y="250.189875" style="fill: #cccccc; stroke: #cccccc; stroke-width: 0.8"/>
      </g>
     </g>
     <g id="text_11">
      <!-- 2026-07-01 -->
      <g style="fill: #cccccc" transform="translate(347.261432 262.562229) rotate(-315) scale(0.1 -0.1)">
       <use xlink:href="#DejaVuSansMono-15"/>
       <use xlink:href="#DejaVuSansMono-13" transform="translate(60.203125 0)"/>
       <use xlink:href="#DejaVuSansMono-15" transform="translate(120.40625 0)"/>
       <use xlink:href="#DejaVuSansMono-19" transform="translate(180.609375 0)"/>
       <use xlink:href="#DejaVuSansMono-10" transform="translate(240.8125 0)"/>
       <use xlink:href="#DejaVuSansMono-13" transform="translate(301.015625 0)"/>
       <use xlink:href="#DejaVuSansMono-1a" transform="translate(361.21875 0)"/>
       <use xlink:href="#DejaVuSansMono-10" transform="translate(421.421875 0)"/>
       <use xlink:href="#DejaVuSansMono-13" transform="translate(481.625 0)"/>
       <use xlink:href="#DejaVuSansMono-14" transform="translate(541.828125 0)"/>
      </g>
     </g>
    </g>
    <g id="xtick_12">
     <g id="line2d_12">
      <g>
       <use xlink:href="#m9e7f942725" x="357.12" y="250.189875" style="fill: #cccccc; stroke: #cccccc; stroke-width: 0.8"/>
      </g>
     </g>
     <g id="text_12">
      <!-- 2026-07-21 -->
      <g style="fill: #cccccc" transform="translate(358.818714 262.562229) rotate(-315) scale(0.1 -0.1)">
       <use xlink:href="#DejaVuSansMono-15"/>
       <use xlink:href="#DejaVuSansMono-13" transform="translate(60.203125 0)"/>
       <use xlink:href="#DejaVuSansMono-15" transform="translate(120.40625 0)"/>
       <use xlink:href="#DejaVuSansMono-19" transform="translate(180.609375 0)"/>
       <use xlink:href="#DejaVuSansMono-10" transform="translate(240.8125 0)"/>
       <use xlink:href="#DejaVuSansMono-13" transform="translate(301.015625 0)"/>
       <use xlink:href="#DejaVuSansMono-1a" transform="translate(361.21875 0)"/>
       <use xlink:href="#DejaVuSansMono-10" transform="translate(421.421875 0)"/>
       <use xlink:href="#DejaVuSansMono-15" transform="translate(481.625 0)"/>
       <use xlink:href="#DejaVuSansMono-14" transform="translate(541.828125 0)"/>
      </g>
     </g>
    </g>
   </g>
   <g id="matplotlib.axis_2">
    <g id="ytick_1">
     <g id="line2d_13">
      <defs>
       <path id="m1b10529e24" d="M 0 0 
L 3.5 0 
" style="stroke: #cccccc; stroke-width: 0.8"/>
      </defs>
      <g>
       <use xlink:href="#m1b10529e24" x="357.12" y="250.189875" style="fill: #cccccc; stroke: #cccccc; stroke-width: 0.8"/>
      </g>
     </g>
     <g id="text_13">
      <!-- 0 -->
      <g style="fill: #cccccc" transform="translate(364.12 253.988703) scale(0.1 -0.1)">
       <use xlink:href="#DejaVuSansMono-13"/>
      </g>
     </g>
    </g>
    <g id="ytick_2">
     <g id="line2d_14">
      <g>
       <use xlink:href="#m1b10529e24" x="357.12" y="224.048829" style="fill: #cccccc; stroke: #cccccc; stroke-width: 0.8"/>
      </g>
     </g>
     <g id="text_14">
      <!-- 100 -->
      <g style="fill: #cccccc" transform="translate(364.12 227.847658) scale(0.1 -0.1)">
       <use xlink:href="#DejaVuSansMono-14"/>
       <use xlink:href="#DejaVuSansMono-13" transform="translate(60.203125 0)"/>
       <use xlink:href="#DejaVuSansMono-13" transform="translate(120.40625 0)"/>
      </g>
     </g>
    </g>
    <g id="ytick_3">
     <g id="line2d_15">
      <g>
       <use xlink:href="#m1b10529e24" x="357.12" y="197.907784" style="fill: #cccccc; stroke: #cccccc; stroke-width: 0.8"/>
      </g>
     </g>
     <g id="text_15">
      <!-- 200 -->
      <g style="fill: #cccccc" transform="translate(364.12 201.706612) scale(0.1 -0.1)">
       <use xlink:href="#DejaVuSansMono-15"/>
       <use xlink:href="#DejaVuSansMono-13" transform="translate(60.203125 0)"/>
       <use xlink:href="#DejaVuSansMono-13" transform="translate(120.40625 0)"/>
      </g>
     </g>
    </g>
    <g id="ytick_4">
     <g id="line2d_16">
      <g>
       <use xlink:href="#m1b10529e24" x="357.12" y="171.766738" style="fill: #cccccc; stroke: #cccccc; stroke-width: 0.8"/>
      </g>
     </g>
     <g id="text_16">
      <!-- 300 -->
      <g style="fill: #cccccc" transform="translate(364.12 175.565566) scale(0.1 -0.1)">
       <use xlink:href="#DejaVuSansMono-16"/>
       <use xlink:href="#DejaVuSansMono-13" transform="translate(60.203125 0)"/>
       <use xlink:href="#DejaVuSansMono-13" transform="translate(120.40625 0)"/>
      </g>
     </g>
    </g>
    <g id="ytick_5">
     <g id="line2d_17">
      <g>
       <use xlink:href="#m1b10529e24" x="357.12" y="145.625693" style="fill: #cccccc; stroke: #cccccc; stroke-width: 0.8"/>
      </g>
     </g>
     <g id="text_17">
      <!-- 400 -->
      <g style="fill: #cccccc" transform="translate(364.12 149.424521) scale(0.1 -0.1)">
       <use xlink:href="#DejaVuSansMono-17"/>
       <use xlink:href="#DejaVuSansMono-13" transform="translate(60.203125 0)"/>
       <use xlink:href="#DejaVuSansMono-13" transform="translate(120.40625 0)"/>
      </g>
     </g>
    </g>
    <g id="ytick_6">
     <g id="line2d_18">
      <g>
       <use xlink:href="#m1b10529e24" x="357.12" y="119.484647" style="fill: #cccccc; stroke: #cccccc; stroke-width: 0.8"/>
      </g>
     </g>
     <g id="text_18">
      <!-- 500 -->
      <g style="fill: #cccccc" transform="translate(364.12 123.283475) scale(0.1 -0.1)">
       <use xlink:href="#DejaVuSansMono-18"/>
       <use xlink:href="#DejaVuSansMono-13" transform="translate(60.203125 0)"/>
       <use xlink:href="#DejaVuSansMono-13" transform="translate(120.40625 0)"/>
      </g>
     </g>
    </g>
    <g id="ytick_7">
     <g id="line2d_19">
      <g>
       <use xlink:href="#m1b10529e24" x="357.12" y="93.343601" style="fill: #cccccc; stroke: #cccccc; stroke-width: 0.8"/>
      </g>
     </g>
     <g id="text_19">
      <!-- 600 -->
      <g style="fill: #cccccc" transform="translate(364.12 97.142429) scale(0.1 -0.1)">
       <use xlink:href="#DejaVuSansMono-19"/>
       <use xlink:href="#DejaVuSansMono-13" transform="translate(60.203125 0)"/>
       <use xlink:href="#DejaVuSansMono-13" transform="translate(120.40625 0)"/>
      </g>
     </g>
    </g>
    <g id="ytick_8">
     <g id="line2d_20">
      <g>
       <use xlink:href="#m1b10529e24" x="357.12" y="67.202556" style="fill: #cccccc; stroke: #cccccc; stroke-width: 0.8"/>
      </g>
     </g>
     <g id="text_20">
      <!-- 700 -->
      <g style="fill: #cccccc" transform="translate(364.12 71.001384) scale(0.1 -0.1)">
       <use xlink:href="#DejaVuSansMono-1a"/>
       <use xlink:href="#DejaVuSansMono-13" transform="translate(60.203125 0)"/>
       <use xlink:href="#DejaVuSansMono-13" transform="translate(120.40625 0)"/>
      </g>
     </g>
    </g>
    <g id="ytick_9">
     <g id="line2d_21">
      <g>
       <use xlink:href="#m1b10529e24" x="357.12" y="41.06151" style="fill: #cccccc; stroke: #cccccc; stroke-width: 0.8"/>
      </g>
     </g>
     <g id="text_21">
      <!-- 800 -->
      <g style="fill: #cccccc" transform="translate(364.12 44.860338) scale(0.1 -0.1)">
       <defs>
        <path id="DejaVuSansMono-1b" d="M 1925 2216 
Q 1503 2216 1273 1980 
Q 1044 1744 1044 1313 
Q 1044 881 1276 642 
Q 1509 403 1925 403 
Q 2350 403 2579 639 
Q 2809 875 2809 1313 
Q 2809 1741 2576 1978 
Q 2344 2216 1925 2216 
z
M 1375 2478 
Q 972 2581 745 2862 
Q 519 3144 519 3541 
Q 519 4097 897 4423 
Q 1275 4750 1925 4750 
Q 2578 4750 2956 4423 
Q 3334 4097 3334 3541 
Q 3334 3144 3107 2862 
Q 2881 2581 2478 2478 
Q 2947 2375 3195 2062 
Q 3444 1750 3444 1253 
Q 3444 622 3041 265 
Q 2638 -91 1925 -91 
Q 1213 -91 811 264 
Q 409 619 409 1247 
Q 409 1747 657 2061 
Q 906 2375 1375 2478 
z
M 1147 3481 
Q 1147 3106 1347 2909 
Q 1547 2713 1925 2713 
Q 2306 2713 2506 2909 
Q 2706 3106 2706 3481 
Q 2706 3863 2507 4063 
Q 2309 4263 1925 4263 
Q 1547 4263 1347 4061 
Q 1147 3859 1147 3481 
z
" transform="scale(0.015625)"/>
       </defs>
       <use xlink:href="#DejaVuSansMono-1b"/>
       <use xlink:href="#DejaVuSansMono-13" transform="translate(60.203125 0)"/>
       <use xlink:href="#DejaVuSansMono-13" transform="translate(120.40625 0)"/>
      </g>
     </g>
    </g>
    <g id="ytick_10">
     <g id="line2d_22">
      <g>
       <use xlink:href="#m1b10529e24" x="357.12" y="15.443285" style="fill: #cccccc; stroke: #cccccc; stroke-width: 0.8"/>
      </g>
     </g>
     <g id="text_22">
      <!-- 898 -->
      <g style="fill: #cccccc" transform="translate(364.12 19.242114) scale(0.1 -0.1)">
       <use xlink:href="#DejaVuSansMono-1b"/>
       <use xlink:href="#DejaVuSansMono-1c" transform="translate(60.203125 0)"/>
       <use xlink:href="#DejaVuSansMono-1b" transform="translate(120.40625 0)"/>
      </g>
     </g>
    </g>
    <g id="text_23">
     <!-- recording -->
     <g style="fill: #cccccc" transform="translate(393.779375 159.777281) rotate(-90) scale(0.1 -0.1)">
      <defs>
       <path id="DejaVuSansMono-55" d="M 3609 2778 
Q 3425 2922 3234 2987 
Q 3044 3053 2816 3053 
Q 2278 3053 1993 2715 
Q 1709 2378 1709 1741 
L 1709 0 
L 1131 0 
L 1131 3500 
L 1709 3500 
L 1709 2816 
Q 1853 3188 2151 3386 
Q 2450 3584 2859 3584 
Q 3072 3584 3256 3531 
Q 3441 3478 3609 3366 
L 3609 2778 
z
" transform="scale(0.015625)"/>
       <path id="DejaVuSansMono-48" d="M 3475 1894 
L 3475 1613 
L 984 1613 
L 984 1594 
Q 984 1022 1282 709 
Q 1581 397 2125 397 
Q 2400 397 2700 484 
Q 3000 572 3341 750 
L 3341 178 
Q 3013 44 2708 -23 
Q 2403 -91 2119 -91 
Q 1303 -91 843 398 
Q 384 888 384 1747 
Q 384 2584 834 3084 
Q 1284 3584 2034 3584 
Q 2703 3584 3089 3131 
Q 3475 2678 3475 1894 
z
M 2900 2063 
Q 2888 2569 2661 2833 
Q 2434 3097 2009 3097 
Q 1594 3097 1325 2822 
Q 1056 2547 1006 2059 
L 2900 2063 
z
" transform="scale(0.015625)"/>
       <path id="DejaVuSansMono-46" d="M 3316 178 
Q 3084 44 2839 -23 
Q 2594 -91 2338 -91 
Q 1525 -91 1067 396 
Q 609 884 609 1747 
Q 609 2609 1067 3096 
Q 1525 3584 2338 3584 
Q 2591 3584 2831 3518 
Q 3072 3453 3316 3316 
L 3316 2713 
Q 3088 2916 2858 3006 
Q 2628 3097 2338 3097 
Q 1797 3097 1506 2747 
Q 1216 2397 1216 1747 
Q 1216 1100 1508 748 
Q 1800 397 2338 397 
Q 2638 397 2875 489 
Q 3113 581 3316 775 
L 3316 178 
z
" transform="scale(0.015625)"/>
       <path id="DejaVuSansMono-52" d="M 1925 3097 
Q 1488 3097 1263 2756 
Q 1038 2416 1038 1747 
Q 1038 1081 1263 739 
Q 1488 397 1925 397 
Q 2366 397 2591 739 
Q 2816 1081 2816 1747 
Q 2816 2416 2591 2756 
Q 2366 3097 1925 3097 
z
M 1925 3584 
Q 2653 3584 3039 3112 
Q 3425 2641 3425 1747 
Q 3425 850 3040 379 
Q 2656 -91 1925 -91 
Q 1197 -91 812 379 
Q 428 850 428 1747 
Q 428 2641 812 3112 
Q 1197 3584 1925 3584 
z
" transform="scale(0.015625)"/>
       <path id="DejaVuSansMono-47" d="M 2681 3053 
L 2681 4863 
L 3256 4863 
L 3256 0 
L 2681 0 
L 2681 441 
Q 2538 181 2298 45 
Q 2059 -91 1747 -91 
Q 1113 -91 748 401 
Q 384 894 384 1759 
Q 384 2613 750 3098 
Q 1116 3584 1747 3584 
Q 2063 3584 2303 3448 
Q 2544 3313 2681 3053 
z
M 991 1747 
Q 991 1078 1203 737 
Q 1416 397 1831 397 
Q 2247 397 2464 740 
Q 2681 1084 2681 1747 
Q 2681 2413 2464 2755 
Q 2247 3097 1831 3097 
Q 1416 3097 1203 2756 
Q 991 2416 991 1747 
z
" transform="scale(0.015625)"/>
       <path id="DejaVuSansMono-4c" d="M 800 3500 
L 2272 3500 
L 2272 447 
L 3413 447 
L 3413 0 
L 556 0 
L 556 447 
L 1697 447 
L 1697 3053 
L 800 3053 
L 800 3500 
z
M 1697 4863 
L 2272 4863 
L 2272 4134 
L 1697 4134 
L 1697 4863 
z
" transform="scale(0.015625)"/>
       <path id="DejaVuSansMono-51" d="M 3284 2169 
L 3284 0 
L 2706 0 
L 2706 2169 
Q 2706 2641 2540 2862 
Q 2375 3084 2022 3084 
Q 1619 3084 1401 2798 
Q 1184 2513 1184 1978 
L 1184 0 
L 609 0 
L 609 3500 
L 1184 3500 
L 1184 2975 
Q 1338 3275 1600 3429 
Q 1863 3584 2222 3584 
Q 2756 3584 3020 3232 
Q 3284 2881 3284 2169 
z
" transform="scale(0.015625)"/>
       <path id="DejaVuSansMono-4a" d="M 2681 1778 
Q 2681 2425 2470 2761 
Q 2259 3097 1856 3097 
Q 1434 3097 1212 2761 
Q 991 2425 991 1778 
Q 991 1131 1214 792 
Q 1438 453 1863 453 
Q 2259 453 2470 793 
Q 2681 1134 2681 1778 
z
M 3256 225 
Q 3256 -563 2884 -969 
Q 2513 -1375 1791 -1375 
Q 1553 -1375 1293 -1331 
Q 1034 -1288 775 -1203 
L 775 -634 
Q 1081 -778 1331 -847 
Q 1581 -916 1791 -916 
Q 2256 -916 2468 -662 
Q 2681 -409 2681 141 
L 2681 166 
L 2681 556 
Q 2544 263 2306 119 
Q 2069 -25 1728 -25 
Q 1116 -25 750 465 
Q 384 956 384 1778 
Q 384 2603 750 3093 
Q 1116 3584 1728 3584 
Q 2066 3584 2300 3450 
Q 2534 3316 2681 3034 
L 2681 3488 
L 3256 3488 
L 3256 225 
z
" transform="scale(0.015625)"/>
      </defs>
      <use xlink:href="#DejaVuSansMono-55"/>
      <use xlink:href="#DejaVuSansMono-48" transform="translate(60.203125 0)"/>
      <use xlink:href="#DejaVuSansMono-46" transform="translate(120.40625 0)"/>
      <use xlink:href="#DejaVuSansMono-52" transform="translate(180.609375 0)"/>
      <use xlink:href="#DejaVuSansMono-55" transform="translate(240.8125 0)"/>
      <use xlink:href="#DejaVuSansMono-47" transform="translate(301.015625 0)"/>
      <use xlink:href="#DejaVuSansMono-4c" transform="translate(361.21875 0)"/>
      <use xlink:href="#DejaVuSansMono-51" transform="translate(421.421875 0)"/>
      <use xlink:href="#DejaVuSansMono-4a" transform="translate(481.625 0)"/>
     </g>
    </g>
   </g>
   <g id="line2d_23">
    <path d="M 0 249.928465 
L 0.577864 249.144233 
L 2.311456 245.745897 
L 2.88932 245.484487 
L 6.934369 245.484487 
L 7.512233 245.745897 
L 17.335922 241.56333 
L 18.49165 241.301919 
L 27.737476 241.040509 
L 36.405437 235.8123 
L 38.139029 235.550889 
L 38.716893 230.845501 
L 41.606214 230.584091 
L 43.339806 229.015628 
L 46.80699 226.401523 
L 50.274175 225.878703 
L 52.585631 222.480367 
L 53.163495 218.036389 
L 53.741359 216.206516 
L 54.319223 213.06959 
L 55.474951 209.671254 
L 57.208544 203.658814 
L 58.942136 202.090351 
L 59.52 200.260478 
L 61.253592 195.55509 
L 61.831456 192.940985 
L 63.565049 192.156754 
L 65.298641 190.588291 
L 66.454369 190.326881 
L 67.032233 189.019828 
L 67.610097 183.530209 
L 71.655146 179.870462 
L 73.388738 179.609052 
L 73.966602 177.779179 
L 75.700194 175.687895 
L 76.855922 170.459686 
L 77.433786 170.198275 
L 78.01165 168.106992 
L 79.167379 164.447245 
L 79.745243 163.401604 
L 81.478835 162.878783 
L 82.056699 161.833141 
L 83.790291 157.911984 
L 85.523883 152.683775 
L 87.257476 152.422364 
L 88.991068 151.115312 
L 89.568932 146.148513 
L 90.146796 145.887103 
L 91.302524 145.625693 
L 93.036117 144.05723 
L 93.613981 139.090431 
L 97.659029 138.56761 
L 98.236893 138.044789 
L 98.814757 131.770938 
L 99.392621 130.202476 
L 99.970485 129.941065 
L 102.281942 129.156834 
L 102.859806 128.634013 
L 103.43767 124.190035 
L 104.015534 122.882983 
L 104.593398 122.621572 
L 105.749126 118.439005 
L 107.482718 117.393363 
L 108.638447 117.131953 
L 109.794175 115.824901 
L 110.949903 112.165154 
L 112.683495 108.766818 
L 113.261359 100.924505 
L 114.417087 100.401684 
L 114.994951 98.833221 
L 116.15068 98.833221 
L 119.617864 94.650654 
L 120.773592 94.127833 
L 121.351456 93.082191 
L 124.240777 88.115392 
L 125.396505 87.06975 
L 126.552233 86.285519 
L 127.707961 86.024109 
L 131.75301 85.501288 
L 135.798058 82.625773 
L 138.109515 81.580131 
L 138.687379 80.534489 
L 139.265243 75.829101 
L 139.843107 75.829101 
L 143.310291 75.30628 
L 147.35534 75.30628 
L 147.933204 74.260638 
L 149.088932 73.476407 
L 149.666796 72.692175 
L 157.179029 72.169354 
L 157.756893 67.463966 
L 164.113398 66.941145 
L 165.269126 64.588451 
L 170.469903 61.712936 
L 171.047767 61.712936 
L 173.359223 61.451526 
L 173.937087 60.667294 
L 175.67068 58.837421 
L 176.826408 58.837421 
L 180.293592 57.268958 
L 180.871456 54.393443 
L 181.44932 53.609212 
L 182.605049 53.347802 
L 188.383689 51.256518 
L 190.695146 51.256518 
L 193.006602 50.210876 
L 193.584466 49.688055 
L 195.895922 49.688055 
L 197.05165 49.426645 
L 198.785243 49.165234 
L 199.363107 48.642413 
L 199.940971 48.381003 
L 205.141748 47.858182 
L 215.543301 47.596772 
L 222.47767 46.81254 
L 225.944854 46.289719 
L 230.567767 45.244077 
L 243.858641 44.459846 
L 254.260194 43.675615 
L 266.39534 43.152794 
L 275.063301 42.891383 
L 279.686214 42.891383 
L 283.731262 42.368562 
L 306.845825 42.107152 
L 308.001553 41.845742 
L 312.624466 41.845742 
L 317.247379 41.584331 
L 318.980971 41.322921 
L 323.026019 38.708816 
L 338.62835 34.787659 
L 339.784078 34.787659 
L 346.140583 34.526249 
L 347.874175 34.264838 
L 350.763495 31.650734 
L 352.497087 31.650734 
L 353.074951 29.29804 
L 353.652816 29.036629 
L 354.23068 29.29804 
L 355.386408 22.501368 
L 355.964272 17.273159 
L 356.542136 17.273159 
L 357.12 15.443285 
L 357.12 15.443285 
" clip-path="url(#p5c028d4a1c)" style="fill: none; stroke: #d5397b; stroke-opacity: 0.5; stroke-width: 1.5; stroke-linecap: square"/>
   </g>
   <g id="text_24">
    <!-- days: 619 -->
    <g style="fill: #cccccc" transform="translate(35.712 48.94205) scale(0.1 -0.1)">
     <defs>
      <path id="DejaVuSansMono-44" d="M 2194 1759 
L 2003 1759 
Q 1500 1759 1245 1582 
Q 991 1406 991 1056 
Q 991 741 1181 566 
Q 1372 391 1709 391 
Q 2184 391 2456 720 
Q 2728 1050 2731 1631 
L 2731 1759 
L 2194 1759 
z
M 3309 1997 
L 3309 0 
L 2731 0 
L 2731 519 
Q 2547 206 2267 57 
Q 1988 -91 1588 -91 
Q 1053 -91 734 211 
Q 416 513 416 1019 
Q 416 1603 808 1906 
Q 1200 2209 1959 2209 
L 2731 2209 
L 2731 2300 
Q 2728 2719 2518 2908 
Q 2309 3097 1850 3097 
Q 1556 3097 1256 3012 
Q 956 2928 672 2766 
L 672 3341 
Q 991 3463 1283 3523 
Q 1575 3584 1850 3584 
Q 2284 3584 2592 3456 
Q 2900 3328 3091 3072 
Q 3209 2916 3259 2686 
Q 3309 2456 3309 1997 
z
" transform="scale(0.015625)"/>
      <path id="DejaVuSansMono-5c" d="M 2681 1125 
Q 2538 759 2316 163 
Q 2006 -663 1900 -844 
Q 1756 -1088 1540 -1209 
Q 1325 -1331 1038 -1331 
L 575 -1331 
L 575 -850 
L 916 -850 
Q 1169 -850 1312 -703 
Q 1456 -556 1678 56 
L 325 3500 
L 934 3500 
L 1972 763 
L 2994 3500 
L 3603 3500 
L 2681 1125 
z
" transform="scale(0.015625)"/>
      <path id="DejaVuSansMono-56" d="M 3041 3378 
L 3041 2816 
Q 2794 2959 2544 3031 
Q 2294 3103 2034 3103 
Q 1644 3103 1451 2976 
Q 1259 2850 1259 2591 
Q 1259 2356 1403 2240 
Q 1547 2125 2119 2016 
L 2350 1972 
Q 2778 1891 2998 1647 
Q 3219 1403 3219 1013 
Q 3219 494 2850 201 
Q 2481 -91 1825 -91 
Q 1566 -91 1281 -36 
Q 997 19 666 128 
L 666 722 
Q 988 556 1281 473 
Q 1575 391 1838 391 
Q 2219 391 2428 545 
Q 2638 700 2638 978 
Q 2638 1378 1872 1531 
L 1847 1538 
L 1631 1581 
Q 1134 1678 906 1908 
Q 678 2138 678 2534 
Q 678 3038 1018 3311 
Q 1359 3584 1991 3584 
Q 2272 3584 2531 3532 
Q 2791 3481 3041 3378 
z
" transform="scale(0.015625)"/>
      <path id="DejaVuSansMono-1d" d="M 1528 3322 
L 2316 3322 
L 2316 2375 
L 1528 2375 
L 1528 3322 
z
M 1528 953 
L 2316 953 
L 2316 0 
L 1528 0 
L 1528 953 
z
" transform="scale(0.015625)"/>
      <path id="DejaVuSansMono-3" transform="scale(0.015625)"/>
     </defs>
     <use xlink:href="#DejaVuSansMono-47"/>
     <use xlink:href="#DejaVuSansMono-44" transform="translate(60.203125 0)"/>
     <use xlink:href="#DejaVuSansMono-5c" transform="translate(120.40625 0)"/>
     <use xlink:href="#DejaVuSansMono-56" transform="translate(180.609375 0)"/>
     <use xlink:href="#DejaVuSansMono-1d" transform="translate(240.8125 0)"/>
     <use xlink:href="#DejaVuSansMono-3" transform="translate(301.015625 0)"/>
     <use xlink:href="#DejaVuSansMono-19" transform="translate(361.21875 0)"/>
     <use xlink:href="#DejaVuSansMono-14" transform="translate(421.421875 0)"/>
     <use xlink:href="#DejaVuSansMono-1c" transform="translate(481.625 0)"/>
    </g>
    <!--  avg: 1.45 -->
    <g style="fill: #cccccc" transform="translate(35.712 63.753769) scale(0.1 -0.1)">
     <defs>
      <path id="DejaVuSansMono-59" d="M 313 3500 
L 909 3500 
L 1925 563 
L 2944 3500 
L 3541 3500 
L 2297 0 
L 1556 0 
L 313 3500 
z
" transform="scale(0.015625)"/>
      <path id="DejaVuSansMono-11" d="M 1528 953 
L 2316 953 
L 2316 0 
L 1528 0 
L 1528 953 
z
" transform="scale(0.015625)"/>
     </defs>
     <use xlink:href="#DejaVuSansMono-3"/>
     <use xlink:href="#DejaVuSansMono-44" transform="translate(60.203125 0)"/>
     <use xlink:href="#DejaVuSansMono-59" transform="translate(120.40625 0)"/>
     <use xlink:href="#DejaVuSansMono-4a" transform="translate(180.609375 0)"/>
     <use xlink:href="#DejaVuSansMono-1d" transform="translate(240.8125 0)"/>
     <use xlink:href="#DejaVuSansMono-3" transform="translate(301.015625 0)"/>
     <use xlink:href="#DejaVuSansMono-14" transform="translate(361.21875 0)"/>
     <use xlink:href="#DejaVuSansMono-11" transform="translate(421.421875 0)"/>
     <use xlink:href="#DejaVuSansMono-17" transform="translate(481.625 0)"/>
     <use xlink:href="#DejaVuSansMono-18" transform="translate(541.828125 0)"/>
    </g>
   </g>
   <g id="text_25">
    <!-- recording count in listen.ron over time -->
    <g style="fill: #cccccc" transform="translate(37.684688 9.181875) scale(0.12 -0.12)">
     <defs>
      <path id="DejaVuSansMono-58" d="M 609 1325 
L 609 3494 
L 1184 3494 
L 1184 1325 
Q 1184 853 1351 631 
Q 1519 409 1869 409 
Q 2275 409 2490 695 
Q 2706 981 2706 1516 
L 2706 3494 
L 3284 3494 
L 3284 0 
L 2706 0 
L 2706 525 
Q 2553 222 2289 65 
Q 2025 -91 1672 -91 
Q 1134 -91 871 261 
Q 609 613 609 1325 
z
" transform="scale(0.015625)"/>
      <path id="DejaVuSansMono-57" d="M 1919 4494 
L 1919 3500 
L 3225 3500 
L 3225 3053 
L 1919 3053 
L 1919 1153 
Q 1919 766 2066 612 
Q 2213 459 2578 459 
L 3225 459 
L 3225 0 
L 2522 0 
Q 1875 0 1609 259 
Q 1344 519 1344 1153 
L 1344 3053 
L 409 3053 
L 409 3500 
L 1344 3500 
L 1344 4494 
L 1919 4494 
z
" transform="scale(0.015625)"/>
      <path id="DejaVuSansMono-4f" d="M 1997 1269 
Q 1997 881 2139 684 
Q 2281 488 2559 488 
L 3231 488 
L 3231 0 
L 2503 0 
Q 1988 0 1705 331 
Q 1422 663 1422 1269 
L 1422 4447 
L 500 4447 
L 500 4897 
L 1997 4897 
L 1997 1269 
z
" transform="scale(0.015625)"/>
      <path id="DejaVuSansMono-50" d="M 2113 3144 
Q 2219 3369 2383 3476 
Q 2547 3584 2778 3584 
Q 3200 3584 3373 3257 
Q 3547 2931 3547 2028 
L 3547 0 
L 3022 0 
L 3022 2003 
Q 3022 2744 2939 2923 
Q 2856 3103 2638 3103 
Q 2388 3103 2295 2911 
Q 2203 2719 2203 2003 
L 2203 0 
L 1678 0 
L 1678 2003 
Q 1678 2753 1589 2928 
Q 1500 3103 1269 3103 
Q 1041 3103 952 2911 
Q 863 2719 863 2003 
L 863 0 
L 341 0 
L 341 3500 
L 863 3500 
L 863 3200 
Q 966 3388 1120 3486 
Q 1275 3584 1472 3584 
Q 1709 3584 1867 3475 
Q 2025 3366 2113 3144 
z
" transform="scale(0.015625)"/>
     </defs>
     <use xlink:href="#DejaVuSansMono-55"/>
     <use xlink:href="#DejaVuSansMono-48" transform="translate(60.203125 0)"/>
     <use xlink:href="#DejaVuSansMono-46" transform="translate(120.40625 0)"/>
     <use xlink:href="#DejaVuSansMono-52" transform="translate(180.609375 0)"/>
     <use xlink:href="#DejaVuSansMono-55" transform="translate(240.8125 0)"/>
     <use xlink:href="#DejaVuSansMono-47" transform="translate(301.015625 0)"/>
     <use xlink:href="#DejaVuSansMono-4c" transform="translate(361.21875 0)"/>
     <use xlink:href="#DejaVuSansMono-51" transform="translate(421.421875 0)"/>
     <use xlink:href="#DejaVuSansMono-4a" transform="translate(481.625 0)"/>
     <use xlink:href="#DejaVuSansMono-3" transform="translate(541.828125 0)"/>
     <use xlink:href="#DejaVuSansMono-46" transform="translate(602.03125 0)"/>
     <use xlink:href="#DejaVuSansMono-52" transform="translate(662.234375 0)"/>
     <use xlink:href="#DejaVuSansMono-58" transform="translate(722.4375 0)"/>
     <use xlink:href="#DejaVuSansMono-51" transform="translate(782.640625 0)"/>
     <use xlink:href="#DejaVuSansMono-57" transform="translate(842.84375 0)"/>
     <use xlink:href="#DejaVuSansMono-3" transform="translate(903.046875 0)"/>
     <use xlink:href="#DejaVuSansMono-4c" transform="translate(963.25 0)"/>
     <use xlink:href="#DejaVuSansMono-51" transform="translate(1023.453125 0)"/>
     <use xlink:href="#DejaVuSansMono-3" transform="translate(1083.65625 0)"/>
     <use xlink:href="#DejaVuSansMono-4f" transform="translate(1143.859375 0)"/>
     <use xlink:href="#DejaVuSansMono-4c" transform="translate(1204.0625 0)"/>
     <use xlink:href="#DejaVuSansMono-56" transform="translate(1264.265625 0)"/>
     <use xlink:href="#DejaVuSansMono-57" transform="translate(1324.46875 0)"/>
     <use xlink:href="#DejaVuSansMono-48" transform="translate(1384.671875 0)"/>
     <use xlink:href="#DejaVuSansMono-51" transform="translate(1444.875 0)"/>
     <use xlink:href="#DejaVuSansMono-11" transform="translate(1505.078125 0)"/>
     <use xlink:href="#DejaVuSansMono-55" transform="translate(1565.28125 0)"/>
     <use xlink:href="#DejaVuSansMono-52" transform="translate(1625.484375 0)"/>
     <use xlink:href="#DejaVuSansMono-51" transform="translate(1685.6875 0)"/>
     <use xlink:href="#DejaVuSansMono-3" transform="translate(1745.890625 0)"/>
     <use xlink:href="#DejaVuSansMono-52" transform="translate(1806.09375 0)"/>
     <use xlink:href="#DejaVuSansMono-59" transform="translate(1866.296875 0)"/>
     <use xlink:href="#DejaVuSansMono-48" transform="translate(1926.5 0)"/>
     <use xlink:href="#DejaVuSansMono-55" transform="translate(1986.703125 0)"/>
     <use xlink:href="#DejaVuSansMono-3" transform="translate(2046.90625 0)"/>
     <use xlink:href="#DejaVuSansMono-57" transform="translate(2107.109375 0)"/>
     <use xlink:href="#DejaVuSansMono-4c" transform="translate(2167.3125 0)"/>
     <use xlink:href="#DejaVuSansMono-50" transform="translate(2227.515625 0)"/>
     <use xlink:href="#DejaVuSansMono-48" transform="translate(2287.71875 0)"/>
    </g>
   </g>
  </g>
 </g>
 <defs>
  <clipPath id="p5c028d4a1c">
   <rect x="0" y="15.181875" width="357.12" height="235.008"/>
  </clipPath>
 </defs>
</svg>
