<?xml version="1.0" encoding="utf-8" standalone="no"?>
<!DOCTYPE svg PUBLIC "-//W3C//DTD SVG 1.1//EN"
  "http://www.w3.org/Graphics/SVG/1.1/DTD/svg11.dtd">
<svg xmlns:xlink="http://www.w3.org/1999/xlink" width="406.571071pt" height="306.640946pt" viewBox="0 0 406.571071 306.640946" xmlns="http://www.w3.org/2000/svg" version="1.1">
 <metadata>
  <rdf:RDF xmlns:dc="http://purl.org/dc/elements/1.1/" xmlns:cc="http://creativecommons.org/ns#" xmlns:rdf="http://www.w3.org/1999/02/22-rdf-syntax-ns#">
   <cc:Work>
    <dc:type rdf:resource="http://purl.org/dc/dcmitype/StillImage"/>
    <dc:date>2026-04-25T19:30:21.525274</dc:date>
    <dc:format>image/svg+xml</dc:format>
    <dc:creator>
     <cc:Agent>
      <dc:title>Matplotlib v3.10.9, https://matplotlib.org/</dc:title>
     </cc:Agent>
    </dc:creator>
   </cc:Work>
  </rdf:RDF>
 </metadata>
 <defs>
  <style type="text/css">*{stroke-linejoin: round; stroke-linecap: butt}</style>
 </defs>
 <g id="figure_1">
  <g id="patch_1">
   <path d="M 0 306.640946 
L 406.571071 306.640946 
L 406.571071 0 
L 0 0 
L 0 306.640946 
z
" style="fill: none"/>
  </g>
  <g id="axes_1">
   <g id="patch_2">
    <path d="M 0 250.189875 
L 357.12 250.189875 
L 357.12 15.181875 
L 0 15.181875 
L 0 250.189875 
z
" style="fill: none"/>
   </g>
   <g id="FillBetweenPolyCollection_1">
    <defs>
     <path id="m3fea18bb6e" d="M 0 -56.451071 
L 0 -56.745937 
L 0.672542 -57.630534 
L 2.690169 -61.463788 
L 3.362712 -61.758654 
L 8.070508 -61.758654 
L 8.743051 -61.463788 
L 18.831186 -65.591909 
L 20.176271 -66.18164 
L 21.521356 -66.476506 
L 32.282034 -66.771372 
L 42.370169 -72.668687 
L 44.387797 -72.963553 
L 45.060339 -78.271136 
L 48.423051 -78.566002 
L 50.440678 -80.335196 
L 54.475932 -83.283854 
L 58.511186 -83.873585 
L 61.201356 -87.70684 
L 61.873898 -92.719558 
L 62.546441 -94.783618 
L 63.218983 -98.322007 
L 64.564068 -102.155262 
L 65.23661 -104.514187 
L 66.581695 -108.937174 
L 68.599322 -110.706368 
L 69.271864 -112.770428 
L 71.289492 -118.078012 
L 71.962034 -121.026669 
L 72.634576 -121.321535 
L 73.979661 -121.911267 
L 74.652203 -122.500998 
L 75.997288 -123.680461 
L 77.342373 -123.975327 
L 78.014915 -125.449655 
L 78.687458 -131.641836 
L 83.395254 -135.769957 
L 85.412881 -136.064822 
L 86.085424 -138.128883 
L 88.103051 -140.487809 
L 89.448136 -146.385123 
L 90.120678 -146.679989 
L 90.79322 -149.038915 
L 92.138305 -153.167036 
L 92.810847 -154.346499 
L 94.828475 -154.93623 
L 95.501017 -156.115693 
L 97.518644 -160.538679 
L 99.536271 -166.435994 
L 101.553898 -166.73086 
L 102.898983 -167.615457 
L 103.571525 -168.205189 
L 104.244068 -173.807638 
L 104.91661 -174.102504 
L 106.261695 -174.397369 
L 106.934237 -174.987101 
L 108.279322 -176.166564 
L 108.951864 -181.769013 
L 113.659661 -182.358745 
L 114.332203 -182.948476 
L 115.004746 -190.025254 
L 115.677288 -191.794448 
L 116.349831 -192.089314 
L 119.04 -192.973911 
L 119.712542 -193.563643 
L 120.385085 -198.576361 
L 121.057627 -200.050689 
L 121.730169 -200.345555 
L 122.402712 -202.704481 
L 123.075254 -205.063407 
L 125.092881 -206.24287 
L 126.437966 -206.537736 
L 127.783051 -208.012065 
L 128.455593 -210.076125 
L 129.128136 -212.140185 
L 131.145763 -215.97344 
L 131.818305 -224.819412 
L 133.16339 -225.409144 
L 133.835932 -227.178338 
L 135.181017 -227.178338 
L 139.216271 -231.89619 
L 140.561356 -232.485921 
L 141.233898 -233.665384 
L 144.59661 -239.267834 
L 145.269153 -239.857565 
L 145.941695 -240.447297 
L 147.28678 -241.331894 
L 148.631864 -241.62676 
L 153.339661 -242.216491 
L 158.047458 -245.460014 
L 160.737627 -246.639477 
L 161.410169 -247.81894 
L 162.082712 -253.126524 
L 162.755254 -253.126524 
L 166.790508 -253.716255 
L 171.498305 -253.716255 
L 172.170847 -254.895718 
L 173.515932 -255.780315 
L 174.188475 -256.664913 
L 182.931525 -257.254644 
L 183.604068 -262.562228 
L 191.002034 -263.151959 
L 192.347119 -265.805751 
L 198.4 -269.049274 
L 199.072542 -269.049274 
L 201.762712 -269.34414 
L 202.435254 -270.228737 
L 204.452881 -272.292797 
L 205.797966 -272.292797 
L 209.83322 -274.061992 
L 210.505763 -277.305515 
L 211.178305 -278.190112 
L 212.52339 -278.484978 
L 219.248814 -280.843904 
L 221.938983 -280.843904 
L 222.611525 -281.13877 
L 223.284068 -281.433635 
L 224.629153 -282.023367 
L 225.301695 -282.613098 
L 227.991864 -282.613098 
L 229.336949 -282.907964 
L 231.354576 -283.20283 
L 232.027119 -283.792561 
L 232.699661 -284.087427 
L 235.389831 -284.382293 
L 238.752542 -284.677159 
L 250.858305 -284.972024 
L 258.928814 -285.856622 
L 262.964068 -286.446353 
L 268.344407 -287.625816 
L 273.724746 -287.920682 
L 277.76 -288.215548 
L 283.812881 -288.510413 
L 295.918644 -289.395011 
L 310.042034 -289.984742 
L 320.130169 -290.279608 
L 325.510508 -290.279608 
L 330.218305 -290.869339 
L 357.12 -291.164205 
L 357.12 -56.451071 
L 357.12 -56.451071 
L 330.218305 -56.451071 
L 325.510508 -56.451071 
L 320.130169 -56.451071 
L 310.042034 -56.451071 
L 295.918644 -56.451071 
L 283.812881 -56.451071 
L 277.76 -56.451071 
L 273.724746 -56.451071 
L 268.344407 -56.451071 
L 262.964068 -56.451071 
L 258.928814 -56.451071 
L 250.858305 -56.451071 
L 238.752542 -56.451071 
L 235.389831 -56.451071 
L 232.699661 -56.451071 
L 232.027119 -56.451071 
L 231.354576 -56.451071 
L 229.336949 -56.451071 
L 227.991864 -56.451071 
L 225.301695 -56.451071 
L 224.629153 -56.451071 
L 223.284068 -56.451071 
L 222.611525 -56.451071 
L 221.938983 -56.451071 
L 219.248814 -56.451071 
L 212.52339 -56.451071 
L 211.178305 -56.451071 
L 210.505763 -56.451071 
L 209.83322 -56.451071 
L 205.797966 -56.451071 
L 204.452881 -56.451071 
L 202.435254 -56.451071 
L 201.762712 -56.451071 
L 199.072542 -56.451071 
L 198.4 -56.451071 
L 192.347119 -56.451071 
L 191.002034 -56.451071 
L 183.604068 -56.451071 
L 182.931525 -56.451071 
L 174.188475 -56.451071 
L 173.515932 -56.451071 
L 172.170847 -56.451071 
L 171.498305 -56.451071 
L 166.790508 -56.451071 
L 162.755254 -56.451071 
L 162.082712 -56.451071 
L 161.410169 -56.451071 
L 160.737627 -56.451071 
L 158.047458 -56.451071 
L 153.339661 -56.451071 
L 148.631864 -56.451071 
L 147.28678 -56.451071 
L 145.941695 -56.451071 
L 145.269153 -56.451071 
L 144.59661 -56.451071 
L 141.233898 -56.451071 
L 140.561356 -56.451071 
L 139.216271 -56.451071 
L 135.181017 -56.451071 
L 133.835932 -56.451071 
L 133.16339 -56.451071 
L 131.818305 -56.451071 
L 131.145763 -56.451071 
L 129.128136 -56.451071 
L 128.455593 -56.451071 
L 127.783051 -56.451071 
L 126.437966 -56.451071 
L 125.092881 -56.451071 
L 123.075254 -56.451071 
L 122.402712 -56.451071 
L 121.730169 -56.451071 
L 121.057627 -56.451071 
L 120.385085 -56.451071 
L 119.712542 -56.451071 
L 119.04 -56.451071 
L 116.349831 -56.451071 
L 115.677288 -56.451071 
L 115.004746 -56.451071 
L 114.332203 -56.451071 
L 113.659661 -56.451071 
L 108.951864 -56.451071 
L 108.279322 -56.451071 
L 106.934237 -56.451071 
L 106.261695 -56.451071 
L 104.91661 -56.451071 
L 104.244068 -56.451071 
L 103.571525 -56.451071 
L 102.898983 -56.451071 
L 101.553898 -56.451071 
L 99.536271 -56.451071 
L 97.518644 -56.451071 
L 95.501017 -56.451071 
L 94.828475 -56.451071 
L 92.810847 -56.451071 
L 92.138305 -56.451071 
L 90.79322 -56.451071 
L 90.120678 -56.451071 
L 89.448136 -56.451071 
L 88.103051 -56.451071 
L 86.085424 -56.451071 
L 85.412881 -56.451071 
L 83.395254 -56.451071 
L 78.687458 -56.451071 
L 78.014915 -56.451071 
L 77.342373 -56.451071 
L 75.997288 -56.451071 
L 74.652203 -56.451071 
L 73.979661 -56.451071 
L 72.634576 -56.451071 
L 71.962034 -56.451071 
L 71.289492 -56.451071 
L 69.271864 -56.451071 
L 68.599322 -56.451071 
L 66.581695 -56.451071 
L 65.23661 -56.451071 
L 64.564068 -56.451071 
L 63.218983 -56.451071 
L 62.546441 -56.451071 
L 61.873898 -56.451071 
L 61.201356 -56.451071 
L 58.511186 -56.451071 
L 54.475932 -56.451071 
L 50.440678 -56.451071 
L 48.423051 -56.451071 
L 45.060339 -56.451071 
L 44.387797 -56.451071 
L 42.370169 -56.451071 
L 32.282034 -56.451071 
L 21.521356 -56.451071 
L 20.176271 -56.451071 
L 18.831186 -56.451071 
L 8.743051 -56.451071 
L 8.070508 -56.451071 
L 3.362712 -56.451071 
L 2.690169 -56.451071 
L 0.672542 -56.451071 
L 0 -56.451071 
z
" style="stroke: #d5397b; stroke-opacity: 0.4"/>
    </defs>
    <g clip-path="url(#pe11c0c1eb0)">
     <use xlink:href="#m3fea18bb6e" x="0" y="306.640946" style="fill: #d5397b; fill-opacity: 0.4; stroke: #d5397b; stroke-opacity: 0.4"/>
    </g>
   </g>
   <g id="matplotlib.axis_1">
    <g id="xtick_1">
     <g id="line2d_1">
      <defs>
       <path id="m32e7d29fd4" d="M 0 0 
L 0 3.5 
" style="stroke: #cccccc; stroke-width: 0.8"/>
      </defs>
      <g>
       <use xlink:href="#m32e7d29fd4" x="0" y="250.189875" style="fill: #cccccc; stroke: #cccccc; stroke-width: 0.8"/>
      </g>
     </g>
     <g id="text_1">
      <!-- 2024-11-10 -->
      <g style="fill: #cccccc" transform="translate(1.470561 262.600347) rotate(-315) scale(0.1 -0.1)">
       <defs>
        <path id="DejaVuSansMono-32" d="M 1166 531 
L 3309 531 
L 3309 0 
L 475 0 
L 475 531 
Q 1059 1147 1496 1619 
Q 1934 2091 2100 2284 
Q 2413 2666 2522 2902 
Q 2631 3138 2631 3384 
Q 2631 3775 2401 3997 
Q 2172 4219 1772 4219 
Q 1488 4219 1175 4116 
Q 863 4013 513 3803 
L 513 4441 
Q 834 4594 1145 4672 
Q 1456 4750 1759 4750 
Q 2444 4750 2861 4386 
Q 3278 4022 3278 3431 
Q 3278 3131 3139 2831 
Q 3000 2531 2688 2169 
Q 2513 1966 2180 1606 
Q 1847 1247 1166 531 
z
" transform="scale(0.015625)"/>
        <path id="DejaVuSansMono-30" d="M 1509 2344 
Q 1509 2516 1629 2641 
Q 1750 2766 1919 2766 
Q 2094 2766 2219 2641 
Q 2344 2516 2344 2344 
Q 2344 2169 2220 2047 
Q 2097 1925 1919 1925 
Q 1744 1925 1626 2044 
Q 1509 2163 1509 2344 
z
M 1925 4250 
Q 1484 4250 1267 3775 
Q 1050 3300 1050 2328 
Q 1050 1359 1267 884 
Q 1484 409 1925 409 
Q 2369 409 2586 884 
Q 2803 1359 2803 2328 
Q 2803 3300 2586 3775 
Q 2369 4250 1925 4250 
z
M 1925 4750 
Q 2672 4750 3055 4137 
Q 3438 3525 3438 2328 
Q 3438 1134 3055 521 
Q 2672 -91 1925 -91 
Q 1178 -91 797 521 
Q 416 1134 416 2328 
Q 416 3525 797 4137 
Q 1178 4750 1925 4750 
z
" transform="scale(0.015625)"/>
        <path id="DejaVuSansMono-34" d="M 2297 4091 
L 825 1625 
L 2297 1625 
L 2297 4091 
z
M 2194 4666 
L 2925 4666 
L 2925 1625 
L 3547 1625 
L 3547 1113 
L 2925 1113 
L 2925 0 
L 2297 0 
L 2297 1113 
L 319 1113 
L 319 1709 
L 2194 4666 
z
" transform="scale(0.015625)"/>
        <path id="DejaVuSansMono-2d" d="M 1113 2009 
L 2741 2009 
L 2741 1497 
L 1113 1497 
L 1113 2009 
z
" transform="scale(0.015625)"/>
        <path id="DejaVuSansMono-31" d="M 844 531 
L 1825 531 
L 1825 4097 
L 769 3859 
L 769 4434 
L 1819 4666 
L 2450 4666 
L 2450 531 
L 3419 531 
L 3419 0 
L 844 0 
L 844 531 
z
" transform="scale(0.015625)"/>
       </defs>
       <use xlink:href="#DejaVuSansMono-32"/>
       <use xlink:href="#DejaVuSansMono-30" transform="translate(60.205078 0)"/>
       <use xlink:href="#DejaVuSansMono-32" transform="translate(120.410156 0)"/>
       <use xlink:href="#DejaVuSansMono-34" transform="translate(180.615234 0)"/>
       <use xlink:href="#DejaVuSansMono-2d" transform="translate(240.820312 0)"/>
       <use xlink:href="#DejaVuSansMono-31" transform="translate(301.025391 0)"/>
       <use xlink:href="#DejaVuSansMono-31" transform="translate(361.230469 0)"/>
       <use xlink:href="#DejaVuSansMono-2d" transform="translate(421.435547 0)"/>
       <use xlink:href="#DejaVuSansMono-31" transform="translate(481.640625 0)"/>
       <use xlink:href="#DejaVuSansMono-30" transform="translate(541.845703 0)"/>
      </g>
     </g>
    </g>
    <g id="xtick_2">
     <g id="line2d_2">
      <g>
       <use xlink:href="#m32e7d29fd4" x="34.972203" y="250.189875" style="fill: #cccccc; stroke: #cccccc; stroke-width: 0.8"/>
      </g>
     </g>
     <g id="text_2">
      <!-- 2025-01-01 -->
      <g style="fill: #cccccc" transform="translate(36.442765 262.600347) rotate(-315) scale(0.1 -0.1)">
       <defs>
        <path id="DejaVuSansMono-35" d="M 647 4666 
L 3009 4666 
L 3009 4134 
L 1222 4134 
L 1222 2988 
Q 1356 3038 1492 3061 
Q 1628 3084 1766 3084 
Q 2491 3084 2916 2656 
Q 3341 2228 3341 1497 
Q 3341 759 2895 334 
Q 2450 -91 1678 -91 
Q 1306 -91 998 -41 
Q 691 9 447 109 
L 447 750 
Q 734 594 1025 517 
Q 1316 441 1619 441 
Q 2141 441 2423 716 
Q 2706 991 2706 1497 
Q 2706 1997 2414 2275 
Q 2122 2553 1600 2553 
Q 1347 2553 1106 2495 
Q 866 2438 647 2322 
L 647 4666 
z
" transform="scale(0.015625)"/>
       </defs>
       <use xlink:href="#DejaVuSansMono-32"/>
       <use xlink:href="#DejaVuSansMono-30" transform="translate(60.205078 0)"/>
       <use xlink:href="#DejaVuSansMono-32" transform="translate(120.410156 0)"/>
       <use xlink:href="#DejaVuSansMono-35" transform="translate(180.615234 0)"/>
       <use xlink:href="#DejaVuSansMono-2d" transform="translate(240.820312 0)"/>
       <use xlink:href="#DejaVuSansMono-30" transform="translate(301.025391 0)"/>
       <use xlink:href="#DejaVuSansMono-31" transform="translate(361.230469 0)"/>
       <use xlink:href="#DejaVuSansMono-2d" transform="translate(421.435547 0)"/>
       <use xlink:href="#DejaVuSansMono-30" transform="translate(481.640625 0)"/>
       <use xlink:href="#DejaVuSansMono-31" transform="translate(541.845703 0)"/>
      </g>
     </g>
    </g>
    <g id="xtick_3">
     <g id="line2d_3">
      <g>
       <use xlink:href="#m32e7d29fd4" x="74.652203" y="250.189875" style="fill: #cccccc; stroke: #cccccc; stroke-width: 0.8"/>
      </g>
     </g>
     <g id="text_3">
      <!-- 2025-03-01 -->
      <g style="fill: #cccccc" transform="translate(76.122765 262.600347) rotate(-315) scale(0.1 -0.1)">
       <defs>
        <path id="DejaVuSansMono-33" d="M 2425 2497 
Q 2884 2375 3128 2064 
Q 3372 1753 3372 1288 
Q 3372 644 2939 276 
Q 2506 -91 1741 -91 
Q 1419 -91 1084 -31 
Q 750 28 428 141 
L 428 769 
Q 747 603 1056 522 
Q 1366 441 1672 441 
Q 2191 441 2469 675 
Q 2747 909 2747 1350 
Q 2747 1756 2469 1995 
Q 2191 2234 1716 2234 
L 1234 2234 
L 1234 2753 
L 1716 2753 
Q 2150 2753 2394 2943 
Q 2638 3134 2638 3475 
Q 2638 3834 2411 4026 
Q 2184 4219 1766 4219 
Q 1488 4219 1191 4156 
Q 894 4094 569 3969 
L 569 4550 
Q 947 4650 1242 4700 
Q 1538 4750 1766 4750 
Q 2447 4750 2855 4408 
Q 3263 4066 3263 3500 
Q 3263 3116 3048 2859 
Q 2834 2603 2425 2497 
z
" transform="scale(0.015625)"/>
       </defs>
       <use xlink:href="#DejaVuSansMono-32"/>
       <use xlink:href="#DejaVuSansMono-30" transform="translate(60.205078 0)"/>
       <use xlink:href="#DejaVuSansMono-32" transform="translate(120.410156 0)"/>
       <use xlink:href="#DejaVuSansMono-35" transform="translate(180.615234 0)"/>
       <use xlink:href="#DejaVuSansMono-2d" transform="translate(240.820312 0)"/>
       <use xlink:href="#DejaVuSansMono-30" transform="translate(301.025391 0)"/>
       <use xlink:href="#DejaVuSansMono-33" transform="translate(361.230469 0)"/>
       <use xlink:href="#DejaVuSansMono-2d" transform="translate(421.435547 0)"/>
       <use xlink:href="#DejaVuSansMono-30" transform="translate(481.640625 0)"/>
       <use xlink:href="#DejaVuSansMono-31" transform="translate(541.845703 0)"/>
      </g>
     </g>
    </g>
    <g id="xtick_4">
     <g id="line2d_4">
      <g>
       <use xlink:href="#m32e7d29fd4" x="115.677288" y="250.189875" style="fill: #cccccc; stroke: #cccccc; stroke-width: 0.8"/>
      </g>
     </g>
     <g id="text_4">
      <!-- 2025-05-01 -->
      <g style="fill: #cccccc" transform="translate(117.147849 262.600347) rotate(-315) scale(0.1 -0.1)">
       <use xlink:href="#DejaVuSansMono-32"/>
       <use xlink:href="#DejaVuSansMono-30" transform="translate(60.205078 0)"/>
       <use xlink:href="#DejaVuSansMono-32" transform="translate(120.410156 0)"/>
       <use xlink:href="#DejaVuSansMono-35" transform="translate(180.615234 0)"/>
       <use xlink:href="#DejaVuSansMono-2d" transform="translate(240.820312 0)"/>
       <use xlink:href="#DejaVuSansMono-30" transform="translate(301.025391 0)"/>
       <use xlink:href="#DejaVuSansMono-35" transform="translate(361.230469 0)"/>
       <use xlink:href="#DejaVuSansMono-2d" transform="translate(421.435547 0)"/>
       <use xlink:href="#DejaVuSansMono-30" transform="translate(481.640625 0)"/>
       <use xlink:href="#DejaVuSansMono-31" transform="translate(541.845703 0)"/>
      </g>
     </g>
    </g>
    <g id="xtick_5">
     <g id="line2d_5">
      <g>
       <use xlink:href="#m32e7d29fd4" x="156.702373" y="250.189875" style="fill: #cccccc; stroke: #cccccc; stroke-width: 0.8"/>
      </g>
     </g>
     <g id="text_5">
      <!-- 2025-07-01 -->
      <g style="fill: #cccccc" transform="translate(158.172934 262.600347) rotate(-315) scale(0.1 -0.1)">
       <defs>
        <path id="DejaVuSansMono-37" d="M 434 4666 
L 3372 4666 
L 3372 4397 
L 1703 0 
L 1044 0 
L 2669 4134 
L 434 4134 
L 434 4666 
z
" transform="scale(0.015625)"/>
       </defs>
       <use xlink:href="#DejaVuSansMono-32"/>
       <use xlink:href="#DejaVuSansMono-30" transform="translate(60.205078 0)"/>
       <use xlink:href="#DejaVuSansMono-32" transform="translate(120.410156 0)"/>
       <use xlink:href="#DejaVuSansMono-35" transform="translate(180.615234 0)"/>
       <use xlink:href="#DejaVuSansMono-2d" transform="translate(240.820312 0)"/>
       <use xlink:href="#DejaVuSansMono-30" transform="translate(301.025391 0)"/>
       <use xlink:href="#DejaVuSansMono-37" transform="translate(361.230469 0)"/>
       <use xlink:href="#DejaVuSansMono-2d" transform="translate(421.435547 0)"/>
       <use xlink:href="#DejaVuSansMono-30" transform="translate(481.640625 0)"/>
       <use xlink:href="#DejaVuSansMono-31" transform="translate(541.845703 0)"/>
      </g>
     </g>
    </g>
    <g id="xtick_6">
     <g id="line2d_6">
      <g>
       <use xlink:href="#m32e7d29fd4" x="198.4" y="250.189875" style="fill: #cccccc; stroke: #cccccc; stroke-width: 0.8"/>
      </g>
     </g>
     <g id="text_6">
      <!-- 2025-09-01 -->
      <g style="fill: #cccccc" transform="translate(199.870561 262.600347) rotate(-315) scale(0.1 -0.1)">
       <defs>
        <path id="DejaVuSansMono-39" d="M 1863 2069 
Q 2266 2069 2495 2359 
Q 2725 2650 2725 3163 
Q 2725 3675 2495 3965 
Q 2266 4256 1863 4256 
Q 1444 4256 1231 3979 
Q 1019 3703 1019 3163 
Q 1019 2619 1230 2344 
Q 1441 2069 1863 2069 
z
M 738 97 
L 738 678 
Q 934 563 1156 502 
Q 1378 441 1619 441 
Q 2219 441 2526 892 
Q 2834 1344 2834 2222 
Q 2688 1909 2422 1742 
Q 2156 1575 1813 1575 
Q 1138 1575 767 1990 
Q 397 2406 397 3169 
Q 397 3922 776 4336 
Q 1156 4750 1850 4750 
Q 2663 4750 3041 4165 
Q 3419 3581 3419 2328 
Q 3419 1150 2964 529 
Q 2509 -91 1644 -91 
Q 1416 -91 1184 -42 
Q 953 6 738 97 
z
" transform="scale(0.015625)"/>
       </defs>
       <use xlink:href="#DejaVuSansMono-32"/>
       <use xlink:href="#DejaVuSansMono-30" transform="translate(60.205078 0)"/>
       <use xlink:href="#DejaVuSansMono-32" transform="translate(120.410156 0)"/>
       <use xlink:href="#DejaVuSansMono-35" transform="translate(180.615234 0)"/>
       <use xlink:href="#DejaVuSansMono-2d" transform="translate(240.820312 0)"/>
       <use xlink:href="#DejaVuSansMono-30" transform="translate(301.025391 0)"/>
       <use xlink:href="#DejaVuSansMono-39" transform="translate(361.230469 0)"/>
       <use xlink:href="#DejaVuSansMono-2d" transform="translate(421.435547 0)"/>
       <use xlink:href="#DejaVuSansMono-30" transform="translate(481.640625 0)"/>
       <use xlink:href="#DejaVuSansMono-31" transform="translate(541.845703 0)"/>
      </g>
     </g>
    </g>
    <g id="xtick_7">
     <g id="line2d_7">
      <g>
       <use xlink:href="#m32e7d29fd4" x="239.425085" y="250.189875" style="fill: #cccccc; stroke: #cccccc; stroke-width: 0.8"/>
      </g>
     </g>
     <g id="text_7">
      <!-- 2025-11-01 -->
      <g style="fill: #cccccc" transform="translate(240.895646 262.600347) rotate(-315) scale(0.1 -0.1)">
       <use xlink:href="#DejaVuSansMono-32"/>
       <use xlink:href="#DejaVuSansMono-30" transform="translate(60.205078 0)"/>
       <use xlink:href="#DejaVuSansMono-32" transform="translate(120.410156 0)"/>
       <use xlink:href="#DejaVuSansMono-35" transform="translate(180.615234 0)"/>
       <use xlink:href="#DejaVuSansMono-2d" transform="translate(240.820312 0)"/>
       <use xlink:href="#DejaVuSansMono-31" transform="translate(301.025391 0)"/>
       <use xlink:href="#DejaVuSansMono-31" transform="translate(361.230469 0)"/>
       <use xlink:href="#DejaVuSansMono-2d" transform="translate(421.435547 0)"/>
       <use xlink:href="#DejaVuSansMono-30" transform="translate(481.640625 0)"/>
       <use xlink:href="#DejaVuSansMono-31" transform="translate(541.845703 0)"/>
      </g>
     </g>
    </g>
    <g id="xtick_8">
     <g id="line2d_8">
      <g>
       <use xlink:href="#m32e7d29fd4" x="280.450169" y="250.189875" style="fill: #cccccc; stroke: #cccccc; stroke-width: 0.8"/>
      </g>
     </g>
     <g id="text_8">
      <!-- 2026-01-01 -->
      <g style="fill: #cccccc" transform="translate(281.920731 262.600347) rotate(-315) scale(0.1 -0.1)">
       <defs>
        <path id="DejaVuSansMono-36" d="M 3097 4563 
L 3097 3981 
Q 2900 4097 2678 4158 
Q 2456 4219 2216 4219 
Q 1616 4219 1306 3767 
Q 997 3316 997 2438 
Q 1147 2750 1412 2917 
Q 1678 3084 2022 3084 
Q 2697 3084 3067 2670 
Q 3438 2256 3438 1497 
Q 3438 741 3056 325 
Q 2675 -91 1984 -91 
Q 1172 -91 794 492 
Q 416 1075 416 2328 
Q 416 3509 870 4129 
Q 1325 4750 2188 4750 
Q 2419 4750 2650 4701 
Q 2881 4653 3097 4563 
z
M 1972 2591 
Q 1569 2591 1337 2300 
Q 1106 2009 1106 1497 
Q 1106 984 1337 693 
Q 1569 403 1972 403 
Q 2391 403 2603 679 
Q 2816 956 2816 1497 
Q 2816 2041 2603 2316 
Q 2391 2591 1972 2591 
z
" transform="scale(0.015625)"/>
       </defs>
       <use xlink:href="#DejaVuSansMono-32"/>
       <use xlink:href="#DejaVuSansMono-30" transform="translate(60.205078 0)"/>
       <use xlink:href="#DejaVuSansMono-32" transform="translate(120.410156 0)"/>
       <use xlink:href="#DejaVuSansMono-36" transform="translate(180.615234 0)"/>
       <use xlink:href="#DejaVuSansMono-2d" transform="translate(240.820312 0)"/>
       <use xlink:href="#DejaVuSansMono-30" transform="translate(301.025391 0)"/>
       <use xlink:href="#DejaVuSansMono-31" transform="translate(361.230469 0)"/>
       <use xlink:href="#DejaVuSansMono-2d" transform="translate(421.435547 0)"/>
       <use xlink:href="#DejaVuSansMono-30" transform="translate(481.640625 0)"/>
       <use xlink:href="#DejaVuSansMono-31" transform="translate(541.845703 0)"/>
      </g>
     </g>
    </g>
    <g id="xtick_9">
     <g id="line2d_9">
      <g>
       <use xlink:href="#m32e7d29fd4" x="320.130169" y="250.189875" style="fill: #cccccc; stroke: #cccccc; stroke-width: 0.8"/>
      </g>
     </g>
     <g id="text_9">
      <!-- 2026-03-01 -->
      <g style="fill: #cccccc" transform="translate(321.600731 262.600347) rotate(-315) scale(0.1 -0.1)">
       <use xlink:href="#DejaVuSansMono-32"/>
       <use xlink:href="#DejaVuSansMono-30" transform="translate(60.205078 0)"/>
       <use xlink:href="#DejaVuSansMono-32" transform="translate(120.410156 0)"/>
       <use xlink:href="#DejaVuSansMono-36" transform="translate(180.615234 0)"/>
       <use xlink:href="#DejaVuSansMono-2d" transform="translate(240.820312 0)"/>
       <use xlink:href="#DejaVuSansMono-30" transform="translate(301.025391 0)"/>
       <use xlink:href="#DejaVuSansMono-33" transform="translate(361.230469 0)"/>
       <use xlink:href="#DejaVuSansMono-2d" transform="translate(421.435547 0)"/>
       <use xlink:href="#DejaVuSansMono-30" transform="translate(481.640625 0)"/>
       <use xlink:href="#DejaVuSansMono-31" transform="translate(541.845703 0)"/>
      </g>
     </g>
    </g>
    <g id="xtick_10">
     <g id="line2d_10">
      <g>
       <use xlink:href="#m32e7d29fd4" x="357.12" y="250.189875" style="fill: #cccccc; stroke: #cccccc; stroke-width: 0.8"/>
      </g>
     </g>
     <g id="text_10">
      <!-- 2026-04-25 -->
      <g style="fill: #cccccc" transform="translate(358.590561 262.600347) rotate(-315) scale(0.1 -0.1)">
       <use xlink:href="#DejaVuSansMono-32"/>
       <use xlink:href="#DejaVuSansMono-30" transform="translate(60.205078 0)"/>
       <use xlink:href="#DejaVuSansMono-32" transform="translate(120.410156 0)"/>
       <use xlink:href="#DejaVuSansMono-36" transform="translate(180.615234 0)"/>
       <use xlink:href="#DejaVuSansMono-2d" transform="translate(240.820312 0)"/>
       <use xlink:href="#DejaVuSansMono-30" transform="translate(301.025391 0)"/>
       <use xlink:href="#DejaVuSansMono-34" transform="translate(361.230469 0)"/>
       <use xlink:href="#DejaVuSansMono-2d" transform="translate(421.435547 0)"/>
       <use xlink:href="#DejaVuSansMono-32" transform="translate(481.640625 0)"/>
       <use xlink:href="#DejaVuSansMono-35" transform="translate(541.845703 0)"/>
      </g>
     </g>
    </g>
   </g>
   <g id="matplotlib.axis_2">
    <g id="ytick_1">
     <g id="line2d_11">
      <defs>
       <path id="mb35c920fe6" d="M 0 0 
L 3.5 0 
" style="stroke: #cccccc; stroke-width: 0.8"/>
      </defs>
      <g>
       <use xlink:href="#mb35c920fe6" x="357.12" y="250.189875" style="fill: #cccccc; stroke: #cccccc; stroke-width: 0.8"/>
      </g>
     </g>
     <g id="text_11">
      <!-- 0 -->
      <g style="fill: #cccccc" transform="translate(364.12 254.015656) scale(0.1 -0.1)">
       <use xlink:href="#DejaVuSansMono-30"/>
      </g>
     </g>
    </g>
    <g id="ytick_2">
     <g id="line2d_12">
      <g>
       <use xlink:href="#mb35c920fe6" x="357.12" y="220.7033" style="fill: #cccccc; stroke: #cccccc; stroke-width: 0.8"/>
      </g>
     </g>
     <g id="text_12">
      <!-- 100 -->
      <g style="fill: #cccccc" transform="translate(364.12 224.529082) scale(0.1 -0.1)">
       <use xlink:href="#DejaVuSansMono-31"/>
       <use xlink:href="#DejaVuSansMono-30" transform="translate(60.205078 0)"/>
       <use xlink:href="#DejaVuSansMono-30" transform="translate(120.410156 0)"/>
      </g>
     </g>
    </g>
    <g id="ytick_3">
     <g id="line2d_13">
      <g>
       <use xlink:href="#mb35c920fe6" x="357.12" y="191.216726" style="fill: #cccccc; stroke: #cccccc; stroke-width: 0.8"/>
      </g>
     </g>
     <g id="text_13">
      <!-- 200 -->
      <g style="fill: #cccccc" transform="translate(364.12 195.042507) scale(0.1 -0.1)">
       <use xlink:href="#DejaVuSansMono-32"/>
       <use xlink:href="#DejaVuSansMono-30" transform="translate(60.205078 0)"/>
       <use xlink:href="#DejaVuSansMono-30" transform="translate(120.410156 0)"/>
      </g>
     </g>
    </g>
    <g id="ytick_4">
     <g id="line2d_14">
      <g>
       <use xlink:href="#mb35c920fe6" x="357.12" y="161.730151" style="fill: #cccccc; stroke: #cccccc; stroke-width: 0.8"/>
      </g>
     </g>
     <g id="text_14">
      <!-- 300 -->
      <g style="fill: #cccccc" transform="translate(364.12 165.555932) scale(0.1 -0.1)">
       <use xlink:href="#DejaVuSansMono-33"/>
       <use xlink:href="#DejaVuSansMono-30" transform="translate(60.205078 0)"/>
       <use xlink:href="#DejaVuSansMono-30" transform="translate(120.410156 0)"/>
      </g>
     </g>
    </g>
    <g id="ytick_5">
     <g id="line2d_15">
      <g>
       <use xlink:href="#mb35c920fe6" x="357.12" y="132.243576" style="fill: #cccccc; stroke: #cccccc; stroke-width: 0.8"/>
      </g>
     </g>
     <g id="text_15">
      <!-- 400 -->
      <g style="fill: #cccccc" transform="translate(364.12 136.069358) scale(0.1 -0.1)">
       <use xlink:href="#DejaVuSansMono-34"/>
       <use xlink:href="#DejaVuSansMono-30" transform="translate(60.205078 0)"/>
       <use xlink:href="#DejaVuSansMono-30" transform="translate(120.410156 0)"/>
      </g>
     </g>
    </g>
    <g id="ytick_6">
     <g id="line2d_16">
      <g>
       <use xlink:href="#mb35c920fe6" x="357.12" y="102.757002" style="fill: #cccccc; stroke: #cccccc; stroke-width: 0.8"/>
      </g>
     </g>
     <g id="text_16">
      <!-- 500 -->
      <g style="fill: #cccccc" transform="translate(364.12 106.582783) scale(0.1 -0.1)">
       <use xlink:href="#DejaVuSansMono-35"/>
       <use xlink:href="#DejaVuSansMono-30" transform="translate(60.205078 0)"/>
       <use xlink:href="#DejaVuSansMono-30" transform="translate(120.410156 0)"/>
      </g>
     </g>
    </g>
    <g id="ytick_7">
     <g id="line2d_17">
      <g>
       <use xlink:href="#mb35c920fe6" x="357.12" y="73.270427" style="fill: #cccccc; stroke: #cccccc; stroke-width: 0.8"/>
      </g>
     </g>
     <g id="text_17">
      <!-- 600 -->
      <g style="fill: #cccccc" transform="translate(364.12 77.096208) scale(0.1 -0.1)">
       <use xlink:href="#DejaVuSansMono-36"/>
       <use xlink:href="#DejaVuSansMono-30" transform="translate(60.205078 0)"/>
       <use xlink:href="#DejaVuSansMono-30" transform="translate(120.410156 0)"/>
      </g>
     </g>
    </g>
    <g id="ytick_8">
     <g id="line2d_18">
      <g>
       <use xlink:href="#mb35c920fe6" x="357.12" y="43.783852" style="fill: #cccccc; stroke: #cccccc; stroke-width: 0.8"/>
      </g>
     </g>
     <g id="text_18">
      <!-- 700 -->
      <g style="fill: #cccccc" transform="translate(364.12 47.609634) scale(0.1 -0.1)">
       <use xlink:href="#DejaVuSansMono-37"/>
       <use xlink:href="#DejaVuSansMono-30" transform="translate(60.205078 0)"/>
       <use xlink:href="#DejaVuSansMono-30" transform="translate(120.410156 0)"/>
      </g>
     </g>
    </g>
    <g id="ytick_9">
     <g id="line2d_19">
      <g>
       <use xlink:href="#mb35c920fe6" x="357.12" y="15.476741" style="fill: #cccccc; stroke: #cccccc; stroke-width: 0.8"/>
      </g>
     </g>
     <g id="text_19">
      <!-- 796 -->
      <g style="fill: #cccccc" transform="translate(364.12 19.302522) scale(0.1 -0.1)">
       <use xlink:href="#DejaVuSansMono-37"/>
       <use xlink:href="#DejaVuSansMono-39" transform="translate(60.205078 0)"/>
       <use xlink:href="#DejaVuSansMono-36" transform="translate(120.410156 0)"/>
      </g>
     </g>
    </g>
    <g id="text_20">
     <!-- recording -->
     <g style="fill: #cccccc" transform="translate(393.779375 159.777281) rotate(-90) scale(0.1 -0.1)">
      <defs>
       <path id="DejaVuSansMono-72" d="M 3609 2778 
Q 3425 2922 3234 2987 
Q 3044 3053 2816 3053 
Q 2278 3053 1993 2715 
Q 1709 2378 1709 1741 
L 1709 0 
L 1131 0 
L 1131 3500 
L 1709 3500 
L 1709 2816 
Q 1853 3188 2151 3386 
Q 2450 3584 2859 3584 
Q 3072 3584 3256 3531 
Q 3441 3478 3609 3366 
L 3609 2778 
z
" transform="scale(0.015625)"/>
       <path id="DejaVuSansMono-65" d="M 3475 1894 
L 3475 1613 
L 984 1613 
L 984 1594 
Q 984 1022 1282 709 
Q 1581 397 2125 397 
Q 2400 397 2700 484 
Q 3000 572 3341 750 
L 3341 178 
Q 3013 44 2708 -23 
Q 2403 -91 2119 -91 
Q 1303 -91 843 398 
Q 384 888 384 1747 
Q 384 2584 834 3084 
Q 1284 3584 2034 3584 
Q 2703 3584 3089 3131 
Q 3475 2678 3475 1894 
z
M 2900 2063 
Q 2888 2569 2661 2833 
Q 2434 3097 2009 3097 
Q 1594 3097 1325 2822 
Q 1056 2547 1006 2059 
L 2900 2063 
z
" transform="scale(0.015625)"/>
       <path id="DejaVuSansMono-63" d="M 3316 178 
Q 3084 44 2839 -23 
Q 2594 -91 2338 -91 
Q 1525 -91 1067 396 
Q 609 884 609 1747 
Q 609 2609 1067 3096 
Q 1525 3584 2338 3584 
Q 2591 3584 2831 3518 
Q 3072 3453 3316 3316 
L 3316 2713 
Q 3088 2916 2858 3006 
Q 2628 3097 2338 3097 
Q 1797 3097 1506 2747 
Q 1216 2397 1216 1747 
Q 1216 1100 1508 748 
Q 1800 397 2338 397 
Q 2638 397 2875 489 
Q 3113 581 3316 775 
L 3316 178 
z
" transform="scale(0.015625)"/>
       <path id="DejaVuSansMono-6f" d="M 1925 3097 
Q 1488 3097 1263 2756 
Q 1038 2416 1038 1747 
Q 1038 1081 1263 739 
Q 1488 397 1925 397 
Q 2366 397 2591 739 
Q 2816 1081 2816 1747 
Q 2816 2416 2591 2756 
Q 2366 3097 1925 3097 
z
M 1925 3584 
Q 2653 3584 3039 3112 
Q 3425 2641 3425 1747 
Q 3425 850 3040 379 
Q 2656 -91 1925 -91 
Q 1197 -91 812 379 
Q 428 850 428 1747 
Q 428 2641 812 3112 
Q 1197 3584 1925 3584 
z
" transform="scale(0.015625)"/>
       <path id="DejaVuSansMono-64" d="M 2681 3053 
L 2681 4863 
L 3256 4863 
L 3256 0 
L 2681 0 
L 2681 441 
Q 2538 181 2298 45 
Q 2059 -91 1747 -91 
Q 1113 -91 748 401 
Q 384 894 384 1759 
Q 384 2613 750 3098 
Q 1116 3584 1747 3584 
Q 2063 3584 2303 3448 
Q 2544 3313 2681 3053 
z
M 991 1747 
Q 991 1078 1203 737 
Q 1416 397 1831 397 
Q 2247 397 2464 740 
Q 2681 1084 2681 1747 
Q 2681 2413 2464 2755 
Q 2247 3097 1831 3097 
Q 1416 3097 1203 2756 
Q 991 2416 991 1747 
z
" transform="scale(0.015625)"/>
       <path id="DejaVuSansMono-69" d="M 800 3500 
L 2272 3500 
L 2272 447 
L 3413 447 
L 3413 0 
L 556 0 
L 556 447 
L 1697 447 
L 1697 3053 
L 800 3053 
L 800 3500 
z
M 1697 4863 
L 2272 4863 
L 2272 4134 
L 1697 4134 
L 1697 4863 
z
" transform="scale(0.015625)"/>
       <path id="DejaVuSansMono-6e" d="M 3284 2169 
L 3284 0 
L 2706 0 
L 2706 2169 
Q 2706 2641 2540 2862 
Q 2375 3084 2022 3084 
Q 1619 3084 1401 2798 
Q 1184 2513 1184 1978 
L 1184 0 
L 609 0 
L 609 3500 
L 1184 3500 
L 1184 2975 
Q 1338 3275 1600 3429 
Q 1863 3584 2222 3584 
Q 2756 3584 3020 3232 
Q 3284 2881 3284 2169 
z
" transform="scale(0.015625)"/>
       <path id="DejaVuSansMono-67" d="M 2681 1778 
Q 2681 2425 2470 2761 
Q 2259 3097 1856 3097 
Q 1434 3097 1212 2761 
Q 991 2425 991 1778 
Q 991 1131 1214 792 
Q 1438 453 1863 453 
Q 2259 453 2470 793 
Q 2681 1134 2681 1778 
z
M 3256 225 
Q 3256 -563 2884 -969 
Q 2513 -1375 1791 -1375 
Q 1553 -1375 1293 -1331 
Q 1034 -1288 775 -1203 
L 775 -634 
Q 1081 -778 1331 -847 
Q 1581 -916 1791 -916 
Q 2256 -916 2468 -662 
Q 2681 -409 2681 141 
L 2681 166 
L 2681 556 
Q 2544 263 2306 119 
Q 2069 -25 1728 -25 
Q 1116 -25 750 465 
Q 384 956 384 1778 
Q 384 2603 750 3093 
Q 1116 3584 1728 3584 
Q 2066 3584 2300 3450 
Q 2534 3316 2681 3034 
L 2681 3488 
L 3256 3488 
L 3256 225 
z
" transform="scale(0.015625)"/>
      </defs>
      <use xlink:href="#DejaVuSansMono-72"/>
      <use xlink:href="#DejaVuSansMono-65" transform="translate(60.205078 0)"/>
      <use xlink:href="#DejaVuSansMono-63" transform="translate(120.410156 0)"/>
      <use xlink:href="#DejaVuSansMono-6f" transform="translate(180.615234 0)"/>
      <use xlink:href="#DejaVuSansMono-72" transform="translate(240.820312 0)"/>
      <use xlink:href="#DejaVuSansMono-64" transform="translate(301.025391 0)"/>
      <use xlink:href="#DejaVuSansMono-69" transform="translate(361.230469 0)"/>
      <use xlink:href="#DejaVuSansMono-6e" transform="translate(421.435547 0)"/>
      <use xlink:href="#DejaVuSansMono-67" transform="translate(481.640625 0)"/>
     </g>
    </g>
   </g>
   <g id="line2d_20">
    <path d="M 0 249.895009 
L 0.672542 249.010412 
L 2.690169 245.177157 
L 3.362712 244.882292 
L 8.070508 244.882292 
L 8.743051 245.177157 
L 20.176271 240.459305 
L 21.521356 240.16444 
L 32.282034 239.869574 
L 42.370169 233.972259 
L 44.387797 233.677393 
L 45.060339 228.36981 
L 48.423051 228.074944 
L 50.440678 226.30575 
L 54.475932 223.357092 
L 58.511186 222.767361 
L 61.201356 218.934106 
L 61.873898 213.921388 
L 62.546441 211.857328 
L 63.218983 208.318939 
L 64.564068 204.485684 
L 66.581695 197.703772 
L 68.599322 195.934578 
L 69.271864 193.870517 
L 71.289492 188.562934 
L 71.962034 185.614277 
L 73.979661 184.729679 
L 75.997288 182.960485 
L 77.342373 182.665619 
L 78.014915 181.19129 
L 78.687458 174.99911 
L 83.395254 170.870989 
L 85.412881 170.576123 
L 86.085424 168.512063 
L 88.103051 166.153137 
L 89.448136 160.255822 
L 90.120678 159.960957 
L 90.79322 157.602031 
L 92.138305 153.47391 
L 92.810847 152.294447 
L 94.828475 151.704716 
L 95.501017 150.525253 
L 97.518644 146.102266 
L 99.536271 140.204952 
L 101.553898 139.910086 
L 102.898983 139.025489 
L 103.571525 138.435757 
L 104.244068 132.833308 
L 104.91661 132.538442 
L 106.261695 132.243576 
L 108.279322 130.474382 
L 108.951864 124.871933 
L 113.659661 124.282201 
L 114.332203 123.69247 
L 115.004746 116.615692 
L 115.677288 114.846497 
L 116.349831 114.551632 
L 119.04 113.667034 
L 119.712542 113.077303 
L 120.385085 108.064585 
L 121.057627 106.590256 
L 121.730169 106.295391 
L 123.075254 101.577539 
L 125.092881 100.398076 
L 126.437966 100.10321 
L 127.783051 98.628881 
L 129.128136 94.500761 
L 131.145763 90.667506 
L 131.818305 81.821534 
L 133.16339 81.231802 
L 133.835932 79.462608 
L 135.181017 79.462608 
L 139.216271 74.744756 
L 140.561356 74.155024 
L 141.233898 72.975561 
L 144.59661 67.373112 
L 145.941695 66.193649 
L 147.28678 65.309052 
L 148.631864 65.014186 
L 153.339661 64.424455 
L 158.047458 61.180931 
L 160.737627 60.001468 
L 161.410169 58.822005 
L 162.082712 53.514422 
L 162.755254 53.514422 
L 166.790508 52.924691 
L 171.498305 52.924691 
L 172.170847 51.745228 
L 173.515932 50.86063 
L 174.188475 49.976033 
L 182.931525 49.386302 
L 183.604068 44.078718 
L 191.002034 43.488987 
L 192.347119 40.835195 
L 198.4 37.591672 
L 199.072542 37.591672 
L 201.762712 37.296806 
L 202.435254 36.412209 
L 204.452881 34.348149 
L 205.797966 34.348149 
L 209.83322 32.578954 
L 210.505763 29.335431 
L 211.178305 28.450834 
L 212.52339 28.155968 
L 219.248814 25.797042 
L 221.938983 25.797042 
L 224.629153 24.617579 
L 225.301695 24.027847 
L 227.991864 24.027847 
L 229.336949 23.732982 
L 231.354576 23.438116 
L 232.027119 22.848384 
L 232.699661 22.553519 
L 238.752542 21.963787 
L 250.858305 21.668921 
L 258.928814 20.784324 
L 262.964068 20.194593 
L 268.344407 19.01513 
L 283.812881 18.130532 
L 295.918644 17.245935 
L 310.042034 16.656204 
L 320.130169 16.361338 
L 325.510508 16.361338 
L 330.218305 15.771606 
L 357.12 15.476741 
L 357.12 15.476741 
" clip-path="url(#pe11c0c1eb0)" style="fill: none; stroke: #d5397b; stroke-opacity: 0.5; stroke-width: 1.5; stroke-linecap: square"/>
   </g>
   <g id="text_21">
    <!-- days: 531 -->
    <g style="fill: #cccccc" transform="translate(35.712 46.334237) scale(0.1 -0.1)">
     <defs>
      <path id="DejaVuSansMono-61" d="M 2194 1759 
L 2003 1759 
Q 1500 1759 1245 1582 
Q 991 1406 991 1056 
Q 991 741 1181 566 
Q 1372 391 1709 391 
Q 2184 391 2456 720 
Q 2728 1050 2731 1631 
L 2731 1759 
L 2194 1759 
z
M 3309 1997 
L 3309 0 
L 2731 0 
L 2731 519 
Q 2547 206 2267 57 
Q 1988 -91 1588 -91 
Q 1053 -91 734 211 
Q 416 513 416 1019 
Q 416 1603 808 1906 
Q 1200 2209 1959 2209 
L 2731 2209 
L 2731 2300 
Q 2728 2719 2518 2908 
Q 2309 3097 1850 3097 
Q 1556 3097 1256 3012 
Q 956 2928 672 2766 
L 672 3341 
Q 991 3463 1283 3523 
Q 1575 3584 1850 3584 
Q 2284 3584 2592 3456 
Q 2900 3328 3091 3072 
Q 3209 2916 3259 2686 
Q 3309 2456 3309 1997 
z
" transform="scale(0.015625)"/>
      <path id="DejaVuSansMono-79" d="M 2681 1125 
Q 2538 759 2316 163 
Q 2006 -663 1900 -844 
Q 1756 -1088 1540 -1209 
Q 1325 -1331 1038 -1331 
L 575 -1331 
L 575 -850 
L 916 -850 
Q 1169 -850 1312 -703 
Q 1456 -556 1678 56 
L 325 3500 
L 934 3500 
L 1972 763 
L 2994 3500 
L 3603 3500 
L 2681 1125 
z
" transform="scale(0.015625)"/>
      <path id="DejaVuSansMono-73" d="M 3041 3378 
L 3041 2816 
Q 2794 2959 2544 3031 
Q 2294 3103 2034 3103 
Q 1644 3103 1451 2976 
Q 1259 2850 1259 2591 
Q 1259 2356 1403 2240 
Q 1547 2125 2119 2016 
L 2350 1972 
Q 2778 1891 2998 1647 
Q 3219 1403 3219 1013 
Q 3219 494 2850 201 
Q 2481 -91 1825 -91 
Q 1566 -91 1281 -36 
Q 997 19 666 128 
L 666 722 
Q 988 556 1281 473 
Q 1575 391 1838 391 
Q 2219 391 2428 545 
Q 2638 700 2638 978 
Q 2638 1378 1872 1531 
L 1847 1538 
L 1631 1581 
Q 1134 1678 906 1908 
Q 678 2138 678 2534 
Q 678 3038 1018 3311 
Q 1359 3584 1991 3584 
Q 2272 3584 2531 3532 
Q 2791 3481 3041 3378 
z
" transform="scale(0.015625)"/>
      <path id="DejaVuSansMono-3a" d="M 1528 3322 
L 2316 3322 
L 2316 2375 
L 1528 2375 
L 1528 3322 
z
M 1528 953 
L 2316 953 
L 2316 0 
L 1528 0 
L 1528 953 
z
" transform="scale(0.015625)"/>
      <path id="DejaVuSansMono-20" transform="scale(0.015625)"/>
     </defs>
     <use xlink:href="#DejaVuSansMono-64"/>
     <use xlink:href="#DejaVuSansMono-61" transform="translate(60.205078 0)"/>
     <use xlink:href="#DejaVuSansMono-79" transform="translate(120.410156 0)"/>
     <use xlink:href="#DejaVuSansMono-73" transform="translate(180.615234 0)"/>
     <use xlink:href="#DejaVuSansMono-3a" transform="translate(240.820312 0)"/>
     <use xlink:href="#DejaVuSansMono-20" transform="translate(301.025391 0)"/>
     <use xlink:href="#DejaVuSansMono-35" transform="translate(361.230469 0)"/>
     <use xlink:href="#DejaVuSansMono-33" transform="translate(421.435547 0)"/>
     <use xlink:href="#DejaVuSansMono-31" transform="translate(481.640625 0)"/>
    </g>
    <!--  avg: 1.50 -->
    <g style="fill: #cccccc" transform="translate(35.712 59.891269) scale(0.1 -0.1)">
     <defs>
      <path id="DejaVuSansMono-76" d="M 313 3500 
L 909 3500 
L 1925 563 
L 2944 3500 
L 3541 3500 
L 2297 0 
L 1556 0 
L 313 3500 
z
" transform="scale(0.015625)"/>
      <path id="DejaVuSansMono-2e" d="M 1528 953 
L 2316 953 
L 2316 0 
L 1528 0 
L 1528 953 
z
" transform="scale(0.015625)"/>
     </defs>
     <use xlink:href="#DejaVuSansMono-20"/>
     <use xlink:href="#DejaVuSansMono-61" transform="translate(60.205078 0)"/>
     <use xlink:href="#DejaVuSansMono-76" transform="translate(120.410156 0)"/>
     <use xlink:href="#DejaVuSansMono-67" transform="translate(180.615234 0)"/>
     <use xlink:href="#DejaVuSansMono-3a" transform="translate(240.820312 0)"/>
     <use xlink:href="#DejaVuSansMono-20" transform="translate(301.025391 0)"/>
     <use xlink:href="#DejaVuSansMono-31" transform="translate(361.230469 0)"/>
     <use xlink:href="#DejaVuSansMono-2e" transform="translate(421.435547 0)"/>
     <use xlink:href="#DejaVuSansMono-35" transform="translate(481.640625 0)"/>
     <use xlink:href="#DejaVuSansMono-30" transform="translate(541.845703 0)"/>
    </g>
   </g>
   <g id="text_22">
    <!-- recording count in listen.ron over time -->
    <g style="fill: #cccccc" transform="translate(37.684688 9.181875) scale(0.12 -0.12)">
     <defs>
      <path id="DejaVuSansMono-75" d="M 609 1325 
L 609 3494 
L 1184 3494 
L 1184 1325 
Q 1184 853 1351 631 
Q 1519 409 1869 409 
Q 2275 409 2490 695 
Q 2706 981 2706 1516 
L 2706 3494 
L 3284 3494 
L 3284 0 
L 2706 0 
L 2706 525 
Q 2553 222 2289 65 
Q 2025 -91 1672 -91 
Q 1134 -91 871 261 
Q 609 613 609 1325 
z
" transform="scale(0.015625)"/>
      <path id="DejaVuSansMono-74" d="M 1919 4494 
L 1919 3500 
L 3225 3500 
L 3225 3053 
L 1919 3053 
L 1919 1153 
Q 1919 766 2066 612 
Q 2213 459 2578 459 
L 3225 459 
L 3225 0 
L 2522 0 
Q 1875 0 1609 259 
Q 1344 519 1344 1153 
L 1344 3053 
L 409 3053 
L 409 3500 
L 1344 3500 
L 1344 4494 
L 1919 4494 
z
" transform="scale(0.015625)"/>
      <path id="DejaVuSansMono-6c" d="M 1997 1269 
Q 1997 881 2139 684 
Q 2281 488 2559 488 
L 3231 488 
L 3231 0 
L 2503 0 
Q 1988 0 1705 331 
Q 1422 663 1422 1269 
L 1422 4447 
L 500 4447 
L 500 4897 
L 1997 4897 
L 1997 1269 
z
" transform="scale(0.015625)"/>
      <path id="DejaVuSansMono-6d" d="M 2113 3144 
Q 2219 3369 2383 3476 
Q 2547 3584 2778 3584 
Q 3200 3584 3373 3257 
Q 3547 2931 3547 2028 
L 3547 0 
L 3022 0 
L 3022 2003 
Q 3022 2744 2939 2923 
Q 2856 3103 2638 3103 
Q 2388 3103 2295 2911 
Q 2203 2719 2203 2003 
L 2203 0 
L 1678 0 
L 1678 2003 
Q 1678 2753 1589 2928 
Q 1500 3103 1269 3103 
Q 1041 3103 952 2911 
Q 863 2719 863 2003 
L 863 0 
L 341 0 
L 341 3500 
L 863 3500 
L 863 3200 
Q 966 3388 1120 3486 
Q 1275 3584 1472 3584 
Q 1709 3584 1867 3475 
Q 2025 3366 2113 3144 
z
" transform="scale(0.015625)"/>
     </defs>
     <use xlink:href="#DejaVuSansMono-72"/>
     <use xlink:href="#DejaVuSansMono-65" transform="translate(60.205078 0)"/>
     <use xlink:href="#DejaVuSansMono-63" transform="translate(120.410156 0)"/>
     <use xlink:href="#DejaVuSansMono-6f" transform="translate(180.615234 0)"/>
     <use xlink:href="#DejaVuSansMono-72" transform="translate(240.820312 0)"/>
     <use xlink:href="#DejaVuSansMono-64" transform="translate(301.025391 0)"/>
     <use xlink:href="#DejaVuSansMono-69" transform="translate(361.230469 0)"/>
     <use xlink:href="#DejaVuSansMono-6e" transform="translate(421.435547 0)"/>
     <use xlink:href="#DejaVuSansMono-67" transform="translate(481.640625 0)"/>
     <use xlink:href="#DejaVuSansMono-20" transform="translate(541.845703 0)"/>
     <use xlink:href="#DejaVuSansMono-63" transform="translate(602.050781 0)"/>
     <use xlink:href="#DejaVuSansMono-6f" transform="translate(662.255859 0)"/>
     <use xlink:href="#DejaVuSansMono-75" transform="translate(722.460938 0)"/>
     <use xlink:href="#DejaVuSansMono-6e" transform="translate(782.666016 0)"/>
     <use xlink:href="#DejaVuSansMono-74" transform="translate(842.871094 0)"/>
     <use xlink:href="#DejaVuSansMono-20" transform="translate(903.076172 0)"/>
     <use xlink:href="#DejaVuSansMono-69" transform="translate(963.28125 0)"/>
     <use xlink:href="#DejaVuSansMono-6e" transform="translate(1023.486328 0)"/>
     <use xlink:href="#DejaVuSansMono-20" transform="translate(1083.691406 0)"/>
     <use xlink:href="#DejaVuSansMono-6c" transform="translate(1143.896484 0)"/>
     <use xlink:href="#DejaVuSansMono-69" transform="translate(1204.101562 0)"/>
     <use xlink:href="#DejaVuSansMono-73" transform="translate(1264.306641 0)"/>
     <use xlink:href="#DejaVuSansMono-74" transform="translate(1324.511719 0)"/>
     <use xlink:href="#DejaVuSansMono-65" transform="translate(1384.716797 0)"/>
     <use xlink:href="#DejaVuSansMono-6e" transform="translate(1444.921875 0)"/>
     <use xlink:href="#DejaVuSansMono-2e" transform="translate(1505.126953 0)"/>
     <use xlink:href="#DejaVuSansMono-72" transform="translate(1565.332031 0)"/>
     <use xlink:href="#DejaVuSansMono-6f" transform="translate(1625.537109 0)"/>
     <use xlink:href="#DejaVuSansMono-6e" transform="translate(1685.742188 0)"/>
     <use xlink:href="#DejaVuSansMono-20" transform="translate(1745.947266 0)"/>
     <use xlink:href="#DejaVuSansMono-6f" transform="translate(1806.152344 0)"/>
     <use xlink:href="#DejaVuSansMono-76" transform="translate(1866.357422 0)"/>
     <use xlink:href="#DejaVuSansMono-65" transform="translate(1926.5625 0)"/>
     <use xlink:href="#DejaVuSansMono-72" transform="translate(1986.767578 0)"/>
     <use xlink:href="#DejaVuSansMono-20" transform="translate(2046.972656 0)"/>
     <use xlink:href="#DejaVuSansMono-74" transform="translate(2107.177734 0)"/>
     <use xlink:href="#DejaVuSansMono-69" transform="translate(2167.382812 0)"/>
     <use xlink:href="#DejaVuSansMono-6d" transform="translate(2227.587891 0)"/>
     <use xlink:href="#DejaVuSansMono-65" transform="translate(2287.792969 0)"/>
    </g>
   </g>
  </g>
 </g>
 <defs>
  <clipPath id="pe11c0c1eb0">
   <rect x="0" y="15.181875" width="357.12" height="235.008"/>
  </clipPath>
 </defs>
</svg>
