<?xml version="1.0" encoding="utf-8" standalone="no"?>
<!DOCTYPE svg PUBLIC "-//W3C//DTD SVG 1.1//EN"
  "http://www.w3.org/Graphics/SVG/1.1/DTD/svg11.dtd">
<svg xmlns:xlink="http://www.w3.org/1999/xlink" width="406.571071pt" height="306.640946pt" viewBox="0 0 406.571071 306.640946" xmlns="http://www.w3.org/2000/svg" version="1.1">
 <metadata>
  <rdf:RDF xmlns:dc="http://purl.org/dc/elements/1.1/" xmlns:cc="http://creativecommons.org/ns#" xmlns:rdf="http://www.w3.org/1999/02/22-rdf-syntax-ns#">
   <cc:Work>
    <dc:type rdf:resource="http://purl.org/dc/dcmitype/StillImage"/>
    <dc:date>2026-01-06T18:55:51.991769</dc:date>
    <dc:format>image/svg+xml</dc:format>
    <dc:creator>
     <cc:Agent>
      <dc:title>Matplotlib v3.10.8, https://matplotlib.org/</dc:title>
     </cc:Agent>
    </dc:creator>
   </cc:Work>
  </rdf:RDF>
 </metadata>
 <defs>
  <style type="text/css">*{stroke-linejoin: round; stroke-linecap: butt}</style>
 </defs>
 <g id="figure_1">
  <g id="patch_1">
   <path d="M 0 306.640946 
L 406.571071 306.640946 
L 406.571071 0 
L 0 0 
L 0 306.640946 
z
" style="fill: none"/>
  </g>
  <g id="axes_1">
   <g id="patch_2">
    <path d="M 0 250.189875 
L 357.12 250.189875 
L 357.12 15.181875 
L 0 15.181875 
L 0 250.189875 
z
" style="fill: none"/>
   </g>
   <g id="FillBetweenPolyCollection_1">
    <defs>
     <path id="m2ac45e684e" d="M 0 -56.451071 
L 0 -56.749304 
L 0.846256 -57.644005 
L 3.385024 -61.52104 
L 4.23128 -61.819274 
L 10.155071 -61.819274 
L 11.001327 -61.52104 
L 23.695166 -65.696309 
L 25.387678 -66.292776 
L 27.08019 -66.59101 
L 40.620284 -66.889243 
L 53.314123 -72.853913 
L 55.852891 -73.152147 
L 56.699147 -78.52035 
L 60.930427 -78.818583 
L 63.469194 -80.607985 
L 68.54673 -83.59032 
L 73.624265 -84.186787 
L 77.009289 -88.063822 
L 77.855545 -93.133792 
L 78.701801 -95.221426 
L 79.548057 -98.800228 
L 81.240569 -102.677264 
L 82.086825 -105.063132 
L 83.779336 -109.536634 
L 86.318104 -111.326035 
L 87.16436 -113.41367 
L 89.703128 -118.781873 
L 90.549384 -121.764208 
L 91.39564 -122.062441 
L 93.088152 -122.658908 
L 93.934408 -123.255375 
L 95.626919 -124.448309 
L 97.319431 -124.746543 
L 98.165687 -126.23771 
L 99.011943 -132.500614 
L 104.935735 -136.675883 
L 107.474502 -136.974116 
L 108.320758 -139.061751 
L 110.859526 -141.447619 
L 112.552038 -147.412289 
L 113.398294 -147.710523 
L 114.24455 -150.096391 
L 115.937062 -154.27166 
L 116.783318 -155.464594 
L 119.322085 -156.061061 
L 120.168341 -157.253995 
L 122.707109 -161.727497 
L 125.245877 -167.692167 
L 127.784645 -167.990401 
L 129.477156 -168.885101 
L 130.323412 -169.481568 
L 131.169668 -175.148005 
L 132.015924 -175.446238 
L 133.708436 -175.744472 
L 134.554692 -176.340939 
L 136.247204 -177.533873 
L 137.09346 -183.200309 
L 143.017251 -183.796776 
L 143.863507 -184.393243 
L 144.709763 -191.550847 
L 145.556019 -193.340248 
L 146.402275 -193.638482 
L 149.787299 -194.533182 
L 150.633555 -195.129649 
L 151.47981 -200.199619 
L 152.326066 -201.690787 
L 153.172322 -201.98902 
L 154.018578 -204.374888 
L 154.864834 -206.760756 
L 157.403602 -207.95369 
L 159.096114 -208.251924 
L 160.788626 -209.743091 
L 161.634882 -211.830726 
L 162.481137 -213.91836 
L 165.019905 -217.795396 
L 165.866161 -226.742401 
L 167.558673 -227.338868 
L 168.404929 -229.128269 
L 170.097441 -229.128269 
L 175.174976 -233.900005 
L 176.867488 -234.496472 
L 177.713744 -235.689406 
L 181.945024 -241.355842 
L 182.79128 -241.952309 
L 183.637536 -242.548776 
L 185.330047 -243.443477 
L 187.022559 -243.74171 
L 192.946351 -244.338177 
L 198.870142 -247.618746 
L 202.255166 -248.81168 
L 203.101422 -250.004614 
L 203.947678 -255.372817 
L 204.793934 -255.372817 
L 209.871469 -255.969284 
L 215.795261 -255.969284 
L 216.641517 -257.162218 
L 218.334028 -258.056919 
L 219.180284 -258.951619 
L 230.181611 -259.548086 
L 231.027867 -264.916289 
L 240.336682 -265.512756 
L 242.029194 -268.196858 
L 249.645498 -271.477426 
L 250.491754 -271.477426 
L 253.876777 -271.77566 
L 254.723033 -272.67036 
L 257.261801 -274.757995 
L 258.954313 -274.757995 
L 264.031848 -276.547396 
L 264.878104 -279.827964 
L 265.72436 -280.722665 
L 267.416872 -281.020898 
L 275.879431 -283.406766 
L 279.264455 -283.406766 
L 280.110711 -283.705 
L 280.956967 -284.003233 
L 282.649479 -284.5997 
L 283.495735 -285.196167 
L 286.880758 -285.196167 
L 288.57327 -285.494401 
L 291.112038 -285.792634 
L 291.958294 -286.389101 
L 292.80455 -286.687335 
L 296.189573 -286.985568 
L 300.420853 -287.283802 
L 315.65346 -287.582035 
L 325.808531 -288.476736 
L 330.886066 -289.073203 
L 337.656114 -290.266137 
L 344.426161 -290.56437 
L 349.503697 -290.862604 
L 357.12 -291.160837 
L 357.12 -56.451071 
L 357.12 -56.451071 
L 349.503697 -56.451071 
L 344.426161 -56.451071 
L 337.656114 -56.451071 
L 330.886066 -56.451071 
L 325.808531 -56.451071 
L 315.65346 -56.451071 
L 300.420853 -56.451071 
L 296.189573 -56.451071 
L 292.80455 -56.451071 
L 291.958294 -56.451071 
L 291.112038 -56.451071 
L 288.57327 -56.451071 
L 286.880758 -56.451071 
L 283.495735 -56.451071 
L 282.649479 -56.451071 
L 280.956967 -56.451071 
L 280.110711 -56.451071 
L 279.264455 -56.451071 
L 275.879431 -56.451071 
L 267.416872 -56.451071 
L 265.72436 -56.451071 
L 264.878104 -56.451071 
L 264.031848 -56.451071 
L 258.954313 -56.451071 
L 257.261801 -56.451071 
L 254.723033 -56.451071 
L 253.876777 -56.451071 
L 250.491754 -56.451071 
L 249.645498 -56.451071 
L 242.029194 -56.451071 
L 240.336682 -56.451071 
L 231.027867 -56.451071 
L 230.181611 -56.451071 
L 219.180284 -56.451071 
L 218.334028 -56.451071 
L 216.641517 -56.451071 
L 215.795261 -56.451071 
L 209.871469 -56.451071 
L 204.793934 -56.451071 
L 203.947678 -56.451071 
L 203.101422 -56.451071 
L 202.255166 -56.451071 
L 198.870142 -56.451071 
L 192.946351 -56.451071 
L 187.022559 -56.451071 
L 185.330047 -56.451071 
L 183.637536 -56.451071 
L 182.79128 -56.451071 
L 181.945024 -56.451071 
L 177.713744 -56.451071 
L 176.867488 -56.451071 
L 175.174976 -56.451071 
L 170.097441 -56.451071 
L 168.404929 -56.451071 
L 167.558673 -56.451071 
L 165.866161 -56.451071 
L 165.019905 -56.451071 
L 162.481137 -56.451071 
L 161.634882 -56.451071 
L 160.788626 -56.451071 
L 159.096114 -56.451071 
L 157.403602 -56.451071 
L 154.864834 -56.451071 
L 154.018578 -56.451071 
L 153.172322 -56.451071 
L 152.326066 -56.451071 
L 151.47981 -56.451071 
L 150.633555 -56.451071 
L 149.787299 -56.451071 
L 146.402275 -56.451071 
L 145.556019 -56.451071 
L 144.709763 -56.451071 
L 143.863507 -56.451071 
L 143.017251 -56.451071 
L 137.09346 -56.451071 
L 136.247204 -56.451071 
L 134.554692 -56.451071 
L 133.708436 -56.451071 
L 132.015924 -56.451071 
L 131.169668 -56.451071 
L 130.323412 -56.451071 
L 129.477156 -56.451071 
L 127.784645 -56.451071 
L 125.245877 -56.451071 
L 122.707109 -56.451071 
L 120.168341 -56.451071 
L 119.322085 -56.451071 
L 116.783318 -56.451071 
L 115.937062 -56.451071 
L 114.24455 -56.451071 
L 113.398294 -56.451071 
L 112.552038 -56.451071 
L 110.859526 -56.451071 
L 108.320758 -56.451071 
L 107.474502 -56.451071 
L 104.935735 -56.451071 
L 99.011943 -56.451071 
L 98.165687 -56.451071 
L 97.319431 -56.451071 
L 95.626919 -56.451071 
L 93.934408 -56.451071 
L 93.088152 -56.451071 
L 91.39564 -56.451071 
L 90.549384 -56.451071 
L 89.703128 -56.451071 
L 87.16436 -56.451071 
L 86.318104 -56.451071 
L 83.779336 -56.451071 
L 82.086825 -56.451071 
L 81.240569 -56.451071 
L 79.548057 -56.451071 
L 78.701801 -56.451071 
L 77.855545 -56.451071 
L 77.009289 -56.451071 
L 73.624265 -56.451071 
L 68.54673 -56.451071 
L 63.469194 -56.451071 
L 60.930427 -56.451071 
L 56.699147 -56.451071 
L 55.852891 -56.451071 
L 53.314123 -56.451071 
L 40.620284 -56.451071 
L 27.08019 -56.451071 
L 25.387678 -56.451071 
L 23.695166 -56.451071 
L 11.001327 -56.451071 
L 10.155071 -56.451071 
L 4.23128 -56.451071 
L 3.385024 -56.451071 
L 0.846256 -56.451071 
L 0 -56.451071 
z
" style="stroke: #d5397b; stroke-opacity: 0.4"/>
    </defs>
    <g clip-path="url(#p11d5fd7f5a)">
     <use xlink:href="#m2ac45e684e" x="0" y="306.640946" style="fill: #d5397b; fill-opacity: 0.4; stroke: #d5397b; stroke-opacity: 0.4"/>
    </g>
   </g>
   <g id="matplotlib.axis_1">
    <g id="xtick_1">
     <g id="line2d_1">
      <defs>
       <path id="m3ee1201ba5" d="M 0 0 
L 0 3.5 
" style="stroke: #cccccc; stroke-width: 0.8"/>
      </defs>
      <g>
       <use xlink:href="#m3ee1201ba5" x="0" y="250.189875" style="fill: #cccccc; stroke: #cccccc; stroke-width: 0.8"/>
      </g>
     </g>
     <g id="text_1">
      <!-- 2024-11-10 -->
      <g style="fill: #cccccc" transform="translate(1.470561 262.600347) rotate(-315) scale(0.1 -0.1)">
       <defs>
        <path id="DejaVuSansMono-32" d="M 1166 531 
L 3309 531 
L 3309 0 
L 475 0 
L 475 531 
Q 1059 1147 1496 1619 
Q 1934 2091 2100 2284 
Q 2413 2666 2522 2902 
Q 2631 3138 2631 3384 
Q 2631 3775 2401 3997 
Q 2172 4219 1772 4219 
Q 1488 4219 1175 4116 
Q 863 4013 513 3803 
L 513 4441 
Q 834 4594 1145 4672 
Q 1456 4750 1759 4750 
Q 2444 4750 2861 4386 
Q 3278 4022 3278 3431 
Q 3278 3131 3139 2831 
Q 3000 2531 2688 2169 
Q 2513 1966 2180 1606 
Q 1847 1247 1166 531 
z
" transform="scale(0.015625)"/>
        <path id="DejaVuSansMono-30" d="M 1509 2344 
Q 1509 2516 1629 2641 
Q 1750 2766 1919 2766 
Q 2094 2766 2219 2641 
Q 2344 2516 2344 2344 
Q 2344 2169 2220 2047 
Q 2097 1925 1919 1925 
Q 1744 1925 1626 2044 
Q 1509 2163 1509 2344 
z
M 1925 4250 
Q 1484 4250 1267 3775 
Q 1050 3300 1050 2328 
Q 1050 1359 1267 884 
Q 1484 409 1925 409 
Q 2369 409 2586 884 
Q 2803 1359 2803 2328 
Q 2803 3300 2586 3775 
Q 2369 4250 1925 4250 
z
M 1925 4750 
Q 2672 4750 3055 4137 
Q 3438 3525 3438 2328 
Q 3438 1134 3055 521 
Q 2672 -91 1925 -91 
Q 1178 -91 797 521 
Q 416 1134 416 2328 
Q 416 3525 797 4137 
Q 1178 4750 1925 4750 
z
" transform="scale(0.015625)"/>
        <path id="DejaVuSansMono-34" d="M 2297 4091 
L 825 1625 
L 2297 1625 
L 2297 4091 
z
M 2194 4666 
L 2925 4666 
L 2925 1625 
L 3547 1625 
L 3547 1113 
L 2925 1113 
L 2925 0 
L 2297 0 
L 2297 1113 
L 319 1113 
L 319 1709 
L 2194 4666 
z
" transform="scale(0.015625)"/>
        <path id="DejaVuSansMono-2d" d="M 1113 2009 
L 2741 2009 
L 2741 1497 
L 1113 1497 
L 1113 2009 
z
" transform="scale(0.015625)"/>
        <path id="DejaVuSansMono-31" d="M 844 531 
L 1825 531 
L 1825 4097 
L 769 3859 
L 769 4434 
L 1819 4666 
L 2450 4666 
L 2450 531 
L 3419 531 
L 3419 0 
L 844 0 
L 844 531 
z
" transform="scale(0.015625)"/>
       </defs>
       <use xlink:href="#DejaVuSansMono-32"/>
       <use xlink:href="#DejaVuSansMono-30" transform="translate(60.205078 0)"/>
       <use xlink:href="#DejaVuSansMono-32" transform="translate(120.410156 0)"/>
       <use xlink:href="#DejaVuSansMono-34" transform="translate(180.615234 0)"/>
       <use xlink:href="#DejaVuSansMono-2d" transform="translate(240.820312 0)"/>
       <use xlink:href="#DejaVuSansMono-31" transform="translate(301.025391 0)"/>
       <use xlink:href="#DejaVuSansMono-31" transform="translate(361.230469 0)"/>
       <use xlink:href="#DejaVuSansMono-2d" transform="translate(421.435547 0)"/>
       <use xlink:href="#DejaVuSansMono-31" transform="translate(481.640625 0)"/>
       <use xlink:href="#DejaVuSansMono-30" transform="translate(541.845703 0)"/>
      </g>
     </g>
    </g>
    <g id="xtick_2">
     <g id="line2d_2">
      <g>
       <use xlink:href="#m3ee1201ba5" x="44.005308" y="250.189875" style="fill: #cccccc; stroke: #cccccc; stroke-width: 0.8"/>
      </g>
     </g>
     <g id="text_2">
      <!-- 2025-01-01 -->
      <g style="fill: #cccccc" transform="translate(45.475869 262.600347) rotate(-315) scale(0.1 -0.1)">
       <defs>
        <path id="DejaVuSansMono-35" d="M 647 4666 
L 3009 4666 
L 3009 4134 
L 1222 4134 
L 1222 2988 
Q 1356 3038 1492 3061 
Q 1628 3084 1766 3084 
Q 2491 3084 2916 2656 
Q 3341 2228 3341 1497 
Q 3341 759 2895 334 
Q 2450 -91 1678 -91 
Q 1306 -91 998 -41 
Q 691 9 447 109 
L 447 750 
Q 734 594 1025 517 
Q 1316 441 1619 441 
Q 2141 441 2423 716 
Q 2706 991 2706 1497 
Q 2706 1997 2414 2275 
Q 2122 2553 1600 2553 
Q 1347 2553 1106 2495 
Q 866 2438 647 2322 
L 647 4666 
z
" transform="scale(0.015625)"/>
       </defs>
       <use xlink:href="#DejaVuSansMono-32"/>
       <use xlink:href="#DejaVuSansMono-30" transform="translate(60.205078 0)"/>
       <use xlink:href="#DejaVuSansMono-32" transform="translate(120.410156 0)"/>
       <use xlink:href="#DejaVuSansMono-35" transform="translate(180.615234 0)"/>
       <use xlink:href="#DejaVuSansMono-2d" transform="translate(240.820312 0)"/>
       <use xlink:href="#DejaVuSansMono-30" transform="translate(301.025391 0)"/>
       <use xlink:href="#DejaVuSansMono-31" transform="translate(361.230469 0)"/>
       <use xlink:href="#DejaVuSansMono-2d" transform="translate(421.435547 0)"/>
       <use xlink:href="#DejaVuSansMono-30" transform="translate(481.640625 0)"/>
       <use xlink:href="#DejaVuSansMono-31" transform="translate(541.845703 0)"/>
      </g>
     </g>
    </g>
    <g id="xtick_3">
     <g id="line2d_3">
      <g>
       <use xlink:href="#m3ee1201ba5" x="93.934408" y="250.189875" style="fill: #cccccc; stroke: #cccccc; stroke-width: 0.8"/>
      </g>
     </g>
     <g id="text_3">
      <!-- 2025-03-01 -->
      <g style="fill: #cccccc" transform="translate(95.404969 262.600347) rotate(-315) scale(0.1 -0.1)">
       <defs>
        <path id="DejaVuSansMono-33" d="M 2425 2497 
Q 2884 2375 3128 2064 
Q 3372 1753 3372 1288 
Q 3372 644 2939 276 
Q 2506 -91 1741 -91 
Q 1419 -91 1084 -31 
Q 750 28 428 141 
L 428 769 
Q 747 603 1056 522 
Q 1366 441 1672 441 
Q 2191 441 2469 675 
Q 2747 909 2747 1350 
Q 2747 1756 2469 1995 
Q 2191 2234 1716 2234 
L 1234 2234 
L 1234 2753 
L 1716 2753 
Q 2150 2753 2394 2943 
Q 2638 3134 2638 3475 
Q 2638 3834 2411 4026 
Q 2184 4219 1766 4219 
Q 1488 4219 1191 4156 
Q 894 4094 569 3969 
L 569 4550 
Q 947 4650 1242 4700 
Q 1538 4750 1766 4750 
Q 2447 4750 2855 4408 
Q 3263 4066 3263 3500 
Q 3263 3116 3048 2859 
Q 2834 2603 2425 2497 
z
" transform="scale(0.015625)"/>
       </defs>
       <use xlink:href="#DejaVuSansMono-32"/>
       <use xlink:href="#DejaVuSansMono-30" transform="translate(60.205078 0)"/>
       <use xlink:href="#DejaVuSansMono-32" transform="translate(120.410156 0)"/>
       <use xlink:href="#DejaVuSansMono-35" transform="translate(180.615234 0)"/>
       <use xlink:href="#DejaVuSansMono-2d" transform="translate(240.820312 0)"/>
       <use xlink:href="#DejaVuSansMono-30" transform="translate(301.025391 0)"/>
       <use xlink:href="#DejaVuSansMono-33" transform="translate(361.230469 0)"/>
       <use xlink:href="#DejaVuSansMono-2d" transform="translate(421.435547 0)"/>
       <use xlink:href="#DejaVuSansMono-30" transform="translate(481.640625 0)"/>
       <use xlink:href="#DejaVuSansMono-31" transform="translate(541.845703 0)"/>
      </g>
     </g>
    </g>
    <g id="xtick_4">
     <g id="line2d_4">
      <g>
       <use xlink:href="#m3ee1201ba5" x="145.556019" y="250.189875" style="fill: #cccccc; stroke: #cccccc; stroke-width: 0.8"/>
      </g>
     </g>
     <g id="text_4">
      <!-- 2025-05-01 -->
      <g style="fill: #cccccc" transform="translate(147.02658 262.600347) rotate(-315) scale(0.1 -0.1)">
       <use xlink:href="#DejaVuSansMono-32"/>
       <use xlink:href="#DejaVuSansMono-30" transform="translate(60.205078 0)"/>
       <use xlink:href="#DejaVuSansMono-32" transform="translate(120.410156 0)"/>
       <use xlink:href="#DejaVuSansMono-35" transform="translate(180.615234 0)"/>
       <use xlink:href="#DejaVuSansMono-2d" transform="translate(240.820312 0)"/>
       <use xlink:href="#DejaVuSansMono-30" transform="translate(301.025391 0)"/>
       <use xlink:href="#DejaVuSansMono-35" transform="translate(361.230469 0)"/>
       <use xlink:href="#DejaVuSansMono-2d" transform="translate(421.435547 0)"/>
       <use xlink:href="#DejaVuSansMono-30" transform="translate(481.640625 0)"/>
       <use xlink:href="#DejaVuSansMono-31" transform="translate(541.845703 0)"/>
      </g>
     </g>
    </g>
    <g id="xtick_5">
     <g id="line2d_5">
      <g>
       <use xlink:href="#m3ee1201ba5" x="197.17763" y="250.189875" style="fill: #cccccc; stroke: #cccccc; stroke-width: 0.8"/>
      </g>
     </g>
     <g id="text_5">
      <!-- 2025-07-01 -->
      <g style="fill: #cccccc" transform="translate(198.648191 262.600347) rotate(-315) scale(0.1 -0.1)">
       <defs>
        <path id="DejaVuSansMono-37" d="M 434 4666 
L 3372 4666 
L 3372 4397 
L 1703 0 
L 1044 0 
L 2669 4134 
L 434 4134 
L 434 4666 
z
" transform="scale(0.015625)"/>
       </defs>
       <use xlink:href="#DejaVuSansMono-32"/>
       <use xlink:href="#DejaVuSansMono-30" transform="translate(60.205078 0)"/>
       <use xlink:href="#DejaVuSansMono-32" transform="translate(120.410156 0)"/>
       <use xlink:href="#DejaVuSansMono-35" transform="translate(180.615234 0)"/>
       <use xlink:href="#DejaVuSansMono-2d" transform="translate(240.820312 0)"/>
       <use xlink:href="#DejaVuSansMono-30" transform="translate(301.025391 0)"/>
       <use xlink:href="#DejaVuSansMono-37" transform="translate(361.230469 0)"/>
       <use xlink:href="#DejaVuSansMono-2d" transform="translate(421.435547 0)"/>
       <use xlink:href="#DejaVuSansMono-30" transform="translate(481.640625 0)"/>
       <use xlink:href="#DejaVuSansMono-31" transform="translate(541.845703 0)"/>
      </g>
     </g>
    </g>
    <g id="xtick_6">
     <g id="line2d_6">
      <g>
       <use xlink:href="#m3ee1201ba5" x="249.645498" y="250.189875" style="fill: #cccccc; stroke: #cccccc; stroke-width: 0.8"/>
      </g>
     </g>
     <g id="text_6">
      <!-- 2025-09-01 -->
      <g style="fill: #cccccc" transform="translate(251.116059 262.600347) rotate(-315) scale(0.1 -0.1)">
       <defs>
        <path id="DejaVuSansMono-39" d="M 1863 2069 
Q 2266 2069 2495 2359 
Q 2725 2650 2725 3163 
Q 2725 3675 2495 3965 
Q 2266 4256 1863 4256 
Q 1444 4256 1231 3979 
Q 1019 3703 1019 3163 
Q 1019 2619 1230 2344 
Q 1441 2069 1863 2069 
z
M 738 97 
L 738 678 
Q 934 563 1156 502 
Q 1378 441 1619 441 
Q 2219 441 2526 892 
Q 2834 1344 2834 2222 
Q 2688 1909 2422 1742 
Q 2156 1575 1813 1575 
Q 1138 1575 767 1990 
Q 397 2406 397 3169 
Q 397 3922 776 4336 
Q 1156 4750 1850 4750 
Q 2663 4750 3041 4165 
Q 3419 3581 3419 2328 
Q 3419 1150 2964 529 
Q 2509 -91 1644 -91 
Q 1416 -91 1184 -42 
Q 953 6 738 97 
z
" transform="scale(0.015625)"/>
       </defs>
       <use xlink:href="#DejaVuSansMono-32"/>
       <use xlink:href="#DejaVuSansMono-30" transform="translate(60.205078 0)"/>
       <use xlink:href="#DejaVuSansMono-32" transform="translate(120.410156 0)"/>
       <use xlink:href="#DejaVuSansMono-35" transform="translate(180.615234 0)"/>
       <use xlink:href="#DejaVuSansMono-2d" transform="translate(240.820312 0)"/>
       <use xlink:href="#DejaVuSansMono-30" transform="translate(301.025391 0)"/>
       <use xlink:href="#DejaVuSansMono-39" transform="translate(361.230469 0)"/>
       <use xlink:href="#DejaVuSansMono-2d" transform="translate(421.435547 0)"/>
       <use xlink:href="#DejaVuSansMono-30" transform="translate(481.640625 0)"/>
       <use xlink:href="#DejaVuSansMono-31" transform="translate(541.845703 0)"/>
      </g>
     </g>
    </g>
    <g id="xtick_7">
     <g id="line2d_7">
      <g>
       <use xlink:href="#m3ee1201ba5" x="301.267109" y="250.189875" style="fill: #cccccc; stroke: #cccccc; stroke-width: 0.8"/>
      </g>
     </g>
     <g id="text_7">
      <!-- 2025-11-01 -->
      <g style="fill: #cccccc" transform="translate(302.73767 262.600347) rotate(-315) scale(0.1 -0.1)">
       <use xlink:href="#DejaVuSansMono-32"/>
       <use xlink:href="#DejaVuSansMono-30" transform="translate(60.205078 0)"/>
       <use xlink:href="#DejaVuSansMono-32" transform="translate(120.410156 0)"/>
       <use xlink:href="#DejaVuSansMono-35" transform="translate(180.615234 0)"/>
       <use xlink:href="#DejaVuSansMono-2d" transform="translate(240.820312 0)"/>
       <use xlink:href="#DejaVuSansMono-31" transform="translate(301.025391 0)"/>
       <use xlink:href="#DejaVuSansMono-31" transform="translate(361.230469 0)"/>
       <use xlink:href="#DejaVuSansMono-2d" transform="translate(421.435547 0)"/>
       <use xlink:href="#DejaVuSansMono-30" transform="translate(481.640625 0)"/>
       <use xlink:href="#DejaVuSansMono-31" transform="translate(541.845703 0)"/>
      </g>
     </g>
    </g>
    <g id="xtick_8">
     <g id="line2d_8">
      <g>
       <use xlink:href="#m3ee1201ba5" x="357.12" y="250.189875" style="fill: #cccccc; stroke: #cccccc; stroke-width: 0.8"/>
      </g>
     </g>
     <g id="text_8">
      <!-- 2026-01-06 -->
      <g style="fill: #cccccc" transform="translate(358.590561 262.600347) rotate(-315) scale(0.1 -0.1)">
       <defs>
        <path id="DejaVuSansMono-36" d="M 3097 4563 
L 3097 3981 
Q 2900 4097 2678 4158 
Q 2456 4219 2216 4219 
Q 1616 4219 1306 3767 
Q 997 3316 997 2438 
Q 1147 2750 1412 2917 
Q 1678 3084 2022 3084 
Q 2697 3084 3067 2670 
Q 3438 2256 3438 1497 
Q 3438 741 3056 325 
Q 2675 -91 1984 -91 
Q 1172 -91 794 492 
Q 416 1075 416 2328 
Q 416 3509 870 4129 
Q 1325 4750 2188 4750 
Q 2419 4750 2650 4701 
Q 2881 4653 3097 4563 
z
M 1972 2591 
Q 1569 2591 1337 2300 
Q 1106 2009 1106 1497 
Q 1106 984 1337 693 
Q 1569 403 1972 403 
Q 2391 403 2603 679 
Q 2816 956 2816 1497 
Q 2816 2041 2603 2316 
Q 2391 2591 1972 2591 
z
" transform="scale(0.015625)"/>
       </defs>
       <use xlink:href="#DejaVuSansMono-32"/>
       <use xlink:href="#DejaVuSansMono-30" transform="translate(60.205078 0)"/>
       <use xlink:href="#DejaVuSansMono-32" transform="translate(120.410156 0)"/>
       <use xlink:href="#DejaVuSansMono-36" transform="translate(180.615234 0)"/>
       <use xlink:href="#DejaVuSansMono-2d" transform="translate(240.820312 0)"/>
       <use xlink:href="#DejaVuSansMono-30" transform="translate(301.025391 0)"/>
       <use xlink:href="#DejaVuSansMono-31" transform="translate(361.230469 0)"/>
       <use xlink:href="#DejaVuSansMono-2d" transform="translate(421.435547 0)"/>
       <use xlink:href="#DejaVuSansMono-30" transform="translate(481.640625 0)"/>
       <use xlink:href="#DejaVuSansMono-36" transform="translate(541.845703 0)"/>
      </g>
     </g>
    </g>
   </g>
   <g id="matplotlib.axis_2">
    <g id="ytick_1">
     <g id="line2d_9">
      <defs>
       <path id="ma8eb235368" d="M 0 0 
L 3.5 0 
" style="stroke: #cccccc; stroke-width: 0.8"/>
      </defs>
      <g>
       <use xlink:href="#ma8eb235368" x="357.12" y="250.189875" style="fill: #cccccc; stroke: #cccccc; stroke-width: 0.8"/>
      </g>
     </g>
     <g id="text_9">
      <!-- 0 -->
      <g style="fill: #cccccc" transform="translate(364.12 254.015656) scale(0.1 -0.1)">
       <use xlink:href="#DejaVuSansMono-30"/>
      </g>
     </g>
    </g>
    <g id="ytick_2">
     <g id="line2d_10">
      <g>
       <use xlink:href="#ma8eb235368" x="357.12" y="220.366525" style="fill: #cccccc; stroke: #cccccc; stroke-width: 0.8"/>
      </g>
     </g>
     <g id="text_10">
      <!-- 100 -->
      <g style="fill: #cccccc" transform="translate(364.12 224.192306) scale(0.1 -0.1)">
       <use xlink:href="#DejaVuSansMono-31"/>
       <use xlink:href="#DejaVuSansMono-30" transform="translate(60.205078 0)"/>
       <use xlink:href="#DejaVuSansMono-30" transform="translate(120.410156 0)"/>
      </g>
     </g>
    </g>
    <g id="ytick_3">
     <g id="line2d_11">
      <g>
       <use xlink:href="#ma8eb235368" x="357.12" y="190.543174" style="fill: #cccccc; stroke: #cccccc; stroke-width: 0.8"/>
      </g>
     </g>
     <g id="text_11">
      <!-- 200 -->
      <g style="fill: #cccccc" transform="translate(364.12 194.368956) scale(0.1 -0.1)">
       <use xlink:href="#DejaVuSansMono-32"/>
       <use xlink:href="#DejaVuSansMono-30" transform="translate(60.205078 0)"/>
       <use xlink:href="#DejaVuSansMono-30" transform="translate(120.410156 0)"/>
      </g>
     </g>
    </g>
    <g id="ytick_4">
     <g id="line2d_12">
      <g>
       <use xlink:href="#ma8eb235368" x="357.12" y="160.719824" style="fill: #cccccc; stroke: #cccccc; stroke-width: 0.8"/>
      </g>
     </g>
     <g id="text_12">
      <!-- 300 -->
      <g style="fill: #cccccc" transform="translate(364.12 164.545605) scale(0.1 -0.1)">
       <use xlink:href="#DejaVuSansMono-33"/>
       <use xlink:href="#DejaVuSansMono-30" transform="translate(60.205078 0)"/>
       <use xlink:href="#DejaVuSansMono-30" transform="translate(120.410156 0)"/>
      </g>
     </g>
    </g>
    <g id="ytick_5">
     <g id="line2d_13">
      <g>
       <use xlink:href="#ma8eb235368" x="357.12" y="130.896474" style="fill: #cccccc; stroke: #cccccc; stroke-width: 0.8"/>
      </g>
     </g>
     <g id="text_13">
      <!-- 400 -->
      <g style="fill: #cccccc" transform="translate(364.12 134.722255) scale(0.1 -0.1)">
       <use xlink:href="#DejaVuSansMono-34"/>
       <use xlink:href="#DejaVuSansMono-30" transform="translate(60.205078 0)"/>
       <use xlink:href="#DejaVuSansMono-30" transform="translate(120.410156 0)"/>
      </g>
     </g>
    </g>
    <g id="ytick_6">
     <g id="line2d_14">
      <g>
       <use xlink:href="#ma8eb235368" x="357.12" y="101.073124" style="fill: #cccccc; stroke: #cccccc; stroke-width: 0.8"/>
      </g>
     </g>
     <g id="text_14">
      <!-- 500 -->
      <g style="fill: #cccccc" transform="translate(364.12 104.898905) scale(0.1 -0.1)">
       <use xlink:href="#DejaVuSansMono-35"/>
       <use xlink:href="#DejaVuSansMono-30" transform="translate(60.205078 0)"/>
       <use xlink:href="#DejaVuSansMono-30" transform="translate(120.410156 0)"/>
      </g>
     </g>
    </g>
    <g id="ytick_7">
     <g id="line2d_15">
      <g>
       <use xlink:href="#ma8eb235368" x="357.12" y="71.249773" style="fill: #cccccc; stroke: #cccccc; stroke-width: 0.8"/>
      </g>
     </g>
     <g id="text_15">
      <!-- 600 -->
      <g style="fill: #cccccc" transform="translate(364.12 75.075555) scale(0.1 -0.1)">
       <use xlink:href="#DejaVuSansMono-36"/>
       <use xlink:href="#DejaVuSansMono-30" transform="translate(60.205078 0)"/>
       <use xlink:href="#DejaVuSansMono-30" transform="translate(120.410156 0)"/>
      </g>
     </g>
    </g>
    <g id="ytick_8">
     <g id="line2d_16">
      <g>
       <use xlink:href="#ma8eb235368" x="357.12" y="41.426423" style="fill: #cccccc; stroke: #cccccc; stroke-width: 0.8"/>
      </g>
     </g>
     <g id="text_16">
      <!-- 700 -->
      <g style="fill: #cccccc" transform="translate(364.12 45.252204) scale(0.1 -0.1)">
       <use xlink:href="#DejaVuSansMono-37"/>
       <use xlink:href="#DejaVuSansMono-30" transform="translate(60.205078 0)"/>
       <use xlink:href="#DejaVuSansMono-30" transform="translate(120.410156 0)"/>
      </g>
     </g>
    </g>
    <g id="ytick_9">
     <g id="line2d_17">
      <g>
       <use xlink:href="#ma8eb235368" x="357.12" y="15.480109" style="fill: #cccccc; stroke: #cccccc; stroke-width: 0.8"/>
      </g>
     </g>
     <g id="text_17">
      <!-- 787 -->
      <g style="fill: #cccccc" transform="translate(364.12 19.30589) scale(0.1 -0.1)">
       <defs>
        <path id="DejaVuSansMono-38" d="M 1925 2216 
Q 1503 2216 1273 1980 
Q 1044 1744 1044 1313 
Q 1044 881 1276 642 
Q 1509 403 1925 403 
Q 2350 403 2579 639 
Q 2809 875 2809 1313 
Q 2809 1741 2576 1978 
Q 2344 2216 1925 2216 
z
M 1375 2478 
Q 972 2581 745 2862 
Q 519 3144 519 3541 
Q 519 4097 897 4423 
Q 1275 4750 1925 4750 
Q 2578 4750 2956 4423 
Q 3334 4097 3334 3541 
Q 3334 3144 3107 2862 
Q 2881 2581 2478 2478 
Q 2947 2375 3195 2062 
Q 3444 1750 3444 1253 
Q 3444 622 3041 265 
Q 2638 -91 1925 -91 
Q 1213 -91 811 264 
Q 409 619 409 1247 
Q 409 1747 657 2061 
Q 906 2375 1375 2478 
z
M 1147 3481 
Q 1147 3106 1347 2909 
Q 1547 2713 1925 2713 
Q 2306 2713 2506 2909 
Q 2706 3106 2706 3481 
Q 2706 3863 2507 4063 
Q 2309 4263 1925 4263 
Q 1547 4263 1347 4061 
Q 1147 3859 1147 3481 
z
" transform="scale(0.015625)"/>
       </defs>
       <use xlink:href="#DejaVuSansMono-37"/>
       <use xlink:href="#DejaVuSansMono-38" transform="translate(60.205078 0)"/>
       <use xlink:href="#DejaVuSansMono-37" transform="translate(120.410156 0)"/>
      </g>
     </g>
    </g>
    <g id="text_18">
     <!-- recording -->
     <g style="fill: #cccccc" transform="translate(393.779375 159.777281) rotate(-90) scale(0.1 -0.1)">
      <defs>
       <path id="DejaVuSansMono-72" d="M 3609 2778 
Q 3425 2922 3234 2987 
Q 3044 3053 2816 3053 
Q 2278 3053 1993 2715 
Q 1709 2378 1709 1741 
L 1709 0 
L 1131 0 
L 1131 3500 
L 1709 3500 
L 1709 2816 
Q 1853 3188 2151 3386 
Q 2450 3584 2859 3584 
Q 3072 3584 3256 3531 
Q 3441 3478 3609 3366 
L 3609 2778 
z
" transform="scale(0.015625)"/>
       <path id="DejaVuSansMono-65" d="M 3475 1894 
L 3475 1613 
L 984 1613 
L 984 1594 
Q 984 1022 1282 709 
Q 1581 397 2125 397 
Q 2400 397 2700 484 
Q 3000 572 3341 750 
L 3341 178 
Q 3013 44 2708 -23 
Q 2403 -91 2119 -91 
Q 1303 -91 843 398 
Q 384 888 384 1747 
Q 384 2584 834 3084 
Q 1284 3584 2034 3584 
Q 2703 3584 3089 3131 
Q 3475 2678 3475 1894 
z
M 2900 2063 
Q 2888 2569 2661 2833 
Q 2434 3097 2009 3097 
Q 1594 3097 1325 2822 
Q 1056 2547 1006 2059 
L 2900 2063 
z
" transform="scale(0.015625)"/>
       <path id="DejaVuSansMono-63" d="M 3316 178 
Q 3084 44 2839 -23 
Q 2594 -91 2338 -91 
Q 1525 -91 1067 396 
Q 609 884 609 1747 
Q 609 2609 1067 3096 
Q 1525 3584 2338 3584 
Q 2591 3584 2831 3518 
Q 3072 3453 3316 3316 
L 3316 2713 
Q 3088 2916 2858 3006 
Q 2628 3097 2338 3097 
Q 1797 3097 1506 2747 
Q 1216 2397 1216 1747 
Q 1216 1100 1508 748 
Q 1800 397 2338 397 
Q 2638 397 2875 489 
Q 3113 581 3316 775 
L 3316 178 
z
" transform="scale(0.015625)"/>
       <path id="DejaVuSansMono-6f" d="M 1925 3097 
Q 1488 3097 1263 2756 
Q 1038 2416 1038 1747 
Q 1038 1081 1263 739 
Q 1488 397 1925 397 
Q 2366 397 2591 739 
Q 2816 1081 2816 1747 
Q 2816 2416 2591 2756 
Q 2366 3097 1925 3097 
z
M 1925 3584 
Q 2653 3584 3039 3112 
Q 3425 2641 3425 1747 
Q 3425 850 3040 379 
Q 2656 -91 1925 -91 
Q 1197 -91 812 379 
Q 428 850 428 1747 
Q 428 2641 812 3112 
Q 1197 3584 1925 3584 
z
" transform="scale(0.015625)"/>
       <path id="DejaVuSansMono-64" d="M 2681 3053 
L 2681 4863 
L 3256 4863 
L 3256 0 
L 2681 0 
L 2681 441 
Q 2538 181 2298 45 
Q 2059 -91 1747 -91 
Q 1113 -91 748 401 
Q 384 894 384 1759 
Q 384 2613 750 3098 
Q 1116 3584 1747 3584 
Q 2063 3584 2303 3448 
Q 2544 3313 2681 3053 
z
M 991 1747 
Q 991 1078 1203 737 
Q 1416 397 1831 397 
Q 2247 397 2464 740 
Q 2681 1084 2681 1747 
Q 2681 2413 2464 2755 
Q 2247 3097 1831 3097 
Q 1416 3097 1203 2756 
Q 991 2416 991 1747 
z
" transform="scale(0.015625)"/>
       <path id="DejaVuSansMono-69" d="M 800 3500 
L 2272 3500 
L 2272 447 
L 3413 447 
L 3413 0 
L 556 0 
L 556 447 
L 1697 447 
L 1697 3053 
L 800 3053 
L 800 3500 
z
M 1697 4863 
L 2272 4863 
L 2272 4134 
L 1697 4134 
L 1697 4863 
z
" transform="scale(0.015625)"/>
       <path id="DejaVuSansMono-6e" d="M 3284 2169 
L 3284 0 
L 2706 0 
L 2706 2169 
Q 2706 2641 2540 2862 
Q 2375 3084 2022 3084 
Q 1619 3084 1401 2798 
Q 1184 2513 1184 1978 
L 1184 0 
L 609 0 
L 609 3500 
L 1184 3500 
L 1184 2975 
Q 1338 3275 1600 3429 
Q 1863 3584 2222 3584 
Q 2756 3584 3020 3232 
Q 3284 2881 3284 2169 
z
" transform="scale(0.015625)"/>
       <path id="DejaVuSansMono-67" d="M 2681 1778 
Q 2681 2425 2470 2761 
Q 2259 3097 1856 3097 
Q 1434 3097 1212 2761 
Q 991 2425 991 1778 
Q 991 1131 1214 792 
Q 1438 453 1863 453 
Q 2259 453 2470 793 
Q 2681 1134 2681 1778 
z
M 3256 225 
Q 3256 -563 2884 -969 
Q 2513 -1375 1791 -1375 
Q 1553 -1375 1293 -1331 
Q 1034 -1288 775 -1203 
L 775 -634 
Q 1081 -778 1331 -847 
Q 1581 -916 1791 -916 
Q 2256 -916 2468 -662 
Q 2681 -409 2681 141 
L 2681 166 
L 2681 556 
Q 2544 263 2306 119 
Q 2069 -25 1728 -25 
Q 1116 -25 750 465 
Q 384 956 384 1778 
Q 384 2603 750 3093 
Q 1116 3584 1728 3584 
Q 2066 3584 2300 3450 
Q 2534 3316 2681 3034 
L 2681 3488 
L 3256 3488 
L 3256 225 
z
" transform="scale(0.015625)"/>
      </defs>
      <use xlink:href="#DejaVuSansMono-72"/>
      <use xlink:href="#DejaVuSansMono-65" transform="translate(60.205078 0)"/>
      <use xlink:href="#DejaVuSansMono-63" transform="translate(120.410156 0)"/>
      <use xlink:href="#DejaVuSansMono-6f" transform="translate(180.615234 0)"/>
      <use xlink:href="#DejaVuSansMono-72" transform="translate(240.820312 0)"/>
      <use xlink:href="#DejaVuSansMono-64" transform="translate(301.025391 0)"/>
      <use xlink:href="#DejaVuSansMono-69" transform="translate(361.230469 0)"/>
      <use xlink:href="#DejaVuSansMono-6e" transform="translate(421.435547 0)"/>
      <use xlink:href="#DejaVuSansMono-67" transform="translate(481.640625 0)"/>
     </g>
    </g>
   </g>
   <g id="line2d_18">
    <path d="M 0 249.891641 
L 0.846256 248.996941 
L 3.385024 245.119905 
L 4.23128 244.821672 
L 10.155071 244.821672 
L 11.001327 245.119905 
L 25.387678 240.348169 
L 27.08019 240.049936 
L 40.620284 239.751702 
L 53.314123 233.787032 
L 55.852891 233.488799 
L 56.699147 228.120596 
L 60.930427 227.822362 
L 63.469194 226.032961 
L 68.54673 223.050626 
L 73.624265 222.454159 
L 77.009289 218.577124 
L 77.855545 213.507154 
L 78.701801 211.41952 
L 79.548057 207.840718 
L 81.240569 203.963682 
L 83.779336 197.104312 
L 86.318104 195.314911 
L 87.16436 193.227276 
L 89.703128 187.859073 
L 90.549384 184.876738 
L 93.088152 183.982037 
L 95.626919 182.192636 
L 97.319431 181.894403 
L 98.165687 180.403235 
L 99.011943 174.140332 
L 104.935735 169.965063 
L 107.474502 169.666829 
L 108.320758 167.579195 
L 110.859526 165.193327 
L 112.552038 159.228657 
L 113.398294 158.930423 
L 114.24455 156.544555 
L 115.937062 152.369286 
L 116.783318 151.176352 
L 119.322085 150.579885 
L 120.168341 149.386951 
L 122.707109 144.913449 
L 125.245877 138.948779 
L 127.784645 138.650545 
L 129.477156 137.755845 
L 130.323412 137.159378 
L 131.169668 131.492941 
L 132.015924 131.194707 
L 133.708436 130.896474 
L 136.247204 129.107073 
L 137.09346 123.440636 
L 143.017251 122.844169 
L 143.863507 122.247702 
L 144.709763 115.090098 
L 145.556019 113.300697 
L 146.402275 113.002464 
L 149.787299 112.107763 
L 150.633555 111.511296 
L 151.47981 106.441327 
L 152.326066 104.950159 
L 153.172322 104.651926 
L 154.864834 99.88019 
L 157.403602 98.687256 
L 159.096114 98.389022 
L 160.788626 96.897855 
L 162.481137 92.722586 
L 165.019905 88.84555 
L 165.866161 79.898545 
L 167.558673 79.302078 
L 168.404929 77.512677 
L 170.097441 77.512677 
L 175.174976 72.740941 
L 176.867488 72.144474 
L 177.713744 70.95154 
L 181.945024 65.285103 
L 183.637536 64.092169 
L 185.330047 63.197469 
L 187.022559 62.899235 
L 192.946351 62.302768 
L 198.870142 59.0222 
L 202.255166 57.829266 
L 203.101422 56.636332 
L 203.947678 51.268129 
L 204.793934 51.268129 
L 209.871469 50.671662 
L 215.795261 50.671662 
L 216.641517 49.478728 
L 218.334028 48.584027 
L 219.180284 47.689327 
L 230.181611 47.09286 
L 231.027867 41.724657 
L 240.336682 41.12819 
L 242.029194 38.444088 
L 249.645498 35.16352 
L 250.491754 35.16352 
L 253.876777 34.865286 
L 254.723033 33.970586 
L 257.261801 31.882951 
L 258.954313 31.882951 
L 264.031848 30.09355 
L 264.878104 26.812982 
L 265.72436 25.918281 
L 267.416872 25.620048 
L 275.879431 23.23418 
L 279.264455 23.23418 
L 282.649479 22.041246 
L 283.495735 21.444779 
L 286.880758 21.444779 
L 288.57327 21.146545 
L 291.112038 20.848312 
L 291.958294 20.251845 
L 292.80455 19.953611 
L 300.420853 19.357144 
L 315.65346 19.058911 
L 325.808531 18.16421 
L 330.886066 17.567743 
L 337.656114 16.374809 
L 357.12 15.480109 
L 357.12 15.480109 
" clip-path="url(#p11d5fd7f5a)" style="fill: none; stroke: #d5397b; stroke-opacity: 0.5; stroke-width: 1.5; stroke-linecap: square"/>
   </g>
   <g id="text_19">
    <!-- days: 422 -->
    <g style="fill: #cccccc" transform="translate(35.712 46.334237) scale(0.1 -0.1)">
     <defs>
      <path id="DejaVuSansMono-61" d="M 2194 1759 
L 2003 1759 
Q 1500 1759 1245 1582 
Q 991 1406 991 1056 
Q 991 741 1181 566 
Q 1372 391 1709 391 
Q 2184 391 2456 720 
Q 2728 1050 2731 1631 
L 2731 1759 
L 2194 1759 
z
M 3309 1997 
L 3309 0 
L 2731 0 
L 2731 519 
Q 2547 206 2267 57 
Q 1988 -91 1588 -91 
Q 1053 -91 734 211 
Q 416 513 416 1019 
Q 416 1603 808 1906 
Q 1200 2209 1959 2209 
L 2731 2209 
L 2731 2300 
Q 2728 2719 2518 2908 
Q 2309 3097 1850 3097 
Q 1556 3097 1256 3012 
Q 956 2928 672 2766 
L 672 3341 
Q 991 3463 1283 3523 
Q 1575 3584 1850 3584 
Q 2284 3584 2592 3456 
Q 2900 3328 3091 3072 
Q 3209 2916 3259 2686 
Q 3309 2456 3309 1997 
z
" transform="scale(0.015625)"/>
      <path id="DejaVuSansMono-79" d="M 2681 1125 
Q 2538 759 2316 163 
Q 2006 -663 1900 -844 
Q 1756 -1088 1540 -1209 
Q 1325 -1331 1038 -1331 
L 575 -1331 
L 575 -850 
L 916 -850 
Q 1169 -850 1312 -703 
Q 1456 -556 1678 56 
L 325 3500 
L 934 3500 
L 1972 763 
L 2994 3500 
L 3603 3500 
L 2681 1125 
z
" transform="scale(0.015625)"/>
      <path id="DejaVuSansMono-73" d="M 3041 3378 
L 3041 2816 
Q 2794 2959 2544 3031 
Q 2294 3103 2034 3103 
Q 1644 3103 1451 2976 
Q 1259 2850 1259 2591 
Q 1259 2356 1403 2240 
Q 1547 2125 2119 2016 
L 2350 1972 
Q 2778 1891 2998 1647 
Q 3219 1403 3219 1013 
Q 3219 494 2850 201 
Q 2481 -91 1825 -91 
Q 1566 -91 1281 -36 
Q 997 19 666 128 
L 666 722 
Q 988 556 1281 473 
Q 1575 391 1838 391 
Q 2219 391 2428 545 
Q 2638 700 2638 978 
Q 2638 1378 1872 1531 
L 1847 1538 
L 1631 1581 
Q 1134 1678 906 1908 
Q 678 2138 678 2534 
Q 678 3038 1018 3311 
Q 1359 3584 1991 3584 
Q 2272 3584 2531 3532 
Q 2791 3481 3041 3378 
z
" transform="scale(0.015625)"/>
      <path id="DejaVuSansMono-3a" d="M 1528 3322 
L 2316 3322 
L 2316 2375 
L 1528 2375 
L 1528 3322 
z
M 1528 953 
L 2316 953 
L 2316 0 
L 1528 0 
L 1528 953 
z
" transform="scale(0.015625)"/>
      <path id="DejaVuSansMono-20" transform="scale(0.015625)"/>
     </defs>
     <use xlink:href="#DejaVuSansMono-64"/>
     <use xlink:href="#DejaVuSansMono-61" transform="translate(60.205078 0)"/>
     <use xlink:href="#DejaVuSansMono-79" transform="translate(120.410156 0)"/>
     <use xlink:href="#DejaVuSansMono-73" transform="translate(180.615234 0)"/>
     <use xlink:href="#DejaVuSansMono-3a" transform="translate(240.820312 0)"/>
     <use xlink:href="#DejaVuSansMono-20" transform="translate(301.025391 0)"/>
     <use xlink:href="#DejaVuSansMono-34" transform="translate(361.230469 0)"/>
     <use xlink:href="#DejaVuSansMono-32" transform="translate(421.435547 0)"/>
     <use xlink:href="#DejaVuSansMono-32" transform="translate(481.640625 0)"/>
    </g>
    <!--  avg: 1.86 -->
    <g style="fill: #cccccc" transform="translate(35.712 59.891269) scale(0.1 -0.1)">
     <defs>
      <path id="DejaVuSansMono-76" d="M 313 3500 
L 909 3500 
L 1925 563 
L 2944 3500 
L 3541 3500 
L 2297 0 
L 1556 0 
L 313 3500 
z
" transform="scale(0.015625)"/>
      <path id="DejaVuSansMono-2e" d="M 1528 953 
L 2316 953 
L 2316 0 
L 1528 0 
L 1528 953 
z
" transform="scale(0.015625)"/>
     </defs>
     <use xlink:href="#DejaVuSansMono-20"/>
     <use xlink:href="#DejaVuSansMono-61" transform="translate(60.205078 0)"/>
     <use xlink:href="#DejaVuSansMono-76" transform="translate(120.410156 0)"/>
     <use xlink:href="#DejaVuSansMono-67" transform="translate(180.615234 0)"/>
     <use xlink:href="#DejaVuSansMono-3a" transform="translate(240.820312 0)"/>
     <use xlink:href="#DejaVuSansMono-20" transform="translate(301.025391 0)"/>
     <use xlink:href="#DejaVuSansMono-31" transform="translate(361.230469 0)"/>
     <use xlink:href="#DejaVuSansMono-2e" transform="translate(421.435547 0)"/>
     <use xlink:href="#DejaVuSansMono-38" transform="translate(481.640625 0)"/>
     <use xlink:href="#DejaVuSansMono-36" transform="translate(541.845703 0)"/>
    </g>
   </g>
   <g id="text_20">
    <!-- recording count in listen.ron over time -->
    <g style="fill: #cccccc" transform="translate(37.684688 9.181875) scale(0.12 -0.12)">
     <defs>
      <path id="DejaVuSansMono-75" d="M 609 1325 
L 609 3494 
L 1184 3494 
L 1184 1325 
Q 1184 853 1351 631 
Q 1519 409 1869 409 
Q 2275 409 2490 695 
Q 2706 981 2706 1516 
L 2706 3494 
L 3284 3494 
L 3284 0 
L 2706 0 
L 2706 525 
Q 2553 222 2289 65 
Q 2025 -91 1672 -91 
Q 1134 -91 871 261 
Q 609 613 609 1325 
z
" transform="scale(0.015625)"/>
      <path id="DejaVuSansMono-74" d="M 1919 4494 
L 1919 3500 
L 3225 3500 
L 3225 3053 
L 1919 3053 
L 1919 1153 
Q 1919 766 2066 612 
Q 2213 459 2578 459 
L 3225 459 
L 3225 0 
L 2522 0 
Q 1875 0 1609 259 
Q 1344 519 1344 1153 
L 1344 3053 
L 409 3053 
L 409 3500 
L 1344 3500 
L 1344 4494 
L 1919 4494 
z
" transform="scale(0.015625)"/>
      <path id="DejaVuSansMono-6c" d="M 1997 1269 
Q 1997 881 2139 684 
Q 2281 488 2559 488 
L 3231 488 
L 3231 0 
L 2503 0 
Q 1988 0 1705 331 
Q 1422 663 1422 1269 
L 1422 4447 
L 500 4447 
L 500 4897 
L 1997 4897 
L 1997 1269 
z
" transform="scale(0.015625)"/>
      <path id="DejaVuSansMono-6d" d="M 2113 3144 
Q 2219 3369 2383 3476 
Q 2547 3584 2778 3584 
Q 3200 3584 3373 3257 
Q 3547 2931 3547 2028 
L 3547 0 
L 3022 0 
L 3022 2003 
Q 3022 2744 2939 2923 
Q 2856 3103 2638 3103 
Q 2388 3103 2295 2911 
Q 2203 2719 2203 2003 
L 2203 0 
L 1678 0 
L 1678 2003 
Q 1678 2753 1589 2928 
Q 1500 3103 1269 3103 
Q 1041 3103 952 2911 
Q 863 2719 863 2003 
L 863 0 
L 341 0 
L 341 3500 
L 863 3500 
L 863 3200 
Q 966 3388 1120 3486 
Q 1275 3584 1472 3584 
Q 1709 3584 1867 3475 
Q 2025 3366 2113 3144 
z
" transform="scale(0.015625)"/>
     </defs>
     <use xlink:href="#DejaVuSansMono-72"/>
     <use xlink:href="#DejaVuSansMono-65" transform="translate(60.205078 0)"/>
     <use xlink:href="#DejaVuSansMono-63" transform="translate(120.410156 0)"/>
     <use xlink:href="#DejaVuSansMono-6f" transform="translate(180.615234 0)"/>
     <use xlink:href="#DejaVuSansMono-72" transform="translate(240.820312 0)"/>
     <use xlink:href="#DejaVuSansMono-64" transform="translate(301.025391 0)"/>
     <use xlink:href="#DejaVuSansMono-69" transform="translate(361.230469 0)"/>
     <use xlink:href="#DejaVuSansMono-6e" transform="translate(421.435547 0)"/>
     <use xlink:href="#DejaVuSansMono-67" transform="translate(481.640625 0)"/>
     <use xlink:href="#DejaVuSansMono-20" transform="translate(541.845703 0)"/>
     <use xlink:href="#DejaVuSansMono-63" transform="translate(602.050781 0)"/>
     <use xlink:href="#DejaVuSansMono-6f" transform="translate(662.255859 0)"/>
     <use xlink:href="#DejaVuSansMono-75" transform="translate(722.460938 0)"/>
     <use xlink:href="#DejaVuSansMono-6e" transform="translate(782.666016 0)"/>
     <use xlink:href="#DejaVuSansMono-74" transform="translate(842.871094 0)"/>
     <use xlink:href="#DejaVuSansMono-20" transform="translate(903.076172 0)"/>
     <use xlink:href="#DejaVuSansMono-69" transform="translate(963.28125 0)"/>
     <use xlink:href="#DejaVuSansMono-6e" transform="translate(1023.486328 0)"/>
     <use xlink:href="#DejaVuSansMono-20" transform="translate(1083.691406 0)"/>
     <use xlink:href="#DejaVuSansMono-6c" transform="translate(1143.896484 0)"/>
     <use xlink:href="#DejaVuSansMono-69" transform="translate(1204.101562 0)"/>
     <use xlink:href="#DejaVuSansMono-73" transform="translate(1264.306641 0)"/>
     <use xlink:href="#DejaVuSansMono-74" transform="translate(1324.511719 0)"/>
     <use xlink:href="#DejaVuSansMono-65" transform="translate(1384.716797 0)"/>
     <use xlink:href="#DejaVuSansMono-6e" transform="translate(1444.921875 0)"/>
     <use xlink:href="#DejaVuSansMono-2e" transform="translate(1505.126953 0)"/>
     <use xlink:href="#DejaVuSansMono-72" transform="translate(1565.332031 0)"/>
     <use xlink:href="#DejaVuSansMono-6f" transform="translate(1625.537109 0)"/>
     <use xlink:href="#DejaVuSansMono-6e" transform="translate(1685.742188 0)"/>
     <use xlink:href="#DejaVuSansMono-20" transform="translate(1745.947266 0)"/>
     <use xlink:href="#DejaVuSansMono-6f" transform="translate(1806.152344 0)"/>
     <use xlink:href="#DejaVuSansMono-76" transform="translate(1866.357422 0)"/>
     <use xlink:href="#DejaVuSansMono-65" transform="translate(1926.5625 0)"/>
     <use xlink:href="#DejaVuSansMono-72" transform="translate(1986.767578 0)"/>
     <use xlink:href="#DejaVuSansMono-20" transform="translate(2046.972656 0)"/>
     <use xlink:href="#DejaVuSansMono-74" transform="translate(2107.177734 0)"/>
     <use xlink:href="#DejaVuSansMono-69" transform="translate(2167.382812 0)"/>
     <use xlink:href="#DejaVuSansMono-6d" transform="translate(2227.587891 0)"/>
     <use xlink:href="#DejaVuSansMono-65" transform="translate(2287.792969 0)"/>
    </g>
   </g>
  </g>
 </g>
 <defs>
  <clipPath id="p11d5fd7f5a">
   <rect x="0" y="15.181875" width="357.12" height="235.008"/>
  </clipPath>
 </defs>
</svg>
